<svg xmlns="http://www.w3.org/2000/svg" overflow="visible" viewBox="165 58 806 1284"><g fill="none" fill-rule="evenodd"><path fill="#FDEA6B" d="M608 918h229v282H608z"/><path fill="#d08b5b" d="M541 642c25-19 87-27 113-9s29 48 41 75c12-6 31 2 34 13 4 5 4 19 7 25 123 20 142 116 157 226 20 110 64 221 45 335l6 12c5 7-1 18-10 17l-34-3H799c-162 2-323 6-485 7-6 0-9-5-8-11l5-31c-38 10-79 13-117 1-3-3 6-1 7-1-35-24-24-75-21-111 19-125 26-263 101-369 32-44 79-78 134-86h1c16-2 34-3 48-11 15-13 22-36 39-36 5 0 12 7 20 11 1-10 7-19 8-27 1-10-1-18 10-27Zm265 333c-34-24-124-12-126-11-4 3-6 3-9 7l-7 1c-5 2-1 8 4 6-3 14 7 24 11 39v17c0 7 7 14 6 20-4 21-26 42-17 63 6 12 24 18 36 22 25 10 69 0 83-22 8-11 17-40 21-49l1-14c3-36 5-74-3-79Z"/><path fill="#9DDADB" d="m501 685 10 6 58 28c11 4 17 7 17 12v44c0 6 10 20 31 41l20-20-1-2-3-22c0-4 19-19 57-45l17-16-2-5c10 0 21 7 24 15 4 5 4 19 7 25 123 20 142 116 157 226 20 110 64 221 45 335l6 12c5 7-1 18-10 17l-34-3H799c-162 2-323 6-485 7-6 0-9-5-8-11l5-31c-38 10-79 13-117 1-3-3 6-1 7-1-35-24-24-75-21-111 19-125 26-263 101-369 32-44 79-78 134-86h3c15-2 32-3 46-11 15-13 22-35 37-36Zm139 261c-6 0-18 9-35 27h-2c-21 10-35 19-42 26-7 8-21 27-41 60l-30 17h-11l-8 58 19 42 44-15 71-19 41-41 23-8c-3 8-4 16-1 24 6 12 24 18 36 22 25 10 69 0 83-22 8-11 17-40 21-49l2-19c2-34 4-69-4-74-34-24-124-12-126-11-4 3-6 3-9 7h-1l7-9-2-2c-18-9-30-14-35-14Zm28 32c-3 14 6 24 10 37l-11-21v-16h1Z"/><path fill="#000" d="M497 683c2-2 6 0 4 3a112 112 0 0 1-20 28l20 23c8 10 16 21 25 30s19 15 31 19l2 1c12 4 25 10 31 21 2 2-1 5-3 4-12-8-26-9-38-14-13-4-23-11-33-21l-25-29c-9-10-17-19-27-27-15 10-32 14-50 19h-1c-18 5-35 10-51 17-15 7-29 14-41 25-12 12-22 26-30 40-20 32-34 67-46 103a1054 1054 0 0 0-47 198c-1 10-1 21-5 30-1 5-4 6-7 6l-1 8a588 588 0 0 0-1 85v3c1 13 4 27 13 37 11 10 26 13 40 13 31 0 62-15 90-28a976 976 0 0 0 146-83l11-8c-2-2-3-5-1-7a63 63 0 0 1-17-41l3-33 2-17 1-7a918 918 0 0 1-142 62l-3 1a367 367 0 0 1-49 12l49-19 2-2h-1l-28-8c-9-3-18-5-26-9v-1c9-1 19 2 28 3l3 1 17 3c0-2 1-3 3-5 16-12 14-36 16-54l1-13a1187 1187 0 0 1 11-70c0 29-2 57-3 86v5c-1 18-1 36-13 50h5l3 6a1637 1637 0 0 0 124-60c3-2 6-1 8 2h1c4-3 10-1 14 2v1c4-2 9-5 13-9 8-7 15-16 21-25 11-17 20-36 35-50 12-11 27-18 43-22v-1c1-1 2-2 3-1l2-3a50 50 0 0 1 7-9c3-4 7-8 11-10 9-6 19-3 28 0l17 6h1c4 1 9 3 11 7v6c41-11 85-6 124 6l4 3c4 23 6 47 4 70-2 21-6 41-15 59v1c-8 17-21 38-40 44-11 3-24 1-36 1l-35-3c-10-2-19-6-25-14-5-7-8-16-11-25l-3 1-11 8c-7 7-13 16-20 22s-15 11-23 14c-17 8-35 11-54 15h-1c-13 3-27 6-39 14l-3 5c2 2 3 5 1 8-5 8-14 13-22 18l-1 1a1090 1090 0 0 1-157 86c2 8 1 17 2 25l1 2c0 3-1 5-3 7v1-1 1h-1v1h-8v-1c-3-1-5-5-4-8l7-24h-2l-3 2c-30 13-63 23-95 15-15-4-28-12-35-26-8-13-9-28-9-43a348 348 0 0 1 10-91c-2-1-3-3-3-6-2-11 1-23 2-34a1004 1004 0 0 1 53-215l2-3c13-35 28-68 49-98a145 145 0 0 1 80-60c16-6 32-9 48-12 17-2 35-3 50-10-2-4 0-8 3-11 11-7 22-16 32-25Zm356 320h2a547 547 0 0 0-18 191v2l1 67 1 33-3 18v16c1 3-5 3-5 0v-4l-4-17a444 444 0 0 1-6-50v-6c-2-43-2-86 1-129l1-3c3-40 8-84 30-118ZM738 749c-2-1-1-3 0-3l3 1c21 5 42 11 61 20 20 9 36 23 49 40 26 33 37 74 45 114l27 135 2 8c8 42 17 84 23 126v3c6 44 10 89 3 132-1 9-15 7-15-2a663 663 0 0 0-5-147l-11-62-1-3-10-52-4-26-24-117v-2c-9-37-21-76-46-106s-62-45-97-59Zm-92 394h3a456 456 0 0 1 5 112v4c-1 11-2 23-7 33-2 3-7 2-8-1-4-12-2-26-1-38v-9a1499 1499 0 0 0 5-79v-6c1-5 1-11 3-16Zm-408 17 1-2c5-4 11-12 19-11 2 0 4 2 4 5-2 6-8 9-12 13a281 281 0 0 0-26 25l-2 2c-1 1-11 10-10 12l-1 1c-4-1-4-5-2-8 3-8 9-14 13-20l16-17Zm423-178c-3-8-15-7-22-7-17 1-36 6-52 14s-26 21-36 36v1c-10 15-19 32-33 42-8 5-17 10-26 12 0 1-1 2-3 2l-10 1v48c0 8 1 17 5 25 3 5 7 9 12 13 12-8 25-12 39-15 16-4 33-7 49-12 8-3 15-6 22-11s12-11 18-18l1-1c5-6 12-13 20-16 7-3 16-4 22-9 3-2 3-6 4-9l-12-1h-2l-11-2v-2l13-2h13c0-3 1-5 3-8s6-8 6-12l-1-3v-1l-1-1c-3 1-6 0-7-3l-18 1h-23v-2c6-3 15-4 22-5l12-2 9-1c7-9 3-23-7-27-3 2-7 1-10 1l-12-1c-8 0-17 2-24 1-2 0-3-2-2-3 6-4 15-6 23-7h1l9-1c1-2 2-3 4-3h2c5-1 4-9 3-12Zm-328 152Zm412-169c-20-2-41-2-61-1-2 5-7 9-13 10 5 6 5 15 2 22a29 29 0 0 1 15 41c4 3 6 9 6 14-1 6-4 11-7 16-3 6-3 11-4 17-2 8-8 14-16 17l1 2c2 7 4 16 10 21 7 7 18 7 28 8h1l26 1 6 1c11 0 20 0 29-6 13-11 22-29 28-45 12-34 13-71 7-106-19-6-39-10-58-12Zm-168 55c4 1 7 4 8 8 2 6 1 11 4 17 4 5 6 9 7 16l1 8v2l1 6-3 4c-7 2-12-3-13-9-2-5 0-11-2-16l-4-7c-2-3-2-6-2-9-1-5 4-12 2-17-1-1 0-3 1-3Zm-85-56c4-1 9-3 13-2 3 1 4 4 2 6-3 3-8 3-12 4h-1a841 841 0 0 1-74 10l-4 1c-9 0-18 1-26-1v-2c9-3 19-3 29-5a964 964 0 0 0 73-11Zm156-9c-3-2-8-4-12-3-7 1-13 8-19 13l3-1c14-3 34-6 46 4v-1l3-3 1-1v-1h-1l-8-3-13-4ZM530 652c-1-8 11-8 11 0 2 16-2 33-10 47v1a235 235 0 0 0 35 15c7 2 14 2 20 7 11 8 6 27 4 38v2c-1 6-2 13 1 18 2 7 8 11 13 16l1 1 13 14c2-6 6-11 11-17 3-4 1-5-2-9-2-4-3-8-2-12 1-8 7-13 14-18l23-13a319 319 0 0 0 46-33c-11 17-24 31-40 44l-20 13-2 1c-2 2-6 4-7 7s2 5 3 8c4 8 2 15-3 22-6 7-10 13-11 21-5 18 1 37 7 53v1l10 27 1 3c2 8 4 17 1 25-1 3-5 4-6 1-6-10-8-21-11-32l-12-32c-4-13-7-28-5-42h-1l-1-3c-3-7-6-13-12-18-5-6-12-11-16-17-11-15-4-32-3-48v-2c0-3 0-8-2-10-2-3-8-3-11-5a186 186 0 0 1-47-24l-3-2c-6-5-11-9-15-15l1-1c6 2 12 6 17 10l1-1c7-13 10-27 9-41Zm195 87c2-6 13-6 13 2-1 6-3 12-6 17v1a210 210 0 0 1-31 45c-7 8-17 12-28 12l-13-4c-5-3-10-11-16-9l-1-1c7-6 15 3 22 5 10 3 21 0 28-9a283 283 0 0 0 27-43l5-16Zm-17-41c0-1 1-2 2-1l13 11 14 11c7 6-1 16-7 10-9-8-18-19-22-31Zm-26-32c2-7 13-4 12 3-3 12 1 24 10 32h1c6 5-3 14-9 9a43 43 0 0 1-14-44Z"/><path fill="#d08b5b" d="M780 455c-7-84-28-158-126-161-44 0-89 10-130 27-99 50-130 231-43 304v2c18 12 38 22 58 30 53 23 116 33 170 8 83-35 85-134 71-210Z"/><path fill="#000" d="M943 416c4-3 6-7 7-12 2-4 2-8 0-12-1-5-4-8-3-13v-1c3-9 9-15 7-25l-4-7 1-6c3-9 3-19-1-27l-2-13-1-11-8-16v-5l-6-7-4-7-2-4c2-4 3-8 1-13-1-2-4-3-6-3h-6c-4-5-9-9-14-12l-15-13-4-3-4-12-3-6c-5-2-12-3-17-3l-2-2c3-6 2-13-1-20-1-2-5-3-7-1-4 3-10 4-15 4l-46-37v-1l-10-11-2-1a21 21 0 0 1 5-11c4-4-1-10-6-7h-1l-12 5-5-2-16-6-8-3c-1-6-7-10-13-10a12 12 0 0 1 2-4c3-4-1-11-6-7h-1l-3 3h-7l-16 7v1c-3-3-6-5-10-5-3-4-7-6-12-6 0-5-5-10-10-11-6-1-11 3-13 9l-2 5c-4-3-9-5-14-6-12-2-23 1-34 4l-4 1-4-6c-3-3-9 0-8 4l-3 6a38 38 0 0 1-16-2c-2 0-4-2-5-4-4-6-14-8-19-2-5-2-12 1-15 5-1 3-5 4-8 5l-10 2c-1-2-4-3-6-2l-4 4c-10 1-21 1-31-3-8-3-16 6-15 14l-7 4a30 30 0 0 0-14 15l-6 5-9-4c-3-2-7-1-7 2-1 6-3 10-5 13l-25 16-27 6c-3 1-4 5-3 7l5 8-13 13c-11 14-21 29-29 44l-10 4c-3 1-5 5-2 8l3 4c-4 8-10 15-18 20-2 1-4 3-5 6l-2 2c-3 1-4 5-1 7l5 5 1 4c-8 6-14 14-18 23h-3c-8 6-8 16-5 24-2 13-1 26 3 39-5 5-8 12-9 19-2 12-3 31-3 43-6 5-9 12-12 19l-5 3c-2 1-3 3-3 5 1 8 4 15 9 21l7 13 7 9v1l-2 3c-4 8-4 18 2 25-2 2-2 6 0 9 14 16 26 35 45 44l1 1c-4 9-5 14-2 24 2 6 5 14 11 15l5 1 14 13 1 7c0 4 3 7 7 6l10-8 2 2c3 3 6 7 6 10 1 5 4 10 9 11 2 2 6 3 8 0h1l4 10c2 7 11 12 17 8l3 2 5 2v1c1 3 6 5 8 3l3 1c4 1 8 0 13-1l9-3h1c2 5 8 10 13 11 6 3 13 2 19-1l5 9c2 2 4 1 5 0l8-7 5-2 18-7 8-6 10-8 5-2c7-3 10-10 10-17a123 123 0 0 0 10-54l-2-8-1-3v-9l4-7c3-3 5-10 2-14l-6-7c1-11 3-28-2-30l1-5c1-8 0-14-4-21l-2-4-1-6-2-11-1-13a1256 1256 0 0 0 0-17c2-11 6-15 14-23h3c6-1 11-3 17-3 6 1 11 4 17 0 2-1 6-3 6-6h1c5 0 10 2 14 1 6 0 11-3 14-7 5 1 9 2 13 1 4 0 7-1 10-3 3-1 2-2 5-1 5 3 11 6 17 4 4-1 7-3 9-5l2-2 13 5h11l8-4c3-1 10 3 13 5 6 2 13 3 19 0 3 0 7-4 8-4 3 3 11 21 13 28 9 26 11 109 7 130l-1 1c-5 19-10 37-19 54-8 16-19 31-35 40s-36 11-54 10a189 189 0 0 1-53-11l-8-3c-5-2-7-2-11 0s-5 8-3 11c3 6 9 7 15 8a473 473 0 0 0 53 11 122 122 0 0 0 70-14l-3 4c-2 2 0 7 3 9l3 1v1c3 6 9 9 14 11h22l20-1h5l23-1c7 0 7 1 14-2l7-5 4-2 10-9c5 1 12 0 13-7 2-10 16-15 22-22 5-6 9-15 9-22 13-7 20-23 21-37l2-20 1-2c4-5 6-11 9-16 3-3 7-4 12-4a9 9 0 0 0 2-19c3-6 2-14-1-21l1-2c5-6 8-14 8-23l9-4c4-1 5-7 1-10l-4-3c3-8 2-17-3-23l9-12c3-3 4-7 0-10l-6-5Z"/><path fill="#000" d="M678 607c-7-3-13-7-18-13l-1-6a9 9 0 0 1 10-8l5 4c3 4 6 7 10 9l12 2c8-1 14-6 20-12a158 158 0 0 0 4-3h3l2 1v3c0 6-3 11-8 16s-12 8-19 9c-7 2-14 1-20-2Zm24-97c7 5 19 16 11 27-10 10-24-1-30-7-7-4-14 7-8 11 49 37 69-29 31-36-5-1-6 4-4 5Zm-88-42c1-10 17-13 18-2 2 9 0 17-4 26-4 7-14 4-15-3-1-10 0-14 1-21Zm120-4c2-3 5-5 9-4 12 3 9 20 4 28-2 5-9 6-12 2-6-6-8-19-2-25l1-1Zm-106-41h1c6-2 13-2 18 2 2 3 3 7 0 10-6 4-11 2-17 3l-15 2c-11 3-20 9-29 15-1 1-2-1-2-2 5-10 16-19 26-24l18-6Zm95-5h2c15 4 36 10 43 26v3l-2 1a36 36 0 0 1-9-4l-3-1-10-5-23-5-5-1-2-4c-1-3-1-4 1-6l3-3 5-1Z"/><path fill="#000" d="M703 549c-11-5-31 0-38 1-17 4-34 13-39 27-6 15 5 20 7 19 12 1 26-6 38-8 10-2 20-3 30-8 6 4 22 6 34 9 11 3 15 9 25 7 12-1 7-26-6-36a66 66 0 0 0-51-11Zm22 106c-10 2-10-19-12-27 0-6-5-21-17-20-13 0-17 13-17 21 1 5 6 31-9 34-10 0-21 0-31-2-12-3-28-12-32 6-1 7 51 27 74 29 24 4 52-3 68-21 4-4 15-21 16-25 1-9-2-15-13-12-8 5-21 15-27 17Z"/></g></svg>