<svg xmlns="http://www.w3.org/2000/svg" overflow="visible" viewBox="165 58 806 1341"><g fill="none" fill-rule="evenodd"><path fill="#d08b5b" d="M569 1380c-83 0-165-4-244-12l-4-1-36-4c-31-3-64-6-94-15l-5-2-1 2-2-1c5-78 13-154 20-218v-3l-2-2c-10-11-13-21-11-29 20-42 24-96 28-147 9-108 17-209 157-214h1c29-2 59-4 86-17l3-2 1-3c0-4 5-9 9-13l4-5h1c6-9 13-14 19-14 9 0 14 11 15 18l3 10 8-8c17-18 25-39 24-60l1-1-1-5c-1-9 0-16 3-20 4-5 12-7 25-7l25 2 8 1c15 1 32 4 48 7l2 1-2 4 4 3c5 3 9 10 10 19h1v1l4 23c1 15 3 29 11 42l5 8 5-8c3-4 6-6 10-6 12 0 25 13 28 23l1 3 3 1 53 17c38 12 58 18 70 35 13 18 19 49 30 111 11 67 19 136 27 203 9 84 19 171 37 255-2 1-3 2-3 4l-24 1-38 4h-3l-1 1a210 210 0 0 0-9 1v-1h-4c-104 12-207 18-306 18"/><path fill="#FFF" d="M499 680c9 0 14 11 15 18l3 10 4-4-7 13 61 56 2 2c25 17 42 26 51 26s37-23 83-68l-25-16 2-7 5 8 5-8c3-4 6-6 10-6 12 0 25 13 28 23l1 3 5 2 44 14 16 5c32 10 50 16 61 32 12 18 19 48 29 107l1 4c11 64 18 130 26 194l3 25c8 79 18 160 35 239-2 1-3 2-3 4l-16 1-15 1-31 3h-3l-1 1h-3l-6 1v-1h-4a2753 2753 0 0 1-550 6l-4-1-29-3-14-1c-29-3-59-6-87-15l-5-2-1 2-2-1v-6c5-75 13-149 20-212v-3l-2-2c-10-11-13-21-11-29 20-42 24-96 28-147l1-7c8-104 19-200 151-206l5-1h6c28-2 56-5 81-17l3-2 1-3c0-4 4-8 8-12l2-3 3-3h1c6-9 13-14 19-14Z"/><path fill="#000" d="M392 965h1c-4 23-12 45-17 67v1c2 7 8 34-6 27l-1 6c-19 99-35 200-32 301 0 8-4 32-16 21-8-14-5-32-5-47 1-86 10-173 32-256l1-3c15-45 15-31 8-82 0-4-3-15 1-17a506 506 0 0 1 13 34c6-18 12-36 21-52Zm237 394c8-3 16 6 13 14-2 8-18 13-18 2-5-5-3-13 3-15l2-1Zm200-455h1c2 10 0 20 0 30l5-8c2-2 5 1 3 3-4 5-6 12-7 18 7 138 26 276 59 411 7 18-22 26-19 6-22-95-39-191-43-288-5-42-3-87-2-130l3-42ZM536 622c8 1 13 14 14 21 6 29-10 59-31 78 31 28 65 53 101 73 5-5 14-4 20-1l58-56c-30-19-32-57-26-89v-1c1-2 4-1 4 1l1 2c1 20 2 42 13 60 13-20 44 0 48 18 130 46 132 19 157 168 26 153 34 309 64 461 0 4-3 7-7 8-15 2-16-38-19-49-7-42-13-85-18-127-14-125-19-253-48-376-3-10-7-21-14-29-30-32-82-25-114-54 3 9 3 20 3 30l-10 162c0 6-8 8-11 3l-82-119c-4 2-8 3-13 2-8 10-5 35-7 49l-1 10c-15 159-25 318-24 478v20c-4 16-19 10-18-4-1-179 6-359 36-536l-80 101c-2 3-6 2-8-1l1 2-4-3c-14-32-23-67-33-101-9-33-22-66-27-100-13 7-28 11-43 11-16 5-34 7-51 9-121 5-145 125-144 225v5c-1 29-2 60-9 89-3 5-11 40-20 28-7 9-5 15 5 21 17 14 33 38 36 62 1 4-5 8-8 3l-1-3c-6-14-13-28-23-40l-1 2-11 177c-2 8 2 62-15 48h-1c-4-8-1-18-1-27l3-28c5-58 9-116 16-173v-1c-8-10-16-22-12-35 2-8 9-12 14-17 25-134-19-341 176-347l8-1c26-2 54-5 77-16 1-9 10-16 15-21 16-23 38-24 46 5 20-22 29-48 19-77Zm87 647c10-9 24 8 5 21-3 6-12 2-11-5v-1c0-5 0-12 6-15Zm1-129c19-6 14 27 2 32-8 4-10-6-9-11-5-7 0-17 7-21Zm0-97c-4-14 17-16 17-1 1 6-5 10-6 15-1 4-5 7-8 4-5-5-6-12-3-18Zm-3-127c2-17 21-10 15-7h-1c8 1 7 10 7 16-4 13-23 1-21-9Zm-117-54Zm11-160c-19-31-28 4-42 17 10 67 38 129 57 194l81-103 4-6c-33-20-65-43-92-71-5 1-9-6-12-9h-1c-3-3-6-8-4-12v-1l9-9Zm212 64c2-22-2-53-31-48 5 7 15 8 20 15 2 3 0 7-4 8l-67 62 76 101 6-138Z"/><path fill="#d08b5b" d="M780 455c-7-84-28-158-126-161-44 0-89 10-130 27-99 50-130 231-43 304v2c18 12 38 22 58 30 53 23 116 33 170 8 83-35 85-134 71-210Z"/><path fill="#000" d="M943 416c4-3 6-7 7-12 2-4 2-8 0-12-1-5-4-8-3-13v-1c3-9 9-15 7-25l-4-7 1-6c3-9 3-19-1-27l-2-13-1-11-8-16v-5l-6-7-4-7-2-4c2-4 3-8 1-13-1-2-4-3-6-3h-6c-4-5-9-9-14-12l-15-13-4-3-4-12-3-6c-5-2-12-3-17-3l-2-2c3-6 2-13-1-20-1-2-5-3-7-1-4 3-10 4-15 4l-46-37v-1l-10-11-2-1a21 21 0 0 1 5-11c4-4-1-10-6-7h-1l-12 5-5-2-16-6-8-3c-1-6-7-10-13-10a12 12 0 0 1 2-4c3-4-1-11-6-7h-1l-3 3h-7l-16 7v1c-3-3-6-5-10-5-3-4-7-6-12-6 0-5-5-10-10-11-6-1-11 3-13 9l-2 5c-4-3-9-5-14-6-12-2-23 1-34 4l-4 1-4-6c-3-3-9 0-8 4l-3 6a38 38 0 0 1-16-2c-2 0-4-2-5-4-4-6-14-8-19-2-5-2-12 1-15 5-1 3-5 4-8 5l-10 2c-1-2-4-3-6-2l-4 4c-10 1-21 1-31-3-8-3-16 6-15 14l-7 4a30 30 0 0 0-14 15l-6 5-9-4c-3-2-7-1-7 2-1 6-3 10-5 13l-25 16-27 6c-3 1-4 5-3 7l5 8-13 13c-11 14-21 29-29 44l-10 4c-3 1-5 5-2 8l3 4c-4 8-10 15-18 20-2 1-4 3-5 6l-2 2c-3 1-4 5-1 7l5 5 1 4c-8 6-14 14-18 23h-3c-8 6-8 16-5 24-2 13-1 26 3 39-5 5-8 12-9 19-2 12-3 31-3 43-6 5-9 12-12 19l-5 3c-2 1-3 3-3 5 1 8 4 15 9 21l7 13 7 9v1l-2 3c-4 8-4 18 2 25-2 2-2 6 0 9 14 16 26 35 45 44l1 1c-4 9-5 14-2 24 2 6 5 14 11 15l5 1 14 13 1 7c0 4 3 7 7 6l10-8 2 2c3 3 6 7 6 10 1 5 4 10 9 11 2 2 6 3 8 0h1l4 10c2 7 11 12 17 8l3 2 5 2v1c1 3 6 5 8 3l3 1c4 1 8 0 13-1l9-3h1c2 5 8 10 13 11 6 3 13 2 19-1l5 9c2 2 4 1 5 0l8-7 5-2 18-7 8-6 10-8 5-2c7-3 10-10 10-17a123 123 0 0 0 10-54l-2-8-1-3v-9l4-7c3-3 5-10 2-14l-6-7c1-11 3-28-2-30l1-5c1-8 0-14-4-21l-2-4-1-6-2-11-1-13a1256 1256 0 0 0 0-17c2-11 6-15 14-23h3c6-1 11-3 17-3 6 1 11 4 17 0 2-1 6-3 6-6h1c5 0 10 2 14 1 6 0 11-3 14-7 5 1 9 2 13 1 4 0 7-1 10-3 3-1 2-2 5-1 5 3 11 6 17 4 4-1 7-3 9-5l2-2 13 5h11l8-4c3-1 10 3 13 5 6 2 13 3 19 0 3 0 7-4 8-4 3 3 11 21 13 28 9 26 11 109 7 130l-1 1c-5 19-10 37-19 54-8 16-19 31-35 40s-36 11-54 10a189 189 0 0 1-53-11l-8-3c-5-2-7-2-11 0s-5 8-3 11c3 6 9 7 15 8a473 473 0 0 0 53 11 122 122 0 0 0 70-14l-3 4c-2 2 0 7 3 9l3 1v1c3 6 9 9 14 11h22l20-1h5l23-1c7 0 7 1 14-2l7-5 4-2 10-9c5 1 12 0 13-7 2-10 16-15 22-22 5-6 9-15 9-22 13-7 20-23 21-37l2-20 1-2c4-5 6-11 9-16 3-3 7-4 12-4a9 9 0 0 0 2-19c3-6 2-14-1-21l1-2c5-6 8-14 8-23l9-4c4-1 5-7 1-10l-4-3c3-8 2-17-3-23l9-12c3-3 4-7 0-10l-6-5Z"/><path fill="#000" d="M678 607c-7-3-13-7-18-13l-1-6a9 9 0 0 1 10-8l5 4c3 4 6 7 10 9l12 2c8-1 14-6 20-12a158 158 0 0 0 4-3h3l2 1v3c0 6-3 11-8 16s-12 8-19 9c-7 2-14 1-20-2Zm24-97c7 5 19 16 11 27-10 10-24-1-30-7-7-4-14 7-8 11 49 37 69-29 31-36-5-1-6 4-4 5Zm-88-42c1-10 17-13 18-2 2 9 0 17-4 26-4 7-14 4-15-3-1-10 0-14 1-21Zm120-4c2-3 5-5 9-4 12 3 9 20 4 28-2 5-9 6-12 2-6-6-8-19-2-25l1-1Zm-106-41h1c6-2 13-2 18 2 2 3 3 7 0 10-6 4-11 2-17 3l-15 2c-11 3-20 9-29 15-1 1-2-1-2-2 5-10 16-19 26-24l18-6Zm95-5h2c15 4 36 10 43 26v3l-2 1a36 36 0 0 1-9-4l-3-1-10-5-23-5-5-1-2-4c-1-3-1-4 1-6l3-3 5-1Z"/><path fill="#000" d="M703 549c-11-5-31 0-38 1-17 4-34 13-39 27-6 15 5 20 7 19 12 1 26-6 38-8 10-2 20-3 30-8 6 4 22 6 34 9 11 3 15 9 25 7 12-1 7-26-6-36a66 66 0 0 0-51-11Zm22 106c-10 2-10-19-12-27 0-6-5-21-17-20-13 0-17 13-17 21 1 5 6 31-9 34-10 0-21 0-31-2-12-3-28-12-32 6-1 7 51 27 74 29 24 4 52-3 68-21 4-4 15-21 16-25 1-9-2-15-13-12-8 5-21 15-27 17Z"/></g></svg>