<svg viewBox="145.83783783783792 57.487499999999955 825.1351351351352 1322.2124999999999" xmlns="http://www.w3.org/2000/svg" overflow="visible" xmlns:xlink="http://www.w3.org/1999/xlink" width="825.1351351351352px" height="1322.2124999999999px"><g id="Master/Character/Bust" stroke="none" stroke-width="1" fill="none" fill-rule="evenodd"><g id="Body" transform="translate(147.000000, 639.000000) scale(1 1)"><g id="Body/Hoodie" stroke="none" stroke-width="1" fill="none" fill-rule="evenodd"><path d="M790.747889,715.54329 C810.073889,714.61029 802.300889,680.80529 800.913889,668.39029 C785.612889,623.04629 789.209889,573.57429 783.191889,526.04629 C779.442889,481.67829 774.625889,437.44829 770.573889,393.11429 C762.615889,303.12029 705.468901,119.916434 640.253589,90.4527903 C632.038589,54.4067903 598.107682,20.7585623 555.177749,20.7585623 C525.897749,-13.9004377 490.654889,-38.2927097 445.451889,-33.3677097 C426.771889,-32.5177097 408.656089,-12.7057097 390.757089,-8.87970967 C380.735089,-7.49770967 291.794889,-11.0547097 273.978889,-0.473709672 C261.568889,5.89829033 250.365889,17.6732903 254.014889,32.6642903 C259.836889,50.8262903 241.743889,31.1742903 204.000889,50.5592903 C127.037685,96.7824468 173.027685,158.618927 175.065685,160.534927 C127.037685,227.357927 85.058889,281.57029 65.635889,363.24729 C53.047889,423.88629 54.464889,486.48529 43.917889,547.43529 C40.193889,568.56929 34.480889,588.98029 28.298889,609.50329 C21.598889,636.36229 18.3410489,703.305961 14.6480489,703.903961 C7.92104891,705.574961 18.535889,719.38729 25.663889,719.39829 C223.287889,752.17929 424.025889,720.75629 622.711889,715.62229 C678.704889,713.67529 734.757889,713.22629 790.747889,715.54329 Z" id="Skin" fill="#d08b5b"/><path d="M391.005505,49.9619361 C391.005505,70.9938224 464.035638,149.145838 489.239049,143.990015 C506.041322,140.5528 531.427969,118.136539 565.398988,76.7412327 L565.398988,49.9619361 L558.062162,20.8093272 C599.621816,22.274211 632.223459,55.2179668 640.253589,90.4527903 C704.816748,119.621798 761.472142,299.471587 770.320433,390.386754 L770.573889,393.11429 C774.625889,437.44829 779.442889,481.67829 783.191889,526.04629 C789.209889,573.57429 785.612889,623.04629 800.913889,668.39029 L801.004504,669.160424 C802.600969,682.144342 809.687369,714.62895 790.747889,715.54329 C734.757889,713.22629 678.704889,713.67529 622.711889,715.62229 C424.025889,720.75629 223.287889,752.17929 25.663889,719.39829 C18.535889,719.38729 7.92104891,705.574961 14.6480489,703.903961 C18.3410489,703.305961 21.598889,636.36229 28.298889,609.50329 L29.5707328,605.258477 C35.2594288,586.161541 40.4507165,567.111773 43.917889,547.43529 C54.464889,486.48529 53.047889,423.88629 65.635889,363.24729 C85.058889,281.57029 127.037685,227.357927 175.065685,160.534927 C173.027685,158.618927 127.037685,96.7824468 204.000889,50.5592903 C241.743889,31.1742903 259.836889,50.8262903 254.014889,32.6642903 C250.365889,17.6732903 261.568889,5.89829033 273.978889,-0.473709672 C291.794889,-11.0547097 380.735089,-7.49770967 390.757089,-8.87970967 C395.412787,-9.87488828 400.083154,-11.9516302 404.774302,-14.4949135 L403.960551,-11.7852106 C395.323696,17.1607061 391.005505,37.7433061 391.005505,49.9619361 Z" id="Jacket" fill="#9FD8E5"/><path d="M491.219189,166.43309 C491.311189,165.52809 492.531189,165.53009 492.625189,166.43309 L494.020438,179.90224 C495.718046,196.352315 497.352332,212.770376 498.537189,229.29709 C500.014189,249.90609 501.002189,270.51009 501.478189,291.16509 C503.138189,363.10209 503.468189,435.07709 503.608189,507.03209 C513.339189,506.35809 523.071189,505.70909 532.808189,505.08109 C539.414189,504.654424 546.020633,504.24509 552.627819,503.842424 L569.475189,502.82084 L569.475189,502.82084 L576.411189,502.39509 C581.098189,502.10509 586.423189,500.92509 589.700189,505.07709 C591.012189,506.73909 591.670189,508.89909 590.447189,510.87209 C587.626189,515.42309 583.293189,515.26409 578.392189,515.46109 C573.768189,515.64809 569.144189,515.83109 564.520189,516.00909 C554.611189,516.39409 544.703189,516.75709 534.791189,517.03509 C524.389189,517.32709 513.992189,517.56409 503.594189,517.74109 C503.488972,548.117612 502.232147,578.456327 500.873112,608.799315 L500.258189,622.45409 C498.595189,659.38009 496.806189,696.33809 494.265189,733.21509 C494.056189,736.23409 489.785189,736.22809 489.578189,733.21509 C486.716189,691.68609 484.828189,650.06809 482.956189,608.48309 C481.598189,578.33209 480.808189,548.17309 480.432189,518.01009 C479.057189,518.01909 477.683189,518.03809 476.309189,518.04309 C437.282189,518.21309 398.265189,518.38309 359.238189,518.01709 C359.303189,518.09409 359.367189,518.17109 359.410189,518.27309 C362.234189,524.94009 362.503189,533.44809 362.434189,540.60309 C362.355189,548.80909 361.250189,556.91509 359.360189,564.89509 C352.588791,593.483348 335.123141,619.088802 315.230705,640.258353 L314.581189,640.94709 C309.889189,645.90509 304.506189,650.88609 301.625189,657.20109 C298.682374,663.64909 297.66092,671.191302 296.208788,678.119504 L296.039189,678.91609 L290.361189,705.14209 C288.557189,713.47209 288.045189,725.62109 281.451189,731.63109 C275.299189,737.23909 267.149189,734.31009 264.254189,727.09009 C261.993189,721.45509 264.245189,715.26609 265.584189,709.63409 L276.075318,665.534056 C277.799164,658.342396 279.682775,651.103539 283.403189,644.64309 C287.214189,638.02609 292.801189,633.22909 298.502189,628.32109 C309.297189,619.02709 319.207189,608.38709 327.588189,596.86709 C335.966189,585.35109 343.126189,572.65709 348.147189,559.30909 C350.661189,552.62709 352.721189,545.68509 354.142189,538.68709 C355.493189,532.04609 355.481189,525.16809 356.926189,518.59809 C357.025189,518.14409 357.408189,517.83309 357.847189,517.69509 C357.743189,517.40209 357.902189,517.00609 358.312189,516.98009 L390.229732,514.929165 C418.601495,513.098909 446.972007,511.221818 475.318189,509.07709 L480.327189,508.71509 L480.327189,508.71509 C479.938189,468.47009 480.268189,428.21709 480.995189,387.95709 C481.661189,351.03809 481.675189,314.10909 482.773189,277.19509 C483.319189,258.87409 484.496189,240.59609 485.806189,222.31309 C487.146189,203.61509 489.291189,185.07509 491.219189,166.43309 Z M191.527089,380.49819 C191.187089,378.44819 193.766089,377.17819 194.955089,379.05319 C208.546089,400.47519 215.099089,423.74419 217.861089,448.81319 C220.301089,470.93819 219.582089,493.38219 218.367089,515.56519 C217.071089,539.22519 215.559089,562.87919 214.030089,586.52619 L211.680964,622.789315 L211.680964,622.789315 L205.786089,713.69819 C205.364089,720.20119 203.888089,726.11419 198.289089,729.13719 C197.580089,729.72919 196.841089,730.26019 195.980089,730.72019 C192.955089,732.33719 188.943089,731.52019 187.194089,728.41619 L187.895361,728.877502 C188.506209,729.26211 187.820289,728.72499 185.837089,727.26819 L184.154089,725.09019 L184.154089,725.09019 C182.931089,723.25219 182.150089,721.44519 181.836089,719.26019 C181.348089,715.86519 181.980089,712.14119 182.202089,708.72919 L186.066089,649.11719 L186.066089,649.11719 C189.071089,602.77419 192.580089,556.44419 195.225089,510.07719 C196.457089,488.46719 197.320089,466.83619 196.736089,445.18819 C196.154089,423.66019 195.057089,401.76719 191.527089,380.49819 Z M309.101031,-18.5571401 L309.855089,-18.6837097 C336.850089,-23.1677097 366.204089,-22.3287097 390.875089,-9.31570967 C391.079089,-9.20870967 390.986089,-8.86970967 390.757089,-8.87970967 L382.816201,-9.19684108 C357.67727,-10.1812856 332.616184,-10.7639954 307.898089,-4.85770967 L305.367671,-4.24815629 C296.465987,-2.07666619 287.170132,0.581203372 280.020089,6.46029033 C273.186089,12.0802903 269.783089,20.7492903 266.511089,28.7302903 L266.07348,29.7834895 C262.753654,37.6658132 258.551685,45.1413542 251.275089,50.0702903 C241.850089,56.4532903 230.515089,55.6712903 219.708089,56.5382903 C200.680089,58.0672903 185.123089,71.8572903 177.383089,88.7322903 C172.696089,98.9502903 170.697089,110.40629 170.301089,121.58029 C170.098089,127.26929 170.069089,133.18029 170.827089,138.83129 C171.069089,140.63829 173.303089,147.22129 174.442089,147.06329 C176.973089,146.71229 179.287089,148.03229 180.076089,150.05529 C186.328089,144.01529 192.760089,138.14929 199.399089,132.49429 C215.948089,118.40129 233.773089,105.62829 252.545089,94.6522903 C266.872089,86.2742903 281.984089,77.9742903 297.633089,71.6992903 C296.393089,71.6732903 295.170089,71.9192903 293.987089,72.5342903 C293.469089,72.8052903 292.954089,72.1552903 293.363089,71.7252903 C298.292089,66.5392903 304.196089,65.8012903 310.148089,67.1842903 C311.418089,66.7802903 312.689089,66.3892903 313.965089,66.0182903 C314.600089,65.8332903 314.916089,66.7082903 314.398089,67.0462903 L312.936089,67.9802903 L312.936089,67.9802903 C319.429089,70.1552903 325.804089,74.4302903 330.851089,77.8042903 C345.349089,87.4932903 358.110089,99.3382903 371.046089,110.96129 L373.398107,113.068393 C384.784663,123.235191 396.461283,133.114806 409.398089,141.27129 C416.170089,145.54029 423.283089,149.48929 430.744089,152.42629 C437.143089,154.94729 447.562089,156.53429 450.559089,163.29729 C453.223089,166.53329 452.110089,170.66329 448.990089,172.84129 C443.728089,178.63229 433.202089,174.89129 426.932089,172.47929 C419.373089,169.57129 412.050089,166.07629 405.066089,161.97729 C391.507089,154.01729 379.005089,144.12029 367.359089,133.59229 C355.196089,122.59629 343.723089,110.91529 331.893089,99.5742903 C326.767375,94.6602903 321.759946,89.6309434 316.626465,84.7242903 L314.048089,82.2822903 C311.428089,79.8252903 307.695089,75.9952903 303.704089,73.6772903 C296.185089,78.1622903 288.550089,82.4622903 281.099089,87.0632903 C270.698089,93.4852903 260.603089,100.37029 250.664089,107.48229 C231.530089,121.17329 213.398089,136.50729 196.565089,152.94329 C165.693089,183.08529 139.391089,217.50529 116.414089,253.95129 L114.669233,256.728789 C101.612441,277.589372 89.2649826,299.122758 80.510089,322.17329 C70.877089,347.53829 66.192089,374.21129 63.647089,401.13629 C61.121089,427.86829 60.269089,454.73529 57.446089,481.44229 C54.551089,508.83329 48.847089,535.61929 42.359089,562.35529 L40.8117302,568.69392 C34.9411204,592.638391 28.8818187,616.582885 25.864089,641.09229 C24.253089,654.18429 23.284089,667.45529 23.503089,680.65329 C23.723089,693.92829 25.809089,706.90929 27.492089,720.04429 C28.137089,725.07629 23.185089,729.27629 18.754089,729.94329 C13.658089,730.70829 9.28008896,727.45729 7.69608896,722.72329 C2.75808896,707.96629 1.86108896,691.65329 2.01608896,676.16429 C2.17208896,660.43929 4.17908896,644.81729 7.00308896,629.36329 C12.557089,598.96529 21.128089,569.19629 28.298089,539.16229 C34.617089,512.69029 38.858089,486.17229 41.144089,459.05329 C43.517089,430.91729 44.938089,402.68729 49.267089,374.75429 C53.540089,347.17829 61.580089,320.83829 73.705089,295.69329 C84.745089,272.79929 98.507089,251.25029 112.935089,230.36329 C130.456089,205.00029 149.699089,180.86529 171.209089,158.87529 C169.277089,158.79129 167.293089,158.16729 165.471089,157.03129 C159.897089,153.55429 157.301089,146.75329 156.503089,140.54329 C154.635089,126.01629 155.086089,110.85029 158.822089,96.6472903 C164.849089,73.7352903 180.491089,53.3772903 203.161089,45.1182903 C208.996089,42.9922903 215.199089,42.2162903 221.383089,42.0632903 C227.251089,41.9172903 233.660089,42.6822903 239.322089,40.8222903 C248.334437,37.8598661 252.197446,27.2456914 255.581237,19.1997793 L255.737089,18.8302903 C260.076089,8.57729033 265.284089,-0.210709672 274.682089,-6.61270967 C284.708756,-13.4443555 297.271362,-16.5511901 309.101031,-18.5571401 L309.101031,-18.5571401 Z M565.598589,21.9907903 C573.710589,19.1767903 583.852589,21.7307903 591.785589,24.1887903 C600.623589,26.9287903 608.790589,31.9747903 615.792589,37.9677903 C623.179589,44.2877903 629.284589,52.0917903 633.597589,60.8097903 L634.009945,61.6496832 C637.9494,69.7366025 642.435894,80.8385191 640.449589,89.7227903 C640.392589,89.9747903 640.327589,90.2177903 640.253589,90.4527903 C656.348589,98.3757903 671.212589,108.29979 684.156589,120.87779 C699.228589,135.52279 711.990589,152.18779 722.790589,170.19179 C765.684349,241.69931 773.233827,327.579182 778.299889,409.128087 L779.563387,429.805176 C782.313969,474.454103 785.533444,518.997318 793.895589,563.02979 L794.505713,566.208719 C803.444333,612.3112 816.239791,658.766004 814.943589,706.05979 C814.554589,720.22979 793.612589,720.13379 793.005589,706.05979 C790.719589,653.08679 778.357589,601.94079 769.986589,549.79579 C755.257589,458.05479 762.637589,363.47479 741.767589,272.65279 C733.577589,237.01079 720.890589,202.43779 702.773589,170.62279 C693.824589,154.90579 683.585589,139.71879 671.591589,126.15979 C661.272589,114.49279 650.547589,103.26479 638.488589,93.4567903 C634.634589,97.3167903 626.935589,95.3497903 624.923589,89.7227903 C623.541589,85.8557903 623.944589,81.3347903 623.057589,77.2837903 C622.234589,73.5247903 621.099589,69.7977903 619.587589,66.2577903 C616.573589,59.2027903 612.149589,52.4277903 607.042589,46.7177903 C601.525589,40.5457903 595.184589,35.4177903 588.089589,31.1837903 C580.945589,26.9207903 573.132589,25.6477903 565.598589,22.5327903 C565.344589,22.4277903 565.320589,22.0877903 565.598589,21.9907903 Z M597.114889,512.28569 C597.126889,511.91369 597.565889,511.73769 597.835889,511.98669 C600.679889,514.60369 602.398889,518.35969 604.491889,521.57869 C606.905889,525.29069 609.440889,528.92669 612.098889,532.46869 C617.424889,539.56469 623.353889,546.25269 629.329889,552.80569 C634.887889,558.89969 640.811889,564.73669 646.956889,570.23869 C653.614889,576.20169 661.075889,581.52069 667.124889,588.12269 C679.74668,601.89876 681.786273,620.806185 684.449169,638.559457 L684.740889,640.47969 C686.364889,651.01569 687.819889,661.57969 689.131889,672.15869 C689.769889,677.30469 690.405889,682.45569 690.925889,687.61469 L691.084712,689.24919 C691.548285,694.299869 691.673328,699.423763 688.772889,703.83669 C685.667889,708.55769 678.608889,710.21269 674.411889,705.68569 C667.200889,697.90869 668.552889,684.09469 667.614889,674.08969 C666.840032,665.816547 665.960848,657.55369 664.976708,649.303008 L664.475889,645.17869 C663.315889,635.79269 662.373889,626.21969 660.226889,616.99669 C658.333889,608.87469 654.726889,602.74469 648.808889,596.86069 C642.846889,590.93369 636.651889,585.40069 631.148889,579.01769 C625.311889,572.24769 620.046889,564.98869 615.302889,557.41269 C611.24531,550.93269 607.992795,543.880978 605.013074,536.837439 L604.518889,535.66369 C601.638889,528.79469 596.889889,519.85269 597.114889,512.28569 Z M701.227189,217.24119 C701.290189,216.28319 702.706189,216.26819 702.727189,217.24119 C702.906189,225.48119 703.078189,233.72119 703.249189,241.96219 C704.625189,308.36419 703.777189,374.92319 710.439189,441.09719 C713.581189,472.29819 719.367189,503.04019 726.062189,533.65419 C729.488189,549.31919 733.082189,564.94719 736.497189,580.61419 C739.825189,595.88319 743.394189,611.22619 746.034189,626.63719 C748.628397,641.783649 750.951677,657.046744 751.994512,672.387751 L752.123189,674.38919 C752.572189,681.82019 754.715189,692.75019 750.623189,699.33719 C746.189189,706.47319 737.700189,706.60119 732.949189,699.78919 C728.488189,693.39419 729.597189,682.01819 728.809189,674.38919 C728.008189,666.61619 727.161189,658.83719 726.199189,651.08219 C724.322189,635.95519 721.849189,620.86219 719.277189,605.83819 C713.920189,574.55019 706.150189,543.65619 700.415189,512.41819 C694.537189,480.40919 690.359189,448.17119 690.183189,415.58119 C690.008189,382.71419 693.487189,349.91119 695.243189,317.11619 C697.027189,283.80819 699.055189,250.52519 701.227189,217.24119 Z M387.546889,10.7074903 C389.329889,4.70449033 395.621889,0.951490328 401.759889,2.63749033 C407.384889,4.18349033 412.028889,11.0104903 409.829889,16.8514903 C407.429889,23.2254903 403.235889,28.6604903 399.699889,34.4534903 C396.433889,39.8064903 391.669889,44.0214903 388.342889,49.2794903 L392.009113,53.2320023 C393.843409,55.2036503 395.682889,57.1634903 397.542889,59.0894903 L403.937389,65.7133103 C408.917609,70.8609703 413.929189,75.9811903 419.081889,80.9504903 C434.233889,95.5654903 449.625889,109.70049 466.594889,122.21649 C470.457889,125.06449 474.350889,127.89649 478.352889,130.54849 L479.845142,131.537364 C482.590768,133.335008 485.654108,135.102084 488.970889,134.79749 C497.030492,134.057473 504.312615,125.498222 509.85101,120.170835 L510.140889,119.89349 C523.865889,106.83449 536.574889,92.5564903 547.685889,77.2044903 C550.152889,73.7934903 552.541889,70.3244903 554.867889,66.8144903 C549.495889,60.5394903 550.778889,48.2904903 550.482889,40.6804903 C550.273889,35.3294903 550.257889,29.9774903 550.228889,24.6224903 L550.214259,23.542654 C550.14882,20.076669 549.992576,16.7524591 552.241889,13.9004903 C552.372889,13.7354903 552.643889,13.7404903 552.810889,13.8274903 C555.891656,15.4418237 556.840955,18.1447848 558.155497,21.1767015 L558.292889,21.4914903 C559.892889,25.1304903 561.424889,28.8034903 562.974889,32.4634903 C564.597889,36.2954903 566.085889,40.1834903 567.593889,44.0614903 C568.295889,45.8654903 568.965889,47.6764903 569.620889,49.4974903 C570.019889,50.6604903 570.432889,51.8174903 570.856889,52.9724903 L570.956889,53.0614903 C571.516889,53.5364903 571.991889,54.0384903 572.400889,54.5564903 C574.119889,55.4164903 575.485889,56.9834903 576.126889,59.2854903 C577.521889,64.2964903 574.634889,68.3824903 572.059889,72.3594903 C561.599889,88.5194903 549.675889,103.91849 536.421889,117.88749 C529.837889,124.82749 522.912889,131.45549 515.702889,137.74249 L514.442459,138.834193 C507.965578,144.400073 500.933767,149.672409 492.283889,150.97449 C482.161308,152.497716 473.923015,147.463398 466.174191,141.664694 L465.400889,141.08249 C458.054889,135.52149 450.856889,129.76549 443.882889,123.74449 C429.663889,111.46849 416.136889,98.2874903 404.131889,83.8264903 C392.453889,69.7604903 380.910889,54.0324903 373.712889,37.1074903 C373.273889,36.0764903 374.427889,34.9974903 375.331889,35.8584903 C378.847889,39.2054903 382.230889,42.7344903 385.573889,46.3084903 C385.666889,41.0474903 384.695889,35.7414903 385.235889,30.4474903 C385.894889,24.0124903 385.704889,16.9034903 387.546889,10.7074903 Z" id="Ink" fill="#000"/></g></g><g id="Head" transform="translate(372.000000, 180.000000) scale(0.9978902953586498 1)"><g id="Head/Long Afro" stroke="none" stroke-width="1" fill="none" fill-rule="evenodd"><path d="M408.5136,274.9444 C401.6496,191.2694 380.7496,117.1594 282.5446,113.9994 C238.2266,114.3954 192.9876,123.8104 152.2336,141.2304 C53.1776,190.8964 21.7486,372.3774 109.0196,445.4314 C108.5006,445.7264 108.3756,446.5794 108.9886,446.9914 C127.0186,459.1214 147.0596,469.1014 167.1316,477.4874 C220.5976,500.0914 283.5386,509.9094 338.0656,485.3904 C421.2786,449.9824 422.5266,351.4574 408.5136,274.9444 L408.5136,274.9444 Z" id="Skin" fill="#d08b5b"/><path d="M572.3058,235.9435 C575.7258,232.8635 578.2758,228.8235 579.5658,224.2935 C580.7458,220.1635 580.8258,215.6535 579.5758,211.5335 C578.2358,207.1135 575.3458,203.5935 575.9958,198.9935 C576.0658,198.5435 576.1558,198.0735 576.2958,197.6035 C578.7958,188.9435 584.9458,182.6935 582.7458,173.0935 C582.1258,170.3835 580.9558,167.9435 579.3258,166.0235 C579.5058,163.9435 579.6658,161.8435 579.7958,159.7435 C583.4058,151.2935 583.2758,141.2535 579.4258,132.9335 C578.9558,128.6735 578.2458,124.4535 577.2458,120.3035 C577.7058,116.6335 577.0658,112.5935 575.8858,109.3835 C573.8128,103.7355 571.2508,98.1695 568.4708,92.6955 C568.7978,91.1985 568.6508,89.6165 567.8248,88.2095 C566.3228,85.6525 564.3378,83.4045 562.3088,81.2075 C560.8738,78.6445 559.4288,76.1025 557.9958,73.5935 C557.3318,72.4405 556.5988,71.1615 555.7908,69.8065 C557.9928,65.7205 559.1688,61.7385 556.8398,56.9335 C555.9648,55.1285 553.5588,53.7975 551.5778,53.9155 C549.4128,54.0445 547.2278,54.1415 545.0308,54.2245 C540.9248,49.2665 536.2718,44.8155 531.2858,42.2535 C526.2358,37.9735 521.1158,33.7735 516.1358,29.4835 C514.7258,28.2635 513.3058,27.0435 511.8958,25.8235 C511.8858,25.7935 511.8758,25.7535 511.8658,25.7235 C510.8258,21.9335 509.6558,18.1935 508.4858,14.4335 C507.7558,12.1035 507.5358,9.6635 505.2658,8.3935 C500.5258,5.7435 493.2358,5.3235 487.7958,4.8735 C487.2558,4.3935 486.7158,3.9235 486.1758,3.4435 C488.6458,-3.1365 488.2058,-10.1265 485.0958,-16.7165 C484.0358,-18.9565 480.3558,-19.9665 478.3358,-18.4865 C473.6758,-15.0665 468.1458,-13.8565 462.6758,-14.3565 C454.6358,-20.5365 422.2058,-48.4825 417.1948,-51.4325 C417.1328,-51.5385 417.0828,-51.6445 417.0168,-51.7495 C414.1998,-56.2475 410.7788,-59.8595 406.9328,-62.7555 C406.3838,-63.3285 405.8348,-63.9025 405.2858,-64.4765 C405.7688,-67.9055 407.0398,-71.2165 409.0858,-73.9865 C409.3058,-74.3065 409.5558,-74.6165 409.8058,-74.9165 C413.3858,-79.1765 409.0158,-84.6565 404.0158,-82.4265 C403.6558,-82.2665 403.2958,-82.1065 402.9358,-81.9365 C399.0918,-80.2225 394.8388,-78.3595 390.4098,-76.7875 C388.7888,-77.3945 387.1368,-77.9445 385.6298,-78.5505 L369.4938,-85.0375 C366.8378,-86.1055 364.0298,-87.0105 361.4608,-88.2655 C360.5648,-94.2245 354.5928,-98.1325 348.3908,-97.9285 C348.7488,-99.0725 349.2828,-100.1835 350.0358,-101.2365 C350.2558,-101.5465 350.4958,-101.8465 350.7458,-102.1365 C353.9358,-105.8465 349.6758,-112.7265 345.1158,-109.4265 C344.7958,-109.1965 344.4658,-108.9665 344.1458,-108.7365 C342.8788,-107.8475 341.5818,-107.0135 340.2708,-106.2055 C338.1718,-107.1215 335.8078,-107.3305 333.3338,-106.3615 C327.8558,-104.2165 322.8058,-102.0355 317.9828,-98.6735 C317.7868,-98.5365 317.5838,-98.4215 317.3858,-98.2925 C314.9918,-101.1845 311.1908,-103.1185 307.7678,-103.0975 C307.6978,-103.0975 307.6438,-103.0985 307.5818,-103.0995 C305.0228,-106.9985 300.3318,-109.2645 295.8018,-108.7135 C296.1078,-114.3085 290.5068,-119.3015 285.4078,-119.9085 C279.4498,-120.6165 274.0798,-117.1575 272.2918,-111.3455 C271.7938,-109.7275 271.2968,-108.1085 270.7988,-106.4895 C266.1728,-108.8245 261.2908,-110.6135 256.1908,-111.5065 C244.5778,-113.5405 233.2228,-111.3745 222.0318,-108.1505 C220.9138,-107.8285 219.7968,-107.4975 218.6798,-107.1675 C217.0838,-109.0165 215.5868,-110.9095 214.1558,-112.6765 C211.6858,-115.7265 205.7558,-113.2865 206.1558,-109.3665 C206.4338,-106.6615 205.3348,-104.7155 203.5658,-103.3325 C201.6228,-103.0485 199.7448,-102.9625 196.9128,-103.0195 C193.1698,-103.0955 191.4668,-103.2125 187.5528,-104.7385 C185.7288,-105.4485 183.4578,-107.3155 182.3948,-108.9915 C178.3198,-115.4185 167.9688,-117.1495 163.0388,-111.0215 C157.8508,-113.2925 151.3008,-110.1605 148.4208,-105.7445 C146.9138,-103.4355 143.7698,-102.1445 139.8118,-101.0345 C136.8408,-100.2025 133.8028,-99.5725 130.7508,-99.0215 C129.3908,-100.8665 126.5268,-102.1035 124.4258,-100.5565 C123.0028,-99.5055 121.6208,-98.4265 120.2578,-97.3205 C109.7478,-95.8725 99.2928,-95.8205 89.2718,-99.9185 C80.7878,-103.3885 72.9978,-93.9115 74.3978,-85.9555 C71.9408,-84.6765 69.2748,-83.8255 66.8478,-82.4855 C61.5528,-79.5595 57.2048,-74.9345 54.5548,-69.5005 C54.0798,-68.5275 53.6508,-67.5395 53.2418,-66.5465 C51.2628,-64.9355 49.3058,-63.2815 47.3958,-61.5365 C44.2158,-63.1665 41.0458,-64.7965 37.8658,-66.4265 C35.4858,-67.6465 31.4758,-66.7965 31.0058,-63.6365 C30.2358,-58.4365 28.3658,-54.1265 25.6958,-50.5165 C17.0158,-45.9565 8.6658,-40.8365 0.6758,-35.1465 C-8.5142,-32.2665 -18.2842,-30.5865 -26.3142,-28.6965 C-29.0642,-28.0465 -30.5642,-24.4565 -29.0142,-22.0665 C-27.3742,-19.5365 -25.7342,-17.0065 -24.1042,-14.4765 C-28.6742,-10.0165 -32.9642,-5.3565 -37.0142,-0.5365 C-48.2842,12.8635 -57.7142,27.5535 -66.1542,43.1135 C-69.4942,44.4635 -72.8342,45.8035 -76.1742,47.1535 C-79.3942,48.4535 -80.8442,52.1935 -78.2342,54.9435 C-76.9942,56.2535 -75.8842,57.6335 -74.9342,59.0835 C-79.6642,66.9135 -85.2342,74.0535 -93.0242,78.7335 C-95.3942,80.1535 -97.1742,82.3835 -98.1242,84.9135 C-98.9342,85.4535 -99.7342,86.0335 -100.5242,86.6235 C-102.7242,88.2835 -104.0542,91.9035 -101.4742,94.0535 C-99.6642,95.5735 -97.9642,97.3735 -96.5242,99.3635 C-96.2142,100.4935 -95.8942,101.6335 -95.5742,102.7635 C-102.8142,109.4235 -108.8342,117.1635 -113.3542,125.8435 C-114.4242,125.6735 -115.5242,125.7835 -116.4142,126.4435 C-124.4942,132.4135 -124.7342,141.9235 -121.4842,150.4235 C-123.4442,163.2335 -122.1842,176.3635 -118.4042,188.7735 C-123.3742,193.7335 -126.3642,200.8935 -127.5842,207.7935 C-129.7342,219.9135 -129.8842,238.5535 -130.4442,250.9235 C-135.8642,256.1535 -139.7242,262.9235 -141.8742,270.2035 C-143.6842,271.1035 -145.4942,272.0035 -147.3042,272.9035 C-148.9142,273.7035 -150.0942,275.8135 -150.000111,277.5935 C-149.5342,286.2035 -145.9842,293.0035 -141.2742,299.1635 C-139.6042,303.9135 -137.1342,308.2935 -133.8942,312.4935 C-131.6542,315.3735 -129.4642,318.1335 -127.5342,321.2435 C-127.3342,321.5535 -127.2142,321.8435 -127.1242,322.0435 C-127.8842,322.8635 -128.5142,324.2235 -129.0642,325.1935 C-133.6842,333.3335 -133.7542,342.8735 -127.1942,349.9635 C-129.6642,351.9835 -129.7442,356.0635 -127.5642,358.5635 C-113.3742,374.7735 -101.5442,394.4835 -81.8542,403.0935 C-81.7642,403.2435 -81.6842,403.3935 -81.6142,403.5435 C-85.6042,413.1435 -86.1442,418.1335 -82.8842,428.0535 C-82.8642,428.1435 -82.8342,428.2235 -82.8042,428.3135 C-81.0642,433.5135 -77.8642,441.8435 -72.0942,443.4635 C-70.2742,443.9735 -68.4842,444.2035 -66.7142,444.1935 C-62.1342,448.6035 -57.5642,453.0235 -52.9942,457.4435 C-52.5942,459.6335 -52.3442,461.8435 -52.2642,464.0735 C-52.1342,467.8035 -48.6242,470.8235 -44.8442,469.7235 C-43.5142,469.3335 -36.1542,462.1835 -34.8042,462.2235 C-34.1242,462.9035 -33.4642,463.5835 -32.8042,464.2735 C-30.3742,466.8235 -27.0042,470.8435 -26.7242,473.5135 C-26.1842,478.5435 -22.8842,484.3035 -17.5542,485.3235 C-15.5542,487.3535 -12.3542,487.9635 -9.9042,485.3135 C-9.7442,485.1435 -9.5842,484.9735 -9.4142,484.8235 C-9.1542,484.7935 -8.9042,484.7635 -8.6442,484.7335 C-7.4642,488.2535 -6.2842,491.7735 -5.0942,495.2835 C-2.7642,502.2035 6.1358,506.6535 12.4558,502.6135 C13.4758,503.2235 14.4758,503.8735 15.4758,504.5235 C16.9958,505.4935 18.5358,506.4835 20.1158,507.4135 C20.2058,507.6735 20.2958,507.9335 20.3758,508.1835 C21.3958,511.2935 25.6358,512.9635 28.2458,511.1735 C29.0558,511.4335 29.8858,511.6435 30.7258,511.8135 C35.1358,512.6835 39.5758,512.4435 43.8358,510.9735 C46.8858,509.9335 49.7958,507.9435 53.0758,507.6735 C53.2808,507.6565 53.4918,507.6705 53.6998,507.6645 C56.3758,513.1465 62.4908,517.8705 67.3098,519.4755 C73.6218,521.5785 80.0818,520.8265 85.8298,518.2515 C87.3808,521.3525 89.3288,524.2885 91.6558,527.0035 C92.9458,528.5035 95.2758,528.1835 96.6058,527.0035 C99.1318,524.7645 101.6418,522.5145 104.1478,520.2615 C105.9618,519.5625 107.7928,518.7235 109.7028,517.9435 C115.6768,515.5035 122.2258,514.4925 127.7508,510.9665 C130.3738,509.2925 132.8408,507.1565 134.8728,504.6815 C138.7008,502.4715 142.2178,499.7185 145.3858,496.5635 C146.9658,496.5735 148.6158,496.2035 150.2158,495.3935 C156.9058,491.9935 160.4258,485.0735 160.7358,477.9935 C166.1558,465.2435 169.3558,451.6435 170.2358,437.7235 C170.5158,433.1535 170.5658,428.5435 170.2158,423.9735 C169.9758,420.7535 169.1658,418.6035 167.9458,415.6935 C167.5358,414.7435 167.1658,413.8735 166.8758,412.9135 C166.9458,409.8335 166.9858,406.7535 167.0258,403.6835 C167.8558,401.0935 169.3358,398.6835 171.3958,396.6535 C174.5858,393.5135 176.0458,386.9935 173.1458,383.1135 C171.2558,380.6035 169.3758,378.0935 167.4858,375.5835 C168.0158,364.8135 170.5958,347.6735 164.8758,345.8735 C165.1058,344.2735 165.5958,342.6935 165.8758,341.1035 C167.2158,333.4635 166.4158,326.6335 162.3558,319.9535 C161.5058,318.5635 160.7858,317.3335 160.1958,316.1335 C159.8258,313.9335 159.4558,311.7335 159.0858,309.5335 C158.5158,306.1435 157.9558,302.7235 157.4758,299.2835 C157.2258,294.9035 156.9958,290.5235 156.7458,286.1335 C156.5158,282.0935 156.2558,278.0535 155.9858,274.0035 C156.0958,272.1935 156.2558,270.3835 156.4858,268.5735 C157.8558,257.7835 162.2658,253.7935 169.9058,246.2935 C171.1058,246.1035 172.2958,245.8935 173.4658,245.6535 C178.9158,244.5235 184.6158,242.7735 190.2258,243.4035 C196.3158,244.0835 201.7658,246.7135 207.6858,243.3535 C209.4258,242.3535 213.2558,239.5935 213.5858,237.4035 C213.6058,237.2635 213.6358,237.1435 213.6758,237.0535 C214.0858,236.9935 214.6158,236.9435 214.9458,236.9335 C219.6458,236.7735 224.1358,238.6235 228.8758,238.1135 C234.4858,237.5135 239.5058,235.0235 242.8058,231.3335 C247.0358,232.3735 251.3558,232.8435 255.7458,232.2635 C259.4258,231.7835 262.7258,230.5835 265.9858,228.8035 C268.3558,227.5235 267.6058,227.1535 270.1858,228.1935 C276.0558,230.5735 281.3658,233.7135 287.9758,232.0835 C291.4058,231.2435 294.3658,229.3935 296.8558,226.9035 C297.4458,226.3235 298.4458,225.4535 299.1158,224.6335 C302.2558,226.2235 310.1558,229.8135 311.4558,230.1335 C315.1358,231.0335 319.0358,230.8935 322.6158,229.6935 C325.2458,228.8135 328.4658,226.4135 330.7758,225.9235 C333.7658,225.2835 340.4058,229.4435 343.9758,230.8735 C350.2358,233.3835 356.8658,234.0035 363.2058,231.4135 C365.3858,230.5235 369.6258,226.9735 371.2558,227.0035 C373.9058,230.2735 381.3058,248.1635 383.5258,254.6935 C392.5158,281.0935 394.8458,363.5235 390.6958,384.5535 C390.5358,385.1735 390.3658,385.7835 390.1958,386.4035 C385.0958,404.6935 379.7858,423.2935 371.2558,440.3335 C363.2058,456.3935 352.0758,470.8535 336.1058,479.6235 C319.5458,488.7235 300.1058,491.1135 281.4858,489.8835 C269.4958,489.1035 257.7058,486.6935 246.1058,483.6735 C240.0458,482.1035 234.0358,480.3535 228.0558,478.5335 C225.4458,477.7435 222.7958,477.0035 220.2358,476.0835 C215.7158,474.4535 213.3458,474.3235 209.0158,476.4135 C205.0758,478.3135 204.0658,483.9235 206.1158,487.4535 C209.4558,493.2135 215.5758,493.6135 221.4858,495.2935 C227.5058,497.0035 233.5458,498.6435 239.6258,500.1135 C251.2758,502.9135 263.1158,505.0635 275.0558,506.0535 C296.4358,507.8435 318.4658,505.0835 337.9258,495.7535 C340.1258,494.6935 342.2458,493.5635 344.2958,492.3435 C343.5358,493.4035 342.7658,494.4635 341.9858,495.5135 C339.8258,498.4235 341.4258,503.3735 344.4558,504.9635 C345.4158,505.4635 346.3758,505.9435 347.3458,506.4135 C347.4758,506.7235 347.6158,507.0335 347.7758,507.3435 C350.5458,512.9035 356.3458,516.1835 362.2558,517.6035 C369.2758,519.2835 377.1358,518.0935 384.2758,517.8835 C390.8958,517.6835 397.5158,517.4835 404.1258,517.2835 C405.6858,517.2435 407.2458,517.1935 408.8058,517.1435 C416.6658,516.9035 424.5158,516.6735 432.3658,516.4335 C439.3658,516.2235 439.0358,516.7635 445.6058,513.9635 C448.5358,512.7035 450.9358,510.9235 452.9558,508.5535 C454.2158,507.9935 455.4358,507.3535 456.6058,506.6235 C460.3658,504.2835 463.7058,501.1435 466.7858,497.6835 C472.0158,499.3335 479.3458,497.8035 480.3658,491.2335 C482.0058,480.7235 495.6658,476.2335 502.0458,468.6335 C507.1958,462.5035 510.8758,454.4735 510.6858,446.7635 C523.6658,440.4835 530.7258,423.9335 532.3758,409.8935 C533.1458,403.3835 533.0258,396.4135 534.1358,389.7935 C534.6258,389.2635 535.0658,388.7035 535.4358,388.1035 C538.6958,382.8335 541.5358,377.4035 544.0358,371.8435 C547.4358,369.3935 551.5258,367.8835 555.8058,367.6335 C566.3258,367.0235 568.3058,352.8335 558.2758,349.4135 C558.2258,349.3935 558.1858,349.3835 558.1358,349.3635 C560.8558,342.5635 560.6258,334.5135 557.3258,328.0735 C557.4658,327.3735 557.5958,326.6835 557.7258,325.9835 C563.3558,319.9335 566.5858,311.5235 566.2258,303.3335 C568.7958,301.5235 571.6758,300.1235 574.8258,299.2535 C579.6958,297.9135 579.7258,291.9735 576.1258,289.3135 C574.6758,288.2435 573.4758,286.9935 572.4758,285.6135 C574.9658,278.1335 573.9858,269.4835 568.8958,263.3435 C572.1258,259.2035 575.3558,255.0635 578.5858,250.9235 C580.7258,248.1835 581.8558,243.5335 578.5858,240.9335 C576.4958,239.2635 574.4058,237.6035 572.3058,235.9435 Z" id="Ink" fill="#000"/></g></g><g id="Face" transform="translate(531.000000, 366.000000) scale(1 1)" fill="#000"><g id="Face/Smile Big" stroke="none" stroke-width="1" fill="none" fill-rule="evenodd"><path d="M79.1996019,197.798966 C90.1214942,191.222404 130.944848,196.042976 163.01327,197.798966 C188.478595,199.193385 206.667356,196.429949 212.488767,200.348155 C225.641067,209.200546 219.252652,252.006116 196.589222,257.86012 C173.925792,263.714125 89.9129827,271.890526 75.4275085,257.86012 C60.9420343,243.829714 59.6047058,209.597931 79.1996019,197.798966 Z" id="teeth" fill="#FFF"/><path d="M93.3467129,186.476493 C110.488788,184.396013 127.104995,189.644043 143.862898,192.289481 C152.710839,193.685435 161.569756,194.727668 170.523469,195.115267 C172.32459,195.193982 174.126708,195.239817 175.928826,195.276684 C176.096465,193.690417 176.984552,192.233683 178.908408,191.360838 C182.851913,189.573299 186.008114,188.767213 190.337788,188.93959 C194.301251,189.096024 198.278683,189.503551 202.181276,190.217969 C209.268011,191.517272 216.386677,194.465615 221.570511,199.588099 C233.567668,211.441255 231.741602,230.480436 222.47157,243.39077 C203.319435,270.068282 168.364112,271.306425 138.426282,270.958393 L135.66356,270.922255 C108.404278,270.532663 69.4042864,274.596972 57.019963,243.583075 C52.465773,232.178299 53.0984103,218.959081 58.6743992,208.020619 C65.3250733,194.973778 79.3249167,188.178341 93.3467129,186.476493 Z M178.495298,230.894938 L178.250824,230.904902 C165.682896,231.389151 153.116964,231.72992 140.542051,231.952117 C140.918241,235.181444 141.302413,238.411767 141.741468,241.63412 C142.085726,244.169954 142.454931,246.702799 142.839103,249.232654 C143.001753,250.303783 143.598468,251.966772 143.429831,253.027936 L143.368962,253.44742 L143.368962,253.44742 C144.014571,253.739364 144.600309,254.209664 145.03637,254.892197 C145.188043,255.128344 145.297807,255.366483 145.407571,255.603626 C155.170541,255.680348 165.676909,255.491033 175.629471,253.716447 L175.649428,253.500229 L175.649428,253.500229 C175.830039,252.228824 176.358899,251.372918 177.061386,250.786039 C177.76088,246.731694 177.697017,242.411311 177.967435,238.38885 C178.136071,235.889883 178.318678,233.392909 178.495298,230.894938 Z M130.93774,232.123497 C121.87903,232.277607 112.816379,232.396289 103.759597,232.285698 L99.6481393,232.22214 L99.6481393,232.22214 C100.516269,236.880303 101.461234,241.522523 102.246542,246.211574 C103.065777,251.098909 98.7640436,254.205679 95.0410632,254.080133 C95.4591626,254.148884 95.8762641,254.219628 96.2943635,254.278416 C107.926308,255.92347 120.004291,255.487047 131.808863,255.474094 C131.173731,251.767293 131.431054,247.584788 131.336033,244.49078 L131.317921,244.011527 C131.13731,240.046857 131.010583,236.085177 130.93774,232.123497 Z M69.4062821,231.268587 C69.720605,233.690832 70.3322874,236.061264 71.2473164,238.268286 C75.1139873,247.592582 83.9788918,251.943854 93.3586871,253.776231 C91.7311928,253.214262 90.4389764,251.864142 90.1126792,249.551502 C89.299431,243.801286 89.0070608,237.955417 88.9851081,232.116522 C82.448189,232.055742 75.8673645,231.916246 69.4062821,231.268587 Z M212.584867,229.277783 C207.930891,230.375814 202.522541,229.872633 197.956377,230.079884 C193.678592,230.274182 189.398811,230.443569 185.121025,230.616943 C185.322591,233.537386 185.519168,236.456834 185.732708,239.375285 C186.008114,243.147649 186.034059,247.134239 186.756502,250.890661 C195.365957,247.952282 203.08034,243.240314 208.867873,235.705549 C210.309767,233.828335 211.600986,231.625298 212.584867,229.277783 Z M91.3799494,201.775194 C83.6326376,203.609563 76.3004317,207.484557 72.3599198,214.573932 C70.020958,218.780726 68.9921741,223.766703 69.1897485,228.679944 C75.7376439,227.917699 82.3982965,227.628744 89.0270178,227.389608 C89.0489705,226.195923 89.0771321,225.003566 89.1129808,223.813719 L89.2151053,220.764114 C89.3957906,214.947692 89.4865796,207.643706 91.3799494,201.775194 Z M131.479572,202.48463 L128.069104,202.101567 C118.596243,201.022247 109.128468,199.889225 99.6551242,200.538664 C98.2840775,200.633321 96.892076,200.782781 95.4970809,200.987043 C97.1714741,207.029203 97.0307772,214.125552 97.7302705,220.106932 C98.000688,222.419573 98.3419529,224.713282 98.7201382,226.998024 L100.363598,226.921301 L100.363598,226.921301 C110.528702,226.370293 120.703784,226.031517 130.876871,225.627976 C130.876122,223.71788 130.8866,221.806663 130.917143,219.894746 L130.954703,217.982611 C131.070454,213.099262 130.755133,207.598146 131.479572,202.48463 Z M179.049105,201.709432 C169.127476,203.310644 158.873564,203.651412 149.127558,203.663369 C145.234942,203.668351 141.344323,203.429215 137.455699,203.084462 C137.709153,205.154977 137.84087,207.249407 138.031459,209.291027 C138.415432,213.416914 138.854327,217.536423 139.331283,221.652107 L139.756743,225.25333 L139.756743,225.25333 C152.260808,224.686379 164.763876,224.073594 177.264948,223.438888 L179.029148,223.344231 L179.029148,223.344231 L179.523638,216.423284 C179.860246,211.808262 180.23056,207.194273 180.753433,202.600212 L180.361278,202.458723 L180.361278,202.458723 C179.900271,202.269408 179.463213,202.008351 179.049105,201.709432 Z M183.357823,203.427223 C183.904645,209.952636 184.206994,216.504952 184.609128,223.041325 L192.850339,222.601065 C194.223751,222.526187 195.597126,222.449797 196.970501,222.370749 C202.310997,222.062862 209.173215,220.445708 214.452843,221.954255 C214.855974,217.154604 213.48393,212.478506 209.152261,209.254161 C201.547641,203.590632 191.864499,205.607342 183.357823,203.427223 Z M155.2009,145.0937 C167.4729,138.0657 198.2639,130.8827 200.2139,152.9677 C201.11069,163.130663 193.55511,171.551452 184.732334,175.308984 L184.4009,175.4477 C176.1259,178.8497 161.4589,182.6917 154.2979,175.3147 C148.3379,169.1747 156.2429,158.1657 163.6489,163.1957 C167.454921,165.779721 175.466095,163.875752 179.713009,162.646215 L179.9789,162.5687 C184.5619,161.2217 190.6719,156.9107 188.7769,151.2677 C187.0999,146.2757 179.9639,145.3637 175.4949,145.2017 C168.8239,144.9627 162.3319,146.5117 155.7219,147.0157 C154.6749,147.0957 154.3519,145.5797 155.2009,145.0937 Z M206.0359,109.581 C222.6919,108.801 233.0529,126.987 229.2229,141.888 C228.5609,144.459 225.6849,146.983 222.9089,146.694 L222.209444,146.629632 C221.8541,146.59548 221.4971,146.5506 221.1689,146.46 C218.5329,145.73 216.1699,142.988 216.3619,140.146 L216.412906,139.317884 C216.801522,132.278753 216.038672,124.168709 207.6729,122.464 C200.5779,121.018 196.6169,127.847 196.5329,134.133 C196.5169,135.249 195.2629,136.028 194.2759,135.428 C189.1469,132.307 188.2589,126.098 190.2179,120.751 C192.7009,113.976 198.9149,109.914 206.0359,109.581 Z M82.4329,113.4814 C94.5539,109.4374 107.6309,115.8984 113.4999,126.6144 C115.5589,127.2104 117.6149,128.7974 117.3289,131.2274 C116.9159,134.7234 116.2939,136.9274 113.8699,139.5784 C110.078488,143.725503 102.977604,141.605092 101.401739,136.499971 L101.3349,136.2694 C99.5449,129.6704 92.2809,125.3164 85.6639,127.6264 C77.9339,130.3244 78.1579,138.4884 72.7359,143.2444 C72.0989,143.8034 71.3349,143.8924 70.5709,143.5234 C64.8119,140.7404 65.8469,132.3644 67.8999,127.5704 C70.5929,121.2794 75.8269,115.6844 82.4329,113.4814 Z M65.9254,76.6741 C75.7474,66.6521 101.3594,56.9541 108.0784,75.4611 C109.3584,78.9861 106.6334,83.7391 102.9634,84.4701 C96.9534,85.6661 91.6214,83.0571 85.6514,83.5251 C80.8184,83.9061 75.7774,85.5211 71.9134,88.5151 C61.2114,96.8071 58.8574,110.8321 51.4004,121.3861 C51.0374,121.9001 50.3324,121.6841 50.2654,121.0781 C48.5674,105.7131 55.1674,87.6501 65.9254,76.6741 Z M194.0206,66.8082 C200.5386,64.5062 207.9196,64.7032 214.4716,66.7452 C221.0716,68.8032 227.1306,72.7112 231.7986,77.8172 C233.9166,80.1352 235.8766,82.6932 237.4486,85.4162 C238.2836,86.8592 239.1616,89.8402 240.1106,91.6152 C245.245093,94.5796058 247.439689,101.334701 242.842821,106.140464 L242.6356,106.3512 L242.0206,106.9612 C239.5496,109.4072 235.8236,110.4672 232.4506,109.4902 C224.9026,107.3062 223.9856,101.3612 221.3726,95.0512 C219.6466,90.8832 216.6896,87.1952 213.1046,84.4862 C204.6316,78.0862 190.7386,76.0472 180.5376,79.0632 C179.9946,79.2242 179.3566,78.5322 179.7436,78.0302 C181.6766,75.5262 182.7906,73.4712 185.3786,71.4512 C188.0056,69.4012 190.8726,67.9202 194.0206,66.8082 Z" id="Ink" fill="#000"/></g></g><g id="Beard" transform="translate(494.999934, 517.999659) scale(1 1)" fill="#000"><g id="Beard/Mustache and Goatee" stroke="none" stroke-width="1" fill="none" fill-rule="evenodd"><path d="M207.9143,31.3282 C196.7933,26.3192 176.8233,30.6902 169.5733,32.4282 C152.7183,36.4702 135.7623,45.2052 130.5223,58.8902 C124.6173,74.3132 136.3993,79.1682 138.1323,78.3752 C149.8003,79.1972 163.6953,71.8622 175.9223,69.9692 C185.8483,68.4192 196.3193,67.0662 205.6193,61.7922 C212.4093,65.5272 227.7453,67.5462 240.1223,70.8122 C250.6633,73.5922 255.2303,79.6212 265.0023,78.3392 C276.7143,76.8032 271.9203,52.1702 258.8673,42.1912 C244.5813,31.2702 220.4193,26.8412 207.9143,31.3282 Z M229.9341,136.6535 C220.204493,139.025645 219.5511,117.7005 218.4611,110.1665 C217.609542,104.280593 212.806884,89.1015762 200.6311,89.7565 C188.455316,90.4114238 183.878432,103.128761 184.4961,111.0385 C184.896642,116.16777 189.62335,142.149551 174.5361,145.4365 C164.9171,145.4025 153.7891,144.7535 143.6751,142.8885 C131.7711,140.1925 116.291914,130.753365 112.2031,149.3425 C110.731534,156.03274 163.1691,175.9095 186.4381,177.7075 C210.036475,182.489578 237.64678,175.136312 254.448053,157.083732 C258.270339,152.976774 269.035635,135.930081 269.802759,131.753365 C271.414428,122.978404 267.682963,117.331642 256.8251,120.4245 C249.1551,124.5205 236.191168,135.127984 229.9341,136.6535 Z" id="Ink" fill="#000"/></g></g><g id="Mask" transform="translate(400.000000, 480.000000) scale(1 1)" fill="#000"><g id="Mask/None" stroke="none" stroke-width="1" fill="none" fill-rule="evenodd" fill-opacity="0"/></g><g id="Accessories" transform="translate(419.000000, 421.000000) scale(1 1)" fill="#000"><g id="Accessories/None" stroke="none" stroke-width="1" fill="none" fill-rule="evenodd" fill-opacity="0"/></g></g></svg>