<svg viewBox="145.83783783783792 57.487499999999955 1036.2162162162163 1303.0500000000004" xmlns="http://www.w3.org/2000/svg" overflow="visible" xmlns:xlink="http://www.w3.org/1999/xlink" width="1036.2162162162163px" height="1303.0500000000004px"><g id="Master/Character/Bust" stroke="none" stroke-width="1" fill="none" fill-rule="evenodd"><g id="Body" transform="translate(147.000000, 639.000000) scale(1 1)"><g id="Body/Macbook" stroke="none" stroke-width="1" fill="none" fill-rule="evenodd"><path d="M996.081905,209.472139 C981.802496,210.874139 967.523087,212.274139 953.243677,213.676139 C884.855668,218.901139 816.494687,229.813139 748.630206,236.362139 C746.940501,233.612139 743.633163,234.065139 741.625137,235.976139 C734.853304,235.383139 727.263645,230.207139 721.129455,235.591139 C720.930254,235.563139 720.731053,235.530139 720.52985,235.511139 C709.607829,214.548139 702.058211,192.189139 694.730817,169.800139 C690.054098,156.035139 683.761748,142.710139 672.134015,133.468139 C652.289991,119.693139 606.82211,91.7601393 583.520597,92.9341393 C583.134207,88.7621393 581.189244,84.4621393 577.996022,81.6841393 C585.034124,69.6851393 556.892727,61.8561393 554.907724,63.2471393 C556.180008,23.1591393 537.322979,-11.6548607 495.743022,-19.6378607 C458.492433,-27.3998607 405.509969,-28.7038607 385.475753,10.2251393 C383.273531,9.97713926 360.762449,9.85993926 358.584251,10.1039393 C355.197834,5.81493926 318.008321,46.4570207 333.250702,60.6060207 C196.978192,120.888021 119.493355,113.695139 81.7752946,283.164139 C76.6761492,299.084139 76.3047744,316.505139 70.9203411,332.070139 C51.7640108,376.801139 36.226332,424.432139 32.35943,473.104139 C23.0200057,475.497139 21.9459219,491.964139 32.763838,494.346139 C36.8960077,495.257139 40.3514946,496.501139 43.364535,498.860139 C41.0091582,538.746139 50.6558926,629.860139 56.7340259,629.579139 C69.127532,669.022139 124.40912,680.153955 163.546613,666.292955 C156.799805,678.985955 163.546613,686.966717 163.546613,693.748626 C304.373719,699.076626 458.353293,696.008139 599.141359,703.315139 C617.150532,703.059139 636.092646,707.738139 653.85557,705.045139 C664.688502,702.448139 664.70652,685.415139 653.718432,683.309139 L701.731222,672.881011 C700.658139,672.476011 721.522366,658.598251 737.291278,632.665251 C751.969089,603.655251 741.979495,568.637451 748.630206,537.081451 C800.574622,532.833451 853.377905,531.017139 904.753747,522.220139 C911.758816,543.179139 942.082415,518.113139 951.721141,508.030139 C951.709129,508.014139 951.697117,507.999139 951.685105,507.983139 C956.349812,506.707139 960.090587,502.335139 960.215713,497.159139 C963.487014,492.485139 964.173707,485.897139 961.036541,481.380139 C975.41505,398.412139 997.335169,313.700139 1005.25816,229.952139 C1008.05899,229.332139 1010.69665,228.104139 1012.93291,226.212139 L1012.75173,226.031139 C1016.54055,221.807139 1017.27729,214.516139 1010.96092,210.927139 C1005.86578,208.029139 1001.61148,208.928139 996.081905,209.472139 Z" id="Skin" fill="#d08b5b"/><path d="M453,520 L464,527 L554,556 L609,563 L654,556 L654,633 L663,705 C659,712.333333 621,712.333333 549,705 C503.101885,700.325192 335.356095,698.057214 297.164029,697.059228 L295,697 C250.120339,695.705482 205.787005,695.705482 162,697 L162,670 L287,608 L399,545 L453,520 Z M389.229039,3.93187748 L397.494804,10.1039393 L379.447912,39.7540495 L467.360804,110.864719 L467.360804,167.663759 L495.19331,193.988358 L511.102162,167.663759 L533.51913,137.85242 L549.450017,89.5283855 L544.02577,57.6917655 L554.934063,56.6640801 C554.986839,58.839968 554.977914,61.0355276 554.907724,63.2471393 C556.892727,61.8561393 585.034124,69.6851393 577.996022,81.6841393 C581.189244,84.4621393 583.134207,88.7621393 583.520597,92.9341393 C606.82211,91.7601393 652.289991,119.693139 672.134015,133.468139 C683.761748,142.710139 690.054098,156.035139 694.730817,169.800139 L695.831986,173.158094 L696.968868,176.605259 L698.114318,180.049759 C704.442543,198.985147 711.275651,217.749246 720.52985,235.511139 C720.731053,235.530139 720.930254,235.563139 721.129455,235.591139 C727.263645,230.207139 734.853304,235.383139 741.625137,235.976139 C743.586465,234.109581 746.787374,233.633998 748.509731,236.175454 L748.630206,236.362139 L664.258946,252.983022 L608.598321,448.227022 L560.125689,408.880909 L534.107599,412.75018 L465.398657,437.531463 L385.485804,458.28915 L203.05544,508.584205 L179.823549,508.584205 L44.6389945,475.938893 L32.4560261,471.917566 C36.4791435,423.658066 51.9197085,376.437577 70.9203411,332.070139 C76.3047744,316.505139 76.6761492,299.084139 81.7752946,283.164139 C119.493355,113.695139 196.978192,120.888021 333.250702,60.6060207 C318.008321,46.4570207 355.197834,5.81493926 358.584251,10.1039393 L358.797717,10.0854223 L359.259233,10.0607179 L359.853859,10.0399668 C365.170087,9.88537935 383.499595,10.0025971 385.475753,10.2251393 C386.622027,7.9977854 387.876162,5.90214021 389.229039,3.93187748 Z" id="Top" fill="#FFCF77"/><path d="M1009.5673,215.400439 L1007.05419,229.405148 C1006.45692,229.600743 1005.84923,229.766376 1005.23366,229.902639 C1004.44383,238.251388 1003.51489,246.609717 1002.46819,254.974943 L986.887304,341.814439 C984.199909,357.177659 981.648737,372.573587 979.116221,387.974936 L975.760285,404.518035 L973.681958,414.799826 C969.195412,437.066278 964.836896,459.260163 961.012041,481.330639 C961.58932,482.161826 962.03712,483.063138 962.363164,484.009746 L962.068822,485.253748 L961.86417,486.083221 L961.654796,486.902578 C958.637009,498.503245 953.385982,509.752684 941.011304,513.166439 C931.677018,515.740118 921.435202,515.973372 911.79669,516.989191 L910.728304,517.105439 L742.069304,536.072439 C721.690104,538.363639 701.320504,540.723959 680.952824,543.109367 L663.296131,545.180245 C638.685891,548.030098 613.934117,550.272846 589.686304,555.431439 C588.795304,555.621439 588.057304,555.977439 587.455304,556.445439 C592.338304,537.962439 597.012304,519.503439 601.248304,500.833439 C606.016304,479.820439 610.541304,458.766439 615.641304,437.829439 C625.915304,395.649439 637.432304,353.746439 650.040304,312.203439 C652.686137,303.484273 655.393082,294.782467 658.159401,286.100916 L660.100474,280.032364 L661.594595,275.196489 C663.906373,267.823046 666.767142,260.24462 673.546304,256.177439 C681.479804,251.417144 692.298546,250.627996 701.29655,248.981745 L707.389716,247.837189 C716.506082,246.136356 725.634137,244.500106 734.773304,242.928439 C778.529304,235.402439 822.533304,229.365439 866.699304,224.830439 C912.657369,220.110762 958.775579,217.04405 1004.94971,215.54511 L1009.5673,215.400439 Z M590.949904,504.943499 L591.380304,504.979439 L585.080304,555.340439 C584.073304,554.635439 582.794304,554.203439 581.233304,554.207439 C560.568554,554.268283 540.759606,547.663726 521.599628,540.402895 L518.681926,539.291011 L510.547256,536.164407 C502.278424,532.996279 493.965304,529.898039 485.497304,527.328439 L482.074178,526.295406 L480.33417,525.781569 C473.922744,523.909931 467.178359,522.208583 460.509226,521.785155 L459.600304,521.735439 L461.542304,520.716439 C461.826304,520.567439 462.075304,520.400439 462.296304,520.220439 C465.967304,520.492439 469.645304,520.418439 473.517304,519.720439 C480.799304,518.409439 487.880304,515.876439 494.382304,512.349439 L497.286269,510.7755 L498.475038,510.144805 L499.260383,509.737656 L500.041373,509.342696 C505.62568,506.558985 510.965379,504.816014 518.016304,506.298439 C526.020498,507.983278 533.034785,512.296941 540.250062,515.942258 L541.530594,516.579866 L542.391527,516.995852 L543.269247,517.408691 L544.157467,517.814515 C553.914592,522.205009 569.442947,526.94347 573.184304,513.677439 C574.687304,508.347439 573.510304,503.356439 570.902304,498.980439 C575.762304,498.559787 584.444539,504.289737 590.949904,504.943499 Z M833.827501,339.015658 L833.945078,339.619889 C835.324774,347.047446 831.864808,354.152618 826.629004,359.332439 C822.334004,363.580439 814.733004,365.941439 812.580004,372.052439 C811.354004,375.529439 812.658004,378.826439 815.176004,381.125439 L814.596054,381.411865 L814.029082,381.701674 L813.47555,381.994352 L812.935839,382.289421 L812.410252,382.586431 C803.85624,387.500608 796.89004,395.492469 804.605004,405.145439 C813.35683,416.096102 831.643938,416.450921 844.528224,415.594112 L845.396196,415.533361 C857.889502,414.596564 872.688651,410.40011 879.463004,398.864439 C882.570004,393.572439 882.228004,387.172439 877.897004,382.643439 C875.284004,379.911439 870.623004,377.105439 866.349004,376.773439 C866.536004,374.365439 866.249004,372.039439 865.402004,370.076439 C863.570004,365.833439 858.695004,362.976439 853.993004,362.873439 C854.373746,353.863794 847.157484,344.970541 841.844065,337.767983 L841.301578,337.028987 L840.775004,336.302439 C838.337096,332.910439 833.120695,334.810762 833.827501,339.015658 Z M840.957004,348.605439 L845.798004,366.739439 L845.714867,366.888591 C844.00965,370.126721 848.479703,373.802494 851.131083,371.081688 L851.398019,370.794002 C854.544754,367.544072 859.374928,371.912651 859.435004,375.371439 C859.521004,380.240722 856.351156,384.005498 852.574441,386.492599 L852.309998,386.664043 L851.61369,387.096633 C848.514242,389.144993 850.860754,393.427606 854.268004,392.906439 C858.484004,392.261439 861.939004,388.917439 864.069004,384.742439 C866.345004,385.394439 868.935004,385.315439 871.332004,386.656439 C877.372134,390.034491 873.898303,395.944119 869.965036,399.515887 L869.80535,399.659395 L869.485004,399.938439 C862.268778,406.0921 852.443851,408.229709 843.182656,408.687854 L842.649004,408.712439 C833.294004,409.112439 821.106004,409.246439 813.088004,403.744439 C808.098004,400.320439 806.653004,395.464439 810.876004,390.865439 C813.264004,388.266439 815.675004,385.644439 818.157004,383.110439 C821.872004,384.883439 825.190004,384.164439 828.989004,382.486439 C829.476004,382.270439 829.206004,381.525439 828.729004,381.525439 C826.633004,381.523439 818.942004,377.632439 818.568004,375.146439 C818.222446,372.845439 822.476905,370.905564 824.545736,369.793862 L824.845859,369.629428 L825.106004,369.478439 C827.270004,368.167439 829.307004,366.641439 831.169004,364.927439 C835.894798,360.577263 839.327169,355.12113 840.826083,349.1497 L840.957004,348.605439 Z" id="Computer" fill="#FFF"/><path d="M388.071804,1.18393926 C392.314804,-9.47906074 406.657804,-5.33406074 405.058804,5.86793926 C404.101804,12.5779393 400.426804,19.6649393 397.125804,25.5459393 C394.437804,30.3329393 391.371804,35.0049393 387.214804,38.5929393 C394.614804,45.4969393 402.295804,52.1489393 410.171804,58.4649393 C418.765804,65.3559393 427.802804,71.7079393 437.143804,77.5459393 C445.334804,82.6659393 453.895804,87.2019393 461.616804,93.0439393 C468.795804,98.4749393 475.335804,105.006939 478.663804,113.533939 C482.209022,122.614285 480.668325,131.991781 478.057701,141.065997 L477.757804,142.091939 C475.090804,151.081939 470.473804,161.918939 476.875804,170.388939 C480.134804,174.700939 484.872804,177.754939 488.963804,181.201939 C492.599804,184.265939 496.012804,187.597939 499.142804,191.176939 C505.967804,198.978939 511.518804,207.757939 515.021804,217.539939 L515.335067,218.428623 C518.337571,227.088035 520.531904,237.696106 516.474804,246.197939 C515.310804,248.634939 511.556804,247.842939 510.904804,245.469939 C509.430804,240.093939 509.507804,234.463939 508.271804,229.011939 C506.985804,223.341939 504.845804,217.959939 502.050804,212.867939 C496.642962,203.017176 489.319089,194.602725 480.666283,187.488889 L478.076053,185.382482 C471.325873,179.842857 465.12394,173.966041 463.753804,164.797939 C462.287804,154.988939 466.217804,145.644939 468.744804,136.360939 C470.505804,129.890939 471.080804,123.688939 469.177804,117.841939 C466.852804,121.636939 463.680804,125.238939 461.171804,128.451939 C456.174804,134.852939 451.130804,141.214939 446.099804,147.588939 C440.941804,154.124939 435.910804,160.763939 431.119804,167.574939 C428.976804,170.621939 426.856804,173.686939 424.743804,176.754939 C423.154804,179.060939 420.938804,181.364939 419.206804,183.716939 C419.627804,184.974939 419.595804,186.424939 418.832804,187.454939 C409.647804,199.864939 396.580804,173.970939 393.172804,167.428939 C386.232804,154.105939 381.067804,139.951939 374.104804,126.631939 C366.889804,112.823939 358.673804,99.3839393 349.516804,86.7779393 C343.977804,79.1529393 337.769804,71.9909393 332.702804,64.1239393 C320.765804,74.9479393 305.057804,82.2039393 290.629804,88.7839393 C274.777423,96.0125107 258.308262,101.917726 242.05506,108.188388 L237.253971,110.053126 C209.249222,120.982528 180.560105,132.989789 157.282804,152.402939 C129.929804,175.215939 113.747804,207.011939 101.700804,239.937939 C87.832804,277.842939 76.359804,316.770939 65.664804,355.673939 C60.191804,375.578939 54.998804,395.573939 50.116804,415.632939 C45.814804,433.304939 42.248804,451.152939 37.268804,468.642939 C47.368804,468.285939 58.887804,472.195939 67.510804,473.324939 C106.809804,478.468939 145.579804,486.668939 182.682804,500.865939 C187.265804,502.619939 188.591804,507.196939 187.593804,510.906939 C190.236804,510.160939 192.877804,509.404939 195.520804,508.662939 C192.625145,504.226121 194.007208,496.293776 194.234863,491.376062 L194.248804,491.037939 C194.482804,484.484939 195.193804,477.924939 195.654804,471.383939 C196.53265,458.915016 197.67549,446.537265 199.195012,434.139785 L199.582804,431.039939 C201.304804,417.551939 202.577804,403.984939 204.456804,390.519939 L204.678804,388.978939 C203.777804,385.533939 202.728804,382.130939 201.627804,378.742939 C198.693804,369.717939 194.552804,361.222939 190.923804,352.481939 C190.495804,351.452939 191.961804,350.861939 192.646804,351.478939 C198.792804,357.007939 203.674804,364.021939 207.596804,371.357939 C207.664804,371.011939 207.724804,370.664939 207.795804,370.318939 L208.243344,368.116142 C209.346961,362.744094 210.689349,357.09197 213.984804,352.734939 C214.335804,352.271939 215.029804,352.174939 215.361804,352.734939 C218.515804,358.071939 218.868804,364.830939 219.353804,370.903939 C219.902804,377.773939 219.971804,384.730939 219.874804,391.619939 C219.685804,405.082939 218.736804,418.583939 217.980804,432.024939 C217.239157,445.23341 215.782659,458.273576 213.905608,471.352197 L213.548804,473.804939 C212.631221,480.030023 211.880012,486.332411 210.669732,492.514921 L210.327804,494.197939 C209.680804,497.263939 209.282804,501.586939 207.994804,505.177939 C241.132804,495.934939 274.321804,486.902939 307.573804,478.029939 C331.606804,471.615939 355.664804,465.297939 379.712804,458.939939 C380.981804,456.652939 382.561804,454.516939 384.533804,452.607939 C391.030804,446.315939 399.640804,443.508939 407.537804,448.351939 C408.179804,448.746939 408.233804,449.752939 407.537804,450.133939 C406.024804,450.960939 404.508804,451.808939 403.019804,452.692939 L417.459804,448.781939 C428.252804,445.856939 439.174804,442.201939 450.221804,440.162939 C470.568804,430.121939 492.452804,422.853939 513.886804,415.670939 L516.412565,414.8166 C527.387299,411.075021 538.739018,406.886368 550.077804,404.811939 C558.378804,403.293939 568.122804,405.125939 571.460804,413.629939 C575.686804,416.414939 579.662804,419.687939 583.499804,422.906939 C586.273804,425.232939 588.932804,427.705939 591.636804,430.113939 L592.135299,430.55156 C594.345863,432.469539 596.097011,433.754077 596.639804,436.806939 C596.919804,438.383939 595.917804,440.515939 593.972804,440.306939 C588.021804,439.669939 583.182804,432.771939 579.146804,428.652939 C576.028804,425.468939 572.885804,422.176939 570.039804,418.677939 C568.380804,419.580939 566.106804,419.418939 565.050804,417.418939 C559.574804,407.049939 544.573804,414.234939 536.273804,416.693939 L524.383868,420.213171 C518.439284,421.975299 512.497004,423.746139 506.564804,425.547939 C490.260804,430.498939 474.036804,436.039939 457.584804,440.586939 C459.056804,442.204939 458.853804,445.082939 456.057804,446.177939 C443.179804,451.230939 429.051804,453.843939 415.672804,457.310939 C407.225804,459.501939 398.783804,461.705939 390.344804,463.922939 C388.897804,466.266939 387.856804,468.918939 387.418804,472.005939 C385.808355,483.35647 388.914341,496.452513 391.939857,507.430601 L392.395606,509.068544 C394.882684,517.894774 398.541716,528.714606 406.156804,534.287939 C408.015804,535.646939 410.382804,536.592939 412.768804,536.806939 C427.675804,529.133939 442.581804,521.461939 457.496804,513.803939 C460.259804,512.384939 462.812804,514.305939 463.432804,516.589939 C468.691804,515.726939 473.938804,514.366939 478.717804,512.744939 C486.747804,510.017939 493.017804,504.816939 500.545804,501.219939 C515.111884,494.261859 529.9867,502.808778 543.028306,509.306647 L546.034069,510.783952 C551.882418,513.621497 564.049511,519.072677 566.855804,511.311939 C569.569804,503.803939 560.988804,495.779939 555.446804,492.400939 C548.840804,488.371939 541.148804,486.215939 533.682804,484.419939 C529.419804,483.393939 525.104804,482.556939 520.763804,481.945939 C515.839804,481.252939 510.753804,481.356939 506.012804,479.759939 C503.656804,478.967939 503.294804,475.225939 506.012804,474.607939 C513.310891,472.947048 522.021438,474.758723 529.63727,476.610074 L533.617804,477.590939 C541.290804,479.473939 549.037804,481.836939 556.026804,485.592939 C561.108804,488.324939 566.472804,492.474939 569.976804,497.554939 C573.019727,494.728324 576.80696,494.823886 580.752034,495.872232 L582.89332,496.467476 C586.429192,497.447347 589.295233,498.121796 592.735804,497.442939 C593.195804,494.939939 593.661804,492.435939 594.160804,489.931939 C599.063804,465.317939 604.440804,440.797939 610.373804,416.408939 C620.607675,374.341197 632.449558,332.735162 645.79976,291.555487 L647.139804,287.438939 C650.218804,278.019939 652.696804,267.757939 657.660804,259.104939 C662.355804,250.922939 669.877804,246.209939 678.814804,243.713939 C688.956804,240.881939 699.613804,239.399939 709.959804,237.486939 C712.267804,237.060939 714.581804,236.655939 716.891804,236.236939 C714.939637,232.712273 713.482517,228.711291 712.169996,225.640838 L711.939804,225.108939 C709.120104,218.680239 706.587144,212.135709 704.141178,205.556268 L702.3115,200.609995 C697.895182,188.699199 693.336161,176.984011 687.126804,165.843939 C680.590804,154.119939 671.919804,144.534939 661.110804,136.601939 C639.072804,120.425939 612.509804,112.174939 591.134804,94.8879393 C590.258804,94.1799393 591.381804,92.9689393 592.270804,93.4169393 C606.703804,100.668939 622.284804,105.599939 637.296804,111.503939 L640.258158,112.672373 C652.12352,117.376034 664.17365,122.496555 674.443804,130.111939 C685.893804,138.603939 694.911804,149.149939 701.689804,161.690939 C708.369804,174.052939 712.642804,187.889939 717.355804,201.093939 L718.616328,204.612202 C720.517316,209.887906 722.480804,215.147848 724.730804,220.281939 C726.516804,224.357939 729.849804,229.010939 731.364804,233.666939 C735.509804,232.947939 739.653804,232.226939 743.802804,231.533939 C833.669804,216.529939 924.540804,207.713939 1015.6138,205.134939 C1019.1768,205.033939 1021.0198,208.433939 1020.4948,211.541939 C1011.7548,263.222939 1003.9878,315.080939 995.465804,366.800939 C991.745804,389.373939 987.951804,411.929939 984.068804,434.474939 C982.101804,445.896939 979.827804,457.274939 977.964804,468.713939 C976.460804,477.951939 975.368804,487.261939 972.786804,496.285939 C970.470804,504.376939 966.916804,512.178939 961.079804,518.351939 C954.787804,525.005939 946.005804,528.226939 937.165804,529.748939 C914.724804,533.610939 891.706804,535.187939 869.083804,537.760939 L748.636804,551.463939 C750.396942,567.46256 750.528485,583.212277 749.720894,599.397149 L749.260632,608.232502 C748.884367,615.339127 748.434554,622.456439 747.413804,629.489939 C746.133804,638.312939 742.097804,645.783939 736.152804,652.373939 C730.693804,658.425939 724.061804,663.589939 717.610804,668.537939 C710.914804,673.675939 703.995804,678.634939 696.122804,681.811939 L695.100929,682.21752 C688.194063,684.914176 675.237493,689.090005 665.796804,687.563939 C667.030804,693.746939 669.418804,700.394939 667.301804,706.512939 C666.319804,709.353939 662.604804,710.770939 660.328804,708.353939 C655.819804,703.562939 655.467804,697.234939 654.399804,690.984939 C653.288804,684.480939 652.330804,677.953939 651.479804,671.410939 C649.833804,658.759939 648.552804,645.992939 648.161804,633.234939 C647.759804,620.132939 647.914804,607.012939 648.620804,593.924939 C648.983804,587.203939 649.433804,580.486939 650.286804,573.808939 C650.650804,570.960939 651.022804,568.110939 651.447804,565.269939 C651.602804,564.233939 651.774804,563.202939 651.959804,562.173939 L641.148985,563.393634 C624.572281,565.24423 607.987697,566.915368 591.293804,567.174939 C589.316804,567.204939 587.795804,566.304939 586.801804,564.993939 C585.742804,566.718939 583.898804,567.952939 581.257804,567.942939 C557.944804,567.855939 536.234804,560.232939 515.030804,551.248939 C504.342804,546.718939 493.820804,541.814939 483.116804,537.323939 C473.125804,533.131939 462.444804,530.140939 452.694804,525.418939 L427.074804,538.856939 C426.886804,539.517939 426.645804,540.142939 426.389804,540.665939 C424.721804,544.070939 421.432804,545.917939 418.073804,547.308939 C414.849804,548.646939 411.510804,549.062939 408.257804,548.724939 C388.827554,558.906939 369.392804,569.079377 349.945117,579.227908 L330.492804,589.367939 C291.736804,609.546939 253.133804,630.056939 214.133804,649.761939 L211.262616,651.207286 C197.791866,657.961939 183.327004,664.808873 168.377804,669.917939 C168.111804,673.701939 168.279804,677.381939 168.596804,681.386939 L168.673114,682.259395 C169.118828,686.99223 170.07451,692.922527 166.277804,696.291939 C164.302804,698.043939 160.774804,698.050939 159.431804,695.408939 C156.994804,690.617939 159.182804,683.064939 159.954804,677.859939 C160.228804,676.008939 160.562804,674.105939 161.056804,672.259939 C143.918804,677.361939 126.261804,679.835939 108.821804,676.970939 C91.841804,674.183939 78.690804,663.486939 68.088804,650.402939 C56.899804,636.595939 48.948804,620.504939 44.682804,603.255939 C39.827804,583.627939 39.510804,563.357939 39.624804,543.252939 C39.745804,521.843939 40.537804,500.328939 43.141804,479.063939 C40.288804,478.392939 37.124804,477.812939 34.241804,478.012939 C32.813804,480.297939 30.043804,481.259939 27.540804,480.962939 C22.097804,486.965939 35.903804,493.100939 40.315804,494.636939 C41.847804,495.170939 41.683804,497.658939 39.916804,497.583939 L38.8037812,497.531033 C31.9864196,497.168346 24.9431661,496.00437 20.934804,489.668939 C17.722804,484.590939 18.687804,478.574939 22.516804,474.433939 C25.045804,450.521939 31.091804,427.236939 36.718804,403.910939 C42.240804,381.015939 48.381804,358.267939 54.890804,335.634939 L57.8088287,325.504852 C68.0571273,290.016283 78.7691518,254.241374 92.905804,220.162939 C99.964804,203.146939 108.096804,186.443939 119.119804,171.606939 C129.394804,157.775939 141.525804,145.940939 155.469804,135.832939 C181.464819,116.987219 211.967279,105.600189 241.937238,94.7513706 L243.278804,94.2659393 C258.809804,88.6479393 274.302804,82.9629393 289.656804,76.8759393 C303.235804,71.4929393 316.244804,64.6679393 329.759804,59.2039393 C329.320804,58.4069393 328.896804,57.6009393 328.488804,56.7859393 L328.238952,56.9960874 C328.196248,57.0300504 328.152471,57.0629393 328.106804,57.0939393 C326.747804,58.0359393 324.746804,57.5729393 323.626804,56.5159393 C320.464375,53.5319189 321.53502,50.2194466 323.645922,47.1247781 L323.920804,46.7309393 C326.502804,43.1139393 328.805804,39.2899393 331.188804,35.5419393 L332.681058,33.1980764 C336.681014,26.9364578 340.884471,20.6330504 346.217804,15.4579393 C348.687804,13.0599393 351.391804,11.2659393 354.256804,9.92893926 C354.011804,9.41093926 356.159804,8.35193926 356.768804,8.88493926 C365.845804,5.56293926 376.288804,6.25893926 386.184804,7.17493926 M742.808804,552.125939 L730.188804,553.560939 C716.304804,555.140739 702.415404,556.668339 688.524276,558.181107 L658.351804,561.459939 C658.274804,563.179939 658.065804,564.861939 658.027804,566.160939 C657.830804,572.857939 657.683804,579.557939 657.544804,586.256939 C657.265804,599.684939 657.571804,613.125939 658.455804,626.527939 C659.312679,639.514189 660.441136,652.502197 662.19466,665.400502 L662.553804,667.978939 L662.761804,669.334939 C664.192804,669.472939 665.598804,670.152939 666.767804,671.549939 C669.319804,674.596939 678.560804,671.634939 682.169804,670.350939 C688.104804,668.238939 693.693804,664.670939 698.850804,661.092939 C703.887039,657.599292 708.421904,653.525438 712.779711,649.234038 L716.345256,645.707655 C719.892058,642.183131 723.442701,638.428388 725.615804,633.994939 C728.562804,627.982939 728.943804,620.602939 729.807804,614.054939 C730.871804,606.000939 732.138804,597.947939 733.477804,589.933939 M376.453804,467.583939 L375.144804,467.927939 C327.593804,480.562939 280.113804,493.570939 232.416804,505.647939 C208.812804,511.625939 185.096804,517.168939 161.463804,523.031939 L157.63756,523.988893 C138.993648,528.700979 120.125919,534.372157 105.848804,547.894939 C105.321804,548.392939 104.556804,547.627939 105.052804,547.098939 C120.439804,530.718939 142.323804,523.784939 163.335804,517.773939 C167.219804,516.662939 171.108804,515.577939 174.993804,514.472939 C146.417804,504.285939 117.390804,495.422939 87.693804,489.101939 C80.046804,487.473939 72.310804,486.278939 64.669804,484.644939 C59.340904,483.504639 54.136744,481.856469 48.864139,480.489207 L44.716804,479.445939 L44.6617244,492.553564 C44.592702,511.118629 44.6256611,529.668558 45.572804,548.230939 L45.7520966,551.669504 C46.8571586,572.326817 48.5820672,593.413045 55.912804,612.890939 C61.869804,628.718939 71.364804,643.629939 83.781804,655.158939 C90.064804,660.991939 96.819804,665.532939 105.169804,667.774939 C112.922804,669.855939 121.045804,670.099939 129.015804,669.544939 C167.244804,666.877939 201.274804,646.110939 234.482804,628.916939 C288.799804,600.793939 343.122804,572.684939 397.494804,544.669939 C396.024804,543.664939 394.640804,542.506939 393.381804,541.205939 C386.090804,533.675939 382.244804,523.367939 379.718804,513.384939 C377.029804,502.758939 375.421804,491.369939 375.234804,480.399939 M445.636904,555.526039 C446.116904,555.268039 446.672904,555.591039 446.694904,556.133039 C446.862904,560.285729 444.567969,564.381553 442.853264,568.122586 L442.671904,568.522039 C440.588904,573.156039 438.307904,577.728039 435.948904,582.228039 C431.233904,591.219039 426.333904,600.114039 421.219904,608.883039 C410.935904,626.524039 399.507904,643.422039 385.999904,658.782039 C382.948904,662.252039 377.930904,657.803039 379.888904,654.067039 C389.328904,636.057039 400.333904,619.052039 411.661904,602.195039 C417.332904,593.755039 422.999904,585.307039 428.726904,576.905039 C431.116071,573.399206 433.535793,569.905873 436.020793,566.465549 L437.519904,564.408039 M1009.5918,215.449939 C961.874804,216.890939 914.213804,220.002939 866.723804,224.879939 C822.557804,229.414939 778.553804,235.451939 734.797804,242.977939 C725.658637,244.549606 716.530582,246.185856 707.414216,247.886689 L701.945804,248.914939 C692.827804,250.642939 681.688804,251.355939 673.570804,256.226939 C665.011804,261.361939 662.698804,272.093939 659.850804,280.943939 C656.502804,291.351939 653.239804,301.789939 650.064804,312.252939 C637.456804,353.795939 625.939804,395.698939 615.665804,437.878939 C610.565804,458.815939 606.040804,479.869939 601.272804,500.882939 C597.036804,519.552939 592.362804,538.011939 587.479804,556.494939 C588.081804,556.026939 588.819804,555.670939 589.710804,555.480939 C613.958617,550.322346 638.710391,548.079598 663.320631,545.229745 L665.701804,544.951939 C691.160804,541.957939 716.619804,538.985939 742.093804,536.121939 L910.752804,517.154939 C920.699804,516.036939 931.355804,515.884939 941.035804,513.215939 C957.493564,508.675799 961.351158,490.276065 964.112452,475.622812 L964.195804,475.179939 C972.520804,430.906939 979.147804,386.248939 986.911804,341.863939 M591.404804,505.028939 C584.856804,504.596939 575.894804,498.599939 570.926804,499.029939 C573.534804,503.405939 574.711804,508.396939 573.208804,513.726939 C569.025804,528.558939 550.108804,520.884939 540.996804,516.353939 C533.525804,512.636939 526.311804,508.088939 518.040804,506.347939 C508.670804,504.377939 502.322804,508.103939 494.406804,512.398939 C487.904804,515.925939 480.823804,518.458939 473.541804,519.769939 C469.669804,520.467939 465.991804,520.541939 462.320804,520.269939 C462.099804,520.449939 461.850804,520.616939 461.566804,520.765939 L459.624804,521.784939 C468.405804,522.186939 477.349804,524.896939 485.521804,527.377939 C493.989804,529.947539 502.302924,533.045779 510.571756,536.213907 L518.706426,539.340511 C538.77185,547.024343 559.542304,554.320877 581.257804,554.256939 C582.818804,554.252939 584.097804,554.684939 585.104804,555.389939 M554.769104,458.554939 C561.238104,457.763939 567.209104,458.611939 572.378104,462.822939 C578.612104,467.900939 582.800104,476.322939 591.762104,476.875939 C594.375104,477.036939 594.982104,480.710939 592.385104,481.478939 C585.714104,483.453939 580.313104,479.844939 575.768104,475.158939 L572.712291,471.966226 C568.220823,467.315488 564.078415,463.72007 556.457104,463.997939 C548.295104,464.295939 540.119104,466.181939 532.010104,467.140939 C522.824104,468.226939 513.640104,469.152939 504.425104,469.951939 C503.997104,469.988939 503.924104,469.314939 504.325104,469.215939 L514.646308,466.647281 M548.524704,432.108739 L549.59161,432.001959 C558.985363,431.089822 567.576286,431.05443 575.965704,436.107739 L577.574784,437.080793 C585.1387,441.678148 593.371571,447.094406 598.101704,454.537739 C598.875704,455.756739 597.596704,457.189739 596.301704,456.879739 C587.210704,454.697739 580.564704,448.027739 572.919704,443.035739 C564.339704,437.433739 555.476704,438.357739 545.693704,439.227739 C536.221704,440.070739 526.754704,441.228739 517.375704,442.807739 C508.562704,444.289739 499.721704,446.629739 490.819704,447.375739 L490.821704,447.357739 C489.804704,447.355739 489.224704,445.828739 490.261704,445.310739 C499.295704,440.799739 509.758704,438.664739 519.585704,436.603739 M833.889504,339.263939 C832.981504,334.920939 838.323504,332.906939 840.799504,336.351939 L841.326078,337.078487 C846.675277,344.406852 854.411375,353.602617 854.017504,362.922939 C858.719504,363.025939 863.594504,365.882939 865.426504,370.125939 C866.273504,372.088939 866.560504,374.414939 866.373504,376.822939 C870.647504,377.154939 875.308504,379.960939 877.921504,382.692939 C882.252504,387.221939 882.594504,393.621939 879.487504,398.913939 C872.713151,410.44961 857.914002,414.646064 845.420696,415.582861 L844.975504,415.614939 C832.071504,416.506939 813.477504,416.265939 804.629504,405.194939 C796.094504,394.515939 805.527504,385.869939 815.200504,381.174939 C812.682504,378.875939 811.378504,375.578939 812.604504,372.101939 C814.757504,365.990939 822.358504,363.629939 826.653504,359.381939 C831.889308,354.202118 835.349274,347.096946 833.969578,339.669389 M840.981504,348.654939 C839.558504,354.838939 836.062504,360.494939 831.193504,364.976939 C829.331504,366.690939 827.294504,368.216939 825.130504,369.527939 L824.870359,369.678928 C822.949857,370.757052 818.229225,372.776939 818.592504,375.195939 C818.966504,377.681939 826.657504,381.572939 828.753504,381.574939 C829.230504,381.574939 829.500504,382.319939 829.013504,382.535939 C825.214504,384.213939 821.896504,384.932939 818.181504,383.159939 C815.699504,385.693939 813.288504,388.315939 810.900504,390.914939 C806.677504,395.513939 808.122504,400.369939 813.112504,403.793939 C821.130504,409.295939 833.318504,409.161939 842.673504,408.761939 C852.089504,408.359939 862.154504,406.259939 869.509504,399.987939 L869.82985,399.708895 C873.827178,396.153801 877.478257,390.129641 871.356504,386.705939 C868.959504,385.364939 866.369504,385.443939 864.093504,384.791939 C861.963504,388.966939 858.508504,392.310939 854.292504,392.955939 C850.885254,393.477106 848.538742,389.194493 851.63819,387.146133 L852.334498,386.713543 C856.226461,384.229506 859.547504,380.403461 859.459504,375.420939 C859.399428,371.962151 854.569254,367.593572 851.422519,370.843502 L851.278504,370.998939 C848.6454,373.966969 844.007506,370.226817 845.739367,366.938091 L845.822504,366.788939 M226.862202,176.675539 C226.850504,175.932539 227.895504,175.654539 228.260504,176.297539 C234.372504,187.050539 237.567504,200.231539 240.823504,212.078539 C244.233504,224.488539 246.986504,237.024539 249.459504,249.652539 C254.468504,275.223539 257.137504,300.647539 257.318734,326.709539 C257.343504,330.430539 251.281504,331.420539 250.688504,327.607539 C246.751504,302.256539 242.979504,276.879539 239.012504,251.535539 C237.016504,238.788539 234.693504,226.090539 232.470504,213.381539 M287.370504,195.405039 C286.920504,193.922039 289.078504,193.426039 289.630504,194.782039 C301.896504,224.891039 306.050504,259.013039 298.175504,290.778039 C296.970504,295.637039 289.853504,293.532039 290.762504,288.734039 M445.587904,168.651239 C445.525904,167.541239 446.966904,167.366239 447.509904,168.130239 C453.321904,176.319239 455.732904,187.286239 465.929904,191.518239 C471.020904,193.631239 476.749904,193.263239 481.247904,196.832239 C484.254904,199.219239 486.560904,202.987239 484.303904,206.602239 C483.575904,207.770239 481.537904,208.355239 480.549904,207.086239 C479.107904,205.237239 478.344904,203.023239 476.385904,201.637239 C473.622904,199.682239 469.896904,199.561239 466.728904,198.642239 C462.630904,197.454239 459.018904,195.375239 456.060904,192.286239 M542.686104,32.0673393 C543.285104,31.7623393 543.860104,31.9573393 544.243104,32.4753393 C544.790104,33.2133393 544.723104,33.9313393 544.053104,34.4373393 C544.948104,36.2663393 546.005104,40.8483393 546.156104,41.5153393 C546.768104,44.2193393 547.419104,46.9073393 548.100104,49.5933393 C549.474104,55.0103393 550.678104,60.4693393 552.053104,65.8883393 C553.511104,71.6323393 555.248104,77.3153393 557.181104,82.9163393 C557.305771,83.2790059 557.442882,83.6492282 557.586808,84.0249319 L557.807104,84.5923393 L557.861104,84.5063393 C558.254104,83.8853393 559.072104,84.3193393 558.975104,84.9753393 C558.885104,85.5733393 558.764104,86.1683393 558.662104,86.7663393 L558.864655,87.3020656 C560.129079,90.7052293 560.995004,94.2893893 558.675104,97.2923393 C557.807104,98.4153393 556.852104,99.0803393 555.662104,99.2783393 C553.754104,105.568339 551.360104,111.741339 548.797104,117.669339 L548.045911,119.400576 C544.275795,128.050753 540.254917,136.587277 534.252104,143.951339 C527.698104,151.991339 518.683104,157.481339 512.974104,166.291339 C510.318104,170.389339 508.470104,174.698339 506.970104,179.326339 L506.405835,181.083016 C505.341145,184.356425 504.112771,187.529218 501.042104,189.449339 C500.062104,190.061339 498.594104,189.866339 497.804104,189.031339 C491.507104,182.370339 498.099104,169.932339 501.896104,163.483339 C507.174104,154.515339 514.813104,148.778339 522.462104,142.012339 C530.707104,134.719339 535.966104,124.963339 541.053104,115.352339 C544.169104,109.464339 547.177104,103.449339 550.344104,97.5353393 C547.035369,94.6109569 545.976229,88.8020434 544.855246,84.7643896 L544.753104,84.4023393 C542.900104,77.9363393 541.428104,71.3023393 540.498104,64.6393393 C539.603045,58.232751 539.22973,51.9182874 539.466532,45.4758497 L539.534868,43.834728 M554.988404,62.5591393 C554.257404,61.5571393 555.467404,60.4221393 556.470404,60.6311393 C562.568611,61.8921048 568.530713,65.5833771 574.00388,68.5681847 L574.588404,68.8851393 C578.957404,71.2411393 583.353404,74.1271393 585.647404,78.7041393 C588.142434,83.6786847 587.936888,89.4083009 587.59662,94.8143072 L587.564404,95.3201393 C587.147404,101.803139 587.080404,108.539139 585.708404,114.905139 C585.006404,118.163139 582.055404,119.081139 579.532404,118.311139 C576.530404,127.790139 568.097404,134.774139 561.937404,142.254139 C554.083404,151.790139 555.561404,164.665139 556.382404,176.150139 C556.714404,180.800139 550.930404,182.122139 547.951404,179.641139 L541.086145,173.938917 C539.942848,172.987139 538.801071,172.033473 537.662404,171.076139 C536.687071,170.255473 535.720626,169.428584 534.762182,168.591324 L533.330404,167.327139 C532.695404,166.759139 529.894404,163.630139 529.075404,163.500139 C527.091671,163.184806 522.378722,168.41282 520.765763,170.052547 L520.561404,170.257139 C517.525404,173.234139 514.782404,176.437139 512.227404,179.834139 C511.757404,180.458139 510.838404,179.940139 511.174404,179.219139 C513.463779,174.315077 516.12581,169.626346 519.286566,165.237817 L519.925404,164.364139 C522.028404,161.530139 524.851404,156.526139 528.563404,155.689139 C533.095967,154.667868 537.621818,159.213201 540.919588,161.735934 L541.128404,161.894139 C542.697404,163.071139 544.248404,164.269139 545.796404,165.475139 C545.634404,156.924139 546.714404,148.284139 551.129404,140.915139 C554.242404,135.718139 558.906404,131.869139 562.897404,127.403139 C567.340404,122.430139 569.660404,116.318139 573.682404,111.139139 C574.200404,110.473139 574.914404,110.114139 575.687404,110.000139 C575.841949,105.836503 576.455173,101.631544 576.929027,97.5129867 L577.066404,96.2801393 C577.545404,91.8051393 578.677404,86.3391393 576.486404,82.1481393 C574.416771,78.1896393 569.668085,75.395457 566.15162,72.7096392 L563.280367,70.4824487 M357.073804,15.2409393 C355.237804,16.3029393 353.521804,17.6239393 351.964804,19.2749393 C347.063804,24.4739393 343.559804,30.9439393 340.149804,37.1679393 C338.313804,40.5199393 336.543804,43.9089393 334.692804,47.2529393 C333.887804,48.7079393 333.059804,50.1469393 332.222804,51.5839393 C331.835804,52.2459393 330.685804,53.5619393 330.115804,54.3729393 C330.749156,55.2603563 331.40399,56.1341511 332.071961,56.9984954 C332.326817,57.3282752 349.907564,76.47963 356.035804,83.9749393 C365.419804,95.4559393 373.807804,107.582939 380.978804,120.562939 C388.000804,133.273939 393.346804,146.731939 399.851804,159.688939 C403.107804,166.175939 406.743804,172.616939 411.378804,178.230939 C411.557804,178.449939 411.746804,178.656939 411.929804,178.872939 C413.698742,174.094096 418.231492,168.9774 420.457732,166.039378 L420.665804,165.761939 C425.714804,158.955939 431.046804,152.354939 436.494804,145.865939 C441.470804,139.940606 446.573224,134.143273 451.799254,128.441632 L453.764804,126.307939 C457.405804,122.374939 462.030804,116.489939 467.360804,113.679939 C466.789804,112.661939 466.128804,111.654939 465.368804,110.660939 C460.374804,104.135189 453.315401,99.3992309 446.349619,95.1259155 L441.832264,92.378016 C424.804352,82.0012314 408.041706,71.1435246 393.258804,57.6609393 C385.437804,50.5269393 377.724804,43.0539393 371.150804,34.7329393 L368.825863,31.7908223 M385.485804,10.1039393 C377.511804,10.7729393 368.900804,10.6139393 361.531804,13.2119393 C368.082804,19.4049393 374.309804,26.0919393 380.706804,32.3889393 C381.275804,28.1299393 382.439804,23.9229393 383.425804,19.7699393" id="Ink" fill="#000"/></g></g><g id="Head" transform="translate(372.000000, 180.000000) scale(0.9978902953586498 1)"><g id="Head/Long Afro" stroke="none" stroke-width="1" fill="none" fill-rule="evenodd"><path d="M408.5136,274.9444 C401.6496,191.2694 380.7496,117.1594 282.5446,113.9994 C238.2266,114.3954 192.9876,123.8104 152.2336,141.2304 C53.1776,190.8964 21.7486,372.3774 109.0196,445.4314 C108.5006,445.7264 108.3756,446.5794 108.9886,446.9914 C127.0186,459.1214 147.0596,469.1014 167.1316,477.4874 C220.5976,500.0914 283.5386,509.9094 338.0656,485.3904 C421.2786,449.9824 422.5266,351.4574 408.5136,274.9444 L408.5136,274.9444 Z" id="Skin" fill="#d08b5b"/><path d="M572.3058,235.9435 C575.7258,232.8635 578.2758,228.8235 579.5658,224.2935 C580.7458,220.1635 580.8258,215.6535 579.5758,211.5335 C578.2358,207.1135 575.3458,203.5935 575.9958,198.9935 C576.0658,198.5435 576.1558,198.0735 576.2958,197.6035 C578.7958,188.9435 584.9458,182.6935 582.7458,173.0935 C582.1258,170.3835 580.9558,167.9435 579.3258,166.0235 C579.5058,163.9435 579.6658,161.8435 579.7958,159.7435 C583.4058,151.2935 583.2758,141.2535 579.4258,132.9335 C578.9558,128.6735 578.2458,124.4535 577.2458,120.3035 C577.7058,116.6335 577.0658,112.5935 575.8858,109.3835 C573.8128,103.7355 571.2508,98.1695 568.4708,92.6955 C568.7978,91.1985 568.6508,89.6165 567.8248,88.2095 C566.3228,85.6525 564.3378,83.4045 562.3088,81.2075 C560.8738,78.6445 559.4288,76.1025 557.9958,73.5935 C557.3318,72.4405 556.5988,71.1615 555.7908,69.8065 C557.9928,65.7205 559.1688,61.7385 556.8398,56.9335 C555.9648,55.1285 553.5588,53.7975 551.5778,53.9155 C549.4128,54.0445 547.2278,54.1415 545.0308,54.2245 C540.9248,49.2665 536.2718,44.8155 531.2858,42.2535 C526.2358,37.9735 521.1158,33.7735 516.1358,29.4835 C514.7258,28.2635 513.3058,27.0435 511.8958,25.8235 C511.8858,25.7935 511.8758,25.7535 511.8658,25.7235 C510.8258,21.9335 509.6558,18.1935 508.4858,14.4335 C507.7558,12.1035 507.5358,9.6635 505.2658,8.3935 C500.5258,5.7435 493.2358,5.3235 487.7958,4.8735 C487.2558,4.3935 486.7158,3.9235 486.1758,3.4435 C488.6458,-3.1365 488.2058,-10.1265 485.0958,-16.7165 C484.0358,-18.9565 480.3558,-19.9665 478.3358,-18.4865 C473.6758,-15.0665 468.1458,-13.8565 462.6758,-14.3565 C454.6358,-20.5365 422.2058,-48.4825 417.1948,-51.4325 C417.1328,-51.5385 417.0828,-51.6445 417.0168,-51.7495 C414.1998,-56.2475 410.7788,-59.8595 406.9328,-62.7555 C406.3838,-63.3285 405.8348,-63.9025 405.2858,-64.4765 C405.7688,-67.9055 407.0398,-71.2165 409.0858,-73.9865 C409.3058,-74.3065 409.5558,-74.6165 409.8058,-74.9165 C413.3858,-79.1765 409.0158,-84.6565 404.0158,-82.4265 C403.6558,-82.2665 403.2958,-82.1065 402.9358,-81.9365 C399.0918,-80.2225 394.8388,-78.3595 390.4098,-76.7875 C388.7888,-77.3945 387.1368,-77.9445 385.6298,-78.5505 L369.4938,-85.0375 C366.8378,-86.1055 364.0298,-87.0105 361.4608,-88.2655 C360.5648,-94.2245 354.5928,-98.1325 348.3908,-97.9285 C348.7488,-99.0725 349.2828,-100.1835 350.0358,-101.2365 C350.2558,-101.5465 350.4958,-101.8465 350.7458,-102.1365 C353.9358,-105.8465 349.6758,-112.7265 345.1158,-109.4265 C344.7958,-109.1965 344.4658,-108.9665 344.1458,-108.7365 C342.8788,-107.8475 341.5818,-107.0135 340.2708,-106.2055 C338.1718,-107.1215 335.8078,-107.3305 333.3338,-106.3615 C327.8558,-104.2165 322.8058,-102.0355 317.9828,-98.6735 C317.7868,-98.5365 317.5838,-98.4215 317.3858,-98.2925 C314.9918,-101.1845 311.1908,-103.1185 307.7678,-103.0975 C307.6978,-103.0975 307.6438,-103.0985 307.5818,-103.0995 C305.0228,-106.9985 300.3318,-109.2645 295.8018,-108.7135 C296.1078,-114.3085 290.5068,-119.3015 285.4078,-119.9085 C279.4498,-120.6165 274.0798,-117.1575 272.2918,-111.3455 C271.7938,-109.7275 271.2968,-108.1085 270.7988,-106.4895 C266.1728,-108.8245 261.2908,-110.6135 256.1908,-111.5065 C244.5778,-113.5405 233.2228,-111.3745 222.0318,-108.1505 C220.9138,-107.8285 219.7968,-107.4975 218.6798,-107.1675 C217.0838,-109.0165 215.5868,-110.9095 214.1558,-112.6765 C211.6858,-115.7265 205.7558,-113.2865 206.1558,-109.3665 C206.4338,-106.6615 205.3348,-104.7155 203.5658,-103.3325 C201.6228,-103.0485 199.7448,-102.9625 196.9128,-103.0195 C193.1698,-103.0955 191.4668,-103.2125 187.5528,-104.7385 C185.7288,-105.4485 183.4578,-107.3155 182.3948,-108.9915 C178.3198,-115.4185 167.9688,-117.1495 163.0388,-111.0215 C157.8508,-113.2925 151.3008,-110.1605 148.4208,-105.7445 C146.9138,-103.4355 143.7698,-102.1445 139.8118,-101.0345 C136.8408,-100.2025 133.8028,-99.5725 130.7508,-99.0215 C129.3908,-100.8665 126.5268,-102.1035 124.4258,-100.5565 C123.0028,-99.5055 121.6208,-98.4265 120.2578,-97.3205 C109.7478,-95.8725 99.2928,-95.8205 89.2718,-99.9185 C80.7878,-103.3885 72.9978,-93.9115 74.3978,-85.9555 C71.9408,-84.6765 69.2748,-83.8255 66.8478,-82.4855 C61.5528,-79.5595 57.2048,-74.9345 54.5548,-69.5005 C54.0798,-68.5275 53.6508,-67.5395 53.2418,-66.5465 C51.2628,-64.9355 49.3058,-63.2815 47.3958,-61.5365 C44.2158,-63.1665 41.0458,-64.7965 37.8658,-66.4265 C35.4858,-67.6465 31.4758,-66.7965 31.0058,-63.6365 C30.2358,-58.4365 28.3658,-54.1265 25.6958,-50.5165 C17.0158,-45.9565 8.6658,-40.8365 0.6758,-35.1465 C-8.5142,-32.2665 -18.2842,-30.5865 -26.3142,-28.6965 C-29.0642,-28.0465 -30.5642,-24.4565 -29.0142,-22.0665 C-27.3742,-19.5365 -25.7342,-17.0065 -24.1042,-14.4765 C-28.6742,-10.0165 -32.9642,-5.3565 -37.0142,-0.5365 C-48.2842,12.8635 -57.7142,27.5535 -66.1542,43.1135 C-69.4942,44.4635 -72.8342,45.8035 -76.1742,47.1535 C-79.3942,48.4535 -80.8442,52.1935 -78.2342,54.9435 C-76.9942,56.2535 -75.8842,57.6335 -74.9342,59.0835 C-79.6642,66.9135 -85.2342,74.0535 -93.0242,78.7335 C-95.3942,80.1535 -97.1742,82.3835 -98.1242,84.9135 C-98.9342,85.4535 -99.7342,86.0335 -100.5242,86.6235 C-102.7242,88.2835 -104.0542,91.9035 -101.4742,94.0535 C-99.6642,95.5735 -97.9642,97.3735 -96.5242,99.3635 C-96.2142,100.4935 -95.8942,101.6335 -95.5742,102.7635 C-102.8142,109.4235 -108.8342,117.1635 -113.3542,125.8435 C-114.4242,125.6735 -115.5242,125.7835 -116.4142,126.4435 C-124.4942,132.4135 -124.7342,141.9235 -121.4842,150.4235 C-123.4442,163.2335 -122.1842,176.3635 -118.4042,188.7735 C-123.3742,193.7335 -126.3642,200.8935 -127.5842,207.7935 C-129.7342,219.9135 -129.8842,238.5535 -130.4442,250.9235 C-135.8642,256.1535 -139.7242,262.9235 -141.8742,270.2035 C-143.6842,271.1035 -145.4942,272.0035 -147.3042,272.9035 C-148.9142,273.7035 -150.0942,275.8135 -150.000111,277.5935 C-149.5342,286.2035 -145.9842,293.0035 -141.2742,299.1635 C-139.6042,303.9135 -137.1342,308.2935 -133.8942,312.4935 C-131.6542,315.3735 -129.4642,318.1335 -127.5342,321.2435 C-127.3342,321.5535 -127.2142,321.8435 -127.1242,322.0435 C-127.8842,322.8635 -128.5142,324.2235 -129.0642,325.1935 C-133.6842,333.3335 -133.7542,342.8735 -127.1942,349.9635 C-129.6642,351.9835 -129.7442,356.0635 -127.5642,358.5635 C-113.3742,374.7735 -101.5442,394.4835 -81.8542,403.0935 C-81.7642,403.2435 -81.6842,403.3935 -81.6142,403.5435 C-85.6042,413.1435 -86.1442,418.1335 -82.8842,428.0535 C-82.8642,428.1435 -82.8342,428.2235 -82.8042,428.3135 C-81.0642,433.5135 -77.8642,441.8435 -72.0942,443.4635 C-70.2742,443.9735 -68.4842,444.2035 -66.7142,444.1935 C-62.1342,448.6035 -57.5642,453.0235 -52.9942,457.4435 C-52.5942,459.6335 -52.3442,461.8435 -52.2642,464.0735 C-52.1342,467.8035 -48.6242,470.8235 -44.8442,469.7235 C-43.5142,469.3335 -36.1542,462.1835 -34.8042,462.2235 C-34.1242,462.9035 -33.4642,463.5835 -32.8042,464.2735 C-30.3742,466.8235 -27.0042,470.8435 -26.7242,473.5135 C-26.1842,478.5435 -22.8842,484.3035 -17.5542,485.3235 C-15.5542,487.3535 -12.3542,487.9635 -9.9042,485.3135 C-9.7442,485.1435 -9.5842,484.9735 -9.4142,484.8235 C-9.1542,484.7935 -8.9042,484.7635 -8.6442,484.7335 C-7.4642,488.2535 -6.2842,491.7735 -5.0942,495.2835 C-2.7642,502.2035 6.1358,506.6535 12.4558,502.6135 C13.4758,503.2235 14.4758,503.8735 15.4758,504.5235 C16.9958,505.4935 18.5358,506.4835 20.1158,507.4135 C20.2058,507.6735 20.2958,507.9335 20.3758,508.1835 C21.3958,511.2935 25.6358,512.9635 28.2458,511.1735 C29.0558,511.4335 29.8858,511.6435 30.7258,511.8135 C35.1358,512.6835 39.5758,512.4435 43.8358,510.9735 C46.8858,509.9335 49.7958,507.9435 53.0758,507.6735 C53.2808,507.6565 53.4918,507.6705 53.6998,507.6645 C56.3758,513.1465 62.4908,517.8705 67.3098,519.4755 C73.6218,521.5785 80.0818,520.8265 85.8298,518.2515 C87.3808,521.3525 89.3288,524.2885 91.6558,527.0035 C92.9458,528.5035 95.2758,528.1835 96.6058,527.0035 C99.1318,524.7645 101.6418,522.5145 104.1478,520.2615 C105.9618,519.5625 107.7928,518.7235 109.7028,517.9435 C115.6768,515.5035 122.2258,514.4925 127.7508,510.9665 C130.3738,509.2925 132.8408,507.1565 134.8728,504.6815 C138.7008,502.4715 142.2178,499.7185 145.3858,496.5635 C146.9658,496.5735 148.6158,496.2035 150.2158,495.3935 C156.9058,491.9935 160.4258,485.0735 160.7358,477.9935 C166.1558,465.2435 169.3558,451.6435 170.2358,437.7235 C170.5158,433.1535 170.5658,428.5435 170.2158,423.9735 C169.9758,420.7535 169.1658,418.6035 167.9458,415.6935 C167.5358,414.7435 167.1658,413.8735 166.8758,412.9135 C166.9458,409.8335 166.9858,406.7535 167.0258,403.6835 C167.8558,401.0935 169.3358,398.6835 171.3958,396.6535 C174.5858,393.5135 176.0458,386.9935 173.1458,383.1135 C171.2558,380.6035 169.3758,378.0935 167.4858,375.5835 C168.0158,364.8135 170.5958,347.6735 164.8758,345.8735 C165.1058,344.2735 165.5958,342.6935 165.8758,341.1035 C167.2158,333.4635 166.4158,326.6335 162.3558,319.9535 C161.5058,318.5635 160.7858,317.3335 160.1958,316.1335 C159.8258,313.9335 159.4558,311.7335 159.0858,309.5335 C158.5158,306.1435 157.9558,302.7235 157.4758,299.2835 C157.2258,294.9035 156.9958,290.5235 156.7458,286.1335 C156.5158,282.0935 156.2558,278.0535 155.9858,274.0035 C156.0958,272.1935 156.2558,270.3835 156.4858,268.5735 C157.8558,257.7835 162.2658,253.7935 169.9058,246.2935 C171.1058,246.1035 172.2958,245.8935 173.4658,245.6535 C178.9158,244.5235 184.6158,242.7735 190.2258,243.4035 C196.3158,244.0835 201.7658,246.7135 207.6858,243.3535 C209.4258,242.3535 213.2558,239.5935 213.5858,237.4035 C213.6058,237.2635 213.6358,237.1435 213.6758,237.0535 C214.0858,236.9935 214.6158,236.9435 214.9458,236.9335 C219.6458,236.7735 224.1358,238.6235 228.8758,238.1135 C234.4858,237.5135 239.5058,235.0235 242.8058,231.3335 C247.0358,232.3735 251.3558,232.8435 255.7458,232.2635 C259.4258,231.7835 262.7258,230.5835 265.9858,228.8035 C268.3558,227.5235 267.6058,227.1535 270.1858,228.1935 C276.0558,230.5735 281.3658,233.7135 287.9758,232.0835 C291.4058,231.2435 294.3658,229.3935 296.8558,226.9035 C297.4458,226.3235 298.4458,225.4535 299.1158,224.6335 C302.2558,226.2235 310.1558,229.8135 311.4558,230.1335 C315.1358,231.0335 319.0358,230.8935 322.6158,229.6935 C325.2458,228.8135 328.4658,226.4135 330.7758,225.9235 C333.7658,225.2835 340.4058,229.4435 343.9758,230.8735 C350.2358,233.3835 356.8658,234.0035 363.2058,231.4135 C365.3858,230.5235 369.6258,226.9735 371.2558,227.0035 C373.9058,230.2735 381.3058,248.1635 383.5258,254.6935 C392.5158,281.0935 394.8458,363.5235 390.6958,384.5535 C390.5358,385.1735 390.3658,385.7835 390.1958,386.4035 C385.0958,404.6935 379.7858,423.2935 371.2558,440.3335 C363.2058,456.3935 352.0758,470.8535 336.1058,479.6235 C319.5458,488.7235 300.1058,491.1135 281.4858,489.8835 C269.4958,489.1035 257.7058,486.6935 246.1058,483.6735 C240.0458,482.1035 234.0358,480.3535 228.0558,478.5335 C225.4458,477.7435 222.7958,477.0035 220.2358,476.0835 C215.7158,474.4535 213.3458,474.3235 209.0158,476.4135 C205.0758,478.3135 204.0658,483.9235 206.1158,487.4535 C209.4558,493.2135 215.5758,493.6135 221.4858,495.2935 C227.5058,497.0035 233.5458,498.6435 239.6258,500.1135 C251.2758,502.9135 263.1158,505.0635 275.0558,506.0535 C296.4358,507.8435 318.4658,505.0835 337.9258,495.7535 C340.1258,494.6935 342.2458,493.5635 344.2958,492.3435 C343.5358,493.4035 342.7658,494.4635 341.9858,495.5135 C339.8258,498.4235 341.4258,503.3735 344.4558,504.9635 C345.4158,505.4635 346.3758,505.9435 347.3458,506.4135 C347.4758,506.7235 347.6158,507.0335 347.7758,507.3435 C350.5458,512.9035 356.3458,516.1835 362.2558,517.6035 C369.2758,519.2835 377.1358,518.0935 384.2758,517.8835 C390.8958,517.6835 397.5158,517.4835 404.1258,517.2835 C405.6858,517.2435 407.2458,517.1935 408.8058,517.1435 C416.6658,516.9035 424.5158,516.6735 432.3658,516.4335 C439.3658,516.2235 439.0358,516.7635 445.6058,513.9635 C448.5358,512.7035 450.9358,510.9235 452.9558,508.5535 C454.2158,507.9935 455.4358,507.3535 456.6058,506.6235 C460.3658,504.2835 463.7058,501.1435 466.7858,497.6835 C472.0158,499.3335 479.3458,497.8035 480.3658,491.2335 C482.0058,480.7235 495.6658,476.2335 502.0458,468.6335 C507.1958,462.5035 510.8758,454.4735 510.6858,446.7635 C523.6658,440.4835 530.7258,423.9335 532.3758,409.8935 C533.1458,403.3835 533.0258,396.4135 534.1358,389.7935 C534.6258,389.2635 535.0658,388.7035 535.4358,388.1035 C538.6958,382.8335 541.5358,377.4035 544.0358,371.8435 C547.4358,369.3935 551.5258,367.8835 555.8058,367.6335 C566.3258,367.0235 568.3058,352.8335 558.2758,349.4135 C558.2258,349.3935 558.1858,349.3835 558.1358,349.3635 C560.8558,342.5635 560.6258,334.5135 557.3258,328.0735 C557.4658,327.3735 557.5958,326.6835 557.7258,325.9835 C563.3558,319.9335 566.5858,311.5235 566.2258,303.3335 C568.7958,301.5235 571.6758,300.1235 574.8258,299.2535 C579.6958,297.9135 579.7258,291.9735 576.1258,289.3135 C574.6758,288.2435 573.4758,286.9935 572.4758,285.6135 C574.9658,278.1335 573.9858,269.4835 568.8958,263.3435 C572.1258,259.2035 575.3558,255.0635 578.5858,250.9235 C580.7258,248.1835 581.8558,243.5335 578.5858,240.9335 C576.4958,239.2635 574.4058,237.6035 572.3058,235.9435 Z" id="Ink" fill="#000"/></g></g><g id="Face" transform="translate(531.000000, 366.000000) scale(1 1)" fill="#000"><g id="Face/Contempt" stroke="none" stroke-width="1" fill="none" fill-rule="evenodd"><path d="M190.580838,219.822602 C187.280979,224.137269 181.305753,227.441635 174.614228,229.021959 C168.237661,230.527902 161.190418,230.466453 155.108614,228.149072 L154.586539,227.941176 C150.039387,226.052673 145.674617,222.239371 144.017177,218.259853 C143.358193,216.67763 143.135243,215.069584 143.586238,213.568908 C143.991922,212.219001 144.943012,210.976582 146.527174,209.909206 C147.024517,209.574134 147.691645,209.549745 148.327216,209.661813 C149.115834,209.800867 149.893132,210.16984 150.362097,210.668116 C152.964096,213.434928 156.73898,216.132349 161.207084,216.086453 C164.654507,216.051103 167.469871,214.689827 170.200003,213.151437 L172.118441,212.052717 C173.969461,210.996565 175.846656,210.004165 177.970548,209.550964 C181.772426,208.739097 186.383724,210.222313 189.193828,212.669867 C190.419132,213.737086 191.309321,214.991561 191.551236,216.342614 C191.754414,217.477328 191.469083,218.661462 190.580838,219.822602 Z M170.814304,144.367155 C178.365682,148.9572 189.871664,159.660291 181.748119,171.039573 C172.185929,181.073062 158.418535,169.568982 151.634201,164.366134 C145.343449,160.333898 138.275437,170.704507 144.112,175.412823 C193.135736,211.708059 213.030606,145.567387 174.633685,138.970386 C170.406047,138.243425 168.835891,142.947174 170.814304,144.367155 Z M85.623,73.8212 L87.7924418,73.2263619 L90.0045001,72.6293513 L91.5003254,72.2338515 C101.775159,69.5444674 113.108082,67.1776694 123.297,68.3332 C127.013,68.7552 130.029,70.8462 130.555,74.7392 C130.998,78.0242 128.875,82.2622 125.262,82.8462 C113.295,84.7822 101.044,84.1542 89.022,86.1502 C83.035,87.1432 77.094,88.3762 71.13,89.4872 C66.595,90.3332 61.909,90.6302 57.335,91.3142 L58.386,91.4602 C58.754,91.5102 58.662,92.1292 58.299,92.1042 C56.791375,91.9537 55.2814531,91.9302937 53.7692344,92.035991 L53.121,92.0892 C52.134,92.2282 51.552,91.0502 52.432,90.4522 C58.005,86.6712 62.734,82.5732 68.974,79.7862 C74.371,77.3762 79.926,75.3892 85.623,73.8212 Z M179.1621,68.0224 C187.0621,60.0364 203.8621,63.1054 213.2601,66.7584 C218.6241,68.8444 223.7241,71.4814 227.9721,75.4264 L228.386213,75.8144925 L229.024136,76.4279569 C231.891581,79.2352765 235.089211,83.0982889 234.6341,87.1454 C234.5651,87.7624 234.2291,88.4674 233.5321,88.5914 C229.7681,89.2584 226.0711,87.2724 222.5951,86.0774 L220.293037,85.2874616 C216.836083,84.1099289 213.3571,82.9848545 209.7931,82.1724 C205.3611,81.1644 200.8401,80.5814 196.2901,80.6394 C191.6911,80.6994 186.7511,81.9974 182.3701,80.1714 C177.4841,78.1364 174.9511,72.2804 179.1621,68.0224 Z M101.116056,132.429995 C99.1003582,134.488343 96.4383728,135.649706 93.0314637,134.958836 C90.3692151,134.419447 85.3003252,131.742536 81.251062,127.620059 C78.4808238,124.799734 76.1645189,121.275596 75.5348483,117.193133 C75.3886144,116.245027 74.8854838,115.637224 74.2248528,115.254453 C73.7031014,114.952149 73.0151982,114.800275 72.2659115,114.876138 C71.6297705,114.940545 70.9542643,115.170885 70.4322827,115.476318 C69.4393366,116.057332 69.0332625,116.882185 68.9507107,117.498123 C68.1541083,123.441745 70.4499798,129.339186 74.0286493,134.311705 C78.8582802,141.02242 85.9507822,145.940005 90.1194807,147.091006 C97.2532735,149.061815 104.770166,147.49291 110.31224,142.527816 C114.744111,138.55788 117.01573,133.385744 119.123418,128.067181 L119.529847,127.036237 C120.003893,125.829408 120.474351,124.631454 120.972784,123.446204 C121.971768,121.071164 121.651825,119.018235 120.683197,117.41812 C119.610133,115.645482 117.629461,114.397695 115.424424,114.014451 C113.386375,113.660232 111.205318,114.047672 109.483593,115.292567 C108.029146,116.344207 106.856231,118.01047 106.439508,120.474443 C105.761825,124.480999 104.189738,129.077997 101.417669,132.111101 L101.116056,132.429995 Z M223.440775,109.240446 C221.778563,108.374347 220.478145,108.113213 218.634261,108.665656 C217.614596,108.971929 216.606823,109.558916 215.817824,110.347916 C215.035882,111.129857 214.471712,112.102263 214.252419,113.181012 C213.713072,115.843338 212.256412,118.335447 210.18061,119.960058 C208.406384,121.348643 206.16691,122.084626 203.68291,121.669413 C201.002485,121.221959 198.448729,119.502882 196.689869,117.476128 C196.199984,116.910971 195.798335,116.281896 195.409968,115.645177 L195.177941,115.262679 C194.311333,113.831986 193.469024,112.502121 192.273843,111.451439 C191.82079,111.051686 191.138107,110.774816 190.476901,110.774816 C190.208169,110.774816 189.935444,110.818544 189.675563,110.899539 C187.007679,113.577235 186.494623,115.608542 186.580635,117.62333 C186.670832,119.736131 187.503809,121.875322 188.849905,123.871251 C192.007516,128.553207 198.002761,132.391976 202.048399,133.261475 C207.588873,134.452107 213.091225,133.022832 217.502758,129.928348 C222.041966,126.744306 225.405508,121.80078 226.454161,116.229671 C226.706431,114.887916 226.599231,113.439644 226.088238,112.183929 C225.588922,110.956906 224.71878,109.905984 223.440775,109.240446 Z" id="Ink" fill="#000"/></g></g><g id="Beard" transform="translate(494.999934, 517.999659) scale(1 1)" fill="#000"><g id="Beard/Mustache and Goatee" stroke="none" stroke-width="1" fill="none" fill-rule="evenodd"><path d="M207.9143,31.3282 C196.7933,26.3192 176.8233,30.6902 169.5733,32.4282 C152.7183,36.4702 135.7623,45.2052 130.5223,58.8902 C124.6173,74.3132 136.3993,79.1682 138.1323,78.3752 C149.8003,79.1972 163.6953,71.8622 175.9223,69.9692 C185.8483,68.4192 196.3193,67.0662 205.6193,61.7922 C212.4093,65.5272 227.7453,67.5462 240.1223,70.8122 C250.6633,73.5922 255.2303,79.6212 265.0023,78.3392 C276.7143,76.8032 271.9203,52.1702 258.8673,42.1912 C244.5813,31.2702 220.4193,26.8412 207.9143,31.3282 Z M229.9341,136.6535 C220.204493,139.025645 219.5511,117.7005 218.4611,110.1665 C217.609542,104.280593 212.806884,89.1015762 200.6311,89.7565 C188.455316,90.4114238 183.878432,103.128761 184.4961,111.0385 C184.896642,116.16777 189.62335,142.149551 174.5361,145.4365 C164.9171,145.4025 153.7891,144.7535 143.6751,142.8885 C131.7711,140.1925 116.291914,130.753365 112.2031,149.3425 C110.731534,156.03274 163.1691,175.9095 186.4381,177.7075 C210.036475,182.489578 237.64678,175.136312 254.448053,157.083732 C258.270339,152.976774 269.035635,135.930081 269.802759,131.753365 C271.414428,122.978404 267.682963,117.331642 256.8251,120.4245 C249.1551,124.5205 236.191168,135.127984 229.9341,136.6535 Z" id="Ink" fill="#000"/></g></g><g id="Mask" transform="translate(400.000000, 480.000000) scale(1 1)" fill="#000"><g id="Mask/None" stroke="none" stroke-width="1" fill="none" fill-rule="evenodd" fill-opacity="0"/></g><g id="Accessories" transform="translate(419.000000, 421.000000) scale(1 1)" fill="#000"><g id="Accessories/None" stroke="none" stroke-width="1" fill="none" fill-rule="evenodd" fill-opacity="0"/></g></g></svg>