<svg viewBox="49.89189189189187 57.487499999999955 1189.7297297297298 1283.8874999999998" xmlns="http://www.w3.org/2000/svg" overflow="visible" xmlns:xlink="http://www.w3.org/1999/xlink" width="1189.7297297297298px" height="1283.8874999999998px"><g id="Master/Character/Bust" stroke="none" stroke-width="1" fill="none" fill-rule="evenodd"><g id="Body" transform="translate(147.000000, 639.000000) scale(1 1)"><g id="Body/Shrug" stroke="none" stroke-width="1" fill="none" fill-rule="evenodd"><path d="M1016.74185,283.356849 C1026.98485,278.010298 1036.98585,272.201093 1046.82885,266.154552 C1053.76185,262.007695 1047.62385,251.561941 1040.51485,255.336272 C1036.87985,257.266999 1033.25885,259.216753 1029.62485,261.135463 C1032.48485,258.671984 1035.13585,255.990196 1037.51285,253.067067 L1037.34885,252.903837 C1046.51285,244.69324 1034.74185,229.201359 1024.31985,235.945885 C1015.12885,242.608295 1005.85385,249.405896 995.303845,253.793093 C973.451845,263.05918 949.348845,264.592346 925.894845,264.859724 C917.311845,264.214813 909.113845,265.701913 900.785845,267.359254 C904.050845,254.260753 912.221845,244.369783 916.555845,231.683865 C919.753845,218.875774 901.265845,210.151452 894.713845,222.462841 C893.105845,225.486111 891.572845,228.544431 890.073845,231.617772 C875.911845,244.498965 852.263845,243.364363 837.980845,257.194897 C829.84539,264.415634 825.863543,274.213366 824.291148,284.046564 C823.223382,290.723997 824.883293,297.417784 820.845845,303.332063 C801.326845,330.940057 770.48511,374.577692 754.82211,404.960606 C743.73211,332.762632 714.120845,243.462501 683.529845,177.446258 C673.413845,156.333438 661.840845,135.703299 646.648845,117.807022 C648.370845,111.838592 642.292845,101.244629 638.427845,104.506236 C626.530845,89.972708 605.500845,86.210394 588.590845,78.9851889 C565.763845,69.2244024 546.824845,48.9357461 537.514845,25.8761761 C525.552845,-18.0358465 496.105845,-23.6137249 455.266845,-21.6729837 C416.182845,-21.722053 387.265845,-5.00544197 378.737845,34.7807532 C361.412845,64.9784053 320.506845,59.9843515 291.077845,67.9786429 C269.509845,72.9056019 248.578845,80.5233614 228.686845,90.1940205 C206.557845,69.2033727 127.302845,157.2978 120.098845,179.969823 C124.339845,180.791984 128.554845,181.781381 132.731845,182.987084 C136.451845,184.062603 134.889845,189.68154 131.137845,188.782269 C126.468845,187.660685 121.769845,186.888595 117.048845,186.352838 C116.904845,186.804476 116.778845,187.25311 116.684845,187.696736 C116.154845,187.660685 115.625845,187.615622 115.095845,187.579571 C116.270845,188.191435 117.401845,188.901438 118.503845,189.816731 C121.167845,192.028855 117.699845,196.297885 114.868845,194.535395 C112.201845,192.539576 108.708845,192.855022 105.509845,192.185076 C105.319845,198.763367 81.846845,191.403972 78.200845,189.223893 C61.995845,187.19703 45.324845,189.372103 30.196845,181.557064 C10.067845,177.318077 -10.212155,172.630456 -30.115155,167.231831 C-35.384155,169.285732 -40.336155,176.636114 -36.151155,182.029732 C-33.797155,184.484199 -36.823155,188.491859 -39.787155,186.747395 C-49.728155,180.896131 -57.416155,171.76223 -63.934155,161.922332 C-67.002155,158.82696 -72.448155,159.4929 -76.570155,158.208086 C-77.121155,159.198484 -77.446155,160.302043 -77.441155,161.433641 C-94.926155,164.311707 -82.453155,183.40868 -73.663155,189.359084 C-78.326155,192.395373 -78.503155,198.34077 -78.095155,203.305783 C-79.083155,205.074281 -79.413155,207.266377 -78.553155,209.248176 C-75.265155,216.824878 -68.154155,223.20589 -62.747155,229.344561 C-56.777155,236.124137 -51.454155,242.940765 -44.190155,248.436527 C-16.502155,269.542337 16.910845,281.342004 51.188845,285.956521 C63.359845,287.826162 80.866845,290.687203 88.402845,300.978739 C86.553845,313.192991 83.158845,324.906535 80.078845,336.817359 C75.771845,352.626688 76.064845,369.178066 76.007845,385.295831 C75.405845,384.812148 74.249845,384.912289 74.077845,385.833591 C73.075845,392.515028 72.330845,399.346677 68.269845,404.960606 C64.709845,415.400352 62.340845,426.535079 61.009845,437.502569 C55.677845,489.498009 54.404845,543.026615 66.426845,594.21191 C71.065845,613.200731 78.610845,631.24722 88.890845,647.864691 C91.955845,652.820691 96.883845,654.272742 101.308845,653.299367 C116.118845,660.993234 134.775845,663.459718 150.738845,661.504957 C205.159845,646.099197 186.197845,683.196595 262.500845,671.83655 C394.207845,655.058852 527.311845,688.029421 658.738845,668.67208 C661.975845,693.674394 704.349845,686.502264 719.068845,675.932335 C763.202845,643.122994 785.116845,539.247277 807.265845,486.551848 C822.490845,445.018185 847.984845,371.454281 881.371845,343.583916 C891.382845,335.753856 903.483845,331.632035 915.591845,328.304335 C960.779845,316.659888 1006.14185,305.648335 1051.41585,294.327344 C1059.09385,292.436674 1057.71385,279.342179 1049.50385,280.182366 C1038.60785,281.29694 1027.67485,282.306366 1016.74185,283.356849 Z" id="Skin" fill="#d08b5b"/><path d="M10.794845,275.568455 C7.73484505,275.188955 4.73484505,274.098955 1.75484505,273.238955 C-2.79515495,271.908955 -7.25515495,270.358955 -11.645155,268.588955 C-20.705155,264.959955 -29.495155,260.668955 -37.735155,255.418955 C-51.045155,246.928955 -62.805155,236.048955 -71.675155,222.948955 L-72.2841162,222.035332 C-77.347955,214.322123 -86.688755,197.194955 -76.215155,191.338955 C-82.965455,185.698655 -89.345455,175.568655 -88.985455,167.748655 C-88.475455,156.688655 -74.915455,156.839655 -67.905455,161.528655 C-63.315455,164.598655 -59.875455,168.898655 -56.425455,173.129655 C-52.605455,177.828655 -48.525455,182.308655 -44.285455,186.618655 C-43.160455,187.758655 -42.024205,188.876155 -40.8682675,189.975374 L-39.705555,191.068555 C-39.885455,190.639055 -40.045455,190.199055 -40.185455,189.748055 C-42.525455,182.459055 -39.735455,172.969055 -32.445455,169.629055 C-27.9842354,167.583933 -23.3511004,168.832351 -19.0280312,170.568488 L-18.365455,170.839055 C-12.545455,173.248055 -6.65545495,175.379055 -0.595454952,177.089055 C24.104545,184.059055 49.884545,185.219055 75.194545,188.699055 C84.944545,190.049055 94.874545,191.748055 104.574545,194.248055 C108.274345,178.538355 117.344345,163.479355 127.184345,151.089355 C174.304345,91.8183553 252.014345,72.2293553 323.104345,59.5493553 C329.584345,58.3993553 334.954745,66.9789553 338.724745,64.9489553 C345.874745,61.1089553 352.164745,55.6689553 357.684745,49.7589553 C369.454745,37.1489553 377.804745,22.3189553 387.614745,8.26895534 C392.464745,1.32895534 403.624745,7.53895534 399.124745,14.9889553 L396.920258,18.6298707 C387.843471,33.5436082 377.792104,48.9131063 364.774745,60.4789553 C357.854745,66.6189553 350.174745,71.4689553 341.394745,74.4979553 C334.744745,76.7889553 325.414745,78.7189553 318.134745,76.4979553 L317.261041,75.2253257 C317.550101,75.6508776 317.841212,76.075322 318.134545,76.4986553 C337.134345,104.028555 360.974345,127.328555 386.094345,149.318555 C411.450021,171.502339 438.803184,191.367712 466.320864,210.790937 L468.614345,212.408555 C513.444038,179.709779 551.313826,137.05914 577.883799,88.3295566 C572.314745,87.6587553 566.804745,84.0897553 562.044745,81.4287553 C556.314745,78.2097553 550.924745,74.3687553 546.724745,69.2487553 C537.574745,58.0987553 538.764745,43.7287553 537.114745,30.1987553 C537.014745,29.3587553 538.124745,29.1487553 538.634745,29.5687553 C543.594745,33.6887553 545.334745,40.4387553 547.404745,46.2687553 C549.684745,52.6787553 552.264745,57.9597553 557.494745,62.4687553 C562.364745,66.6697553 568.304745,69.7587553 574.074745,72.5087553 C577.050386,73.9197853 591.821836,77.5459945 593.504445,80.5492553 C619.024745,74.5590553 643.884745,84.9090553 662.794745,102.369055 C681.064745,119.239055 694.474745,141.169055 706.314745,162.819055 C718.944745,185.919055 729.294745,209.998055 738.214745,234.748055 C747.254745,259.869055 754.184745,285.539055 757.994745,311.979055 C761.210745,334.270255 763.182585,356.911663 764.458801,379.452064 L764.614745,382.269055 C783.494445,352.638855 802.844445,323.318855 822.594445,294.258855 C818.104445,282.268855 823.074445,270.028855 831.484445,260.768855 C840.804445,250.518855 853.694445,245.758855 866.024445,240.218855 L867.645116,239.485753 C873.587917,236.774966 879.511112,233.789689 884.644445,229.728855 C889.584445,225.808855 893.214445,220.408855 898.414445,216.798855 C905.974445,211.538855 919.694445,212.658855 920.044445,224.148855 C920.224445,230.459855 917.514445,237.378855 915.034445,243.048855 C912.224445,249.459855 908.434445,255.268855 903.934445,260.608855 C903.726445,260.857655 903.499245,261.053975 903.268205,261.209591 L903.094545,261.318855 C909.314545,262.348855 915.584545,263.178855 921.974545,263.468855 C934.864545,264.058855 947.894545,263.108855 960.514545,260.388855 C973.434545,257.608855 985.954545,253.089855 997.574545,246.788855 C1007.50455,241.408855 1016.70455,234.448855 1027.98455,232.808855 C1029.02445,232.649055 1030.07445,232.549055 1031.15445,232.489055 C1032.95445,232.389055 1034.75445,234.509055 1034.04445,236.288055 C1033.65445,237.269055 1033.24445,238.239055 1032.79445,239.219055 C1028.89455,247.80853 1022.91268,256.141587 1015.4514,262.466235 L1014.87455,262.948755 C1017.50475,262.038955 1020.09475,261.018955 1022.64475,259.868955 C1037.63475,253.118955 1051.23475,242.918955 1067.30475,238.818955 C1068.06475,238.618855 1068.83475,238.438855 1069.60475,238.268855 C1074.57475,237.198855 1077.19475,242.598855 1074.27475,246.298855 C1073.80475,246.898855 1073.33475,247.488855 1072.84475,248.078855 C1065.67475,256.978555 1057.76475,265.238555 1049.04475,272.658555 C1046.05475,275.198555 1042.97475,277.658555 1039.83475,280.009555 C1038.51151,281.005676 1037.1809,281.980248 1035.83655,282.939014 L1035.17445,283.408555 C1036.74445,282.299555 1038.29445,281.169555 1039.83445,280.009555 C1049.67445,277.028555 1059.37445,273.498555 1068.86445,269.589555 C1072.63445,268.038555 1075.56445,271.858555 1075.96445,274.998555 C1077.30445,285.519555 1065.62445,293.129555 1058.02445,298.188555 C1050.40445,303.269555 1042.01445,307.129555 1033.42445,310.228555 C1016.9084,316.197369 999.561519,318.907838 982.241805,321.336841 L973.829665,322.508508 C940.532858,327.164413 905.755545,332.730855 881.864445,358.639555 C868.474445,373.158555 859.414445,391.198555 851.124445,408.948555 C842.844445,426.679555 835.574445,444.879555 828.674445,463.179555 C821.524445,482.118555 815.294445,501.408555 808.674445,520.538555 C802.594445,538.104055 795.33217,555.444833 788.139388,572.609758 L787.004445,575.318555 C771.734445,611.799555 753.494445,646.158555 728.074445,676.618555 C723.884445,681.648555 717.114445,674.509555 720.984445,669.528555 C747.574445,635.248555 766.074445,594.799555 781.344445,554.448555 C788.294445,536.089555 794.114445,517.288555 800.794445,498.828555 L804.769325,487.862243 C810.076845,473.243555 815.430445,458.643555 821.014445,444.139555 C828.084445,425.788555 835.854445,407.658555 844.744445,390.118555 L845.687564,388.271808 C854.391346,371.350587 864.731989,354.673906 878.964445,341.868555 C904.581645,318.810135 938.669573,313.278055 971.628071,308.896515 L981.996575,307.530153 C995.930834,305.678972 1009.90445,303.634389 1023.45445,299.908555 C1031.27445,297.769555 1038.91445,295.028555 1046.09445,291.248555 C1048.95445,289.748555 1051.74445,288.099555 1054.44445,286.299555 C1046.74445,288.559555 1038.93445,290.408555 1030.98445,291.858555 C1027.09445,292.568555 1023.24445,293.099555 1019.40445,293.469555 C1009.51485,294.448255 999.704845,294.408255 989.574845,293.879255 C988.714845,293.828255 988.434845,292.479255 989.354845,292.309255 C996.409391,291.05471 1003.4722,289.486115 1010.50571,287.783786 L1012.61475,287.268555 C1012.65475,286.099555 1013.11475,284.858555 1014.07475,283.679555 C1017.57475,279.419555 1024.22475,277.238555 1028.83475,274.228555 C1033.66475,271.078555 1038.34475,267.679555 1042.80475,264.038555 C1046.88475,260.709555 1050.80475,257.188555 1054.57475,253.509555 L1055.70494,252.39888 C1055.32981,252.770483 1054.95308,253.140622 1054.57475,253.508955 C1044.39475,258.209955 1034.74475,264.238955 1024.11475,267.959955 C1015.66475,270.928955 1006.80475,272.928955 997.864745,273.638955 L997.309745,273.682705 L996.754745,273.718955 C987.424645,274.389055 978.034645,274.119055 968.844645,276.139055 C967.814645,276.369055 967.494645,274.989055 968.414645,274.599055 C976.444645,271.259055 984.794645,269.969055 993.234645,268.409055 C993.414545,267.748755 993.874545,267.158755 994.674545,266.778755 L996.833955,265.747795 C1003.26455,262.659355 1009.25855,259.541755 1014.60455,254.528755 C1019.32455,250.098755 1023.25455,244.919755 1026.20455,239.178755 C1014.39455,241.768855 1004.02455,250.718855 993.284545,255.748855 C981.584545,261.238855 969.204545,265.178855 956.484545,267.419855 L955.035324,267.668135 C931.264781,271.633159 902.679945,271.127635 881.384545,258.768855 C880.704545,258.368855 881.194545,257.459855 881.894545,257.568855 C887.934545,258.558855 893.914545,259.728855 899.894545,260.768855 C898.724445,259.698855 898.204445,257.778855 899.554445,256.238855 C904.925413,250.084017 909.172551,243.048845 911.888019,235.350856 L912.407375,233.845502 C913.658001,230.274846 915.770445,224.729789 913.614445,221.508855 C911.554445,218.438855 906.704445,218.858855 903.804445,220.158855 C897.774445,222.878855 893.764445,229.669855 888.684445,233.768855 C883.144445,238.248855 876.844445,241.568855 870.394445,244.538855 L869.03245,245.157679 C857.87616,250.175987 845.956406,254.400424 837.184445,263.258855 C832.464445,268.018855 828.404445,273.968855 827.044445,280.638855 C826.424445,283.698855 826.424445,286.848855 827.244445,289.878855 C827.894445,292.248855 829.254445,293.709855 828.474445,296.118855 C827.454445,299.228855 823.844445,302.948855 821.984445,305.718855 C819.824445,308.919855 817.674445,312.128855 815.524445,315.338855 C811.234445,321.758855 806.964445,328.198855 802.694445,334.628855 C794.154445,347.508855 785.704445,360.448855 777.324445,373.428855 C774.597778,377.655522 771.880001,381.886633 769.171112,386.122189 L765.114745,392.479055 L762.970995,395.830305 L759.314645,401.578155 C759.444645,402.109155 759.434645,402.669155 759.264645,403.158155 C758.641312,404.933711 757.473873,406.147322 756.023481,407.027285 L755.764445,407.178855 C734.424445,440.908855 713.424445,474.858855 692.214445,508.669855 C691.084445,518.988555 690.024445,529.318555 689.104445,539.648555 C687.014445,563.028555 685.584445,586.469555 685.124445,609.938555 C684.904445,621.299555 685.814445,632.728555 686.304445,644.078555 C686.544445,649.495698 686.872608,654.906229 687.30153,660.315185 L687.617067,664.149081 C688.039556,669.417698 688.279112,674.647289 686.384445,679.669555 C684.704445,684.078555 679.584445,685.068555 676.554445,681.709555 C637.024545,680.118955 597.464545,678.908955 557.904545,678.158955 C487.094545,676.798955 416.254545,677.008955 345.434545,678.378955 C309.864545,679.068955 274.284545,680.038955 238.724545,681.238955 C221.204545,681.818955 203.674545,682.638955 186.144545,682.878955 C176.699945,683.007655 161.835392,679.568791 161.073302,668.943148 L161.054545,668.618655 C159.874545,668.938655 158.654545,669.198655 157.404545,669.388655 C156.848055,669.474269 156.313553,669.449937 155.819867,669.334485 L155.574545,669.269255 C141.495826,673.560266 123.687002,667.437636 110.309136,663.8696 L109.204745,663.578455 C96.434745,660.248455 86.174745,655.488455 77.804745,644.908455 C63.154745,626.379455 58.154745,601.498455 55.554745,578.568455 C53.114745,556.988455 52.974745,535.009455 55.944745,513.469455 C54.194645,495.919555 55.904645,477.809555 57.894645,460.358555 C58.874645,451.728555 60.024645,443.108555 61.404645,434.528555 C62.174645,429.738555 63.184645,424.998555 64.214645,420.268555 C64.625895,418.378555 64.9682388,416.343852 65.4895474,414.376811 L65.724545,413.538555 C64.124545,413.748555 62.374545,413.398555 60.684545,412.469555 C56.664545,410.259555 55.494545,405.788555 55.424545,401.509555 C55.204545,388.608555 56.744545,375.339555 58.104545,362.519555 C59.474545,349.719555 61.354545,336.868555 63.814545,324.228555 L64.451121,320.96961 C66.3151277,311.514358 68.4479933,301.753383 72.204545,292.868555 C58.094845,290.469455 44.024845,287.919455 30.334845,283.578455 C23.654845,281.448455 17.074845,278.799455 10.794845,275.568455 Z M747.254445,409.818855 C747.034545,409.869055 746.824545,409.929055 746.614545,409.989055 C740.974545,411.569055 735.274545,412.909055 729.594545,414.349055 C719.774545,416.819055 710.174545,419.579055 701.044545,423.869055 C699.131945,448.00928 696.296593,472.070804 693.601318,496.144687 L693.064445,500.959855 C697.204445,493.278855 701.444445,485.658855 705.874445,478.129855 C719.364445,455.178855 733.164445,432.408855 747.254445,409.818855 Z M69.164545,412.209555 C69.194645,415.078555 68.594645,418.059555 68.274645,420.818555 C67.754645,425.299555 67.334645,429.799555 66.804645,434.278555 C65.724645,443.278555 64.804645,452.288555 64.134645,461.328555 C63.704645,467.099555 63.424645,472.889555 63.174645,478.679555 C68.844745,457.488455 76.354745,436.759455 83.494745,415.998455 C82.3012784,415.872522 81.0812339,415.581211 79.8227006,415.246922 L77.7040443,414.676271 C76.4547873,414.354552 72.4021921,413.357791 69.164545,412.209555 Z M765.114845,392.479155 L765.154845,393.429155 C765.304845,396.799155 763.284845,398.699155 760.834845,399.189155 C762.254845,396.949155 763.684845,394.709155 765.114845,392.479155 Z M116.314545,232.759555 C122.284545,233.288555 128.134545,234.559555 133.714545,236.759555 L134.252961,236.969711 C138.380186,238.562729 144.414545,240.564343 145.764545,244.969555 C146.144545,246.219555 145.124545,247.248555 143.954545,247.349555 C139.474545,247.709555 134.194545,242.908555 130.044545,241.288555 C125.424545,239.488555 120.584545,238.148555 115.684545,237.438555 C104.674545,235.828555 93.194545,237.049555 82.834545,241.059555 C82.224545,241.299555 81.844545,240.328555 82.394545,240.038555 C92.834545,234.358555 104.444545,231.709555 116.314545,232.759555 Z M-10.195155,261.358955 C-10.885555,260.748655 -11.575555,260.108655 -12.255555,259.469655 C-17.6169835,254.397512 -22.3647131,248.478279 -25.8800634,241.973773 L-26.8052452,240.213324 C-29.6683986,234.670117 -33.1842297,226.772631 -26.455555,222.778655 C-22.435555,220.389655 -17.595555,220.988655 -13.115555,222.438655 C-12.825555,222.528655 -12.535555,222.629655 -12.245555,222.728655 C-10.245555,223.429655 -8.31555495,224.268655 -6.59555495,225.068655 C0.874445048,228.498655 7.46444505,233.488655 14.364445,237.889655 C21.8408087,242.659595 29.2231411,245.709703 37.8518146,247.494978 L38.664445,247.658655 C46.764445,249.259655 55.544445,250.288655 61.194445,256.948655 C62.614445,258.629655 61.314445,261.778655 58.864445,260.948655 C43.244445,255.679655 26.714445,254.518655 12.374445,245.868655 C6.43444505,242.288655 0.814445048,238.179655 -5.25555495,234.788655 C-8.47555495,232.987322 -11.8000883,231.412478 -15.3429801,230.332424 L-17.2784802,229.761746 C-18.4121908,229.430739 -19.765555,229.103933 -20.675555,229.429655 C-22.407813,230.029655 -21.8549514,230.956502 -21.3190077,232.574535 L-21.265555,232.738655 C-17.055555,245.759655 -5.05555495,256.658655 6.06444505,263.868655 C8.61444505,265.528655 11.224445,267.049655 13.884445,268.459655 C31.8899351,278.056734 52.036648,282.523379 71.8238848,287.825619 C79.451125,289.95471 84.5280784,291.419255 87.054745,292.219255 C91.274745,291.868255 96.084745,293.359255 99.264745,295.139255 C102.354745,296.868255 104.844745,299.189255 106.724745,301.919255 C106.724745,301.919255 108.534745,303.429255 108.864745,305.769255 C109.814745,307.939255 110.454745,310.278255 110.774745,312.719255 C110.954745,314.149255 110.594745,315.248255 109.914745,316.028255 C111.960102,347.421029 103.480598,378.637087 93.9207362,408.471507 L92.973495,411.41338 L92.364745,413.278255 C82.054745,444.908455 70.224745,476.309455 64.944745,509.288455 C61.414745,531.318455 61.524745,554.118455 64.114745,576.248455 L64.2973497,577.774769 C66.8492632,598.698367 71.7592689,622.17017 85.064745,639.009455 C91.8513522,647.603205 99.8919453,651.422163 110.171799,654.189529 L110.734745,654.339455 C120.034745,656.788455 129.634745,660.259455 139.224745,661.309455 C148.124745,662.278455 155.584745,658.969455 163.594745,655.868455 L163.604545,655.859255 C180.474645,640.929155 188.134645,619.189155 193.794645,597.248155 C208.464645,540.469155 206.644645,481.529155 198.324645,423.919155 C193.984645,393.819155 188.084645,363.979155 182.204645,334.149155 C179.264645,319.239155 176.094645,304.359155 173.464645,289.399155 L171.902653,280.594624 C171.040739,275.703218 170.207145,270.807905 169.494645,265.889155 C168.534645,259.279155 168.244645,252.779155 167.914645,246.129155 C159.834645,232.739055 148.104645,221.709055 134.514645,213.799055 C124.784645,208.129055 114.484645,204.199055 103.854645,201.349055 C73.464545,193.159055 40.334545,193.739055 9.75454505,187.439055 C-0.51849843,185.325142 -10.2700296,182.186503 -20.0163894,178.425709 L-21.345455,177.909055 C-25.815455,176.169055 -30.375455,175.199055 -32.595455,180.469055 C-34.175455,184.219055 -33.235455,188.119055 -30.865455,191.269055 C-25.055455,198.989055 -13.375455,202.569055 -4.58545495,205.349055 C0.704545048,207.029055 6.10454505,208.359055 11.564545,209.349055 C17.024545,210.339055 22.504545,210.589055 27.744545,212.519055 C29.764545,213.259055 30.164545,216.469055 27.744545,217.038055 C21.104545,218.589055 14.424545,217.259055 7.82454505,215.969055 C0.574545048,214.538055 -6.56545495,212.509055 -13.505455,209.939055 C-14.785455,209.467055 -16.110255,208.969455 -17.459375,208.440623 L-18.475455,208.038655 C-17.425455,208.799655 -16.375455,209.549655 -15.315455,210.299655 C-15.035455,210.498655 -15.205455,211.028655 -15.575455,210.898655 C-31.8934877,204.811114 -46.7409481,193.827148 -58.2431417,180.83112 L-58.815455,180.179655 C-62.865455,175.538655 -72.095455,161.498655 -79.875455,165.408655 C-87.181055,169.075855 -74.727551,183.212431 -69.9948431,188.992086 L-69.445255,189.669455 C-64.065255,189.809455 -58.855255,193.158455 -54.495255,195.858455 C-46.925255,200.549455 -39.015255,204.589455 -30.955255,208.368455 C-14.935255,215.898455 2.07474505,221.209455 17.924745,229.118455 C18.134745,229.229455 17.974745,229.498455 17.774745,229.469455 C7.68474505,227.858455 -2.29525495,225.288455 -12.045255,222.099455 L-12.480255,221.96308 L-12.915255,221.818455 C-19.005255,219.818455 -25.015255,217.559455 -30.925255,215.148455 C-37.495255,212.469455 -43.915255,209.459455 -50.145255,206.049455 C-55.785255,202.969455 -62.045255,197.419455 -68.585255,196.599455 C-69.285255,196.509455 -69.905255,196.498455 -70.445255,196.549455 C-77.955155,197.178955 -71.745155,209.618955 -69.645155,213.338955 C-66.215155,219.448955 -62.075155,225.088955 -57.325155,230.238955 C-47.695155,240.698955 -36.025155,248.988955 -23.395155,255.438955 C-19.085155,257.638955 -14.675155,259.578955 -10.195155,261.358955 Z" id="Ink" fill="#000"/></g></g><g id="Head" transform="translate(372.000000, 180.000000) scale(0.9978902953586498 1)"><g id="Head/Long Afro" stroke="none" stroke-width="1" fill="none" fill-rule="evenodd"><path d="M408.5136,274.9444 C401.6496,191.2694 380.7496,117.1594 282.5446,113.9994 C238.2266,114.3954 192.9876,123.8104 152.2336,141.2304 C53.1776,190.8964 21.7486,372.3774 109.0196,445.4314 C108.5006,445.7264 108.3756,446.5794 108.9886,446.9914 C127.0186,459.1214 147.0596,469.1014 167.1316,477.4874 C220.5976,500.0914 283.5386,509.9094 338.0656,485.3904 C421.2786,449.9824 422.5266,351.4574 408.5136,274.9444 L408.5136,274.9444 Z" id="Skin" fill="#d08b5b"/><path d="M572.3058,235.9435 C575.7258,232.8635 578.2758,228.8235 579.5658,224.2935 C580.7458,220.1635 580.8258,215.6535 579.5758,211.5335 C578.2358,207.1135 575.3458,203.5935 575.9958,198.9935 C576.0658,198.5435 576.1558,198.0735 576.2958,197.6035 C578.7958,188.9435 584.9458,182.6935 582.7458,173.0935 C582.1258,170.3835 580.9558,167.9435 579.3258,166.0235 C579.5058,163.9435 579.6658,161.8435 579.7958,159.7435 C583.4058,151.2935 583.2758,141.2535 579.4258,132.9335 C578.9558,128.6735 578.2458,124.4535 577.2458,120.3035 C577.7058,116.6335 577.0658,112.5935 575.8858,109.3835 C573.8128,103.7355 571.2508,98.1695 568.4708,92.6955 C568.7978,91.1985 568.6508,89.6165 567.8248,88.2095 C566.3228,85.6525 564.3378,83.4045 562.3088,81.2075 C560.8738,78.6445 559.4288,76.1025 557.9958,73.5935 C557.3318,72.4405 556.5988,71.1615 555.7908,69.8065 C557.9928,65.7205 559.1688,61.7385 556.8398,56.9335 C555.9648,55.1285 553.5588,53.7975 551.5778,53.9155 C549.4128,54.0445 547.2278,54.1415 545.0308,54.2245 C540.9248,49.2665 536.2718,44.8155 531.2858,42.2535 C526.2358,37.9735 521.1158,33.7735 516.1358,29.4835 C514.7258,28.2635 513.3058,27.0435 511.8958,25.8235 C511.8858,25.7935 511.8758,25.7535 511.8658,25.7235 C510.8258,21.9335 509.6558,18.1935 508.4858,14.4335 C507.7558,12.1035 507.5358,9.6635 505.2658,8.3935 C500.5258,5.7435 493.2358,5.3235 487.7958,4.8735 C487.2558,4.3935 486.7158,3.9235 486.1758,3.4435 C488.6458,-3.1365 488.2058,-10.1265 485.0958,-16.7165 C484.0358,-18.9565 480.3558,-19.9665 478.3358,-18.4865 C473.6758,-15.0665 468.1458,-13.8565 462.6758,-14.3565 C454.6358,-20.5365 422.2058,-48.4825 417.1948,-51.4325 C417.1328,-51.5385 417.0828,-51.6445 417.0168,-51.7495 C414.1998,-56.2475 410.7788,-59.8595 406.9328,-62.7555 C406.3838,-63.3285 405.8348,-63.9025 405.2858,-64.4765 C405.7688,-67.9055 407.0398,-71.2165 409.0858,-73.9865 C409.3058,-74.3065 409.5558,-74.6165 409.8058,-74.9165 C413.3858,-79.1765 409.0158,-84.6565 404.0158,-82.4265 C403.6558,-82.2665 403.2958,-82.1065 402.9358,-81.9365 C399.0918,-80.2225 394.8388,-78.3595 390.4098,-76.7875 C388.7888,-77.3945 387.1368,-77.9445 385.6298,-78.5505 L369.4938,-85.0375 C366.8378,-86.1055 364.0298,-87.0105 361.4608,-88.2655 C360.5648,-94.2245 354.5928,-98.1325 348.3908,-97.9285 C348.7488,-99.0725 349.2828,-100.1835 350.0358,-101.2365 C350.2558,-101.5465 350.4958,-101.8465 350.7458,-102.1365 C353.9358,-105.8465 349.6758,-112.7265 345.1158,-109.4265 C344.7958,-109.1965 344.4658,-108.9665 344.1458,-108.7365 C342.8788,-107.8475 341.5818,-107.0135 340.2708,-106.2055 C338.1718,-107.1215 335.8078,-107.3305 333.3338,-106.3615 C327.8558,-104.2165 322.8058,-102.0355 317.9828,-98.6735 C317.7868,-98.5365 317.5838,-98.4215 317.3858,-98.2925 C314.9918,-101.1845 311.1908,-103.1185 307.7678,-103.0975 C307.6978,-103.0975 307.6438,-103.0985 307.5818,-103.0995 C305.0228,-106.9985 300.3318,-109.2645 295.8018,-108.7135 C296.1078,-114.3085 290.5068,-119.3015 285.4078,-119.9085 C279.4498,-120.6165 274.0798,-117.1575 272.2918,-111.3455 C271.7938,-109.7275 271.2968,-108.1085 270.7988,-106.4895 C266.1728,-108.8245 261.2908,-110.6135 256.1908,-111.5065 C244.5778,-113.5405 233.2228,-111.3745 222.0318,-108.1505 C220.9138,-107.8285 219.7968,-107.4975 218.6798,-107.1675 C217.0838,-109.0165 215.5868,-110.9095 214.1558,-112.6765 C211.6858,-115.7265 205.7558,-113.2865 206.1558,-109.3665 C206.4338,-106.6615 205.3348,-104.7155 203.5658,-103.3325 C201.6228,-103.0485 199.7448,-102.9625 196.9128,-103.0195 C193.1698,-103.0955 191.4668,-103.2125 187.5528,-104.7385 C185.7288,-105.4485 183.4578,-107.3155 182.3948,-108.9915 C178.3198,-115.4185 167.9688,-117.1495 163.0388,-111.0215 C157.8508,-113.2925 151.3008,-110.1605 148.4208,-105.7445 C146.9138,-103.4355 143.7698,-102.1445 139.8118,-101.0345 C136.8408,-100.2025 133.8028,-99.5725 130.7508,-99.0215 C129.3908,-100.8665 126.5268,-102.1035 124.4258,-100.5565 C123.0028,-99.5055 121.6208,-98.4265 120.2578,-97.3205 C109.7478,-95.8725 99.2928,-95.8205 89.2718,-99.9185 C80.7878,-103.3885 72.9978,-93.9115 74.3978,-85.9555 C71.9408,-84.6765 69.2748,-83.8255 66.8478,-82.4855 C61.5528,-79.5595 57.2048,-74.9345 54.5548,-69.5005 C54.0798,-68.5275 53.6508,-67.5395 53.2418,-66.5465 C51.2628,-64.9355 49.3058,-63.2815 47.3958,-61.5365 C44.2158,-63.1665 41.0458,-64.7965 37.8658,-66.4265 C35.4858,-67.6465 31.4758,-66.7965 31.0058,-63.6365 C30.2358,-58.4365 28.3658,-54.1265 25.6958,-50.5165 C17.0158,-45.9565 8.6658,-40.8365 0.6758,-35.1465 C-8.5142,-32.2665 -18.2842,-30.5865 -26.3142,-28.6965 C-29.0642,-28.0465 -30.5642,-24.4565 -29.0142,-22.0665 C-27.3742,-19.5365 -25.7342,-17.0065 -24.1042,-14.4765 C-28.6742,-10.0165 -32.9642,-5.3565 -37.0142,-0.5365 C-48.2842,12.8635 -57.7142,27.5535 -66.1542,43.1135 C-69.4942,44.4635 -72.8342,45.8035 -76.1742,47.1535 C-79.3942,48.4535 -80.8442,52.1935 -78.2342,54.9435 C-76.9942,56.2535 -75.8842,57.6335 -74.9342,59.0835 C-79.6642,66.9135 -85.2342,74.0535 -93.0242,78.7335 C-95.3942,80.1535 -97.1742,82.3835 -98.1242,84.9135 C-98.9342,85.4535 -99.7342,86.0335 -100.5242,86.6235 C-102.7242,88.2835 -104.0542,91.9035 -101.4742,94.0535 C-99.6642,95.5735 -97.9642,97.3735 -96.5242,99.3635 C-96.2142,100.4935 -95.8942,101.6335 -95.5742,102.7635 C-102.8142,109.4235 -108.8342,117.1635 -113.3542,125.8435 C-114.4242,125.6735 -115.5242,125.7835 -116.4142,126.4435 C-124.4942,132.4135 -124.7342,141.9235 -121.4842,150.4235 C-123.4442,163.2335 -122.1842,176.3635 -118.4042,188.7735 C-123.3742,193.7335 -126.3642,200.8935 -127.5842,207.7935 C-129.7342,219.9135 -129.8842,238.5535 -130.4442,250.9235 C-135.8642,256.1535 -139.7242,262.9235 -141.8742,270.2035 C-143.6842,271.1035 -145.4942,272.0035 -147.3042,272.9035 C-148.9142,273.7035 -150.0942,275.8135 -150.000111,277.5935 C-149.5342,286.2035 -145.9842,293.0035 -141.2742,299.1635 C-139.6042,303.9135 -137.1342,308.2935 -133.8942,312.4935 C-131.6542,315.3735 -129.4642,318.1335 -127.5342,321.2435 C-127.3342,321.5535 -127.2142,321.8435 -127.1242,322.0435 C-127.8842,322.8635 -128.5142,324.2235 -129.0642,325.1935 C-133.6842,333.3335 -133.7542,342.8735 -127.1942,349.9635 C-129.6642,351.9835 -129.7442,356.0635 -127.5642,358.5635 C-113.3742,374.7735 -101.5442,394.4835 -81.8542,403.0935 C-81.7642,403.2435 -81.6842,403.3935 -81.6142,403.5435 C-85.6042,413.1435 -86.1442,418.1335 -82.8842,428.0535 C-82.8642,428.1435 -82.8342,428.2235 -82.8042,428.3135 C-81.0642,433.5135 -77.8642,441.8435 -72.0942,443.4635 C-70.2742,443.9735 -68.4842,444.2035 -66.7142,444.1935 C-62.1342,448.6035 -57.5642,453.0235 -52.9942,457.4435 C-52.5942,459.6335 -52.3442,461.8435 -52.2642,464.0735 C-52.1342,467.8035 -48.6242,470.8235 -44.8442,469.7235 C-43.5142,469.3335 -36.1542,462.1835 -34.8042,462.2235 C-34.1242,462.9035 -33.4642,463.5835 -32.8042,464.2735 C-30.3742,466.8235 -27.0042,470.8435 -26.7242,473.5135 C-26.1842,478.5435 -22.8842,484.3035 -17.5542,485.3235 C-15.5542,487.3535 -12.3542,487.9635 -9.9042,485.3135 C-9.7442,485.1435 -9.5842,484.9735 -9.4142,484.8235 C-9.1542,484.7935 -8.9042,484.7635 -8.6442,484.7335 C-7.4642,488.2535 -6.2842,491.7735 -5.0942,495.2835 C-2.7642,502.2035 6.1358,506.6535 12.4558,502.6135 C13.4758,503.2235 14.4758,503.8735 15.4758,504.5235 C16.9958,505.4935 18.5358,506.4835 20.1158,507.4135 C20.2058,507.6735 20.2958,507.9335 20.3758,508.1835 C21.3958,511.2935 25.6358,512.9635 28.2458,511.1735 C29.0558,511.4335 29.8858,511.6435 30.7258,511.8135 C35.1358,512.6835 39.5758,512.4435 43.8358,510.9735 C46.8858,509.9335 49.7958,507.9435 53.0758,507.6735 C53.2808,507.6565 53.4918,507.6705 53.6998,507.6645 C56.3758,513.1465 62.4908,517.8705 67.3098,519.4755 C73.6218,521.5785 80.0818,520.8265 85.8298,518.2515 C87.3808,521.3525 89.3288,524.2885 91.6558,527.0035 C92.9458,528.5035 95.2758,528.1835 96.6058,527.0035 C99.1318,524.7645 101.6418,522.5145 104.1478,520.2615 C105.9618,519.5625 107.7928,518.7235 109.7028,517.9435 C115.6768,515.5035 122.2258,514.4925 127.7508,510.9665 C130.3738,509.2925 132.8408,507.1565 134.8728,504.6815 C138.7008,502.4715 142.2178,499.7185 145.3858,496.5635 C146.9658,496.5735 148.6158,496.2035 150.2158,495.3935 C156.9058,491.9935 160.4258,485.0735 160.7358,477.9935 C166.1558,465.2435 169.3558,451.6435 170.2358,437.7235 C170.5158,433.1535 170.5658,428.5435 170.2158,423.9735 C169.9758,420.7535 169.1658,418.6035 167.9458,415.6935 C167.5358,414.7435 167.1658,413.8735 166.8758,412.9135 C166.9458,409.8335 166.9858,406.7535 167.0258,403.6835 C167.8558,401.0935 169.3358,398.6835 171.3958,396.6535 C174.5858,393.5135 176.0458,386.9935 173.1458,383.1135 C171.2558,380.6035 169.3758,378.0935 167.4858,375.5835 C168.0158,364.8135 170.5958,347.6735 164.8758,345.8735 C165.1058,344.2735 165.5958,342.6935 165.8758,341.1035 C167.2158,333.4635 166.4158,326.6335 162.3558,319.9535 C161.5058,318.5635 160.7858,317.3335 160.1958,316.1335 C159.8258,313.9335 159.4558,311.7335 159.0858,309.5335 C158.5158,306.1435 157.9558,302.7235 157.4758,299.2835 C157.2258,294.9035 156.9958,290.5235 156.7458,286.1335 C156.5158,282.0935 156.2558,278.0535 155.9858,274.0035 C156.0958,272.1935 156.2558,270.3835 156.4858,268.5735 C157.8558,257.7835 162.2658,253.7935 169.9058,246.2935 C171.1058,246.1035 172.2958,245.8935 173.4658,245.6535 C178.9158,244.5235 184.6158,242.7735 190.2258,243.4035 C196.3158,244.0835 201.7658,246.7135 207.6858,243.3535 C209.4258,242.3535 213.2558,239.5935 213.5858,237.4035 C213.6058,237.2635 213.6358,237.1435 213.6758,237.0535 C214.0858,236.9935 214.6158,236.9435 214.9458,236.9335 C219.6458,236.7735 224.1358,238.6235 228.8758,238.1135 C234.4858,237.5135 239.5058,235.0235 242.8058,231.3335 C247.0358,232.3735 251.3558,232.8435 255.7458,232.2635 C259.4258,231.7835 262.7258,230.5835 265.9858,228.8035 C268.3558,227.5235 267.6058,227.1535 270.1858,228.1935 C276.0558,230.5735 281.3658,233.7135 287.9758,232.0835 C291.4058,231.2435 294.3658,229.3935 296.8558,226.9035 C297.4458,226.3235 298.4458,225.4535 299.1158,224.6335 C302.2558,226.2235 310.1558,229.8135 311.4558,230.1335 C315.1358,231.0335 319.0358,230.8935 322.6158,229.6935 C325.2458,228.8135 328.4658,226.4135 330.7758,225.9235 C333.7658,225.2835 340.4058,229.4435 343.9758,230.8735 C350.2358,233.3835 356.8658,234.0035 363.2058,231.4135 C365.3858,230.5235 369.6258,226.9735 371.2558,227.0035 C373.9058,230.2735 381.3058,248.1635 383.5258,254.6935 C392.5158,281.0935 394.8458,363.5235 390.6958,384.5535 C390.5358,385.1735 390.3658,385.7835 390.1958,386.4035 C385.0958,404.6935 379.7858,423.2935 371.2558,440.3335 C363.2058,456.3935 352.0758,470.8535 336.1058,479.6235 C319.5458,488.7235 300.1058,491.1135 281.4858,489.8835 C269.4958,489.1035 257.7058,486.6935 246.1058,483.6735 C240.0458,482.1035 234.0358,480.3535 228.0558,478.5335 C225.4458,477.7435 222.7958,477.0035 220.2358,476.0835 C215.7158,474.4535 213.3458,474.3235 209.0158,476.4135 C205.0758,478.3135 204.0658,483.9235 206.1158,487.4535 C209.4558,493.2135 215.5758,493.6135 221.4858,495.2935 C227.5058,497.0035 233.5458,498.6435 239.6258,500.1135 C251.2758,502.9135 263.1158,505.0635 275.0558,506.0535 C296.4358,507.8435 318.4658,505.0835 337.9258,495.7535 C340.1258,494.6935 342.2458,493.5635 344.2958,492.3435 C343.5358,493.4035 342.7658,494.4635 341.9858,495.5135 C339.8258,498.4235 341.4258,503.3735 344.4558,504.9635 C345.4158,505.4635 346.3758,505.9435 347.3458,506.4135 C347.4758,506.7235 347.6158,507.0335 347.7758,507.3435 C350.5458,512.9035 356.3458,516.1835 362.2558,517.6035 C369.2758,519.2835 377.1358,518.0935 384.2758,517.8835 C390.8958,517.6835 397.5158,517.4835 404.1258,517.2835 C405.6858,517.2435 407.2458,517.1935 408.8058,517.1435 C416.6658,516.9035 424.5158,516.6735 432.3658,516.4335 C439.3658,516.2235 439.0358,516.7635 445.6058,513.9635 C448.5358,512.7035 450.9358,510.9235 452.9558,508.5535 C454.2158,507.9935 455.4358,507.3535 456.6058,506.6235 C460.3658,504.2835 463.7058,501.1435 466.7858,497.6835 C472.0158,499.3335 479.3458,497.8035 480.3658,491.2335 C482.0058,480.7235 495.6658,476.2335 502.0458,468.6335 C507.1958,462.5035 510.8758,454.4735 510.6858,446.7635 C523.6658,440.4835 530.7258,423.9335 532.3758,409.8935 C533.1458,403.3835 533.0258,396.4135 534.1358,389.7935 C534.6258,389.2635 535.0658,388.7035 535.4358,388.1035 C538.6958,382.8335 541.5358,377.4035 544.0358,371.8435 C547.4358,369.3935 551.5258,367.8835 555.8058,367.6335 C566.3258,367.0235 568.3058,352.8335 558.2758,349.4135 C558.2258,349.3935 558.1858,349.3835 558.1358,349.3635 C560.8558,342.5635 560.6258,334.5135 557.3258,328.0735 C557.4658,327.3735 557.5958,326.6835 557.7258,325.9835 C563.3558,319.9335 566.5858,311.5235 566.2258,303.3335 C568.7958,301.5235 571.6758,300.1235 574.8258,299.2535 C579.6958,297.9135 579.7258,291.9735 576.1258,289.3135 C574.6758,288.2435 573.4758,286.9935 572.4758,285.6135 C574.9658,278.1335 573.9858,269.4835 568.8958,263.3435 C572.1258,259.2035 575.3558,255.0635 578.5858,250.9235 C580.7258,248.1835 581.8558,243.5335 578.5858,240.9335 C576.4958,239.2635 574.4058,237.6035 572.3058,235.9435 Z" id="Ink" fill="#000"/></g></g><g id="Face" transform="translate(531.000000, 366.000000) scale(1 1)" fill="#000"><g id="Face/Suspicious" stroke="none" stroke-width="1" fill="none" fill-rule="evenodd"><path d="M155.8839,250.9317 C163.4429,249.8797 171.5709,245.5987 178.7909,249.0777 C182.1659,250.7037 183.7679,256.2647 181.4859,259.3557 C178.0009,264.0767 174.4029,264.8577 168.7459,265.3117 C164.5049,265.6517 160.2409,265.6767 156.0109,265.1877 L154.934929,265.056029 C147.387247,264.081793 139.542445,261.975155 133.6949,256.9027 C132.4989,255.8647 133.1119,253.6227 134.6469,253.2987 C141.5909,251.8377 148.8549,251.9107 155.8839,250.9317 Z M146.9873,233.5262 C146.9843,233.4652 147.0773,233.4652 147.0803,233.5262 C147.2633,237.8462 148.4773,241.8512 150.7213,245.5472 C150.7523,245.6002 150.6713,245.6472 150.6403,245.5952 C148.3953,241.8962 147.1703,237.8502 146.9873,233.5262 Z M170.814304,144.367155 C178.365682,148.9572 189.871664,159.660291 181.748119,171.039573 C172.185929,181.073062 158.418535,169.568982 151.634201,164.366134 C145.343449,160.333898 138.275437,170.704507 144.112,175.412823 C193.135736,211.708059 213.030606,145.567387 174.633685,138.970386 C170.406047,138.243425 168.835891,142.947174 170.814304,144.367155 Z M209.464,93.0002 C211.237197,93.0002 212.933146,93.6020668 214.477662,94.7157521 C215.997787,95.8118502 217.37393,97.4115833 218.520105,99.4068237 C220.689089,103.182554 222.045,108.395834 222.045,114.1602 C222.045,119.924566 220.689089,125.137846 218.520105,128.913576 C217.37393,130.908817 215.997787,132.50855 214.477662,133.604648 C212.933146,134.718333 211.237197,135.3202 209.464,135.3202 C207.690803,135.3202 205.994854,134.718333 204.450338,133.604648 C202.930213,132.50855 201.55407,130.908817 200.407895,128.913576 C198.238911,125.137846 196.883,119.924566 196.883,114.1602 C196.883,108.395834 198.238911,103.182554 200.407895,99.4068237 C201.55407,97.4115833 202.930213,95.8118502 204.450338,94.7157521 C205.994854,93.6020668 207.690803,93.0002 209.464,93.0002 Z M127.3467,98.8798 L128.014238,98.7532209 C131.908988,98.044836 133.877121,98.2832737 137.2687,100.9378 C139.8177,102.9328 139.0877,106.8618 137.2687,108.9598 C134.100382,112.615777 131.004648,111.968245 126.664534,112.107728 L126.3597,112.1188 C122.7427,112.2658 119.1227,112.3688 115.5027,112.4238 C114.5127,112.4398 113.5217,112.4358 112.5317,112.4418 C112.6367,121.6028 107.3547,128.5778 100.3987,133.8808 C95.9027,137.3098 90.2157,133.3538 88.6117,129.0858 C87.2847,125.5538 86.9997,121.2108 87.6877,117.3438 C87.9425333,115.918383 88.4738181,114.371126 89.2861757,113.051725 L89.5147,112.6978 L89.4777,112.1918 C89.4687,112.0668 89.4777,111.9458 89.4737,111.8208 C83.0162,111.4284 76.59596,110.78085 70.177988,109.967088 L68.0387,109.6898 C62.5607,108.9648 54.5157,108.7318 50.0827,105.1688 C49.9427,105.0548 49.9927,104.8058 50.1407,104.7268 C52.5776545,103.4143 55.0501442,103.488581 57.7756042,103.367584 L58.1667,103.3488 C61.1307,103.1958 64.08795,103.068112 67.0502625,102.966581 L70.0147,102.8738 C77.5967,102.6568 85.1857,102.2888 92.7607,101.8858 C94.0777,101.8158 95.3947,101.7328 96.7137,101.6518 C98.0927,101.0738 99.5587,100.7278 101.0067,100.6638 C102.2067,100.6098 103.3607,100.7758 104.4457,101.1208 C107.21245,100.90705 109.977513,100.674175 112.740466,100.423862 L115.5027,100.1678 C119.4007,99.7968 123.4987,99.6348 127.3467,98.8798 Z M175.2153,30.2196 C183.5483,26.1246 193.6803,26.0246 202.2623,29.4136 L202.831053,29.6439032 C211.498518,33.2408114 221.942601,41.5490409 219.6813,51.8976 C217.6123,61.3696 202.7553,59.7646 202.0023,50.8116 C197.2053,44.1656 186.4483,42.7076 179.6863,46.9336 C175.5853,49.4976 172.7703,53.8146 170.8463,58.1686 C169.2063,61.8766 168.8973,66.4556 166.3783,69.6856 C166.2963,69.7906 166.1323,69.8096 166.0133,69.7816 C158.5013,68.0436 158.3273,56.1066 159.6083,50.3166 C161.4693,41.8986 167.4423,34.0416 175.2153,30.2196 Z" id="Ink" fill="#000"/></g></g><g id="Beard" transform="translate(494.999934, 517.999659) scale(1 1)" fill="#000"><g id="Beard/Mustache and Goatee" stroke="none" stroke-width="1" fill="none" fill-rule="evenodd"><path d="M207.9143,31.3282 C196.7933,26.3192 176.8233,30.6902 169.5733,32.4282 C152.7183,36.4702 135.7623,45.2052 130.5223,58.8902 C124.6173,74.3132 136.3993,79.1682 138.1323,78.3752 C149.8003,79.1972 163.6953,71.8622 175.9223,69.9692 C185.8483,68.4192 196.3193,67.0662 205.6193,61.7922 C212.4093,65.5272 227.7453,67.5462 240.1223,70.8122 C250.6633,73.5922 255.2303,79.6212 265.0023,78.3392 C276.7143,76.8032 271.9203,52.1702 258.8673,42.1912 C244.5813,31.2702 220.4193,26.8412 207.9143,31.3282 Z M229.9341,136.6535 C220.204493,139.025645 219.5511,117.7005 218.4611,110.1665 C217.609542,104.280593 212.806884,89.1015762 200.6311,89.7565 C188.455316,90.4114238 183.878432,103.128761 184.4961,111.0385 C184.896642,116.16777 189.62335,142.149551 174.5361,145.4365 C164.9171,145.4025 153.7891,144.7535 143.6751,142.8885 C131.7711,140.1925 116.291914,130.753365 112.2031,149.3425 C110.731534,156.03274 163.1691,175.9095 186.4381,177.7075 C210.036475,182.489578 237.64678,175.136312 254.448053,157.083732 C258.270339,152.976774 269.035635,135.930081 269.802759,131.753365 C271.414428,122.978404 267.682963,117.331642 256.8251,120.4245 C249.1551,124.5205 236.191168,135.127984 229.9341,136.6535 Z" id="Ink" fill="#000"/></g></g><g id="Mask" transform="translate(400.000000, 480.000000) scale(1 1)" fill="#000"><g id="Mask/None" stroke="none" stroke-width="1" fill="none" fill-rule="evenodd" fill-opacity="0"/></g><g id="Accessories" transform="translate(419.000000, 421.000000) scale(1 1)" fill="#000"><g id="Accessories/None" stroke="none" stroke-width="1" fill="none" fill-rule="evenodd" fill-opacity="0"/></g></g></svg>