<svg viewBox="165.0270270270271 57.487499999999955 805.9459459459459 1341.3750000000002" xmlns="http://www.w3.org/2000/svg" overflow="visible" xmlns:xlink="http://www.w3.org/1999/xlink" width="805.9459459459459px" height="1341.3750000000002px"><g id="Master/Character/Bust" stroke="none" stroke-width="1" fill="none" fill-rule="evenodd"><g id="Body" transform="translate(147.000000, 639.000000) scale(1 1)"><g id="Body/Button Shirt 2" stroke="none" stroke-width="1" fill="none" fill-rule="evenodd"><path d="M421.519127,740.902 C339.242127,740.902 257.407127,736.858 178.200127,728.881 L178.165127,728.724 L173.959127,728.216 C161.990127,726.724 149.754127,725.548 137.921127,724.411 C106.706127,721.411 74.4261272,718.308 44.3181272,709.095 L38.9991272,707.467 L38.4781272,708.8 C37.6951272,708.394 36.8731272,707.973 35.9991272,707.569 C40.7361272,630.206 48.6381272,554.274 55.7741272,489.987 L56.0671272,487.355 L54.3201272,485.366 C44.2311272,473.877 40.5141272,464.25 42.9701272,455.953 C63.0891272,413.96 67.3541272,360.386 71.4791272,308.569 C80.0301272,201.173 88.1061272,99.734 227.587127,95.343 L227.810127,95.333 L229.281127,95.231 C258.368127,93.238 288.445127,91.176 315.313127,77.803 L318.444127,76.246 L318.630127,72.754 C318.856127,68.54 324.044127,63.528 328.212127,59.502 C329.647127,58.116 331.001127,56.807 332.219127,55.496 L332.474127,55.221 L332.693127,54.918 C338.981127,46.18 346.366127,40.965 352.448127,40.965 C361.306127,40.965 365.598127,52.082 367.368127,58.709 L370.159127,69.156 L377.546127,61.258 C394.904127,42.705 403.208127,22.302 402.276127,0.544 L402.906127,0.348 L402.098127,-4.85 C400.573127,-13.871 401.587127,-20.563 405.115127,-24.737 C409.245127,-29.624 417.344127,-32 429.875127,-32 C438.155127,-32 447.165127,-30.956 455.115127,-30.035 C457.714127,-29.734 460.219127,-29.444 462.585127,-29.201 C478.499127,-27.525 494.768127,-24.509 510.500127,-21.593 L512.708127,-21.184 L511.214127,-17.115 L515.036127,-14.473 C520.129127,-10.952 523.922127,-3.889 525.443127,4.904 L525.511127,5.301 L525.633127,5.687 C527.895127,12.857 528.753127,20.864 529.662127,29.341 C531.190127,43.604 532.769127,58.351 541.307127,71.047 L546.437127,78.674 L551.355127,70.908 C553.754127,67.119 556.971127,65.276 561.189127,65.276 C572.567127,65.276 586.463127,77.858 588.932127,87.61 L589.725127,90.742 L592.776127,91.803 C613.727127,99.098 630.990127,104.422 646.221127,109.119 C684.463127,120.912 703.658127,126.832 715.975127,144.183 C728.646127,162.032 735.058127,193.186 745.725127,255.169 C757.397127,322.338 765.196127,391.377 772.737127,458.143 C782.208127,542.003 792.000127,628.686 809.575127,712.774 C808.352127,714.032 807.425127,715.284 806.793127,716.528 C799.035127,717.214 791.145127,717.835 783.470127,718.439 C770.696127,719.445 757.487127,720.485 744.580127,721.838 L741.716127,722.138 L741.081127,723.126 C739.903127,723.225 738.742127,723.341 737.601127,723.456 C735.781127,723.639 734.026127,723.815 732.311127,723.915 L731.792127,722.877 L727.628127,723.344 C623.970127,734.995 520.980127,740.902 421.519127,740.902" id="Skin" fill="#d08b5b"/><path d="M352.448127,40.965 C361.306127,40.965 365.598127,52.082 367.368127,58.709 L370.159127,69.156 L374.470127,64.546 L366.624627,78.2733881 L427.701811,134.329743 L430.040595,135.977079 C455.001079,153.461326 471.994278,162.20345 481.020192,162.20345 C490.325258,162.20345 518.020527,139.408629 564.106,93.818989 L539.221395,78.2733881 L541.464127,71.282 L546.437127,78.674 L551.355127,70.908 C553.754127,67.119 556.971127,65.276 561.189127,65.276 C572.567127,65.276 586.463127,77.858 588.932127,87.61 L589.725127,90.742 L595.272651,92.6690252 C611.799538,98.3806015 626.0085,102.865144 638.747407,106.810781 L655.039735,111.845418 C687.490308,121.932358 704.643487,128.22008 715.975127,144.183 C728.392707,161.67502 734.799144,191.945162 745.090129,251.486875 L745.725127,255.169 C756.866582,319.284864 764.479125,385.104591 771.70687,449.024846 L774.518523,473.898509 C783.46253,552.828238 793.098565,633.9415 809.575127,712.774 C808.352127,714.032 807.425127,715.284 806.793127,716.528 C801.621127,716.985333 796.390461,717.413778 791.203942,717.827556 L776.46378,718.992776 C765.902838,719.833529 755.1404,720.731 744.580127,721.838 L741.716127,722.138 L741.081127,723.126 C740.295794,723.192 739.518016,723.265556 738.748683,723.341333 L737.601127,723.456 C735.781127,723.639 734.026127,723.815 732.311127,723.915 L731.792127,722.877 L727.628127,723.344 C623.970127,734.995 520.980127,740.902 421.519127,740.902 C339.242127,740.902 257.407127,736.858 178.200127,728.881 L178.165127,728.724 L173.959127,728.216 C164.383927,727.0224 154.637847,726.03104 145.063927,725.100096 L131.217077,723.764377 C102.10578,720.936541 72.2755558,717.649929 44.3181272,709.095 L38.9991272,707.467 L38.4781272,708.8 C37.6951272,708.394 36.8731272,707.973 35.9991272,707.569 L36.3232257,702.355801 C41.0908864,626.799206 48.7984867,552.829348 55.7741272,489.987 L56.0671272,487.355 L54.3201272,485.366 C44.2311272,473.877 40.5141272,464.25 42.9701272,455.953 C63.0891272,413.96 67.3541272,360.386 71.4791272,308.569 L71.9926722,302.133117 C80.3198817,198.225472 90.6818814,101.636919 223.441987,95.5037533 L227.810127,95.333 L234.423549,94.8762896 C261.895494,92.9562734 290.025598,90.3893529 315.313127,77.803 L318.444127,76.246 L318.630127,72.754 C318.831562,68.9980435 322.974926,64.6081371 326.824526,60.8474831 L329.421008,58.3310146 C330.409739,57.3678367 331.349127,56.4324286 332.219127,55.496 L332.474127,55.221 L332.693127,54.918 C338.981127,46.18 346.366127,40.965 352.448127,40.965 Z" id="Top" fill="#FFF"/><path d="M244.542227,325.727 C244.778227,325.314 245.568227,325.459 245.504227,325.988 C242.067227,348.806 233.730227,370.915 228.656227,393.443 L228.810355,393.872025 C231.399725,401.281094 237.352147,428.00734 222.795227,420.576 L221.631476,426.668528 C202.69616,526.201502 187.412727,626.79666 189.544227,728.406 C189.857227,736.493 185.624227,760.45 174.188227,748.715 C165.788227,734.624 169.487227,717.347 168.825227,701.703 C170.269227,615.823 179.016227,529.279 201.477227,446.198 L202.405616,443.324936 C217.263823,397.646504 217.207747,412.2771 210.226227,361.273 C210.057227,356.567 206.655227,346.339 211.134227,343.513 C215.169516,346.060111 216.50779,353.538525 217.970286,357.970626 L218.070227,358.268 C220.242227,364.605 222.179227,370.996 224.098227,377.413 C230.476227,360.187 235.602227,341.831 244.542227,325.727 Z M481.939227,719.5341 C490.187227,717.0971 497.613227,726.4821 494.732227,734.1681 C492.867227,742.1841 477.287227,747.1571 476.694227,735.9811 C472.433227,731.4251 473.816227,723.0471 479.636227,720.5171 C479.577227,720.5061 481.401227,719.7721 481.939227,719.5341 Z M681.763927,264.914 C682.070927,263.854 682.950927,264.82 682.713927,265.494 C684.553927,274.817 683.057927,285.071 683.479927,294.756 C684.657927,291.982 686.183927,289.331 688.166927,286.847 C689.885927,284.696 693.004927,287.769 691.216927,289.896 C686.776927,295.179 684.834927,301.548 683.988927,308.167 C690.503927,446.377 709.687927,584.345 742.597927,718.765 C749.730927,737.304 720.961927,744.813 724.118927,724.626 C702.346927,630.347 684.986927,534.078 681.104927,437.161 C675.867927,394.632 677.930927,350.321 678.648927,307.238 C678.677927,293.202 680.034927,278.82 681.763927,264.914 Z M388.802627,-16.9995 C396.886627,-16.3585 401.572627,-2.9385 403.184627,4.4235 C409.094627,33.2795 393.205627,63.3115 372.293627,82.2355 C403.170627,110.0535 436.700627,134.8455 472.886627,155.3735 C477.808627,149.7985 486.503627,150.5995 492.561627,153.9615 C512.154627,135.4275 532.003627,117.2875 551.078627,98.2355 C521.424167,79.47797 518.9469,40.8577334 524.883184,9.43545901 L525.065627,8.4855 C525.514627,5.7885 529.272627,6.7675 529.485627,9.0845 L529.618934,10.5767878 C531.398722,31.0122358 531.557818,53.0750238 542.922627,70.9315 C555.852627,50.5105 586.839627,71.4085 591.385627,89.3705 C721.341627,134.6145 722.557627,107.9485 748.276627,257.3845 C774.278627,410.1555 781.634627,565.5485 812.092627,717.6225 C812.468627,721.9345 808.552627,725.4625 804.653627,726.0485 C789.754627,728.0315 789.291627,687.7725 785.857627,676.5295 C778.526627,634.5565 772.990627,592.2905 768.218627,549.9565 C753.568627,424.5575 748.553627,297.2545 720.186627,173.9045 C717.333627,163.5265 713.270627,153.2595 706.088627,145.0735 C676.155627,112.5015 624.237627,119.6225 591.795627,90.5945 C594.937627,100.2685 595.190627,110.9615 594.572627,121.0665 C591.022627,174.9195 588.880627,228.8745 585.067627,282.7085 C584.625627,288.7535 577.307627,290.7405 573.881627,285.7375 C546.733627,246.1145 518.870627,207.0905 492.407627,166.9875 C488.143627,169.0095 483.594627,169.9315 478.711627,168.9625 C470.968627,178.7385 474.313627,204.3105 471.785627,217.7185 L470.847625,227.976927 C456.390143,386.991078 445.778596,546.40193 446.565287,706.153118 L446.594627,711.3065 C446.587627,716.2075 446.963627,721.2895 446.597627,726.1755 C443.291627,742.0535 427.660627,736.3715 428.537627,722.2105 C427.841627,543.2185 435.237627,363.0625 464.772627,186.3045 C438.109627,219.9105 411.477627,253.5415 384.802627,287.1405 C382.80701,289.675394 379.013416,288.56069 377.429736,286.21425 L377.329627,286.0595 L377.985627,287.8195 C376.381627,287.3055 374.980627,286.3295 373.526627,285.4875 C360.115627,252.5575 351.436627,218.0185 340.900627,184.1375 C332.106627,150.9155 318.922627,118.3295 314.064627,84.2865 L313.844627,84.1945 L313.844627,84.1945 C300.648627,90.8285 286.028627,95.0865 271.253627,95.3395 C254.544627,99.6435 236.970627,101.6735 220.302627,103.8615 C99.1356272,109.0455 75.1806272,229.3515 76.2886272,329.0715 L76.0782287,333.832786 C74.812021,363.488002 74.2147628,393.659856 66.8626272,422.5065 C64.1486272,427.9485 55.5616272,462.9555 46.9246272,450.5205 C39.6426272,460.2535 41.9226272,465.9215 51.6276272,471.9345 C68.5786272,486.4865 85.1186272,509.6555 88.3806272,533.5325 C88.9876272,537.9395 82.6616272,541.8115 80.4126272,536.8925 L79.28998,534.445477 C72.7219442,520.187692 65.7776272,506.242608 56.3976272,493.8545 C55.9826272,494.5485 55.4176272,495.1325 54.7416272,495.5225 C52.4876272,554.6075 47.9236272,613.5855 43.8426272,672.5665 C41.6111672,681.01912 45.817004,734.673952 28.7144377,721.417798 L28.1896272,720.9955 C24.2833309,712.725537 26.6337064,702.727403 27.4321426,693.898009 L29.8356272,665.6215 L29.8356272,665.6215 C35.0266272,607.9045 39.2766272,550.0735 46.4486272,492.5585 L45.8855368,491.911686 C37.6372613,482.354965 29.9309383,469.7357 33.9926272,456.9845 C36.0746272,449.3165 42.9776272,445.4985 47.6476272,439.6395 C72.9846272,306.0005 29.2116272,99.0775 224.035627,92.5795 L232.191435,92.0150505 C258.454048,90.1521042 285.500839,87.4981353 309.276627,75.6655 C309.723627,67.3215 319.254627,60.2515 324.459627,54.6455 C340.493627,32.3675 362.017627,31.2505 369.800627,60.3935 C390.497627,38.1385 398.857627,12.2975 388.802627,-16.9995 Z M476.028127,630.4856 C486.117127,620.7606 499.634127,638.4756 481.340127,650.9896 C478.021127,657.0726 468.949127,652.7826 470.492127,646.4156 L470.472976,645.343881 C470.338322,639.802603 469.79205,632.961262 476.028127,630.4856 Z M477.102527,500.701 C495.522527,494.766 490.932527,528.313 478.780527,532.89 C471.437527,536.537 468.920527,527.409 470.261527,521.839 C465.491527,514.592 469.860527,505.056 477.102527,500.701 Z M476.805527,404.2999 C473.407527,389.9259 494.037527,387.5329 494.156527,402.5469 C494.822527,408.8599 489.064527,412.9679 487.609527,418.4569 C487.302527,422.0289 482.919527,424.5449 480.114527,421.5619 C475.434527,416.5819 474.428527,409.8249 476.805527,404.2999 Z M474.215027,276.5779 C476.317027,259.751898 495.361027,266.8449 488.636027,269.6479 C488.500027,269.7939 488.359027,269.9369 488.210027,270.0819 C495.901027,270.8289 495.362027,279.8609 494.506027,285.6389 C491.488027,298.5739 471.937027,286.8059 474.215027,276.5779 Z M357.098627,223.0575 C358.663627,228.7175 360.239627,234.3745 361.852627,240.0205 C366.007627,254.5675 370.944627,268.7275 376.150627,282.8645 C369.780627,262.9345 363.432627,242.9975 357.098627,223.0575 Z M367.624627,62.8415 C349.391627,32.2245 339.552627,66.7415 326.329627,80.3085 C335.671627,147.0965 363.942627,209.4855 383.184627,273.8685 C409.993627,239.6015 436.831627,205.3575 463.647627,171.0965 C465.251627,169.0425 466.796627,166.8895 468.397627,164.7825 C434.734627,145.3295 402.994627,122.3305 376.276627,93.7965 C371.137627,94.8955 367.196627,88.0255 363.507627,85.1665 L363.120549,84.8482 C359.708371,81.9730458 356.545682,77.4367364 358.693627,72.9645 C358.408627,72.3585 358.841627,71.8005 359.430627,71.6165 C362.098627,68.6875 364.928627,65.8635 367.624627,62.8415 Z M580.278627,126.9975 C582.058627,105.1455 578.454627,73.8175 549.069627,78.8025 C554.302627,85.9705 564.141627,87.1285 569.323627,94.0105 C571.220627,97.1615 568.892627,101.0645 565.444627,101.6625 C542.636627,122.3185 521.074627,143.4775 497.787627,163.8145 C523.664627,197.3165 548.507627,231.4535 573.672627,265.4725 C575.410627,219.2945 578.466627,173.1645 580.278627,126.9975 Z" id="Ink" fill="#000"/></g></g><g id="Head" transform="translate(372.000000, 180.000000) scale(0.9978902953586498 1)"><g id="Head/Long Afro" stroke="none" stroke-width="1" fill="none" fill-rule="evenodd"><path d="M408.5136,274.9444 C401.6496,191.2694 380.7496,117.1594 282.5446,113.9994 C238.2266,114.3954 192.9876,123.8104 152.2336,141.2304 C53.1776,190.8964 21.7486,372.3774 109.0196,445.4314 C108.5006,445.7264 108.3756,446.5794 108.9886,446.9914 C127.0186,459.1214 147.0596,469.1014 167.1316,477.4874 C220.5976,500.0914 283.5386,509.9094 338.0656,485.3904 C421.2786,449.9824 422.5266,351.4574 408.5136,274.9444 L408.5136,274.9444 Z" id="Skin" fill="#d08b5b"/><path d="M572.3058,235.9435 C575.7258,232.8635 578.2758,228.8235 579.5658,224.2935 C580.7458,220.1635 580.8258,215.6535 579.5758,211.5335 C578.2358,207.1135 575.3458,203.5935 575.9958,198.9935 C576.0658,198.5435 576.1558,198.0735 576.2958,197.6035 C578.7958,188.9435 584.9458,182.6935 582.7458,173.0935 C582.1258,170.3835 580.9558,167.9435 579.3258,166.0235 C579.5058,163.9435 579.6658,161.8435 579.7958,159.7435 C583.4058,151.2935 583.2758,141.2535 579.4258,132.9335 C578.9558,128.6735 578.2458,124.4535 577.2458,120.3035 C577.7058,116.6335 577.0658,112.5935 575.8858,109.3835 C573.8128,103.7355 571.2508,98.1695 568.4708,92.6955 C568.7978,91.1985 568.6508,89.6165 567.8248,88.2095 C566.3228,85.6525 564.3378,83.4045 562.3088,81.2075 C560.8738,78.6445 559.4288,76.1025 557.9958,73.5935 C557.3318,72.4405 556.5988,71.1615 555.7908,69.8065 C557.9928,65.7205 559.1688,61.7385 556.8398,56.9335 C555.9648,55.1285 553.5588,53.7975 551.5778,53.9155 C549.4128,54.0445 547.2278,54.1415 545.0308,54.2245 C540.9248,49.2665 536.2718,44.8155 531.2858,42.2535 C526.2358,37.9735 521.1158,33.7735 516.1358,29.4835 C514.7258,28.2635 513.3058,27.0435 511.8958,25.8235 C511.8858,25.7935 511.8758,25.7535 511.8658,25.7235 C510.8258,21.9335 509.6558,18.1935 508.4858,14.4335 C507.7558,12.1035 507.5358,9.6635 505.2658,8.3935 C500.5258,5.7435 493.2358,5.3235 487.7958,4.8735 C487.2558,4.3935 486.7158,3.9235 486.1758,3.4435 C488.6458,-3.1365 488.2058,-10.1265 485.0958,-16.7165 C484.0358,-18.9565 480.3558,-19.9665 478.3358,-18.4865 C473.6758,-15.0665 468.1458,-13.8565 462.6758,-14.3565 C454.6358,-20.5365 422.2058,-48.4825 417.1948,-51.4325 C417.1328,-51.5385 417.0828,-51.6445 417.0168,-51.7495 C414.1998,-56.2475 410.7788,-59.8595 406.9328,-62.7555 C406.3838,-63.3285 405.8348,-63.9025 405.2858,-64.4765 C405.7688,-67.9055 407.0398,-71.2165 409.0858,-73.9865 C409.3058,-74.3065 409.5558,-74.6165 409.8058,-74.9165 C413.3858,-79.1765 409.0158,-84.6565 404.0158,-82.4265 C403.6558,-82.2665 403.2958,-82.1065 402.9358,-81.9365 C399.0918,-80.2225 394.8388,-78.3595 390.4098,-76.7875 C388.7888,-77.3945 387.1368,-77.9445 385.6298,-78.5505 L369.4938,-85.0375 C366.8378,-86.1055 364.0298,-87.0105 361.4608,-88.2655 C360.5648,-94.2245 354.5928,-98.1325 348.3908,-97.9285 C348.7488,-99.0725 349.2828,-100.1835 350.0358,-101.2365 C350.2558,-101.5465 350.4958,-101.8465 350.7458,-102.1365 C353.9358,-105.8465 349.6758,-112.7265 345.1158,-109.4265 C344.7958,-109.1965 344.4658,-108.9665 344.1458,-108.7365 C342.8788,-107.8475 341.5818,-107.0135 340.2708,-106.2055 C338.1718,-107.1215 335.8078,-107.3305 333.3338,-106.3615 C327.8558,-104.2165 322.8058,-102.0355 317.9828,-98.6735 C317.7868,-98.5365 317.5838,-98.4215 317.3858,-98.2925 C314.9918,-101.1845 311.1908,-103.1185 307.7678,-103.0975 C307.6978,-103.0975 307.6438,-103.0985 307.5818,-103.0995 C305.0228,-106.9985 300.3318,-109.2645 295.8018,-108.7135 C296.1078,-114.3085 290.5068,-119.3015 285.4078,-119.9085 C279.4498,-120.6165 274.0798,-117.1575 272.2918,-111.3455 C271.7938,-109.7275 271.2968,-108.1085 270.7988,-106.4895 C266.1728,-108.8245 261.2908,-110.6135 256.1908,-111.5065 C244.5778,-113.5405 233.2228,-111.3745 222.0318,-108.1505 C220.9138,-107.8285 219.7968,-107.4975 218.6798,-107.1675 C217.0838,-109.0165 215.5868,-110.9095 214.1558,-112.6765 C211.6858,-115.7265 205.7558,-113.2865 206.1558,-109.3665 C206.4338,-106.6615 205.3348,-104.7155 203.5658,-103.3325 C201.6228,-103.0485 199.7448,-102.9625 196.9128,-103.0195 C193.1698,-103.0955 191.4668,-103.2125 187.5528,-104.7385 C185.7288,-105.4485 183.4578,-107.3155 182.3948,-108.9915 C178.3198,-115.4185 167.9688,-117.1495 163.0388,-111.0215 C157.8508,-113.2925 151.3008,-110.1605 148.4208,-105.7445 C146.9138,-103.4355 143.7698,-102.1445 139.8118,-101.0345 C136.8408,-100.2025 133.8028,-99.5725 130.7508,-99.0215 C129.3908,-100.8665 126.5268,-102.1035 124.4258,-100.5565 C123.0028,-99.5055 121.6208,-98.4265 120.2578,-97.3205 C109.7478,-95.8725 99.2928,-95.8205 89.2718,-99.9185 C80.7878,-103.3885 72.9978,-93.9115 74.3978,-85.9555 C71.9408,-84.6765 69.2748,-83.8255 66.8478,-82.4855 C61.5528,-79.5595 57.2048,-74.9345 54.5548,-69.5005 C54.0798,-68.5275 53.6508,-67.5395 53.2418,-66.5465 C51.2628,-64.9355 49.3058,-63.2815 47.3958,-61.5365 C44.2158,-63.1665 41.0458,-64.7965 37.8658,-66.4265 C35.4858,-67.6465 31.4758,-66.7965 31.0058,-63.6365 C30.2358,-58.4365 28.3658,-54.1265 25.6958,-50.5165 C17.0158,-45.9565 8.6658,-40.8365 0.6758,-35.1465 C-8.5142,-32.2665 -18.2842,-30.5865 -26.3142,-28.6965 C-29.0642,-28.0465 -30.5642,-24.4565 -29.0142,-22.0665 C-27.3742,-19.5365 -25.7342,-17.0065 -24.1042,-14.4765 C-28.6742,-10.0165 -32.9642,-5.3565 -37.0142,-0.5365 C-48.2842,12.8635 -57.7142,27.5535 -66.1542,43.1135 C-69.4942,44.4635 -72.8342,45.8035 -76.1742,47.1535 C-79.3942,48.4535 -80.8442,52.1935 -78.2342,54.9435 C-76.9942,56.2535 -75.8842,57.6335 -74.9342,59.0835 C-79.6642,66.9135 -85.2342,74.0535 -93.0242,78.7335 C-95.3942,80.1535 -97.1742,82.3835 -98.1242,84.9135 C-98.9342,85.4535 -99.7342,86.0335 -100.5242,86.6235 C-102.7242,88.2835 -104.0542,91.9035 -101.4742,94.0535 C-99.6642,95.5735 -97.9642,97.3735 -96.5242,99.3635 C-96.2142,100.4935 -95.8942,101.6335 -95.5742,102.7635 C-102.8142,109.4235 -108.8342,117.1635 -113.3542,125.8435 C-114.4242,125.6735 -115.5242,125.7835 -116.4142,126.4435 C-124.4942,132.4135 -124.7342,141.9235 -121.4842,150.4235 C-123.4442,163.2335 -122.1842,176.3635 -118.4042,188.7735 C-123.3742,193.7335 -126.3642,200.8935 -127.5842,207.7935 C-129.7342,219.9135 -129.8842,238.5535 -130.4442,250.9235 C-135.8642,256.1535 -139.7242,262.9235 -141.8742,270.2035 C-143.6842,271.1035 -145.4942,272.0035 -147.3042,272.9035 C-148.9142,273.7035 -150.0942,275.8135 -150.000111,277.5935 C-149.5342,286.2035 -145.9842,293.0035 -141.2742,299.1635 C-139.6042,303.9135 -137.1342,308.2935 -133.8942,312.4935 C-131.6542,315.3735 -129.4642,318.1335 -127.5342,321.2435 C-127.3342,321.5535 -127.2142,321.8435 -127.1242,322.0435 C-127.8842,322.8635 -128.5142,324.2235 -129.0642,325.1935 C-133.6842,333.3335 -133.7542,342.8735 -127.1942,349.9635 C-129.6642,351.9835 -129.7442,356.0635 -127.5642,358.5635 C-113.3742,374.7735 -101.5442,394.4835 -81.8542,403.0935 C-81.7642,403.2435 -81.6842,403.3935 -81.6142,403.5435 C-85.6042,413.1435 -86.1442,418.1335 -82.8842,428.0535 C-82.8642,428.1435 -82.8342,428.2235 -82.8042,428.3135 C-81.0642,433.5135 -77.8642,441.8435 -72.0942,443.4635 C-70.2742,443.9735 -68.4842,444.2035 -66.7142,444.1935 C-62.1342,448.6035 -57.5642,453.0235 -52.9942,457.4435 C-52.5942,459.6335 -52.3442,461.8435 -52.2642,464.0735 C-52.1342,467.8035 -48.6242,470.8235 -44.8442,469.7235 C-43.5142,469.3335 -36.1542,462.1835 -34.8042,462.2235 C-34.1242,462.9035 -33.4642,463.5835 -32.8042,464.2735 C-30.3742,466.8235 -27.0042,470.8435 -26.7242,473.5135 C-26.1842,478.5435 -22.8842,484.3035 -17.5542,485.3235 C-15.5542,487.3535 -12.3542,487.9635 -9.9042,485.3135 C-9.7442,485.1435 -9.5842,484.9735 -9.4142,484.8235 C-9.1542,484.7935 -8.9042,484.7635 -8.6442,484.7335 C-7.4642,488.2535 -6.2842,491.7735 -5.0942,495.2835 C-2.7642,502.2035 6.1358,506.6535 12.4558,502.6135 C13.4758,503.2235 14.4758,503.8735 15.4758,504.5235 C16.9958,505.4935 18.5358,506.4835 20.1158,507.4135 C20.2058,507.6735 20.2958,507.9335 20.3758,508.1835 C21.3958,511.2935 25.6358,512.9635 28.2458,511.1735 C29.0558,511.4335 29.8858,511.6435 30.7258,511.8135 C35.1358,512.6835 39.5758,512.4435 43.8358,510.9735 C46.8858,509.9335 49.7958,507.9435 53.0758,507.6735 C53.2808,507.6565 53.4918,507.6705 53.6998,507.6645 C56.3758,513.1465 62.4908,517.8705 67.3098,519.4755 C73.6218,521.5785 80.0818,520.8265 85.8298,518.2515 C87.3808,521.3525 89.3288,524.2885 91.6558,527.0035 C92.9458,528.5035 95.2758,528.1835 96.6058,527.0035 C99.1318,524.7645 101.6418,522.5145 104.1478,520.2615 C105.9618,519.5625 107.7928,518.7235 109.7028,517.9435 C115.6768,515.5035 122.2258,514.4925 127.7508,510.9665 C130.3738,509.2925 132.8408,507.1565 134.8728,504.6815 C138.7008,502.4715 142.2178,499.7185 145.3858,496.5635 C146.9658,496.5735 148.6158,496.2035 150.2158,495.3935 C156.9058,491.9935 160.4258,485.0735 160.7358,477.9935 C166.1558,465.2435 169.3558,451.6435 170.2358,437.7235 C170.5158,433.1535 170.5658,428.5435 170.2158,423.9735 C169.9758,420.7535 169.1658,418.6035 167.9458,415.6935 C167.5358,414.7435 167.1658,413.8735 166.8758,412.9135 C166.9458,409.8335 166.9858,406.7535 167.0258,403.6835 C167.8558,401.0935 169.3358,398.6835 171.3958,396.6535 C174.5858,393.5135 176.0458,386.9935 173.1458,383.1135 C171.2558,380.6035 169.3758,378.0935 167.4858,375.5835 C168.0158,364.8135 170.5958,347.6735 164.8758,345.8735 C165.1058,344.2735 165.5958,342.6935 165.8758,341.1035 C167.2158,333.4635 166.4158,326.6335 162.3558,319.9535 C161.5058,318.5635 160.7858,317.3335 160.1958,316.1335 C159.8258,313.9335 159.4558,311.7335 159.0858,309.5335 C158.5158,306.1435 157.9558,302.7235 157.4758,299.2835 C157.2258,294.9035 156.9958,290.5235 156.7458,286.1335 C156.5158,282.0935 156.2558,278.0535 155.9858,274.0035 C156.0958,272.1935 156.2558,270.3835 156.4858,268.5735 C157.8558,257.7835 162.2658,253.7935 169.9058,246.2935 C171.1058,246.1035 172.2958,245.8935 173.4658,245.6535 C178.9158,244.5235 184.6158,242.7735 190.2258,243.4035 C196.3158,244.0835 201.7658,246.7135 207.6858,243.3535 C209.4258,242.3535 213.2558,239.5935 213.5858,237.4035 C213.6058,237.2635 213.6358,237.1435 213.6758,237.0535 C214.0858,236.9935 214.6158,236.9435 214.9458,236.9335 C219.6458,236.7735 224.1358,238.6235 228.8758,238.1135 C234.4858,237.5135 239.5058,235.0235 242.8058,231.3335 C247.0358,232.3735 251.3558,232.8435 255.7458,232.2635 C259.4258,231.7835 262.7258,230.5835 265.9858,228.8035 C268.3558,227.5235 267.6058,227.1535 270.1858,228.1935 C276.0558,230.5735 281.3658,233.7135 287.9758,232.0835 C291.4058,231.2435 294.3658,229.3935 296.8558,226.9035 C297.4458,226.3235 298.4458,225.4535 299.1158,224.6335 C302.2558,226.2235 310.1558,229.8135 311.4558,230.1335 C315.1358,231.0335 319.0358,230.8935 322.6158,229.6935 C325.2458,228.8135 328.4658,226.4135 330.7758,225.9235 C333.7658,225.2835 340.4058,229.4435 343.9758,230.8735 C350.2358,233.3835 356.8658,234.0035 363.2058,231.4135 C365.3858,230.5235 369.6258,226.9735 371.2558,227.0035 C373.9058,230.2735 381.3058,248.1635 383.5258,254.6935 C392.5158,281.0935 394.8458,363.5235 390.6958,384.5535 C390.5358,385.1735 390.3658,385.7835 390.1958,386.4035 C385.0958,404.6935 379.7858,423.2935 371.2558,440.3335 C363.2058,456.3935 352.0758,470.8535 336.1058,479.6235 C319.5458,488.7235 300.1058,491.1135 281.4858,489.8835 C269.4958,489.1035 257.7058,486.6935 246.1058,483.6735 C240.0458,482.1035 234.0358,480.3535 228.0558,478.5335 C225.4458,477.7435 222.7958,477.0035 220.2358,476.0835 C215.7158,474.4535 213.3458,474.3235 209.0158,476.4135 C205.0758,478.3135 204.0658,483.9235 206.1158,487.4535 C209.4558,493.2135 215.5758,493.6135 221.4858,495.2935 C227.5058,497.0035 233.5458,498.6435 239.6258,500.1135 C251.2758,502.9135 263.1158,505.0635 275.0558,506.0535 C296.4358,507.8435 318.4658,505.0835 337.9258,495.7535 C340.1258,494.6935 342.2458,493.5635 344.2958,492.3435 C343.5358,493.4035 342.7658,494.4635 341.9858,495.5135 C339.8258,498.4235 341.4258,503.3735 344.4558,504.9635 C345.4158,505.4635 346.3758,505.9435 347.3458,506.4135 C347.4758,506.7235 347.6158,507.0335 347.7758,507.3435 C350.5458,512.9035 356.3458,516.1835 362.2558,517.6035 C369.2758,519.2835 377.1358,518.0935 384.2758,517.8835 C390.8958,517.6835 397.5158,517.4835 404.1258,517.2835 C405.6858,517.2435 407.2458,517.1935 408.8058,517.1435 C416.6658,516.9035 424.5158,516.6735 432.3658,516.4335 C439.3658,516.2235 439.0358,516.7635 445.6058,513.9635 C448.5358,512.7035 450.9358,510.9235 452.9558,508.5535 C454.2158,507.9935 455.4358,507.3535 456.6058,506.6235 C460.3658,504.2835 463.7058,501.1435 466.7858,497.6835 C472.0158,499.3335 479.3458,497.8035 480.3658,491.2335 C482.0058,480.7235 495.6658,476.2335 502.0458,468.6335 C507.1958,462.5035 510.8758,454.4735 510.6858,446.7635 C523.6658,440.4835 530.7258,423.9335 532.3758,409.8935 C533.1458,403.3835 533.0258,396.4135 534.1358,389.7935 C534.6258,389.2635 535.0658,388.7035 535.4358,388.1035 C538.6958,382.8335 541.5358,377.4035 544.0358,371.8435 C547.4358,369.3935 551.5258,367.8835 555.8058,367.6335 C566.3258,367.0235 568.3058,352.8335 558.2758,349.4135 C558.2258,349.3935 558.1858,349.3835 558.1358,349.3635 C560.8558,342.5635 560.6258,334.5135 557.3258,328.0735 C557.4658,327.3735 557.5958,326.6835 557.7258,325.9835 C563.3558,319.9335 566.5858,311.5235 566.2258,303.3335 C568.7958,301.5235 571.6758,300.1235 574.8258,299.2535 C579.6958,297.9135 579.7258,291.9735 576.1258,289.3135 C574.6758,288.2435 573.4758,286.9935 572.4758,285.6135 C574.9658,278.1335 573.9858,269.4835 568.8958,263.3435 C572.1258,259.2035 575.3558,255.0635 578.5858,250.9235 C580.7258,248.1835 581.8558,243.5335 578.5858,240.9335 C576.4958,239.2635 574.4058,237.6035 572.3058,235.9435 Z" id="Ink" fill="#000"/></g></g><g id="Face" transform="translate(531.000000, 366.000000) scale(1 1)" fill="#000"><g id="Face/Smile" stroke="none" stroke-width="1" fill="none" fill-rule="evenodd"><path d="M146.586567,240.926554 C139.864291,238.184203 133.866322,233.609781 129.481228,227.766254 C127.956691,225.734803 127.561405,223.589624 127.881219,221.627583 C128.240828,219.421406 129.546036,217.4219 131.326046,216.080693 C133.111571,214.735331 135.345035,214.071832 137.504329,214.410065 C139.380629,214.703969 141.248396,215.731287 142.726594,217.861908 L143.035427,218.287981 C145.642441,221.814933 149.039621,224.708755 152.91047,226.573991 C156.641339,228.371775 160.813939,229.21087 165.131898,228.722919 C173.355732,227.793938 179.024012,223.346401 185.048774,217.30672 C185.795561,216.544195 186.542826,215.757766 187.293714,214.958678 C187.767915,214.234308 188.425986,213.768756 189.156624,213.524488 C189.967867,213.253272 190.885573,213.268617 191.726122,213.56195 C192.536835,213.844871 193.261572,214.380994 193.747527,215.094538 C194.209389,215.772704 194.47125,216.610486 194.386283,217.574143 C193.834826,223.833283 190.562474,229.419299 185.914235,233.805502 C180.751772,238.67694 173.908551,242.047034 167.465957,243.229031 C160.36811,244.531047 153.135593,243.598228 146.586567,240.926554 L146.586567,240.926554 Z M170.814304,144.367155 C178.365682,148.9572 189.871664,159.660291 181.748119,171.039573 C172.185929,181.073062 158.418535,169.568982 151.634201,164.366134 C145.343449,160.333898 138.275437,170.704507 144.112,175.412823 C193.135736,211.708059 213.030606,145.567387 174.633685,138.970386 C170.406047,138.243425 168.835891,142.947174 170.814304,144.367155 Z M82.9633,102.1464 C83.7976284,91.7901242 99.5703,89.4384 101.1393,99.6864 C102.5443,108.8664 100.8903,117.2994 96.7553,125.5644 C92.8043,133.4604 82.8737826,129.776544 82.1227826,122.586544 C81.1160984,112.948648 82.4443,108.588596 82.9633,102.1464 Z M203.027,97.5615 C205.226,94.6815 208.401,92.7155 212.205,93.8265 C224.09,97.2995 220.587,114.1725 216.413,122.3855 C214.145,126.8455 206.814,127.9765 203.501,124.0495 C198.101,117.6455 195.515,104.8565 202.38,98.5485 C202.566,98.2225 202.773,97.8935 203.027,97.5615 Z M96.5879,56.8305 L98.465271,56.501905 C104.27307,55.49746 111.4944,54.5323 115.6029,59.2015 C117.7819,61.6775 118.5319,66.2795 115.6029,68.6495 C110.4509,72.8195 104.7549,71.2035 98.5809,71.5565 C93.4929,71.8485 88.6029,72.6905 83.7019,74.0915 C72.9499,77.1645 64.1889,82.7745 55.0059,88.9345 C53.8009,89.7425 52.5709,88.2015 53.1459,87.0745 C58.4469,76.6915 68.7199,68.1625 79.0099,62.9635 C84.5019,60.1885 90.5119,57.8865 96.5879,56.8305 Z M192.192876,52.1793876 L193.629806,52.4734684 C209.267042,55.742077 229.583473,62.2713911 236.988459,77.6308459 C237.270623,79.8027272 236.97249,80.2682047 236.730054,80.5723213 L236.649336,80.6735209 C236.449568,80.9332186 236.290169,81.2912104 235.348782,81.5868073 C235.087547,81.5245653 234.823712,81.4586426 234.557082,81.3887687 C231.162766,80.499243 228.477205,79.2737961 225.877298,78.0022488 L223.058339,76.6134493 C219.787784,75.0098309 216.488352,73.4645766 212.991711,72.3238115 C205.52958,69.8898666 197.854137,68.1753043 190.059777,67.259767 C188.37041,67.0615005 186.743655,66.4913394 185.460262,65.5141761 C184.242065,64.5866523 183.311441,63.3024737 182.887128,61.5955207 C182.33722,59.3864508 182.495251,57.7140037 183.680513,55.7210991 C184.571756,54.2244705 185.846982,53.1871113 187.311265,52.5914244 C188.804038,51.9841473 190.503545,51.840982 192.192876,52.1793876 Z" id="Ink" fill="#000"/></g></g><g id="Beard" transform="translate(494.999934, 517.999659) scale(1 1)" fill="#000"><g id="Beard/Mustache and Goatee" stroke="none" stroke-width="1" fill="none" fill-rule="evenodd"><path d="M207.9143,31.3282 C196.7933,26.3192 176.8233,30.6902 169.5733,32.4282 C152.7183,36.4702 135.7623,45.2052 130.5223,58.8902 C124.6173,74.3132 136.3993,79.1682 138.1323,78.3752 C149.8003,79.1972 163.6953,71.8622 175.9223,69.9692 C185.8483,68.4192 196.3193,67.0662 205.6193,61.7922 C212.4093,65.5272 227.7453,67.5462 240.1223,70.8122 C250.6633,73.5922 255.2303,79.6212 265.0023,78.3392 C276.7143,76.8032 271.9203,52.1702 258.8673,42.1912 C244.5813,31.2702 220.4193,26.8412 207.9143,31.3282 Z M229.9341,136.6535 C220.204493,139.025645 219.5511,117.7005 218.4611,110.1665 C217.609542,104.280593 212.806884,89.1015762 200.6311,89.7565 C188.455316,90.4114238 183.878432,103.128761 184.4961,111.0385 C184.896642,116.16777 189.62335,142.149551 174.5361,145.4365 C164.9171,145.4025 153.7891,144.7535 143.6751,142.8885 C131.7711,140.1925 116.291914,130.753365 112.2031,149.3425 C110.731534,156.03274 163.1691,175.9095 186.4381,177.7075 C210.036475,182.489578 237.64678,175.136312 254.448053,157.083732 C258.270339,152.976774 269.035635,135.930081 269.802759,131.753365 C271.414428,122.978404 267.682963,117.331642 256.8251,120.4245 C249.1551,124.5205 236.191168,135.127984 229.9341,136.6535 Z" id="Ink" fill="#000"/></g></g><g id="Mask" transform="translate(400.000000, 480.000000) scale(1 1)" fill="#000"><g id="Mask/None" stroke="none" stroke-width="1" fill="none" fill-rule="evenodd" fill-opacity="0"/></g><g id="Accessories" transform="translate(419.000000, 421.000000) scale(1 1)" fill="#000"><g id="Accessories/None" stroke="none" stroke-width="1" fill="none" fill-rule="evenodd" fill-opacity="0"/></g></g></svg>