<svg viewBox="165.0270270270271 57.487499999999955 805.9459459459459 1283.8874999999998" xmlns="http://www.w3.org/2000/svg" overflow="visible" xmlns:xlink="http://www.w3.org/1999/xlink" width="805.9459459459459px" height="1283.8874999999998px"><g id="Master/Character/Bust" stroke="none" stroke-width="1" fill="none" fill-rule="evenodd"><g id="Body" transform="translate(147.000000, 639.000000) scale(1 1)"><g id="Body/Coffee" stroke="none" stroke-width="1" fill="none" fill-rule="evenodd"><rect id="Cup" fill="#FDEA6B" x="461" y="279" width="229" height="282"/><path d="M394.207017,3.17338772 C418.892017,-15.6236123 480.865017,-24.0766123 507.211017,-5.97761228 C533.233017,12.1973877 536.069855,41.5888511 548.195855,68.6268511 C559.636855,63.2318511 578.530447,70.9583877 581.847447,81.5743877 C585.961447,86.5813877 586.146216,100.648748 588.983216,107.379748 C712.425216,127.028748 731.166017,223.267388 746.024017,332.525388 C765.680017,443.394388 810.301017,554.021388 790.930017,668.107388 C793.454017,671.759388 795.444017,675.309388 797.284017,679.525388 C801.693017,687.027388 796.014017,697.646388 787.121017,697.235388 C775.610017,696.224388 764.213017,694.844388 752.648017,694.413388 C720.588278,693.299996 688.499261,693.432745 656.42735,693.840212 L652.054017,693.897388 C490.421017,695.909388 328.797017,699.874388 167.157017,700.92591 C161.293017,700.934388 158.422017,695.675388 159.205017,690.487388 C160.782017,680.042388 162.245017,669.592388 163.772017,659.142388 C125.540017,669.240388 84.8960175,671.781388 46.7720175,660.204388 C44.1050175,657.487388 52.9860175,658.960388 54.3950175,658.547388 C19.3090175,634.572388 29.7870175,584.065388 32.8950175,547.687388 C52.2210175,423.036388 59.0340175,285.118388 133.703017,178.751388 C166.006017,135.343388 213.365017,100.975388 267.784017,93.2423877 L269.293764,93.0356767 C285.205828,90.9140296 302.939679,90.2305877 316.852017,81.5743877 C332.49923,69.08308 339.167105,46.00245 355.628632,45.7863847 C361.06431,45.7150388 368.458807,52.5915618 376.416017,57.2603877 C377.01004,46.9897486 382.545009,38.3222537 383.767065,30.358889 L383.86599,29.6778754 C385.14118,20.3936924 383.394763,12.0408852 394.207017,3.17338772 Z M659.495297,335.818614 C624.804565,311.719109 535.1916,323.828161 533.140143,325.177637 C528.623143,328.148637 526.678017,328.411388 524.235017,332.269388 C521.823017,332.589388 519.413017,332.921388 517.005017,333.263388 C512.174017,334.841388 515.754017,340.783388 521.334017,338.663388 C517.977768,353.137685 527.854893,363.431367 531.787017,377.740773 C533.063751,382.386936 531.833098,390.743134 531.787017,395.490388 C532.168342,401.543287 538.860548,408.693008 537.745186,414.765623 C533.779882,436.354816 512.261842,457.414706 521.334017,478.351576 C527.344017,490.176576 545.420017,496.206388 557.438017,500.226388 C582.337017,509.782388 625.721229,499.866576 640.188229,478.351576 C647.904711,466.875795 656.844613,437.928116 661.445613,428.949116 L662.465404,414.705533 C664.980344,379.298715 667.217404,341.183129 659.495297,335.818614 Z" id="Skin" fill="#d08b5b"/><path d="M354.34521,45.8506711 L364.273041,51.9428436 L421.931257,80.4449923 C433.109106,83.5746757 438.69803,87.3255981 438.69803,91.6977595 L438.69803,136.216897 C438.69803,142.174517 449.187526,155.676664 470.166517,176.723337 L489.548223,157.401666 L489.114881,154.872008 C487.270547,143.971712 486.34838,136.680179 486.34838,132.997409 C486.34838,129.036695 505.310106,114.001208 543.233559,87.8909498 L559.824515,72.2711686 L558.055625,66.8913501 C568.28536,67.3748239 579.379133,73.6745929 581.847447,81.5743877 C585.961447,86.5813877 586.146216,100.648748 588.983216,107.379748 C712.425216,127.028748 731.166017,223.267388 746.024017,332.525388 C765.680017,443.394388 810.301017,554.021388 790.930017,668.107388 C793.454017,671.759388 795.444017,675.309388 797.284017,679.525388 C801.693017,687.027388 796.014017,697.646388 787.121017,697.235388 C775.610017,696.224388 764.213017,694.844388 752.648017,694.413388 C720.588278,693.299996 688.499261,693.432745 656.42735,693.840212 L652.054017,693.897388 C490.421017,695.909388 328.797017,699.874388 167.157017,700.92592 C161.293017,700.934388 158.422017,695.675388 159.205017,690.487388 C160.782017,680.042388 162.245017,669.592388 163.772017,659.142388 C125.540017,669.240388 84.8960175,671.781388 46.7720175,660.204388 C44.1050175,657.487388 52.9860175,658.960388 54.3950175,658.547388 C19.3090175,634.572388 29.7870175,584.065388 32.8950175,547.687388 C52.2210175,423.036388 59.0340175,285.118388 133.703017,178.751388 C166.006017,135.343388 213.365017,100.975388 267.784017,93.2423877 L269.293764,93.0356767 L270.814526,92.8376623 C286.327935,90.8626014 303.381341,89.9557877 316.852017,81.5743877 C332.086209,69.4127984 338.808841,47.2135369 354.34521,45.8506711 Z M492.502284,307.156233 C486.847075,307.156233 475.265223,315.938335 457.756729,333.50254 L456.214298,334.215475 C435.049475,344.046356 421.028345,352.574236 414.150907,359.799118 L413.905436,360.059691 C406.957776,367.51318 393.19938,387.333028 372.630249,419.519233 L342.843581,437.134242 L331.573175,437.134242 L323.549046,495.337988 L342.843581,536.897302 L386.547386,522.175978 L457.756729,503.406604 L498.618679,461.951208 L521.668835,454.213052 C518.872405,462.292506 517.858643,470.331068 521.334017,478.351576 C527.344017,490.176576 545.420017,496.206388 557.438017,500.226388 C582.337017,509.782388 625.721229,499.866576 640.188229,478.351576 C647.904711,466.875795 656.844613,437.928116 661.445613,428.949116 L662.765244,410.445982 C665.143374,376.30187 666.90852,340.968548 659.495297,335.818614 C624.804565,311.719109 535.1916,323.828161 533.140143,325.177637 C528.623143,328.148637 526.678017,328.411388 524.235017,332.269388 L522.970432,332.438671 L530.082173,322.793608 L527.564018,321.449107 C509.596157,311.920524 497.908912,307.156233 492.502284,307.156233 Z M521.334017,338.663388 C518.120877,352.520508 527.036641,362.54593 531.253086,375.931601 L520.479517,355.307747 L520.479408,338.930764 C520.75825,338.862334 521.043421,338.773793 521.334017,338.663388 Z" id="Top" fill="#9DDADB"/><path d="M349.584517,43.6984877 C351.979517,41.5774877 355.523517,44.2424877 354.001517,47.1074877 C350.581517,53.5464877 347.073517,59.6474877 342.483517,65.3394877 C339.700517,68.7904877 336.719517,72.0544877 333.698517,75.2824877 C341.451517,81.9894877 348.100517,90.3164877 354.379517,98.1204877 C362.408517,108.101488 369.999517,118.505488 379.012517,127.638488 C387.901283,136.645679 397.729749,142.942015 409.613561,147.140633 L412.013721,147.974286 C423.951928,152.165365 436.711387,157.82527 443.440517,169.128488 C444.767517,171.357488 442.095517,174.111488 439.849517,172.720488 C428.156517,165.480488 414.417517,164.024488 401.689517,159.240488 C389.394517,154.619488 378.676517,147.507488 369.206517,138.430488 C359.752517,129.368488 351.814517,119.058488 343.534517,108.966488 C335.346517,98.9874877 326.530517,90.4644877 316.845517,82.0214877 C301.899991,92.0758737 284.840037,96.4508198 267.492975,100.74777 L265.599517,101.216488 C248.231517,105.516488 230.956517,110.510488 214.662517,117.998488 C200.296517,124.599488 186.166517,132.482488 174.464517,143.224488 C162.042517,154.624488 152.374517,169.184488 143.525517,183.423488 C123.731517,215.279488 109.815517,250.179488 97.5645175,285.503488 C84.8225175,322.245488 74.1645175,359.723488 65.5605175,397.646488 C61.1845175,416.936488 57.6305175,436.363488 54.7095175,455.926488 C53.3035175,465.348488 52.0545175,474.790488 50.9575175,484.253488 C49.7865175,494.358488 49.5175175,504.754488 46.4175175,514.470488 C45.0885175,518.634488 41.9505175,520.362488 38.8095175,520.215488 L38.1715415,528.194256 C37.3255575,538.832208 36.5369175,549.473488 36.2705175,560.177488 C35.8286044,577.975488 36.0289749,595.722251 37.3092061,613.48254 L37.4905175,615.904488 C38.4965175,628.866488 40.7445175,643.430488 50.4915175,652.921488 C60.5855175,662.751488 76.1085175,665.842488 89.7135175,666.019488 C121.400517,666.432488 151.902517,651.460488 179.942517,638.325488 C208.820517,624.798488 236.909517,609.783488 264.325517,593.499488 C278.287517,585.206488 292.098517,576.637488 305.733517,567.818488 C312.424517,563.489488 319.068517,559.087488 325.662517,554.614488 C329.439517,552.052488 333.018517,549.243488 336.863517,546.970488 C334.979517,545.216488 334.138517,542.458488 335.716517,540.050488 C324.601517,530.402488 319.975517,513.185488 319.434517,499.254488 C318.997517,488.009488 320.652517,476.796488 321.958517,465.657488 C322.617517,460.040488 323.431517,454.433488 324.276517,448.841488 C324.610517,446.632488 324.865517,444.269488 325.255517,441.937488 C295.242517,458.430488 264.388517,473.118488 232.717517,486.167488 C216.483517,492.856488 200.041517,498.870488 183.372517,504.381488 L179.993972,505.493103 C164.200055,510.662985 148.028251,515.546621 131.700517,518.502488 C130.827517,518.660488 130.118517,517.371488 131.050517,516.960488 C146.962517,509.939488 163.425517,504.017488 179.576517,497.551488 L182.230517,496.470488 L182.230517,496.470488 C181.925517,496.453488 181.609517,496.411488 181.279517,496.332488 C171.807517,494.046488 162.409517,490.523488 153.119517,487.557488 C144.497517,484.804488 134.810517,483.075488 126.751517,478.919488 C126.131517,478.599488 126.478517,477.737488 127.082517,477.696488 C136.140517,477.068488 145.973517,479.708488 154.854517,481.261488 L158.190814,481.84589 C163.779795,482.831377 169.492851,483.890821 175.054517,485.272488 C175.255517,483.409488 176.296517,481.538488 177.777517,480.441488 C194.074517,468.372488 192.419517,443.996488 194.162517,426.021488 L195.455006,412.676462 C197.728429,389.321229 200.133517,365.969128 203.787517,342.788488 C203.982517,341.550488 205.897517,341.905488 205.905517,343.074488 C206.093979,371.809103 203.924822,400.411507 202.837574,429.101281 L202.669216,433.807744 C202.068138,451.510533 201.597052,469.892813 190.447517,483.514488 C192.006517,482.603488 194.114517,482.603488 195.377517,484.105488 C196.929517,485.952488 197.825517,488.026488 197.797517,490.061488 C207.872517,485.837488 217.903517,481.503488 227.885517,477.081488 C259.978517,462.863488 291.398517,446.952488 321.987517,429.736488 C325.279517,427.883488 328.408517,429.339488 330.036517,431.782488 L330.27148,431.748784 C330.31074,431.743488 330.350517,431.739488 330.391517,431.738488 L330.624517,431.728488 C330.633517,431.728488 330.642517,431.729488 330.650517,431.729488 C334.956517,429.363488 340.822517,431.048488 344.517517,434.499488 C344.626517,434.603488 344.719517,434.715488 344.816517,434.825488 C349.494517,432.725488 353.862517,429.890488 357.826517,426.297488 C365.938517,418.945488 372.809517,409.854488 378.799517,400.738488 C389.830517,383.948488 399.200517,365.277488 414.101517,351.456488 C426.208517,340.227488 441.218517,333.236488 456.965517,328.847488 C456.899517,328.387488 457.075517,327.897488 457.393517,327.571488 C458.202517,326.742488 458.779517,326.455488 459.824517,326.958488 C459.907517,326.999488 459.957517,327.055488 459.991517,327.115488 L461.528134,324.490015 C462.366879,323.065413 463.228138,321.630419 463.526517,321.253488 C465.314517,319.002488 467.154517,316.768488 469.022517,314.581488 C472.189517,310.878488 475.798517,307.224488 479.977517,304.656488 C489.127517,299.035488 498.746517,302.216488 508.153517,305.288488 C513.837517,307.145488 519.502517,309.062488 525.176517,310.947488 L525.761817,311.138618 C529.992678,312.497968 534.943517,313.686977 536.835517,318.169488 C537.584517,319.943488 537.700517,321.784488 537.351517,323.570488 C577.535517,313.351488 622.167517,318.046488 661.380517,330.042488 C662.885517,330.502488 664.388517,331.740488 664.705517,333.366488 C669.198517,356.407488 671.199517,380.036488 669.166517,403.470488 C667.412517,423.698488 662.930517,443.521488 654.484517,462.040488 L654.00433,463.086094 C646.066795,480.248597 633.486417,501.405268 614.273517,506.784488 C602.672517,510.032488 589.841517,508.117488 578.009517,507.522488 C566.510517,506.943488 554.756517,506.859488 543.366517,505.051488 C533.222517,503.441488 524.334517,498.894488 518.065517,490.646488 C512.657517,483.530488 509.809517,474.930488 507.476517,466.375488 C506.408517,466.715488 505.347517,467.076488 504.303517,467.485488 C499.896517,469.206488 496.162517,471.984488 492.786517,475.253488 C485.657517,482.157488 480.127517,490.542488 472.668517,497.130488 C465.916517,503.094488 458.222517,507.732488 449.969517,511.298488 C432.868222,518.687647 414.522481,521.640543 396.43313,525.556641 L395.171517,525.831488 C381.553517,528.819488 367.653517,532.488488 355.633517,539.578488 C355.398517,541.665488 354.447517,543.629488 352.923517,544.915488 C355.043517,546.906488 355.941517,550.059488 354.078517,553.017488 C348.874645,561.275956 339.911017,565.974869 331.863977,571.256186 L331.340517,571.601488 C323.424517,576.849488 315.439517,581.993488 307.389517,587.032488 C291.024517,597.278488 274.317517,606.960488 257.374517,616.216488 C230.123517,631.103488 202.287517,645.146488 173.947517,657.884488 C175.648517,666.252988 175.026978,674.882079 176.305491,683.306449 L176.501517,684.508488 C177.047684,687.634688 176.309924,690.250681 174.156356,692.293237 L173.928517,692.502488 L173.932517,692.474488 L173.730517,692.659488 L173.663,692.716038 L173.685517,692.698488 C173.437267,692.925738 173.181142,693.137238 172.920096,693.318644 L172.587517,693.532488 L172.587517,693.532488 C170.513295,694.793006 167.842821,694.77849 165.719074,693.665745 L165.476517,693.532488 L165.068517,693.298488 C162.262517,691.684488 160.327517,687.685488 161.491517,684.508488 C164.352517,676.700488 165.433517,668.367488 168.075517,660.507488 L165.979517,661.444488 L165.979517,661.444488 L163.216955,662.648558 C133.339024,675.568296 100.150687,686.448088 67.5965175,677.640488 C53.2125175,673.747488 39.7685175,665.513488 32.5715175,652.092488 C25.4895175,638.886488 24.4885175,623.552488 24.1125175,608.862488 C23.6485175,590.731488 24.6205175,572.323488 27.0115175,554.348488 C28.6165175,542.282488 30.5575175,529.988488 33.5515175,518.047488 C32.0115175,516.688488 30.8795175,514.739488 30.5805175,512.325488 C29.1675175,500.920488 31.6405175,489.063488 33.1545175,477.717488 C34.6335175,466.639488 36.2675175,455.583488 38.1155175,444.561488 C41.8465175,422.302488 46.1815175,400.090488 51.2285175,378.092488 C60.2105175,338.941488 72.0715175,300.486488 86.3515175,262.950488 L87.6020569,259.680864 C100.79753,225.372121 116.075902,191.794657 137.350517,161.654488 C147.527517,147.234488 158.285517,134.160488 172.665517,123.769488 C186.137517,114.033488 201.333517,107.023488 217.015517,101.665488 C232.714517,96.3034877 248.850517,92.7104877 265.271517,90.4754877 C281.948517,88.2054877 299.551517,86.8134877 315.108517,79.9734877 C313.140517,76.4454877 314.829517,71.6824877 318.141517,69.4944877 C329.287517,62.1304877 339.594517,52.5504877 349.584517,43.6984877 Z M706.390217,363.919788 C706.857217,363.210788 707.966217,363.658788 707.761217,364.497788 C702.340217,386.706788 697.251217,408.960788 693.928217,431.593788 C687.929641,472.443483 689.033057,513.826624 689.523439,554.978455 L689.548217,557.106788 C689.800217,579.272788 690.150217,601.440788 690.883217,623.597788 C691.253217,634.795788 691.985217,646.103788 691.587217,657.307788 C691.370217,663.385788 689.750217,669.134788 689.176217,675.139788 C688.673217,680.390788 689.121217,685.722788 689.372217,690.980788 C689.540217,694.476788 684.380217,694.327788 684.029217,690.980788 L683.580418,686.65163 C682.997365,681.17297 682.276717,675.727788 680.481217,670.483788 C678.322217,664.176788 677.286217,657.982788 676.537217,651.360788 C675.389967,641.213475 674.879768,630.964499 674.436987,620.745807 L674.134217,613.677788 C672.285241,570.973555 672.350047,528.068976 675.343411,485.409472 L675.562217,482.362788 C678.526217,442.038788 683.669217,398.469788 706.390217,363.919788 Z M590.835317,109.773088 C589.419317,109.191088 589.915317,107.050088 591.483317,107.423088 L594.334869,108.103285 C615.229442,113.107995 635.744796,118.530392 655.247317,127.843088 C674.762317,137.161088 691.284317,151.072088 704.412317,168.178088 C729.932317,201.429088 740.537317,241.839088 748.909317,282.211088 C758.213317,327.072088 766.684317,372.097088 776.069317,416.944088 L777.812091,425.297826 C786.496103,467.067431 794.695067,508.860713 800.736317,551.125088 L801.170284,554.190421 C807.26247,597.651926 810.926904,642.618375 804.279317,686.193088 C802.964317,694.814088 788.618317,692.667088 789.179317,684.150088 C790.799317,659.527088 791.959317,635.033088 790.838317,610.355088 C789.716317,585.672088 787.401317,561.097088 783.950317,536.630088 C781.046167,516.039788 776.71697,495.705798 772.885817,475.279166 L772.285317,472.053088 C769.077317,454.679488 765.770117,437.323168 762.470213,419.965696 L757.538852,393.977767 C750.147827,355.064728 742.612217,316.117588 734.097317,277.449088 L733.592008,275.173709 C725.259184,237.971574 712.974217,199.002188 687.979317,169.460088 C662.614317,139.479088 626.303317,124.380088 590.835317,109.773088 Z M498.668317,504.370788 C499.278317,503.011788 501.412317,503.160788 502.068317,504.370788 C504.638684,509.113254 504.924334,515.166747 505.410236,520.520527 L505.461317,521.071788 C506.079317,527.604788 506.626317,534.159788 506.961317,540.713788 C507.596317,553.152788 507.900317,565.575788 507.861317,578.030788 C507.821317,590.794788 507.564317,603.543788 506.876317,616.288788 L506.689611,619.703854 C506.06153,630.779499 505.00811,643.133373 499.745317,652.815788 C497.832317,656.336788 492.629317,655.301788 491.521317,651.741788 C487.891317,640.085788 489.755317,626.265788 490.686317,614.327788 L491.409255,605.012647 C492.12513,595.696475 492.807817,586.376788 493.349317,577.049788 C494.091317,564.288788 494.703317,551.516788 495.292317,538.749788 C495.483651,534.603121 495.69054,530.455121 495.909132,526.308454 L496.245317,520.089788 C496.532317,514.887788 496.508317,509.179788 498.668317,504.370788 Z M90.5205365,520.890299 L92.1274775,519.338025 C97.0604764,514.510543 103.294284,507.075588 110.586817,507.536688 C113.494817,507.720688 115.347817,510.134688 114.744817,512.995688 C113.456817,519.111688 107.217817,522.285688 102.726817,526.019688 C97.8068175,530.108688 93.1698175,534.479688 88.5418175,538.892688 C84.4360397,542.805577 80.4874965,546.829873 76.6336803,550.979623 L75.1928175,552.541688 C73.8114021,554.049134 63.9742916,562.94683 65.0379029,565.255355 L65.0958175,565.358688 C65.3918175,565.800688 64.8988175,566.408688 64.4078175,566.253688 C60.1598175,564.911688 60.4248175,561.270688 62.0308175,557.581688 C65.1168175,550.493688 70.5208175,543.936688 75.2398175,537.883688 C79.9460675,531.84525 85.0399151,526.222535 90.5205365,520.890299 L90.5205365,520.890299 Z M514.061517,343.137488 C510.776517,335.373488 498.675517,335.536488 491.805517,336.000488 C474.505517,337.169488 455.787517,341.546488 440.394517,349.632488 C424.435871,358.015503 413.686174,371.447505 404.067576,386.300239 L403.617517,386.997488 C394.242517,401.570488 385.213517,418.821488 370.533517,428.841488 C363.056517,433.946488 354.325517,438.607488 345.253517,440.626488 C344.630517,441.721488 343.621517,442.588488 342.298517,442.903488 L341.683508,443.044224 C339.099701,443.614713 335.085594,444.246026 331.618517,443.868488 C331.641517,445.564488 331.623517,447.247488 331.666517,448.854488 C331.788517,453.459488 331.840517,458.084488 331.840517,462.692488 C331.842517,472.347488 331.323517,482.021488 331.726517,491.675488 C332.083517,500.214488 333.289517,509.136488 337.389517,516.769488 C340.396517,522.369488 344.365517,526.075488 349.156517,529.613488 C360.942517,522.430488 374.269517,518.052488 387.795517,514.760488 C404.153517,510.779488 420.902517,508.122488 436.888517,502.724488 C444.582517,500.125488 451.979517,496.724488 458.681517,492.105488 C465.794517,487.200488 471.227517,480.564488 476.817517,474.073488 L477.691264,473.065009 C483.396131,466.522234 489.620981,460.261585 497.683517,456.714488 C504.626517,453.658488 513.777517,453.114488 519.848517,448.386488 C523.022517,445.912488 523.288517,442.322488 523.622517,438.646488 C519.734517,439.202488 515.618517,438.311488 511.743517,437.857488 L509.73583,437.621835 C506.071618,437.186482 502.491671,436.707949 498.884517,435.775488 C498.214517,435.602488 498.214517,434.592488 498.884517,434.419488 C503.147517,433.318488 507.372517,432.849488 511.743517,432.337488 L512.770172,432.209455 C516.724458,431.690867 520.880797,430.908168 524.759517,431.778488 C525.455517,429.130488 526.460517,426.602488 527.870517,424.070488 C529.849517,420.513488 533.594517,416.480488 534.100517,412.325488 C534.251517,411.084488 533.962517,409.621488 533.377517,408.524488 L533.175877,408.150556 C532.930061,407.708932 532.63874,407.264821 532.212517,406.989488 C532.165517,407.044488 532.065517,407.107488 531.848517,407.175488 C528.863517,408.115488 526.259517,406.654488 524.877517,404.402488 C519.010517,405.130488 512.607517,404.885488 507.105517,405.128488 L501.542543,405.397555 C495.598418,405.670072 489.384242,405.789384 483.798517,404.588488 C483.018517,404.421488 482.782517,403.123488 483.563517,402.789488 C490.430517,399.852488 498.760517,398.915488 506.112517,397.787488 C510.218517,397.156488 514.354517,396.676488 518.472517,396.121488 C521.214517,395.751488 524.124517,395.140488 526.965517,394.993488 C534.088517,386.126488 530.250517,372.138488 520.337517,368.320488 C516.726517,369.907488 513.479517,368.984488 509.534517,368.645488 C505.596517,368.307488 501.648517,368.078488 497.694517,368.095488 C489.771517,368.130488 481.375517,370.214488 473.529517,369.317488 C472.253517,369.170488 471.067517,367.472488 472.336517,366.436488 C478.342496,361.535422 486.949832,359.937391 494.573457,358.892943 L496.153517,358.681488 C498.709517,358.346488 501.817517,357.857488 505.041517,357.566488 C505.770517,356.144488 507.078517,355.069488 509.043517,354.802488 C509.627517,354.722488 510.214517,354.675488 510.800517,354.625488 L510.791517,354.567488 L510.791517,354.567488 C515.583517,354.337488 515.375517,346.243488 514.061517,343.137488 Z M185.992517,494.562488 C185.907851,494.693154 185.815184,494.817599 185.716592,494.937303 L185.564517,495.113488 L186.352517,494.793488 L185.992517,494.562488 L185.992517,494.562488 Z M597.683517,325.788488 C577.513517,323.621488 557.314517,324.078488 537.084517,324.660488 C535.466517,329.952488 529.834517,334.462488 524.377517,334.632488 C528.651517,341.137488 529.092517,349.941488 526.095517,356.840488 C532.458517,359.373488 537.940517,363.923488 541.268517,370.403488 C545.883517,379.386488 545.279517,389.382488 540.718517,397.684488 C544.611517,401.208488 546.908517,406.931488 546.678517,412.325488 C546.421517,418.340488 542.836517,423.478488 539.857517,428.458488 C536.638517,433.844488 536.530517,438.586488 535.541517,444.618488 C534.094517,453.446488 528.140517,458.800488 520.479517,462.144488 L520.886789,463.746442 C522.861903,471.43454 525.319365,479.546705 530.964517,485.168488 C538.22639,492.400837 549.492067,492.333557 559.086594,492.791868 L559.549517,492.814488 C568.335117,493.253688 577.116877,493.768408 585.899405,494.265976 L592.486517,494.634488 C602.598517,495.190488 612.309517,495.257488 620.564517,488.572488 C634.041517,477.660488 643.280517,459.601488 649.128517,443.614488 C661.402517,410.058488 661.549517,373.233488 655.915517,338.285488 C637.020517,332.195488 617.415517,327.908488 597.683517,325.788488 Z M429.944732,381.459854 L430.093017,381.470688 C434.246017,381.944688 437.099017,385.307688 438.115017,389.296688 C439.591017,395.094688 438.867017,400.336688 442.418017,405.570688 C446.071017,410.952688 448.317017,415.261688 448.848017,421.910688 C449.066017,424.646688 448.966017,427.375688 449.575017,430.053688 L450.016608,431.929954 C450.48555,433.930615 450.869253,435.857629 450.636017,438.005688 C450.423017,439.964688 449.469017,441.490688 447.504017,442.118688 C441.101017,444.166688 436.157017,439.448688 434.503017,433.481688 C433.074017,428.327688 434.982017,422.185688 432.966017,417.345688 C431.849017,414.662688 429.789017,412.418688 428.625017,409.717688 C427.472017,407.040688 426.893017,404.243688 426.708017,401.333688 C426.357017,395.829688 431.225017,389.216688 428.509017,384.229688 C427.930673,383.165688 428.58566,381.42769 429.944732,381.459854 Z M344.892017,324.661788 C349.228017,323.780788 354.147017,321.761788 358.423017,323.439788 C360.621017,324.303788 361.707017,326.983788 359.850017,328.846788 C356.625846,332.078731 351.939924,332.258833 347.597257,333.02094 L347.215017,333.089788 C342.080017,334.039788 336.936017,334.940788 331.785017,335.794788 C322.094017,337.399788 312.380017,338.818788 302.632017,340.024788 C292.620017,341.263788 282.580017,342.366788 272.526017,343.196788 L268.633799,343.516126 C260.141013,344.195339 251.304017,344.707654 242.971017,343.406788 C241.760017,343.217788 241.955017,341.454788 242.971017,341.145788 C252.100017,338.382788 262.114017,337.641788 271.552017,336.472788 C281.586017,335.227788 291.603017,333.912788 301.594017,332.352788 C311.569017,330.794788 321.531017,329.122788 331.456017,327.274788 C335.942017,326.440788 340.421017,325.569788 344.892017,324.661788 Z M501.346517,315.790488 C497.541517,314.443488 493.355517,312.447488 489.232517,313.115488 C482.122517,314.267488 475.794517,321.194488 470.166517,325.756488 L472.992403,325.207213 C487.451736,322.428152 506.599705,319.434363 518.737517,328.627488 C518.768517,328.574488 518.792517,328.521488 518.827517,328.468488 C519.807517,326.980488 520.942517,325.819488 522.181517,324.546488 C522.299851,324.434821 522.414406,324.319488 522.527073,324.202265 L523.195517,323.490488 L521.66661,322.960847 C518.391849,321.803308 514.512301,320.308533 513.89901,320.090349 L513.856517,320.075488 C509.681517,318.661488 505.501517,317.263488 501.346517,315.790488 Z M382.544817,12.7161877 C381.949817,5.06318772 393.860817,5.12618772 394.450817,12.7161877 C395.737817,29.2861877 392.008817,45.6991877 383.982817,60.2261877 C383.923817,60.3321877 383.858817,60.4261877 383.796817,60.5261877 C388.816817,63.1381877 393.893817,65.6441877 399.083817,67.8841877 C405.722817,70.7501877 412.486817,73.3601877 419.371817,75.5741877 C425.599817,77.5781877 433.272817,78.3691877 438.508817,82.5391877 C449.549817,91.3311877 445.401817,109.577188 443.277817,121.404188 L442.946452,123.271221 C441.888878,129.35725 441.12398,135.601257 443.689817,141.442188 C446.429817,147.681188 451.970817,152.309188 456.913817,156.773188 L457.912177,157.678409 C462.291215,161.667647 467.294889,166.515188 470.506817,171.923188 C473.438817,165.861188 477.435817,160.907188 481.661817,155.330188 C484.676817,151.350188 482.530817,150.038188 480.364817,146.150188 C478.279817,142.408188 477.261817,138.419188 477.913817,134.150188 C479.116817,126.266188 485.417817,120.571188 491.689817,116.292188 C499.096817,111.241188 507.363817,107.499188 515.020817,102.800188 C530.754817,93.1461877 546.077817,82.1081877 559.882817,69.8491877 C560.263817,69.5101877 560.923817,69.9541877 560.618817,70.4171877 C549.713817,87.0041877 536.926817,101.337188 521.211817,113.503188 C514.83963,118.436313 508.145763,122.528324 501.407071,126.829791 L499.469717,128.072992 C496.764036,129.825707 493.389197,132.168222 492.165817,135.152188 C490.934817,138.153188 493.559817,140.419188 494.972817,142.905188 C499.459787,150.799733 497.295001,158.165669 491.975557,164.860665 L491.727817,165.169188 C486.441817,171.683188 482.435817,177.741188 480.519817,186.063188 C476.402986,203.939967 482.137211,222.561031 488.139757,239.343676 L488.376817,240.005188 C491.623817,249.051188 495.074817,258.031188 497.895817,267.222188 L498.672014,269.763136 C501.228032,278.219808 503.32109,286.560551 500.453817,295.254188 C499.478817,298.211188 495.445817,298.910188 493.770817,296.127188 C487.861817,286.313188 486.388817,274.503188 482.684817,263.713188 C479.074817,253.197188 474.929817,242.871188 471.442817,232.312188 C466.952817,218.717188 463.947817,204.083188 465.578817,189.823188 C465.530817,189.740188 465.477817,189.662188 465.437817,189.574188 L464.294841,187.074065 C461.178094,180.30434 458.16779,174.392134 452.499817,168.996188 C446.587817,163.367188 440.170817,158.384188 435.518817,151.570188 C425.414182,136.76899 431.663442,120.304003 432.883971,104.120161 L433.02363,102.135607 C433.245343,98.7754127 433.366845,94.2088093 431.171817,91.8831877 C428.702817,89.2651877 422.912817,88.5971877 419.636817,87.4381877 C411.170817,84.4421877 402.827817,80.9511877 394.881817,76.7591877 C387.317817,72.7691877 379.990817,68.3611877 373.168817,63.1971877 L369.711068,60.5959551 C364.255451,56.479596 358.598288,51.9844818 354.941817,46.3811877 C354.519817,45.7361877 355.236817,44.6951877 356.000817,45.0041877 C362.104817,47.4811877 367.681817,51.4211877 373.392817,54.8491877 C373.481817,54.6401877 373.584817,54.4291877 373.701817,54.2171877 C380.767817,41.4291877 383.673817,27.2611877 382.544817,12.7161877 Z M577.528217,100.331388 C579.960217,93.6623877 591.044217,94.1773877 590.602217,102.101388 C590.263321,108.188974 587.678698,113.683666 585.315462,119.211018 L585.063217,119.803388 C582.623217,125.562388 579.805217,130.969388 576.433217,136.247388 C569.990217,146.337388 562.443217,155.701388 554.382217,164.538388 C547.074217,172.550388 537.482217,177.449388 526.429217,176.635388 C521.772217,176.292388 517.071217,175.107388 512.990217,172.781388 C508.143217,170.017388 502.879217,161.718388 496.695217,163.728388 C496.097217,163.922388 495.539217,163.046388 496.056217,162.631388 C503.195217,156.882388 511.298217,165.796388 518.133217,167.944388 C528.432217,171.179388 539.001217,167.602388 545.630217,159.276388 C552.551217,150.583388 558.921217,140.850388 564.738217,131.385388 C567.692217,126.579388 570.387217,121.591388 572.715217,116.450388 C575.064217,111.261388 575.598217,105.622388 577.528217,100.331388 Z M560.926917,59.2889877 C560.626917,58.3679877 561.770917,57.4919877 562.579917,58.0179877 C567.270917,61.0719877 571.335917,65.1069877 575.662917,68.6439877 C580.463917,72.5679877 585.299917,76.4119877 590.210917,80.1969877 C597.369917,85.7159877 589.066917,95.8759877 582.764917,89.8469877 C574.140917,81.5999877 564.695917,70.8159877 560.926917,59.2889877 Z M535.171817,27.0094877 C537.077567,19.6607177 548.349153,22.6912067 546.706569,29.9541106 L546.652817,30.1754877 C543.541757,42.1721865 547.972626,54.3855681 557.431522,62.1629374 L557.779817,62.4454877 C563.763817,67.2344877 555.285817,75.6064877 549.360817,70.8634877 C536.425817,60.5114877 531.044817,42.9264877 535.171817,27.0094877 Z" id="Ink" fill="#000"/></g></g><g id="Head" transform="translate(372.000000, 180.000000) scale(0.9978902953586498 1)"><g id="Head/Long Afro" stroke="none" stroke-width="1" fill="none" fill-rule="evenodd"><path d="M408.5136,274.9444 C401.6496,191.2694 380.7496,117.1594 282.5446,113.9994 C238.2266,114.3954 192.9876,123.8104 152.2336,141.2304 C53.1776,190.8964 21.7486,372.3774 109.0196,445.4314 C108.5006,445.7264 108.3756,446.5794 108.9886,446.9914 C127.0186,459.1214 147.0596,469.1014 167.1316,477.4874 C220.5976,500.0914 283.5386,509.9094 338.0656,485.3904 C421.2786,449.9824 422.5266,351.4574 408.5136,274.9444 L408.5136,274.9444 Z" id="Skin" fill="#d08b5b"/><path d="M572.3058,235.9435 C575.7258,232.8635 578.2758,228.8235 579.5658,224.2935 C580.7458,220.1635 580.8258,215.6535 579.5758,211.5335 C578.2358,207.1135 575.3458,203.5935 575.9958,198.9935 C576.0658,198.5435 576.1558,198.0735 576.2958,197.6035 C578.7958,188.9435 584.9458,182.6935 582.7458,173.0935 C582.1258,170.3835 580.9558,167.9435 579.3258,166.0235 C579.5058,163.9435 579.6658,161.8435 579.7958,159.7435 C583.4058,151.2935 583.2758,141.2535 579.4258,132.9335 C578.9558,128.6735 578.2458,124.4535 577.2458,120.3035 C577.7058,116.6335 577.0658,112.5935 575.8858,109.3835 C573.8128,103.7355 571.2508,98.1695 568.4708,92.6955 C568.7978,91.1985 568.6508,89.6165 567.8248,88.2095 C566.3228,85.6525 564.3378,83.4045 562.3088,81.2075 C560.8738,78.6445 559.4288,76.1025 557.9958,73.5935 C557.3318,72.4405 556.5988,71.1615 555.7908,69.8065 C557.9928,65.7205 559.1688,61.7385 556.8398,56.9335 C555.9648,55.1285 553.5588,53.7975 551.5778,53.9155 C549.4128,54.0445 547.2278,54.1415 545.0308,54.2245 C540.9248,49.2665 536.2718,44.8155 531.2858,42.2535 C526.2358,37.9735 521.1158,33.7735 516.1358,29.4835 C514.7258,28.2635 513.3058,27.0435 511.8958,25.8235 C511.8858,25.7935 511.8758,25.7535 511.8658,25.7235 C510.8258,21.9335 509.6558,18.1935 508.4858,14.4335 C507.7558,12.1035 507.5358,9.6635 505.2658,8.3935 C500.5258,5.7435 493.2358,5.3235 487.7958,4.8735 C487.2558,4.3935 486.7158,3.9235 486.1758,3.4435 C488.6458,-3.1365 488.2058,-10.1265 485.0958,-16.7165 C484.0358,-18.9565 480.3558,-19.9665 478.3358,-18.4865 C473.6758,-15.0665 468.1458,-13.8565 462.6758,-14.3565 C454.6358,-20.5365 422.2058,-48.4825 417.1948,-51.4325 C417.1328,-51.5385 417.0828,-51.6445 417.0168,-51.7495 C414.1998,-56.2475 410.7788,-59.8595 406.9328,-62.7555 C406.3838,-63.3285 405.8348,-63.9025 405.2858,-64.4765 C405.7688,-67.9055 407.0398,-71.2165 409.0858,-73.9865 C409.3058,-74.3065 409.5558,-74.6165 409.8058,-74.9165 C413.3858,-79.1765 409.0158,-84.6565 404.0158,-82.4265 C403.6558,-82.2665 403.2958,-82.1065 402.9358,-81.9365 C399.0918,-80.2225 394.8388,-78.3595 390.4098,-76.7875 C388.7888,-77.3945 387.1368,-77.9445 385.6298,-78.5505 L369.4938,-85.0375 C366.8378,-86.1055 364.0298,-87.0105 361.4608,-88.2655 C360.5648,-94.2245 354.5928,-98.1325 348.3908,-97.9285 C348.7488,-99.0725 349.2828,-100.1835 350.0358,-101.2365 C350.2558,-101.5465 350.4958,-101.8465 350.7458,-102.1365 C353.9358,-105.8465 349.6758,-112.7265 345.1158,-109.4265 C344.7958,-109.1965 344.4658,-108.9665 344.1458,-108.7365 C342.8788,-107.8475 341.5818,-107.0135 340.2708,-106.2055 C338.1718,-107.1215 335.8078,-107.3305 333.3338,-106.3615 C327.8558,-104.2165 322.8058,-102.0355 317.9828,-98.6735 C317.7868,-98.5365 317.5838,-98.4215 317.3858,-98.2925 C314.9918,-101.1845 311.1908,-103.1185 307.7678,-103.0975 C307.6978,-103.0975 307.6438,-103.0985 307.5818,-103.0995 C305.0228,-106.9985 300.3318,-109.2645 295.8018,-108.7135 C296.1078,-114.3085 290.5068,-119.3015 285.4078,-119.9085 C279.4498,-120.6165 274.0798,-117.1575 272.2918,-111.3455 C271.7938,-109.7275 271.2968,-108.1085 270.7988,-106.4895 C266.1728,-108.8245 261.2908,-110.6135 256.1908,-111.5065 C244.5778,-113.5405 233.2228,-111.3745 222.0318,-108.1505 C220.9138,-107.8285 219.7968,-107.4975 218.6798,-107.1675 C217.0838,-109.0165 215.5868,-110.9095 214.1558,-112.6765 C211.6858,-115.7265 205.7558,-113.2865 206.1558,-109.3665 C206.4338,-106.6615 205.3348,-104.7155 203.5658,-103.3325 C201.6228,-103.0485 199.7448,-102.9625 196.9128,-103.0195 C193.1698,-103.0955 191.4668,-103.2125 187.5528,-104.7385 C185.7288,-105.4485 183.4578,-107.3155 182.3948,-108.9915 C178.3198,-115.4185 167.9688,-117.1495 163.0388,-111.0215 C157.8508,-113.2925 151.3008,-110.1605 148.4208,-105.7445 C146.9138,-103.4355 143.7698,-102.1445 139.8118,-101.0345 C136.8408,-100.2025 133.8028,-99.5725 130.7508,-99.0215 C129.3908,-100.8665 126.5268,-102.1035 124.4258,-100.5565 C123.0028,-99.5055 121.6208,-98.4265 120.2578,-97.3205 C109.7478,-95.8725 99.2928,-95.8205 89.2718,-99.9185 C80.7878,-103.3885 72.9978,-93.9115 74.3978,-85.9555 C71.9408,-84.6765 69.2748,-83.8255 66.8478,-82.4855 C61.5528,-79.5595 57.2048,-74.9345 54.5548,-69.5005 C54.0798,-68.5275 53.6508,-67.5395 53.2418,-66.5465 C51.2628,-64.9355 49.3058,-63.2815 47.3958,-61.5365 C44.2158,-63.1665 41.0458,-64.7965 37.8658,-66.4265 C35.4858,-67.6465 31.4758,-66.7965 31.0058,-63.6365 C30.2358,-58.4365 28.3658,-54.1265 25.6958,-50.5165 C17.0158,-45.9565 8.6658,-40.8365 0.6758,-35.1465 C-8.5142,-32.2665 -18.2842,-30.5865 -26.3142,-28.6965 C-29.0642,-28.0465 -30.5642,-24.4565 -29.0142,-22.0665 C-27.3742,-19.5365 -25.7342,-17.0065 -24.1042,-14.4765 C-28.6742,-10.0165 -32.9642,-5.3565 -37.0142,-0.5365 C-48.2842,12.8635 -57.7142,27.5535 -66.1542,43.1135 C-69.4942,44.4635 -72.8342,45.8035 -76.1742,47.1535 C-79.3942,48.4535 -80.8442,52.1935 -78.2342,54.9435 C-76.9942,56.2535 -75.8842,57.6335 -74.9342,59.0835 C-79.6642,66.9135 -85.2342,74.0535 -93.0242,78.7335 C-95.3942,80.1535 -97.1742,82.3835 -98.1242,84.9135 C-98.9342,85.4535 -99.7342,86.0335 -100.5242,86.6235 C-102.7242,88.2835 -104.0542,91.9035 -101.4742,94.0535 C-99.6642,95.5735 -97.9642,97.3735 -96.5242,99.3635 C-96.2142,100.4935 -95.8942,101.6335 -95.5742,102.7635 C-102.8142,109.4235 -108.8342,117.1635 -113.3542,125.8435 C-114.4242,125.6735 -115.5242,125.7835 -116.4142,126.4435 C-124.4942,132.4135 -124.7342,141.9235 -121.4842,150.4235 C-123.4442,163.2335 -122.1842,176.3635 -118.4042,188.7735 C-123.3742,193.7335 -126.3642,200.8935 -127.5842,207.7935 C-129.7342,219.9135 -129.8842,238.5535 -130.4442,250.9235 C-135.8642,256.1535 -139.7242,262.9235 -141.8742,270.2035 C-143.6842,271.1035 -145.4942,272.0035 -147.3042,272.9035 C-148.9142,273.7035 -150.0942,275.8135 -150.000111,277.5935 C-149.5342,286.2035 -145.9842,293.0035 -141.2742,299.1635 C-139.6042,303.9135 -137.1342,308.2935 -133.8942,312.4935 C-131.6542,315.3735 -129.4642,318.1335 -127.5342,321.2435 C-127.3342,321.5535 -127.2142,321.8435 -127.1242,322.0435 C-127.8842,322.8635 -128.5142,324.2235 -129.0642,325.1935 C-133.6842,333.3335 -133.7542,342.8735 -127.1942,349.9635 C-129.6642,351.9835 -129.7442,356.0635 -127.5642,358.5635 C-113.3742,374.7735 -101.5442,394.4835 -81.8542,403.0935 C-81.7642,403.2435 -81.6842,403.3935 -81.6142,403.5435 C-85.6042,413.1435 -86.1442,418.1335 -82.8842,428.0535 C-82.8642,428.1435 -82.8342,428.2235 -82.8042,428.3135 C-81.0642,433.5135 -77.8642,441.8435 -72.0942,443.4635 C-70.2742,443.9735 -68.4842,444.2035 -66.7142,444.1935 C-62.1342,448.6035 -57.5642,453.0235 -52.9942,457.4435 C-52.5942,459.6335 -52.3442,461.8435 -52.2642,464.0735 C-52.1342,467.8035 -48.6242,470.8235 -44.8442,469.7235 C-43.5142,469.3335 -36.1542,462.1835 -34.8042,462.2235 C-34.1242,462.9035 -33.4642,463.5835 -32.8042,464.2735 C-30.3742,466.8235 -27.0042,470.8435 -26.7242,473.5135 C-26.1842,478.5435 -22.8842,484.3035 -17.5542,485.3235 C-15.5542,487.3535 -12.3542,487.9635 -9.9042,485.3135 C-9.7442,485.1435 -9.5842,484.9735 -9.4142,484.8235 C-9.1542,484.7935 -8.9042,484.7635 -8.6442,484.7335 C-7.4642,488.2535 -6.2842,491.7735 -5.0942,495.2835 C-2.7642,502.2035 6.1358,506.6535 12.4558,502.6135 C13.4758,503.2235 14.4758,503.8735 15.4758,504.5235 C16.9958,505.4935 18.5358,506.4835 20.1158,507.4135 C20.2058,507.6735 20.2958,507.9335 20.3758,508.1835 C21.3958,511.2935 25.6358,512.9635 28.2458,511.1735 C29.0558,511.4335 29.8858,511.6435 30.7258,511.8135 C35.1358,512.6835 39.5758,512.4435 43.8358,510.9735 C46.8858,509.9335 49.7958,507.9435 53.0758,507.6735 C53.2808,507.6565 53.4918,507.6705 53.6998,507.6645 C56.3758,513.1465 62.4908,517.8705 67.3098,519.4755 C73.6218,521.5785 80.0818,520.8265 85.8298,518.2515 C87.3808,521.3525 89.3288,524.2885 91.6558,527.0035 C92.9458,528.5035 95.2758,528.1835 96.6058,527.0035 C99.1318,524.7645 101.6418,522.5145 104.1478,520.2615 C105.9618,519.5625 107.7928,518.7235 109.7028,517.9435 C115.6768,515.5035 122.2258,514.4925 127.7508,510.9665 C130.3738,509.2925 132.8408,507.1565 134.8728,504.6815 C138.7008,502.4715 142.2178,499.7185 145.3858,496.5635 C146.9658,496.5735 148.6158,496.2035 150.2158,495.3935 C156.9058,491.9935 160.4258,485.0735 160.7358,477.9935 C166.1558,465.2435 169.3558,451.6435 170.2358,437.7235 C170.5158,433.1535 170.5658,428.5435 170.2158,423.9735 C169.9758,420.7535 169.1658,418.6035 167.9458,415.6935 C167.5358,414.7435 167.1658,413.8735 166.8758,412.9135 C166.9458,409.8335 166.9858,406.7535 167.0258,403.6835 C167.8558,401.0935 169.3358,398.6835 171.3958,396.6535 C174.5858,393.5135 176.0458,386.9935 173.1458,383.1135 C171.2558,380.6035 169.3758,378.0935 167.4858,375.5835 C168.0158,364.8135 170.5958,347.6735 164.8758,345.8735 C165.1058,344.2735 165.5958,342.6935 165.8758,341.1035 C167.2158,333.4635 166.4158,326.6335 162.3558,319.9535 C161.5058,318.5635 160.7858,317.3335 160.1958,316.1335 C159.8258,313.9335 159.4558,311.7335 159.0858,309.5335 C158.5158,306.1435 157.9558,302.7235 157.4758,299.2835 C157.2258,294.9035 156.9958,290.5235 156.7458,286.1335 C156.5158,282.0935 156.2558,278.0535 155.9858,274.0035 C156.0958,272.1935 156.2558,270.3835 156.4858,268.5735 C157.8558,257.7835 162.2658,253.7935 169.9058,246.2935 C171.1058,246.1035 172.2958,245.8935 173.4658,245.6535 C178.9158,244.5235 184.6158,242.7735 190.2258,243.4035 C196.3158,244.0835 201.7658,246.7135 207.6858,243.3535 C209.4258,242.3535 213.2558,239.5935 213.5858,237.4035 C213.6058,237.2635 213.6358,237.1435 213.6758,237.0535 C214.0858,236.9935 214.6158,236.9435 214.9458,236.9335 C219.6458,236.7735 224.1358,238.6235 228.8758,238.1135 C234.4858,237.5135 239.5058,235.0235 242.8058,231.3335 C247.0358,232.3735 251.3558,232.8435 255.7458,232.2635 C259.4258,231.7835 262.7258,230.5835 265.9858,228.8035 C268.3558,227.5235 267.6058,227.1535 270.1858,228.1935 C276.0558,230.5735 281.3658,233.7135 287.9758,232.0835 C291.4058,231.2435 294.3658,229.3935 296.8558,226.9035 C297.4458,226.3235 298.4458,225.4535 299.1158,224.6335 C302.2558,226.2235 310.1558,229.8135 311.4558,230.1335 C315.1358,231.0335 319.0358,230.8935 322.6158,229.6935 C325.2458,228.8135 328.4658,226.4135 330.7758,225.9235 C333.7658,225.2835 340.4058,229.4435 343.9758,230.8735 C350.2358,233.3835 356.8658,234.0035 363.2058,231.4135 C365.3858,230.5235 369.6258,226.9735 371.2558,227.0035 C373.9058,230.2735 381.3058,248.1635 383.5258,254.6935 C392.5158,281.0935 394.8458,363.5235 390.6958,384.5535 C390.5358,385.1735 390.3658,385.7835 390.1958,386.4035 C385.0958,404.6935 379.7858,423.2935 371.2558,440.3335 C363.2058,456.3935 352.0758,470.8535 336.1058,479.6235 C319.5458,488.7235 300.1058,491.1135 281.4858,489.8835 C269.4958,489.1035 257.7058,486.6935 246.1058,483.6735 C240.0458,482.1035 234.0358,480.3535 228.0558,478.5335 C225.4458,477.7435 222.7958,477.0035 220.2358,476.0835 C215.7158,474.4535 213.3458,474.3235 209.0158,476.4135 C205.0758,478.3135 204.0658,483.9235 206.1158,487.4535 C209.4558,493.2135 215.5758,493.6135 221.4858,495.2935 C227.5058,497.0035 233.5458,498.6435 239.6258,500.1135 C251.2758,502.9135 263.1158,505.0635 275.0558,506.0535 C296.4358,507.8435 318.4658,505.0835 337.9258,495.7535 C340.1258,494.6935 342.2458,493.5635 344.2958,492.3435 C343.5358,493.4035 342.7658,494.4635 341.9858,495.5135 C339.8258,498.4235 341.4258,503.3735 344.4558,504.9635 C345.4158,505.4635 346.3758,505.9435 347.3458,506.4135 C347.4758,506.7235 347.6158,507.0335 347.7758,507.3435 C350.5458,512.9035 356.3458,516.1835 362.2558,517.6035 C369.2758,519.2835 377.1358,518.0935 384.2758,517.8835 C390.8958,517.6835 397.5158,517.4835 404.1258,517.2835 C405.6858,517.2435 407.2458,517.1935 408.8058,517.1435 C416.6658,516.9035 424.5158,516.6735 432.3658,516.4335 C439.3658,516.2235 439.0358,516.7635 445.6058,513.9635 C448.5358,512.7035 450.9358,510.9235 452.9558,508.5535 C454.2158,507.9935 455.4358,507.3535 456.6058,506.6235 C460.3658,504.2835 463.7058,501.1435 466.7858,497.6835 C472.0158,499.3335 479.3458,497.8035 480.3658,491.2335 C482.0058,480.7235 495.6658,476.2335 502.0458,468.6335 C507.1958,462.5035 510.8758,454.4735 510.6858,446.7635 C523.6658,440.4835 530.7258,423.9335 532.3758,409.8935 C533.1458,403.3835 533.0258,396.4135 534.1358,389.7935 C534.6258,389.2635 535.0658,388.7035 535.4358,388.1035 C538.6958,382.8335 541.5358,377.4035 544.0358,371.8435 C547.4358,369.3935 551.5258,367.8835 555.8058,367.6335 C566.3258,367.0235 568.3058,352.8335 558.2758,349.4135 C558.2258,349.3935 558.1858,349.3835 558.1358,349.3635 C560.8558,342.5635 560.6258,334.5135 557.3258,328.0735 C557.4658,327.3735 557.5958,326.6835 557.7258,325.9835 C563.3558,319.9335 566.5858,311.5235 566.2258,303.3335 C568.7958,301.5235 571.6758,300.1235 574.8258,299.2535 C579.6958,297.9135 579.7258,291.9735 576.1258,289.3135 C574.6758,288.2435 573.4758,286.9935 572.4758,285.6135 C574.9658,278.1335 573.9858,269.4835 568.8958,263.3435 C572.1258,259.2035 575.3558,255.0635 578.5858,250.9235 C580.7258,248.1835 581.8558,243.5335 578.5858,240.9335 C576.4958,239.2635 574.4058,237.6035 572.3058,235.9435 Z" id="Ink" fill="#000"/></g></g><g id="Face" transform="translate(531.000000, 366.000000) scale(1 1)" fill="#000"><g id="Face/Smile" stroke="none" stroke-width="1" fill="none" fill-rule="evenodd"><path d="M146.586567,240.926554 C139.864291,238.184203 133.866322,233.609781 129.481228,227.766254 C127.956691,225.734803 127.561405,223.589624 127.881219,221.627583 C128.240828,219.421406 129.546036,217.4219 131.326046,216.080693 C133.111571,214.735331 135.345035,214.071832 137.504329,214.410065 C139.380629,214.703969 141.248396,215.731287 142.726594,217.861908 L143.035427,218.287981 C145.642441,221.814933 149.039621,224.708755 152.91047,226.573991 C156.641339,228.371775 160.813939,229.21087 165.131898,228.722919 C173.355732,227.793938 179.024012,223.346401 185.048774,217.30672 C185.795561,216.544195 186.542826,215.757766 187.293714,214.958678 C187.767915,214.234308 188.425986,213.768756 189.156624,213.524488 C189.967867,213.253272 190.885573,213.268617 191.726122,213.56195 C192.536835,213.844871 193.261572,214.380994 193.747527,215.094538 C194.209389,215.772704 194.47125,216.610486 194.386283,217.574143 C193.834826,223.833283 190.562474,229.419299 185.914235,233.805502 C180.751772,238.67694 173.908551,242.047034 167.465957,243.229031 C160.36811,244.531047 153.135593,243.598228 146.586567,240.926554 L146.586567,240.926554 Z M170.814304,144.367155 C178.365682,148.9572 189.871664,159.660291 181.748119,171.039573 C172.185929,181.073062 158.418535,169.568982 151.634201,164.366134 C145.343449,160.333898 138.275437,170.704507 144.112,175.412823 C193.135736,211.708059 213.030606,145.567387 174.633685,138.970386 C170.406047,138.243425 168.835891,142.947174 170.814304,144.367155 Z M82.9633,102.1464 C83.7976284,91.7901242 99.5703,89.4384 101.1393,99.6864 C102.5443,108.8664 100.8903,117.2994 96.7553,125.5644 C92.8043,133.4604 82.8737826,129.776544 82.1227826,122.586544 C81.1160984,112.948648 82.4443,108.588596 82.9633,102.1464 Z M203.027,97.5615 C205.226,94.6815 208.401,92.7155 212.205,93.8265 C224.09,97.2995 220.587,114.1725 216.413,122.3855 C214.145,126.8455 206.814,127.9765 203.501,124.0495 C198.101,117.6455 195.515,104.8565 202.38,98.5485 C202.566,98.2225 202.773,97.8935 203.027,97.5615 Z M96.5879,56.8305 L98.465271,56.501905 C104.27307,55.49746 111.4944,54.5323 115.6029,59.2015 C117.7819,61.6775 118.5319,66.2795 115.6029,68.6495 C110.4509,72.8195 104.7549,71.2035 98.5809,71.5565 C93.4929,71.8485 88.6029,72.6905 83.7019,74.0915 C72.9499,77.1645 64.1889,82.7745 55.0059,88.9345 C53.8009,89.7425 52.5709,88.2015 53.1459,87.0745 C58.4469,76.6915 68.7199,68.1625 79.0099,62.9635 C84.5019,60.1885 90.5119,57.8865 96.5879,56.8305 Z M192.192876,52.1793876 L193.629806,52.4734684 C209.267042,55.742077 229.583473,62.2713911 236.988459,77.6308459 C237.270623,79.8027272 236.97249,80.2682047 236.730054,80.5723213 L236.649336,80.6735209 C236.449568,80.9332186 236.290169,81.2912104 235.348782,81.5868073 C235.087547,81.5245653 234.823712,81.4586426 234.557082,81.3887687 C231.162766,80.499243 228.477205,79.2737961 225.877298,78.0022488 L223.058339,76.6134493 C219.787784,75.0098309 216.488352,73.4645766 212.991711,72.3238115 C205.52958,69.8898666 197.854137,68.1753043 190.059777,67.259767 C188.37041,67.0615005 186.743655,66.4913394 185.460262,65.5141761 C184.242065,64.5866523 183.311441,63.3024737 182.887128,61.5955207 C182.33722,59.3864508 182.495251,57.7140037 183.680513,55.7210991 C184.571756,54.2244705 185.846982,53.1871113 187.311265,52.5914244 C188.804038,51.9841473 190.503545,51.840982 192.192876,52.1793876 Z" id="Ink" fill="#000"/></g></g><g id="Beard" transform="translate(494.999934, 517.999659) scale(1 1)" fill="#000"><g id="Beard/Mustache and Goatee" stroke="none" stroke-width="1" fill="none" fill-rule="evenodd"><path d="M207.9143,31.3282 C196.7933,26.3192 176.8233,30.6902 169.5733,32.4282 C152.7183,36.4702 135.7623,45.2052 130.5223,58.8902 C124.6173,74.3132 136.3993,79.1682 138.1323,78.3752 C149.8003,79.1972 163.6953,71.8622 175.9223,69.9692 C185.8483,68.4192 196.3193,67.0662 205.6193,61.7922 C212.4093,65.5272 227.7453,67.5462 240.1223,70.8122 C250.6633,73.5922 255.2303,79.6212 265.0023,78.3392 C276.7143,76.8032 271.9203,52.1702 258.8673,42.1912 C244.5813,31.2702 220.4193,26.8412 207.9143,31.3282 Z M229.9341,136.6535 C220.204493,139.025645 219.5511,117.7005 218.4611,110.1665 C217.609542,104.280593 212.806884,89.1015762 200.6311,89.7565 C188.455316,90.4114238 183.878432,103.128761 184.4961,111.0385 C184.896642,116.16777 189.62335,142.149551 174.5361,145.4365 C164.9171,145.4025 153.7891,144.7535 143.6751,142.8885 C131.7711,140.1925 116.291914,130.753365 112.2031,149.3425 C110.731534,156.03274 163.1691,175.9095 186.4381,177.7075 C210.036475,182.489578 237.64678,175.136312 254.448053,157.083732 C258.270339,152.976774 269.035635,135.930081 269.802759,131.753365 C271.414428,122.978404 267.682963,117.331642 256.8251,120.4245 C249.1551,124.5205 236.191168,135.127984 229.9341,136.6535 Z" id="Ink" fill="#000"/></g></g><g id="Mask" transform="translate(400.000000, 480.000000) scale(1 1)" fill="#000"><g id="Mask/None" stroke="none" stroke-width="1" fill="none" fill-rule="evenodd" fill-opacity="0"/></g><g id="Accessories" transform="translate(419.000000, 421.000000) scale(1 1)" fill="#000"><g id="Accessories/None" stroke="none" stroke-width="1" fill="none" fill-rule="evenodd" fill-opacity="0"/></g></g></svg>