<svg viewBox="165.0270270270271 57.487499999999955 805.9459459459459 1303.0500000000004" xmlns="http://www.w3.org/2000/svg" overflow="visible" xmlns:xlink="http://www.w3.org/1999/xlink" width="805.9459459459459px" height="1303.0500000000004px"><g id="Master/Character/Bust" stroke="none" stroke-width="1" fill="none" fill-rule="evenodd"><g id="Body" transform="translate(147.000000, 639.000000) scale(1 1)"><g id="Body/Gaming" stroke="none" stroke-width="1" fill="none" fill-rule="evenodd"><path d="M764.153488,391.111634 C764.153488,383.020001 752.953587,368.657203 752.933988,361.327691 C762.349988,359.644691 770.222302,346.88772 768.136302,338.89872 C764.461302,336.08972 754.828488,330.559691 750.844488,327.977691 C726.571488,328.713691 735.796488,294.945191 733.049488,277.780191 C730.283488,260.986191 728.229488,243.426191 724.181488,226.537191 C716.991488,213.023191 713.617488,197.873191 706.745488,184.427191 C703.676488,179.971191 698.716488,175.886191 697.231488,170.709191 C682.197488,154.289191 661.501488,144.447191 644.469488,130.540191 C651.079488,128.424191 650.638488,119.509191 650.211488,113.784191 C651.749488,106.315191 650.106488,96.9471915 643.294488,92.7391915 C640.992488,85.2391915 630.930488,82.6211915 625.046488,87.3991915 C621.181488,70.0761915 606.060488,59.5661915 590.220488,53.1381915 C590.234488,53.0871915 590.247488,53.0371915 590.262488,52.9861915 C574.287488,46.6461915 555.139843,43.4855199 539.20064,47.0494557 C547.614225,-46.699294 475.811356,-50.1406292 439.370601,-42.2622192 C420.731296,-38.2324429 392.763961,-25.6865863 386.410592,-8.24564655 C382.823688,1.6009355 372.530491,33.3569449 371.065097,43.4855199 C343.238097,27.6065199 310.978488,6.66819145 286.842488,38.6361915 C282.009488,44.2071915 276.661488,48.3451915 269.429488,50.2591915 C246.849488,56.1181915 216.879488,56.3141915 204.045488,79.3321915 C196.374488,93.5921915 203.273488,102.988191 201.212488,117.253191 C99.5694883,188.632191 14.6284883,451.585191 33.7004883,573.918191 C38.2884883,617.697191 60.6884883,695.186191 115.977488,685.525191 C144.177399,716.369281 617.501541,716.369281 666.308676,685.525191 C706.483676,696.033191 747.305488,679.767191 764.153488,641.289191 C785.548488,588.527191 762.875488,531.546191 758.857488,477.421191 C756.417309,463.75633 752.785658,452.909093 750.844488,438.919443 C750.035604,433.089966 752.825774,423.391724 750.844488,418.018191 C751.779322,414.520348 764.153488,399.203267 764.153488,391.111634 Z" id="Skin" fill="#d08b5b"/><path d="M364.256867,37.0335779 L365.926377,37.7479085 L371.657958,40.2324123 L370.456374,42.9882574 C367.074715,50.7441244 363.273555,58.2053577 359.107419,65.2298745 L358.322005,66.541819 L357.117,68.535 L357.178076,68.602505 C357.697783,69.1782352 358.227598,69.7745731 358.769042,70.3923911 L421.848611,138.170306 C448.456713,166.735755 462.504382,181.76526 463.991618,183.258821 C470.194074,189.490005 476.292144,190.267667 481.872793,185.012119 L482.501475,184.416517 L483.535527,183.420518 L484.241417,182.728441 C487.884802,179.130376 491.505211,175.150863 496.709958,169.148466 L554.973539,86.5005692 L551.293612,78.2790415 C544.538609,63.095429 540.850055,54.2179923 540.227952,51.6467313 L539.948319,50.3853326 L539.365483,47.6722543 L542.024983,46.8800737 C551.61788,44.0226548 562.236508,44.7718478 574.28245,48.3345174 L574.978994,48.5431719 L576.985413,49.1634164 C585.146536,51.7001516 589.767549,53.4056619 594.50013,55.9331953 C600.940827,59.3729838 605.695749,63.6436679 608.663033,69.2105419 C612.076209,75.6164967 614.687883,78.835889 619.086876,81.4392147 L619.431753,81.6401458 L619.859003,81.8801541 L620.309128,82.1228645 C620.698662,82.3288611 621.130398,82.5474677 621.650267,82.8031728 L623.49716,83.6953339 C629.327165,86.4894194 632.004864,88.2788994 634.299157,91.8073839 C636.832885,95.7024259 637.26197,99.3492961 636.479799,104.625607 L636.40981,105.081897 L636.287302,105.827694 L635.811049,108.568961 L635.69767,109.264258 C635.387849,111.225872 635.336093,112.951595 635.558531,114.402054 L635.614738,114.731871 L636.891201,121.520642 L634.357,119.912 L641.366494,125.624717 C651.176025,133.654706 657.022461,138.63688 663.135106,144.255839 L664.824904,145.818875 L665.15682,146.128086 C676.172676,156.401869 685.119268,166.30826 692.607386,176.883056 C700.729404,188.34818 707.610422,200.887459 713.167914,214.243018 L713.797219,215.77246 L713.848265,215.972514 C722.172002,248.593956 728.858394,281.639241 733.890467,315.003578 L734.372277,318.233378 L736.815239,334.792248 L728.773343,320.112597 C727.521668,317.827794 724.056321,315.564312 719.733864,313.87733 L719.326164,313.720881 L719.030247,313.610471 L718.412331,313.389547 C713.669356,311.738862 708.886826,311.583167 704.405793,312.972314 L703.943327,313.121531 L702.583353,313.577642 L701.374492,312.805487 C699.146084,311.382102 696.649757,310.178593 693.906786,309.188089 L693.215917,308.944896 L690.322069,307.952137 L691.371369,305.078307 C692.164521,302.906019 690.709827,298.641669 688.613363,296.81222 C685.347877,293.978983 680.653955,293.184926 673.364209,293.721541 L672.376757,293.800913 L671.594205,293.871913 L670.420853,293.9881 L666.721,294.385 L666.720683,294.402304 C666.674769,295.041105 666.64561,295.628106 666.63351,296.182405 L666.627638,296.592295 L666.628192,296.991713 C666.644496,298.368614 666.763023,299.640802 666.991923,300.827729 L667.096804,301.331249 L667.931131,305.05452 L664.116127,304.986761 L662.452735,304.962008 C656.882693,304.895012 651.033346,304.982645 644.146474,305.209811 L637.34848,305.462611 L620.007973,306.196247 L604.797278,306.730035 L600.264199,306.881196 L600.047896,304.012823 C599.762509,300.228347 596.526507,297.714649 590.794442,296.598622 L590.425181,296.529285 L584.436882,295.445606 L589.35581,290.981923 L589.753738,290.608429 L590.164558,290.207564 C594.120709,286.269405 595.449009,282.66194 593.82069,279.175541 C591.914977,275.090501 586.038663,273.895239 580.640928,276.115252 L580.269769,276.271158 L579.887568,276.442261 C578.87246,276.911947 577.864813,277.502473 576.257651,278.538733 L574.205349,279.874289 L573.459507,280.350088 C571.680638,281.471656 570.504184,282.104641 569.016653,282.719204 C565.080833,284.348143 561.405152,284.461847 555.375773,283.709285 L554.837594,283.640651 L553.557577,283.47039 L550.291771,283.01525 L549.483178,282.90852 L548.662715,282.806887 C542.499952,282.073703 538.598381,282.470232 535.304191,284.574565 C533.1963,285.920828 532.003145,287.644108 530.160892,291.666567 L529.286174,293.60694 L528.900664,294.439984 C526.684742,299.156876 525.003122,301.42043 521.693479,303.384336 C519.580896,304.64141 517.579575,305.392222 514.045484,306.420079 L511.529065,307.146608 L510.635291,307.416614 C510.095269,307.584442 509.647255,307.734238 509.173378,307.903897 C505.324493,309.272308 501.842774,311.237824 498.570464,313.874242 L498.06257,314.287516 L497.511543,314.746678 C494.326255,317.435359 491.603538,320.347529 486.954669,325.809909 L483.568031,329.805301 L482.36507,331.206459 L481.370226,332.345237 C481.263594,332.466055 481.157743,332.585563 481.052149,332.704356 L480.106146,333.757533 C472.731872,341.8525 465.354195,349.315719 457.840296,356.234361 L456.263078,357.676228 L454.639118,359.138219 L453.302771,360.323218 C448.931819,364.172366 444.212212,368.067555 436.880551,373.954023 L427.792469,381.233923 L424.933769,383.54093 C416.346622,390.495509 411.115994,394.98215 405.786296,400.047987 L404.464,401.314 L404.370365,401.856757 C404.319561,402.160743 404.263444,402.510525 404.202591,402.90257 C400.734197,424.300857 400.574469,443.77392 403.723408,461.321761 C408.446816,487.643522 410.120714,476.941947 414.900928,483.402705 L416.008571,484.888788 C418.629614,488.377052 420.6511,490.844912 422.843069,493.137218 L425.432406,495.80964 L428.410633,498.223084 L430.291249,499.35979 C431.64999,500.181057 433.005216,500.825664 434.363041,501.288968 C436.236683,501.932589 438.739646,500.662815 439.969834,498.426542 L440.084847,498.207143 L440.886878,496.599263 L442.682943,496.54748 C443.104214,496.535334 443.533213,496.47058 443.95264,496.353974 C448.204098,495.182779 450.319144,490.120295 448.240664,486.18863 L448.125293,485.979115 L447.048673,484.066777 L446.496433,483.105311 C445.703685,481.746987 444.970494,480.598624 444.228971,479.586425 L443.950376,479.213089 L439.815976,473.775952 L450.223184,474.746521 L451.074109,474.830821 L452.243683,474.954522 L455.991651,475.381084 C459.892373,475.818569 463.659069,476.215648 467.33348,476.575189 L470.461348,476.874242 L475.933862,477.373714 L477.057418,477.485967 L479.488493,477.742786 L485.311306,478.373073 L487.385418,478.586041 L488.540231,478.698091 C489.652177,478.803048 490.648858,478.887886 491.650298,478.963046 L492.750439,479.041701 C501.136622,479.612692 507.680803,479.234242 513.622421,477.56062 C523.286747,474.825385 533.003738,469.178288 543.523009,460.827701 C554.275323,452.290985 562.051555,444.25198 566.730657,435.91083 C566.818567,435.753791 566.831375,435.629793 566.7706,435.477975 L566.725316,435.383059 L564.94743,432.121446 L568.510199,431.069934 C571.357087,430.229707 573.772893,429.159119 575.803632,427.788229 C582.052836,423.583345 584.145272,415.167668 579.613708,410.769243 L579.412502,410.580564 L579.137391,410.331299 L575.309949,404.595167 L580.84664,403.778474 C582.69782,403.493026 584.324263,403.169861 585.843909,402.77366 C595.962135,400.14444 601.161055,392.076316 596.680929,384.312856 L596.531401,384.059815 L594.722981,381.069815 L597.952259,379.734806 C598.64458,379.448595 599.360401,379.178803 600.152889,378.900825 L600.638006,378.732859 L601.123478,378.568707 L602.938794,377.968175 C606.777699,376.702119 610.534909,375.738527 614.281228,375.080587 C617.242313,374.571651 620.206391,374.243134 623.172139,374.095094 L624.28437,374.048038 L625.525,374.005 L625.532491,373.968671 L626.258,373.979 L628.795344,373.891515 L628.745534,374.021872 C632.509689,374.11481 636.292661,374.481695 640.07663,375.118727 L640.971354,375.272205 C642.285549,375.502223 643.534388,375.74046 644.86842,376.012443 L650.643446,377.236331 C651.694353,377.454001 652.610388,377.633013 653.519619,377.796114 L654.398521,377.949214 L663.700148,379.52186 L655.198724,383.61078 L654.979961,383.719406 L654.761434,383.833661 L653.823253,384.351433 C648.045673,387.61562 644.627262,391.338909 643.824691,395.932245 C642.573482,403.098152 646.648887,406.397575 656.258579,407.512197 L657.060883,407.598924 L657.908125,407.677471 L658.464432,407.722007 L682.528629,409.351782 L659.743696,413.723493 C654.22541,414.782278 648.650294,416.212926 643.020548,417.997691 C642.582845,418.135535 642.110717,418.305787 641.598444,418.509616 L641.206623,418.668802 L638.89,419.628 L636.667886,421.233767 C632.767963,424.126847 631.680211,426.996772 633.626554,429.846547 L633.760808,430.036502 L634.967192,431.687799 L633.871049,433.414244 C630.723277,438.372047 631.134966,444.689138 634.897944,449.823589 C638.038124,454.107306 643.119252,456.833249 650.050209,458.395715 L650.587007,458.513616 L652.109,458.839 L654.330389,459.188467 L655.941442,459.409392 L657.177474,459.554061 L658.011231,459.640155 L659.293022,459.759167 L662.790653,460.053985 C667.760001,460.477946 670.311905,460.820328 673.373845,461.585266 C677.485222,462.609863 681.10587,464.279641 685.923909,467.126925 L686.485246,467.460713 L687.671708,468.177137 L689.97356,469.591558 L692.200108,470.975429 L692.951733,471.437404 L693.880094,471.998287 C700.737202,476.091121 705.256495,477.62812 710.013529,476.909553 C713.035607,476.455354 715.571572,475.349894 717.820567,473.592494 L718.173315,473.309591 L721.624,470.47 L721.522688,469.893665 L722.273194,468.861719 C723.711087,466.884616 729.83619,455.350769 729.840472,455.343252 C733.793717,448.402379 737.603534,443.608649 742.418264,440.437042 L742.833443,440.16915 L743.778988,439.590279 L744.859676,439.361344 L745.404578,439.446404 C746.989493,439.693813 747.459229,440.397766 747.906725,441.588828 C748.021079,441.893195 748.11262,442.22929 748.202051,442.636185 L748.28548,443.040153 L748.370549,443.499977 L748.502357,444.298416 L748.640763,445.232743 L748.797296,446.383765 L748.966012,447.714189 C749.097965,448.785669 749.243058,450.030072 749.407727,451.495893 L751.221551,468.208495 L751.719846,472.647046 L752.180594,476.605331 C752.218695,476.92621 752.256774,477.245258 752.29487,477.562785 L752.686656,480.768728 L753.113863,484.12204 C754.215523,492.5713 755.30428,499.366834 756.432799,504.522633 L756.640167,505.449563 L756.779936,506.051316 L757.14182,507.592173 C763.613894,535.306807 766.895323,558.191375 767.063699,581.117146 C767.205152,605.762056 761.830006,627.758373 750.172434,645.888734 C739.058413,663.188851 722.837356,675.744733 704.558733,680.076964 C694.92322,682.35185 685.36644,681.855081 677.663433,678.023344 C676.256979,677.323828 675.258655,676.606263 673.435903,675.082383 L672.830417,674.572564 C670.423125,672.534751 669.36105,671.826085 668.079722,671.526881 C667.921555,671.489519 667.768487,671.461165 667.619845,671.441517 L667.400119,671.418536 L664.677071,671.210724 L664.628869,668.480184 C664.526137,662.660572 661.749213,660.385354 662.009897,669.464764 C662.344217,678.187509 662.55678,683.099064 662.647585,684.199429 L662.743123,685.283712 L662.78,685.666 L661.171569,691.279852 C590.967074,718.090983 183.97712,718.555533 121.183678,692.330426 L119.386904,691.527556 L108.283207,686.198879 C123.117156,682.74306 125.462852,681.655989 115.320295,682.937666 C99,685 80,675 69.7020427,658.161827 L65.9478387,651.968018 L64.7988426,650.044035 L64.1619811,648.962044 C62.6315058,646.344381 61.5412135,644.34091 60.3869699,642.036572 C55.7302045,632.737753 51.8635229,622.731138 48.6842939,611.967086 C42.7680887,591.938227 39.6687898,570.23967 38.7435347,545.699331 C37.0688998,501.309593 41.6498831,454.458627 51.7658112,405.645498 C61.577379,358.29758 76.4456342,312.276068 96.0634486,268.757339 C105.870106,247.003044 116.679598,226.197225 128.530188,206.363215 L129.80388,204.241862 L131.190813,201.950364 L132.614582,199.61477 L134.045642,197.286691 L135.350304,195.183617 L136.664852,193.085052 L137.991041,190.989753 C150.097597,171.965479 160.861132,157.926638 173.302813,145.814566 C184.358804,135.052136 196.006232,124.133032 208.245098,113.057256 L207.982211,108.420033 L207.971488,108.334768 C207.712406,106.8089 203.10462,93.7717362 207.760224,83.6139951 L208.290795,82.4730603 C212.503479,73.5554714 213.11617,75.8486809 217.147205,73.036161 L217.312515,72.9193025 C226.151916,66.5880751 237.416461,62.2476853 250.772421,59.3524209 C254.198011,58.6093274 257.422357,58.2775977 261.964345,58.0966745 L262.592017,58.0729134 L263.414968,58.0448741 L266.947369,57.9377715 C273.602445,57.7246261 278.592234,55.3781018 282.439845,50.5213917 L282.725087,50.1557733 L283.013127,49.7740634 L283.283158,49.4033437 C284.222539,48.0907371 285.120587,46.5915019 286.569298,44.0170581 L287.561655,42.2568502 L288.038582,41.4247375 L288.527115,40.5871969 C290.188162,37.7701821 291.367404,36.1124007 293.034262,34.2994422 C298.069454,28.8245272 305.881302,25.6104725 314.117103,25.0745977 C328.721979,24.1218053 343.10003,28.0375964 364.256867,37.0335779 Z M555.927889,318.698826 L554.738334,324.553564 C554.625986,325.106513 554.564131,325.649039 554.554406,326.177789 L554.556913,326.571716 L554.641086,329.242042 L551.998313,329.633805 C549.860384,329.95073 547.740765,330.281489 545.641911,330.625957 L543.550071,330.974991 L523.821161,334.321238 L541.857984,325.259364 L542.224458,325.080339 L542.323578,325.029711 L543.016636,324.698867 L545.18572,323.690924 L550.521612,321.241495 L555.927889,318.698826 Z" id="Top" fill="#78E185"/><path d="M540.416988,16.7496915 C541.534988,21.5366915 540.513988,26.9336915 540.700988,31.8466915 C540.878988,36.5416915 541.432988,41.2096915 542.248988,45.8356915 C550.830988,41.3216915 560.972988,40.7416915 570.752988,42.1946915 C583.403988,44.0746915 598.042988,48.2346915 607.957988,56.6866915 C610.405988,58.7746915 612.433988,61.2466915 614.131988,63.9716915 C616.169988,67.2416915 617.470988,70.9356915 620.701988,73.2786915 C625.699988,76.9036915 631.895988,78.3066915 636.700988,82.3236915 C641.599988,86.4186915 644.640988,92.5406915 645.283988,98.8586915 C645.626988,102.221691 645.071988,105.365691 644.433988,108.645691 C643.861988,111.596691 644.142988,112.807691 644.919988,115.648691 C645.529988,117.878691 644.365988,120.409691 642.467988,121.639691 C646.536988,124.432691 650.550988,127.311691 654.494988,130.307691 C677.473988,147.747691 696.904988,169.487691 710.374988,195.067691 L710.700533,195.702902 L711.077468,196.466658 C714.360115,203.210592 722.948881,222.92695 724.015988,227.359691 C724.778988,229.674691 725.517988,231.998691 726.204988,234.336691 C728.019072,240.533358 729.557544,246.80649 730.832729,253.131439 L731.173988,254.857691 C732.208988,260.169691 733.989988,266.461691 733.702988,272.123691 C736.685988,287.581691 739.328988,303.104691 741.584988,318.692691 C741.879988,320.734691 741.066988,322.393691 739.804988,323.494691 C742.821988,323.979691 745.819988,324.575691 748.784988,325.176691 L750.50738,325.538977 L751.369382,325.729445 C757.544728,327.122201 763.639356,329.150365 767.683988,334.336691 C772.044988,339.947691 772.133988,347.157691 767.753988,352.807691 C764.034988,357.607691 758.603988,359.887691 752.933988,361.327691 C751.814988,361.607691 750.683988,361.867691 749.553988,362.096691 C748.794988,362.256691 748.294988,361.217691 749.013988,360.817691 L750.21726,360.152793 L751.858865,359.253105 C756.132966,356.896977 760.569015,354.237955 762.933988,349.987691 C766.144988,344.217691 763.603988,338.876691 758.093988,335.947691 C753.481396,333.492136 747.775519,332.863357 742.653325,332.024528 L740.538035,331.675078 C735.182945,330.820321 729.720206,330.264952 724.314988,330.876691 C719.584988,331.416691 714.794988,333.027691 710.973988,335.916691 L710.620205,336.19479 L710.2546,336.502086 C706.90404,339.405549 702.085889,345.927783 708.404988,347.807691 C713.234988,349.235608 719.120233,348.880905 724.196595,349.157795 L724.853988,349.197691 C729.103988,349.487691 733.544988,349.487691 737.843988,349.997691 C739.383988,350.176691 740.904988,350.426691 742.394988,350.777691 C746.664988,351.787691 745.194988,357.467691 741.433988,357.867691 C740.513988,357.967691 739.574988,358.016691 738.633988,358.037691 C736.173988,359.887691 732.773988,360.727691 729.864988,361.876691 C727.084988,362.977691 724.294988,364.067691 721.484988,365.137691 C723.904988,365.247691 726.324988,365.447691 728.734988,365.747691 C729.513988,365.836691 729.523988,366.887691 728.734988,366.967691 C722.933988,367.557691 717.133988,368.197691 711.353988,369.006691 C702.404988,370.247691 693.513988,371.907691 684.824988,374.436691 C678.47356,376.293834 672.199733,378.504498 666.1148,381.084694 L664.273988,381.876691 L663.514471,382.208253 C657.991801,384.601907 650.847388,387.40298 647.673988,392.676691 C646.013988,395.426691 645.284988,399.676691 647.624988,402.307691 C650.127357,405.141113 655.369621,404.817491 658.874689,404.955425 L659.154988,404.967691 C666.574988,405.327691 674.003988,405.376691 681.433988,405.117691 C697.003988,404.567691 712.584988,402.867691 727.874988,399.876691 C730.694988,399.327691 731.914988,403.557691 729.074988,404.217691 C711.039294,408.407969 692.806049,410.70687 674.300819,410.813893 L672.273988,410.817691 C665.065551,412.195816 657.995981,414.250699 650.986176,416.570353 L649.584988,417.037691 C645.444988,418.436691 638.374988,419.827691 635.933988,423.936691 C634.314988,426.666691 634.883988,428.537691 636.484988,429.807691 C639.303988,432.037691 645.303988,432.456691 648.223988,432.567691 C659.923988,433.006691 671.633988,433.086691 683.343988,432.836691 C689.194988,432.706691 695.044988,432.497691 700.894988,432.197691 C706.614988,431.897691 712.723988,431.047691 718.423988,431.596691 C720.874988,431.836691 721.694988,435.436691 719.034988,436.107691 C712.005359,437.88821 704.121688,437.732531 696.859135,437.959654 L696.023988,437.987691 C688.223988,438.266691 680.414988,438.387691 672.614988,438.367691 C665.919845,438.34112 659.226172,438.205814 652.538376,437.959884 L646.625548,437.725443 L645.578365,437.675341 C642.427276,437.506493 639.208588,437.143411 636.414988,435.846691 C633.834988,440.166691 635.763988,445.956691 639.093988,449.376691 C642.263988,452.637691 646.834988,454.237691 651.213988,455.237691 C651.624988,455.327691 652.034988,455.416691 652.444988,455.497691 C662.064988,457.456691 671.864988,457.287691 680.864988,461.706691 C688.433988,465.426691 695.364988,471.626691 703.843988,473.096691 C711.423988,474.416691 716.933988,471.077691 720.973988,464.897691 C721.194988,464.557691 721.414988,464.217691 721.624988,463.876691 C724.803988,458.756691 727.093988,453.117691 730.444988,448.096691 C732.154988,445.537691 734.084988,443.077691 736.444988,441.077691 C737.503988,440.166691 744.923988,436.227691 746.084988,435.047691 C751.074988,429.926691 746.654988,419.157691 747.954988,412.737691 C749.473988,405.266691 756.044988,402.637691 759.984988,396.846691 C767.473988,385.827691 746.933988,375.506691 753.074988,363.456691 C753.154988,363.307691 753.253988,363.197691 753.383988,363.126691 C753.923988,362.836691 754.784988,363.197691 754.734988,363.907691 C754.053988,372.887691 762.614988,379.067691 765.704988,386.846691 C769.223988,395.697691 763.603988,401.057691 757.864988,406.967691 C750.503988,414.557691 755.683988,423.057691 754.044988,432.197691 C753.830988,433.395691 753.486988,434.451691 753.039988,435.396691 C754.297988,436.176691 755.267988,437.468691 755.480988,439.272691 C758.004988,460.672691 760.717988,482.006691 765.147988,503.110691 L766.095854,507.594436 L767.364894,513.575956 C770.522377,528.536527 773.469718,543.557367 774.029988,558.851691 C775.788988,571.758691 776.486988,584.773691 775.444988,597.766691 C772.284988,637.317691 750.173988,678.697691 710.003988,690.836691 C700.704988,693.647691 690.843988,694.376691 681.303988,692.407691 C678.034988,691.737691 673.454988,690.256691 669.343988,688.016691 C669.588988,690.652691 669.782988,693.288691 669.863988,695.918691 C671.218632,697.427396 671.831241,699.705311 671.059725,701.65395 C667.783938,700.576432 664.806344,698.869763 662.125116,696.534689 L661.680988,696.139691 C660.09138,690.233213 659.626363,683.770691 659.395383,677.548297 L659.334988,675.777691 C659.273988,674.057691 659.234988,672.367691 659.173988,670.717691 C658.834988,660.447691 659.074988,650.157691 659.603988,639.897691 L659.994023,632.34476 C660.887426,614.728098 661.614113,597.153066 661.124988,579.487691 C660.564988,559.157691 658.824988,538.916691 656.644988,518.697691 C655.513988,508.266691 654.234988,497.857691 652.923988,487.447691 C651.874988,479.067691 650.114988,470.047691 650.084988,461.407691 C643.353988,459.967691 636.744988,457.206691 632.603988,451.557691 C628.213988,445.567691 627.564988,437.907691 631.463988,431.766691 C627.694988,426.607691 630.784988,421.747691 635.444988,418.467691 C628.284988,414.456691 624.294988,403.516691 623.234988,395.907691 C622.513988,390.686691 622.284988,382.876691 624.513988,377.006691 C621.314988,377.117691 618.114988,377.447691 614.914988,377.997691 C611.213988,378.647691 607.584988,379.596691 604.003988,380.777691 L602.191289,381.377359 C601.27656,381.683691 600.246845,382.044834 599.223988,382.467691 C605.694988,393.166691 597.383988,402.867691 586.723988,405.637691 C584.694988,406.166691 582.624988,406.537691 580.534988,406.836691 C575.824988,407.487691 571.013988,407.686691 566.343988,408.117691 C557.404988,408.936691 548.414988,410.107691 539.444988,410.487691 C537.473988,410.577691 536.204988,409.657691 535.603988,408.376691 C535.584988,408.357691 535.574988,408.346691 535.574988,408.327691 C535.364988,407.987691 535.223988,407.626691 535.173988,407.247691 C535.204988,407.277691 535.244988,407.297691 535.273988,407.317691 C534.843988,404.916691 536.284988,401.997691 539.444988,401.647691 C552.394988,400.186691 565.523988,400.117691 578.513988,399.047691 L579.346491,398.978556 C583.42392,398.62665 588.226633,397.979627 591.454988,395.397691 C594.454988,392.997691 594.723988,389.876691 593.523988,387.057691 C593.503988,387.126691 593.484988,387.206691 593.473988,387.277691 C593.383988,387.836691 592.614988,387.817691 592.364988,387.426691 C591.614988,386.287691 591.423988,385.166691 591.614988,384.086691 C590.713988,383.047691 589.624988,382.126691 588.444988,381.416691 C583.213988,378.237691 576.334988,377.367691 570.383988,376.426691 C563.874988,375.397691 557.314988,374.926691 550.744988,374.617691 C537.814988,374.006691 524.843988,375.057691 512.124988,377.376691 C511.593988,377.467691 511.374988,376.727691 511.894988,376.557691 C516.853988,374.916691 521.923988,373.537691 527.053988,372.447691 C526.933988,372.426691 526.814988,372.407691 526.694988,372.376691 C526.244988,372.266691 525.923988,371.717691 526.074988,371.277691 C526.093988,371.206691 526.124988,371.137691 526.154988,371.077691 C523.973988,370.077691 523.064988,366.717691 525.704988,365.357691 C533.933988,361.107691 543.593988,359.186691 552.624988,357.436691 C561.294988,355.766691 570.053988,354.596691 578.824988,353.557691 C593.654988,351.817691 609.824988,351.857691 624.093988,347.176691 L624.680761,346.979924 C630.491795,344.975625 637.428759,340.915232 637.834988,334.057691 C638.433988,323.686691 623.023988,326.387691 616.603988,326.637691 C599.034988,327.307691 581.484988,328.527691 563.994988,330.407691 C560.423988,330.787691 556.853988,331.176691 553.284988,331.577691 C547.814988,332.186691 542.334988,332.827691 536.874988,333.506691 C533.824988,333.887691 530.704988,334.387691 527.564988,334.867691 C526.584988,335.107691 525.624988,335.277691 524.664988,335.367691 C524.593988,335.376691 524.534988,335.357691 524.484988,335.327691 C519.914988,335.967691 515.324988,336.456691 510.864988,336.317691 C510.353988,336.307691 510.034988,335.506691 510.574988,335.266691 C516.334988,332.827691 522.744988,331.387691 529.173988,330.256691 C533.154988,327.287691 537.963988,324.907691 541.914988,322.607691 C547.334988,319.447691 553.544988,314.797691 559.694988,312.907691 C562.463988,310.727691 565.603988,308.977691 568.494988,307.787691 C567.664988,306.497691 567.364988,304.706691 567.513988,303.197691 C568.064988,297.787691 572.394988,294.766691 577.394988,293.706691 C578.944988,293.387691 580.734988,293.147691 582.644988,293.057691 C582.683988,292.047691 583.133988,291.057691 584.133988,290.317691 L584.429249,290.093731 L584.638832,289.926608 C587.995353,287.201251 594.65817,279.527893 586.633988,278.967691 C582.374988,278.666691 578.773988,281.787691 575.383988,283.897691 C568.343988,288.287691 561.534988,288.506691 553.494988,287.416691 L549.880709,286.898078 L549.279792,286.817058 C543.466953,286.054411 537.570265,285.949241 534.324988,291.876691 C530.843988,298.217691 529.624988,303.997691 522.603988,307.487691 C515.894988,310.817691 508.444988,311.477691 502.284988,316.057691 C495.683988,320.956691 490.723988,327.836691 485.324988,333.936691 C473.414988,347.376691 459.784988,359.247691 445.744988,370.407691 L443.247442,372.386815 C430.317559,382.604946 416.971049,392.66557 402.494988,400.537691 C402.394988,400.586691 402.293988,400.607691 402.204988,400.607691 C401.814988,400.567691 401.523988,400.067691 401.874988,399.727691 C418.784988,383.297691 438.564988,369.977691 455.933988,353.987691 C463.633988,346.897691 470.963988,339.436691 478.013988,331.697691 C484.173988,324.907691 489.633988,317.277691 496.814988,311.497691 C500.303988,308.686691 504.074988,306.537691 508.293988,305.037691 C512.234988,303.626691 516.654988,302.926691 520.284988,300.766691 C527.394988,296.547691 526.704988,286.547691 533.814988,282.006691 C539.911142,278.112461 547.337732,279.535353 554.097184,280.459553 L554.904988,280.567691 C559.284988,281.147691 563.814988,281.637691 567.994988,279.907691 C572.133988,278.197691 575.463988,274.997691 579.633988,273.297691 C585.444988,270.907691 593.683988,271.477691 596.664988,277.867691 C599.513988,283.967691 595.624988,289.487691 591.084988,293.537691 C597.273988,294.657691 602.704988,297.647691 603.164988,303.747691 C607.704988,303.596691 612.234988,303.436691 616.773988,303.277691 C632.584988,302.727691 648.473988,301.666691 664.294988,301.947691 C663.933988,300.336691 663.773988,298.676691 663.753988,296.987691 C663.744988,296.047691 663.784988,295.107691 663.853988,294.147691 C663.973988,292.506691 665.053988,291.516691 666.654988,291.346691 L670.228191,290.965485 L671.42396,290.846992 C678.118414,290.213851 685.604186,290.081078 690.704988,294.506691 C693.444988,296.897691 695.654988,302.397691 694.314988,306.067691 C697.433988,307.137691 700.404988,308.506691 703.114988,310.237691 C708.484988,308.436691 714.124988,308.637691 719.523988,310.516691 L720.16537,310.745891 C724.00371,312.15503 729.444178,314.824259 731.529988,318.631691 C726.466988,284.313691 719.643988,250.288691 711.066988,216.674691 C705.591988,203.250691 698.673988,190.419691 690.284988,178.577691 C669.154988,148.737691 638.713988,128.217691 611.374988,104.627691 C608.962613,107.282441 606.364191,109.808566 603.934111,112.239563 L602.903988,113.275691 C597.953988,118.288691 592.790988,123.085691 587.513988,127.750691 C576.484988,137.500691 564.875988,146.499691 553.349988,155.642691 C530.114988,174.075691 509.107988,193.648691 491.629988,217.713691 C491.315988,218.147691 490.444988,217.894691 490.687988,217.317691 C502.675988,188.820691 527.527988,167.155691 550.103988,147.052691 C561.975988,136.481691 574.125988,126.165691 585.540988,115.095691 C590.862527,109.934768 596.017911,104.595762 600.881298,98.9992345 L602.090988,97.5946915 C605.270988,93.8726915 612.716988,82.5086915 617.637988,90.7076915 C618.668988,92.4226915 618.623988,94.6166915 617.637988,96.3336915 C616.239988,98.7736915 614.464988,101.100691 612.523988,103.335691 C619.423988,107.088691 626.181988,111.051691 632.791988,115.246691 C632.411988,113.225691 632.506988,110.991691 632.859988,108.756691 L632.975718,108.04675 L633.457135,105.274811 C634.147705,101.188538 634.502771,97.3895175 631.909988,93.4036915 C628.667988,88.4176915 622.554988,86.8626915 617.684988,83.9816915 C612.074988,80.6616915 609.144988,76.2196915 606.140988,70.5816915 C600.388069,59.788732 587.391245,55.4608826 576.220529,51.9886712 L574.814988,51.5526915 C564.492988,48.3536915 553.326988,46.6416915 543.006988,49.7156915 C543.974988,54.2216915 545.241988,58.6636915 546.824988,62.9906915 C548.509988,67.5966915 552.358988,72.7176915 551.964988,77.6926915 C551.692988,81.1356915 547.562988,84.8156915 544.135988,82.1846915 C539.281988,78.4606915 538.311988,72.3956915 537.010988,66.6176915 C535.752988,61.0296915 534.949988,55.3056915 534.607988,49.5886915 C534.278926,44.079004 534.536094,38.5728321 535.215521,33.1006629 L535.736601,29.0818716 L535.86311,28.1485453 C536.430269,24.0861132 537.273716,19.8222852 539.558988,16.6376915 C539.778988,16.3316915 540.316988,16.3246915 540.416988,16.7496915 Z M399.587988,-6.09330855 C399.660988,-5.76830855 399.711988,-5.44730855 399.757988,-5.12630855 C400.091988,-3.75630855 400.216988,-2.43930855 400.175988,-1.11630855 C400.195988,-0.639308549 400.160988,-0.161308549 400.071988,0.311691451 C399.892988,1.86869145 399.517988,3.46669145 399.010988,5.21369145 C397.931988,8.93069145 396.695988,12.6026915 395.314988,16.2196915 C392.584988,23.3726915 389.361988,30.1976915 385.377988,36.7396915 C378.180988,48.5566915 369.031988,58.3656915 358.245988,66.8446915 C360.292988,68.5336915 362.293988,70.2906915 364.298988,72.0156915 C373.989988,80.3556915 383.418988,89.0736915 392.551988,98.0216915 C408.770988,113.914691 424.663988,130.102691 440.183988,146.678691 C447.838988,154.853691 455.351988,163.135691 462.823988,171.473691 L463.068941,171.754243 L463.333788,172.069776 C465.98697,175.278448 471.290892,182.930917 475.247988,181.701691 C477.245988,181.079691 479.349988,178.098691 480.711988,176.676691 L483.220738,174.060691 C484.054738,173.186191 484.883488,172.306691 485.697988,171.414691 C500.293988,155.422691 514.104988,138.816691 527.072988,121.459691 C533.400988,112.990691 539.517988,104.362691 545.412988,95.5846915 C548.442988,91.0716915 551.416988,86.5186915 554.330988,81.9276915 C557.148988,77.4876915 559.427988,72.7156915 563.580988,69.4016915 C566.628988,66.9696915 570.851988,69.1996915 570.083988,73.1866915 C568.873988,79.4656915 564.527988,84.7756915 561.105988,90.0826915 C557.668988,95.4156915 554.150988,100.696691 550.553988,105.921691 C543.630988,115.981691 536.407988,125.829691 528.926988,135.479691 C522.484655,143.790191 515.763349,151.887261 508.860124,159.820196 L506.972988,161.979691 C499.547988,170.444691 492.259988,179.430691 484.054988,187.156691 C476.707988,194.075691 468.683988,192.059691 461.990988,185.335691 C453.525988,176.834691 445.666988,167.640691 437.521988,158.829691 C421.245988,141.221691 404.799988,123.747691 388.183988,106.459691 L382.72184,100.769889 C376.352964,94.1220495 370.010099,87.4324692 363.832988,80.6206915 L363.035865,79.7325587 C355.991418,71.8080544 348.828061,61.8806551 338.812988,57.8516915 C338.088988,57.5606915 338.354988,56.5326915 339.136988,56.6766915 C345.547988,57.8616915 350.899988,61.0916915 355.879988,64.9506915 C360.355988,57.5436915 364.349988,49.7356915 367.831988,41.7496915 L365.597956,40.7796667 C349.61415,33.8730648 331.598585,26.9091691 314.437988,28.0286915 C307.521988,28.4786915 300.142988,31.0986915 295.367988,36.2906915 C291.043988,40.9936915 288.884988,47.3356915 284.916988,52.3446915 C280.371988,58.0816915 274.443988,60.6636915 267.168988,60.8966915 L263.631477,61.0039535 C259.562729,61.1360124 255.660877,61.3494692 251.533988,62.2446915 C240.351988,64.6686915 228.562988,68.6016915 219.184988,75.3186915 C215.782988,77.7546915 212.270988,81.1046915 210.625988,84.7956915 C208.994988,88.4526915 208.525988,92.7316915 208.366988,96.6786915 C208.289988,98.6026915 208.866988,101.143691 208.384988,102.984691 C208.439988,102.773691 208.464988,102.885691 208.471988,103.105691 C209.970988,104.287691 210.991988,106.252691 211.102988,108.210691 C220.450988,103.338691 230.127988,99.0686915 239.992988,95.2196915 C250.976988,90.9346915 262.301988,87.5006915 273.628988,84.2486915 C284.714988,81.0676915 296.318988,79.7516915 307.619988,77.4836915 C309.058988,77.1946915 309.558988,79.1376915 308.217988,79.6536915 C296.339988,84.2156915 284.846988,89.6236915 272.869988,93.9156915 C260.898988,98.2066915 249.016988,102.850691 237.392988,108.012691 C214.924988,117.993691 193.221988,130.693691 175.520988,147.924691 C158.232988,164.754691 144.897988,185.199691 132.495988,205.755691 C120.005988,226.456691 108.858988,247.911691 98.9239883,269.950691 C79.2699883,313.549691 64.5319883,359.390691 54.8289883,406.214691 C45.3859883,451.780691 40.1099883,498.973691 41.8669883,545.546691 C42.7009883,567.666691 45.4029883,589.803691 51.6869883,611.077691 C54.6889883,621.241691 58.4469883,631.172691 63.1949883,640.653691 C68.2019883,650.649691 74.9479883,659.553691 79.5199883,669.719691 C79.8959883,670.555691 80.0399883,671.358691 80.0189883,672.104691 C99.5189883,688.999691 130.040988,677.614691 151.144988,667.527691 C199.704988,644.307691 247.364988,618.897691 292.664988,589.737691 C337.374988,560.956691 379.744988,528.836691 421.114988,495.497691 C417.914988,492.197691 415.093988,488.497691 412.614988,485.147691 C407.494988,478.227691 403.644988,470.387691 400.994988,462.206691 C397.894988,452.626691 396.933988,442.376691 397.814988,432.367691 L398.064883,429.536782 C398.907716,420.084791 399.881352,410.493055 401.954988,401.256691 C401.973988,401.137691 402.064988,401.086691 402.164988,401.086691 C402.263988,401.086691 402.364988,401.147691 402.404988,401.256691 C407.994988,419.147691 408.444988,438.376691 414.723988,456.037691 C417.253988,463.137691 421.173988,469.997691 425.874988,475.887691 C427.904988,478.436691 430.284988,480.647691 432.713988,482.807691 C432.874988,481.706691 433.093988,480.617691 433.423988,479.547691 L433.685854,478.700501 C434.011272,477.672346 434.413988,476.52858 434.973988,475.516691 C434.183988,475.287691 433.414988,475.037691 432.654988,474.756691 C432.053988,474.537691 431.923988,473.567691 432.654988,473.407691 C434.644988,472.947691 436.694988,472.717691 438.784988,472.617691 C439.114988,472.567691 439.433988,472.557691 439.753988,472.577691 C443.664988,472.456691 447.644988,472.737691 451.414988,472.797691 C457.944988,472.897691 464.454988,473.016691 470.973988,473.307691 C483.454988,473.846691 497.543988,476.237691 509.824988,473.336691 C520.984988,470.697691 531.984988,463.256691 540.933988,456.256691 C548.753988,450.137691 554.784988,442.867691 561.273988,435.617691 C560.807988,435.691025 560.345544,435.759914 559.884877,435.824062 L555.700277,436.397494 C550.41802,437.102703 544.147488,437.655897 539.954988,435.117691 C538.353988,434.147691 538.814988,431.947691 540.444988,431.346691 C544.723988,429.777691 550.034988,431.077691 554.593988,430.857691 C558.173988,430.686691 561.794988,430.307691 565.324988,429.567691 C566.484988,429.327691 567.633988,429.047691 568.773988,428.717691 C577.133988,426.307691 586.954988,417.827691 580.314988,408.567691 C580.064988,408.217691 580.343988,407.897691 580.683988,407.836691 C580.834988,407.807691 580.994988,407.836691 581.124988,407.947691 C588.683988,414.206691 584.753988,425.426691 577.603988,430.237691 C575.144988,431.897691 572.364988,433.057691 569.484988,433.907691 C570.034988,434.916691 570.133988,436.157691 569.473988,437.336691 C563.874988,447.317691 554.394988,456.086691 545.513988,463.137691 C536.394988,470.376691 525.874988,477.206691 514.564988,480.407691 C501.503988,484.086691 487.154988,481.317691 473.904988,480.147691 C466.723988,479.516691 459.564988,478.766691 452.394988,477.936691 C450.473988,477.717691 448.484988,477.547691 446.463988,477.357691 C448.364988,479.857691 449.874988,482.737691 450.864988,484.467691 C454.084988,490.086691 451.114988,497.487691 444.874988,499.206691 C444.223988,499.387691 443.553988,499.487691 442.894988,499.506691 C441.213988,502.876691 437.213988,505.357691 433.513988,504.086691 C431.904988,503.537691 430.353988,502.787691 428.864988,501.887691 C405.593988,522.327691 381.093988,541.506691 355.894988,559.487691 C309.164988,592.827691 260.183988,623.277691 209.394988,650.047691 C197.955088,656.077691 186.427708,661.945691 174.802642,667.585352 L164.796757,672.408329 C153.72159,677.738332 142.386863,683.039191 130.624988,686.346691 C128.331988,686.991691 125.930988,687.512691 123.470988,687.911691 C123.439136,688.131915 123.431106,688.342752 123.445509,688.544573 C121.233955,688.839381 119.304148,688.884312 117.656264,688.679411 L117.280988,688.627691 C102.863988,689.635691 87.4429883,686.115691 78.1679883,675.585691 C76.6219883,676.670691 74.3679883,676.790691 72.3789883,675.229691 C62.3759883,667.380691 56.4129883,655.430691 51.1799883,644.021691 C45.8739883,632.448691 41.7149883,620.387691 38.6589883,608.031691 C32.5549883,583.353691 30.1339883,557.897691 30.006403,532.512691 C29.5449883,434.693691 54.0429883,336.015691 96.5949883,248.196691 C107.386988,225.923691 119.282988,204.066691 132.488988,183.129691 C145.658988,162.249691 160.951988,142.844691 180.536988,127.616691 C186.168988,123.238691 192.027988,119.235691 198.070988,115.547691 C194.014988,113.537691 192.403988,108.424691 192.119988,103.882691 C191.489988,93.7956915 192.691988,82.1746915 198.597988,73.6636915 C206.882988,61.7236915 221.713988,54.3616915 235.465988,50.7816915 C242.644988,48.9136915 250.070988,47.8246915 257.475988,47.4566915 C261.293988,47.2656915 265.260988,47.8936915 269.032988,47.4816915 C272.360988,47.1196915 274.418988,45.1336915 276.332988,42.5226915 C281.235988,35.8296915 284.427988,28.8096915 291.460988,23.9036915 C298.676988,18.8706915 308.027988,16.9446915 316.720988,17.4666915 C326.847988,18.0756915 336.086988,22.0656915 345.005988,26.6506915 C353.055988,30.7886915 360.869988,35.3726915 368.484988,40.2626915 C369.880988,36.9916915 371.195988,33.6956915 372.418988,30.3886915 C374.790988,23.9766915 376.853988,17.3606915 378.527988,10.7326915 C380.224988,4.01169145 379.976988,-4.86430855 385.102988,-9.91830855 C389.559988,-14.3113085 398.142988,-12.5863085 399.587988,-6.09330855 Z M745.067462,442.370965 L745.030988,442.378691 C734.662988,448.522691 729.704988,463.876691 724.824988,470.586691 C725.223988,472.836691 725.503988,475.126691 726.053988,477.256691 C727.314988,482.147691 728.963988,486.997691 730.874988,491.657691 C734.234988,499.887691 738.444988,507.727691 742.334988,515.706691 C745.464988,522.123691 748.531988,528.658691 750.917988,535.413691 C750.658988,535.672691 750.419988,535.979691 750.216988,536.360691 C747.628988,541.207691 745.602988,540.254691 740.827988,539.196691 L740.824988,539.186691 C738.093988,530.827691 734.154988,522.977691 730.614988,514.956691 L729.754033,512.998387 L728.902651,511.038527 C725.944817,504.174075 723.245628,497.246091 721.673988,489.887691 C720.673988,485.197691 720.263988,480.376691 720.204988,475.586691 C717.614988,477.717691 714.503988,479.247691 710.584988,479.836691 C702.197488,481.103656 694.600964,475.850858 687.766994,471.636491 L686.226734,470.693634 C681.948447,468.09074 677.706572,465.685941 672.773988,464.456691 C667.173988,463.057691 661.383988,463.057691 655.694988,462.346691 C655.013988,462.256691 654.324988,462.166691 653.633988,462.057691 C655.853988,469.407691 656.883988,477.387691 658.204988,484.747691 C660.044988,495.067691 661.544988,505.477691 662.984988,515.857691 C665.784988,535.977691 667.734988,556.256691 668.723988,576.547691 C669.682322,596.193525 669.199681,615.765886 668.488894,635.405597 L668.134357,644.983185 C667.850201,652.781183 667.616296,660.587691 667.753988,668.387691 C668.133988,668.416691 668.513988,668.477691 668.894988,668.567691 C672.834988,669.487691 675.523988,673.506691 679.124988,675.297691 C686.723988,679.077691 695.904988,679.027691 703.994988,677.117691 C722.394988,672.756691 737.694988,659.916691 747.773988,644.227691 C759.874988,625.407691 764.314988,603.256691 764.173988,581.096691 C764.00753,556.157316 759.96861,532.311895 754.346007,508.234851 L753.984988,506.697691 C749.252788,486.639301 746.288689,442.561601 745.067462,442.370965 Z M229.826388,392.050291 C229.931388,398.758291 227.203388,405.933291 225.704388,412.451291 C224.090388,419.474291 222.480388,426.497291 220.848388,433.517291 L219.380517,439.80651 C218.158388,445.04772 216.953388,450.29272 215.873388,455.566291 C214.985388,459.901291 214.613388,465.614291 213.158388,470.393291 C230.465388,463.393291 247.799388,456.464291 265.104388,449.487291 C286.424388,440.888291 307.844388,432.527291 329.214388,424.067291 C350.504388,415.647291 371.674388,406.067291 393.395388,398.867291 C398.565388,397.147291 402.065388,405.397291 397.114388,407.686291 C375.054388,417.917291 351.714388,425.927291 329.114388,434.888291 L296.422797,447.866386 C266.453811,459.757523 236.464388,471.591225 206.324388,483.017291 C185.794388,490.798291 165.344388,498.808291 144.684388,506.197291 C134.834388,509.718291 124.895388,513.048291 115.094388,516.697291 C106.884388,519.757291 98.0043883,524.298291 94.9643883,533.117291 C94.8043883,533.577291 94.1743883,533.388291 94.2443883,532.917291 C95.4743883,524.377291 101.815388,519.037291 108.964388,514.997291 C118.453084,509.621639 128.875012,505.709881 138.891187,501.398814 L140.254388,500.808291 C160.707388,491.888291 181.325388,483.329291 202.004388,474.913291 C201.799388,474.413291 201.678388,473.877291 201.669388,473.317291 L201.610388,473.333291 C201.234388,469.510291 202.987388,466.101291 204.248388,462.545291 L207.865388,452.341291 C210.275388,445.546291 212.437388,438.667291 214.664388,431.811291 C216.993388,424.645291 219.344388,417.486291 221.691388,410.326291 C223.679388,404.261291 225.015388,397.032291 228.416388,391.611291 C228.826388,390.958291 229.956388,391.325291 229.826388,392.050291 Z M628.114988,376.967691 L627.857265,378.270141 C627.556717,379.793136 627.274988,381.327691 627.204988,382.867691 C627.003988,386.897691 627.463988,390.926691 628.534988,394.817691 C629.584988,398.666691 631.053988,402.387691 633.144988,405.797691 C635.124988,409.006691 637.994988,411.527691 639.824988,414.817691 C640.013988,415.166691 640.133988,415.516691 640.183988,415.857691 C640.883988,415.567691 641.574988,415.307691 642.244988,415.096691 C647.824988,413.327691 653.523988,411.846691 659.303988,410.737691 L658.387304,410.675608 L657.795442,410.628452 C648.138041,409.811231 639.026296,406.651758 640.994988,395.376691 C642.108588,389.003251 647.11134,384.729216 652.473148,381.699931 L653.144988,381.327691 C653.433988,381.166691 653.734988,381.006691 654.023988,380.867691 C649.173988,380.047691 645.654988,379.037691 639.704988,378.037691 C635.843988,377.387691 631.973988,377.027691 628.114988,376.967691 Z M186.924388,238.085191 C196.420388,257.271191 203.564388,277.671191 208.954388,298.368191 C211.556522,308.363258 213.764913,318.45676 215.540536,328.630811 L216.123722,332.028095 L216.455168,333.87195 C218.113848,342.940552 220.220552,352.764702 217.784388,361.613191 C216.989388,364.504191 212.189388,365.648191 210.845388,362.521191 C206.791388,353.081191 207.361388,342.230191 206.186388,332.128191 C204.951388,321.528191 203.266388,310.978191 201.166388,300.515191 C197.132781,280.410799 191.471012,260.776908 185.16021,241.290731 L184.456388,239.126191 C183.920388,237.683191 186.254388,236.732191 186.924388,238.085191 Z M551.923988,323.916691 C549.093988,325.247691 546.263988,326.467691 543.763988,327.686691 C543.574988,327.787691 543.374988,327.876691 543.173988,327.977691 C546.003988,327.497691 548.843988,327.047691 551.683988,326.626691 C551.654988,325.706691 551.744988,324.797691 551.923988,323.916691 Z M662.657988,314.307691 C662.232845,314.445691 661.856927,314.668916 661.530233,314.974846 L661.370988,315.134691 C660.980988,315.497691 660.704988,315.926691 660.543988,316.421691 C660.293988,316.899691 660.177988,317.413691 660.198988,317.963691 L660.341988,319.026691 C660.531988,319.704691 660.874988,320.291691 661.370988,320.791691 L662.179988,321.416691 C662.725988,321.733441 663.309504,321.912379 663.930535,321.954174 L664.198988,321.963691 L665.00881,321.96405 C665.471825,321.948324 665.907131,321.833834 666.315988,321.618691 C666.741131,321.480691 667.11705,321.258202 667.443743,320.951852 L667.602988,320.791691 C667.993988,320.428691 668.268988,319.999691 668.429988,319.504691 C668.645131,319.095834 668.759621,318.659793 668.775347,318.197199 L668.774988,317.963691 L668.631988,316.899691 C668.465738,316.306441 668.182348,315.782098 667.781816,315.32599 L667.602988,315.134691 L666.793988,314.508691 C666.247988,314.192816 665.664473,314.013988 665.043441,313.972877 L664.774988,313.963691 L664.198988,313.963691 C663.647988,313.942691 663.133988,314.057691 662.657988,314.307691 Z M636.638988,312.954691 C634.513988,313.344691 633.308988,315.920691 633.845988,317.873691 C634.440182,320.036595 636.495354,320.997937 638.559588,320.702433 L638.765988,320.668691 C641.183988,320.223691 643.552988,320.395691 645.855988,321.244691 C647.881988,321.992691 650.238988,320.407691 650.775988,318.450691 C651.389988,316.216691 650.016988,314.280691 647.981988,313.530691 C644.331988,312.182691 640.416988,312.258691 636.638988,312.954691 Z M215.327888,170.899891 C220.166598,177.990537 223.187514,187.416874 226.167917,195.520113 L226.465888,196.325891 C229.633888,204.841891 232.689888,213.424891 235.539888,222.053891 C241.228888,239.278891 248.642888,257.303891 250.012888,275.499891 C250.265888,278.857891 245.126888,280.203891 243.636888,277.227891 C239.355888,268.670891 237.053888,259.750891 234.520888,250.576891 C232.104888,241.827891 229.587888,233.108891 227.069888,224.388891 C224.552888,215.673891 222.117888,206.932891 219.638888,198.206891 C217.227888,189.717891 213.870888,180.278891 213.318888,171.443891 C213.246888,170.295891 214.771888,170.083891 215.327888,170.899891 Z M324.537188,113.814591 C330.996188,118.297591 336.286188,124.854591 341.752188,130.462591 C347.297188,136.152591 352.768188,141.895591 358.188188,147.705591 C367.245188,157.415591 376.138188,167.284591 385.323188,176.876591 C403.627188,195.991591 424.334188,213.581591 449.596188,222.565591 C455.709188,224.739591 453.031188,234.549591 446.904188,232.329591 C421.065188,222.961591 399.660188,205.640591 380.779188,186.045591 C371.000188,175.897591 362.027188,165.053591 353.278188,154.016591 C349.184022,148.851591 345.120411,143.670619 341.114554,138.439531 L338.718188,135.294591 C333.681188,128.648591 327.518188,122.024591 323.832188,114.520591 C323.625188,114.098591 324.079188,113.497591 324.537188,113.814591 Z" id="Ink" fill="#000"/></g></g><g id="Head" transform="translate(372.000000, 180.000000) scale(0.9978902953586498 1)"><g id="Head/Long Afro" stroke="none" stroke-width="1" fill="none" fill-rule="evenodd"><path d="M408.5136,274.9444 C401.6496,191.2694 380.7496,117.1594 282.5446,113.9994 C238.2266,114.3954 192.9876,123.8104 152.2336,141.2304 C53.1776,190.8964 21.7486,372.3774 109.0196,445.4314 C108.5006,445.7264 108.3756,446.5794 108.9886,446.9914 C127.0186,459.1214 147.0596,469.1014 167.1316,477.4874 C220.5976,500.0914 283.5386,509.9094 338.0656,485.3904 C421.2786,449.9824 422.5266,351.4574 408.5136,274.9444 L408.5136,274.9444 Z" id="Skin" fill="#d08b5b"/><path d="M572.3058,235.9435 C575.7258,232.8635 578.2758,228.8235 579.5658,224.2935 C580.7458,220.1635 580.8258,215.6535 579.5758,211.5335 C578.2358,207.1135 575.3458,203.5935 575.9958,198.9935 C576.0658,198.5435 576.1558,198.0735 576.2958,197.6035 C578.7958,188.9435 584.9458,182.6935 582.7458,173.0935 C582.1258,170.3835 580.9558,167.9435 579.3258,166.0235 C579.5058,163.9435 579.6658,161.8435 579.7958,159.7435 C583.4058,151.2935 583.2758,141.2535 579.4258,132.9335 C578.9558,128.6735 578.2458,124.4535 577.2458,120.3035 C577.7058,116.6335 577.0658,112.5935 575.8858,109.3835 C573.8128,103.7355 571.2508,98.1695 568.4708,92.6955 C568.7978,91.1985 568.6508,89.6165 567.8248,88.2095 C566.3228,85.6525 564.3378,83.4045 562.3088,81.2075 C560.8738,78.6445 559.4288,76.1025 557.9958,73.5935 C557.3318,72.4405 556.5988,71.1615 555.7908,69.8065 C557.9928,65.7205 559.1688,61.7385 556.8398,56.9335 C555.9648,55.1285 553.5588,53.7975 551.5778,53.9155 C549.4128,54.0445 547.2278,54.1415 545.0308,54.2245 C540.9248,49.2665 536.2718,44.8155 531.2858,42.2535 C526.2358,37.9735 521.1158,33.7735 516.1358,29.4835 C514.7258,28.2635 513.3058,27.0435 511.8958,25.8235 C511.8858,25.7935 511.8758,25.7535 511.8658,25.7235 C510.8258,21.9335 509.6558,18.1935 508.4858,14.4335 C507.7558,12.1035 507.5358,9.6635 505.2658,8.3935 C500.5258,5.7435 493.2358,5.3235 487.7958,4.8735 C487.2558,4.3935 486.7158,3.9235 486.1758,3.4435 C488.6458,-3.1365 488.2058,-10.1265 485.0958,-16.7165 C484.0358,-18.9565 480.3558,-19.9665 478.3358,-18.4865 C473.6758,-15.0665 468.1458,-13.8565 462.6758,-14.3565 C454.6358,-20.5365 422.2058,-48.4825 417.1948,-51.4325 C417.1328,-51.5385 417.0828,-51.6445 417.0168,-51.7495 C414.1998,-56.2475 410.7788,-59.8595 406.9328,-62.7555 C406.3838,-63.3285 405.8348,-63.9025 405.2858,-64.4765 C405.7688,-67.9055 407.0398,-71.2165 409.0858,-73.9865 C409.3058,-74.3065 409.5558,-74.6165 409.8058,-74.9165 C413.3858,-79.1765 409.0158,-84.6565 404.0158,-82.4265 C403.6558,-82.2665 403.2958,-82.1065 402.9358,-81.9365 C399.0918,-80.2225 394.8388,-78.3595 390.4098,-76.7875 C388.7888,-77.3945 387.1368,-77.9445 385.6298,-78.5505 L369.4938,-85.0375 C366.8378,-86.1055 364.0298,-87.0105 361.4608,-88.2655 C360.5648,-94.2245 354.5928,-98.1325 348.3908,-97.9285 C348.7488,-99.0725 349.2828,-100.1835 350.0358,-101.2365 C350.2558,-101.5465 350.4958,-101.8465 350.7458,-102.1365 C353.9358,-105.8465 349.6758,-112.7265 345.1158,-109.4265 C344.7958,-109.1965 344.4658,-108.9665 344.1458,-108.7365 C342.8788,-107.8475 341.5818,-107.0135 340.2708,-106.2055 C338.1718,-107.1215 335.8078,-107.3305 333.3338,-106.3615 C327.8558,-104.2165 322.8058,-102.0355 317.9828,-98.6735 C317.7868,-98.5365 317.5838,-98.4215 317.3858,-98.2925 C314.9918,-101.1845 311.1908,-103.1185 307.7678,-103.0975 C307.6978,-103.0975 307.6438,-103.0985 307.5818,-103.0995 C305.0228,-106.9985 300.3318,-109.2645 295.8018,-108.7135 C296.1078,-114.3085 290.5068,-119.3015 285.4078,-119.9085 C279.4498,-120.6165 274.0798,-117.1575 272.2918,-111.3455 C271.7938,-109.7275 271.2968,-108.1085 270.7988,-106.4895 C266.1728,-108.8245 261.2908,-110.6135 256.1908,-111.5065 C244.5778,-113.5405 233.2228,-111.3745 222.0318,-108.1505 C220.9138,-107.8285 219.7968,-107.4975 218.6798,-107.1675 C217.0838,-109.0165 215.5868,-110.9095 214.1558,-112.6765 C211.6858,-115.7265 205.7558,-113.2865 206.1558,-109.3665 C206.4338,-106.6615 205.3348,-104.7155 203.5658,-103.3325 C201.6228,-103.0485 199.7448,-102.9625 196.9128,-103.0195 C193.1698,-103.0955 191.4668,-103.2125 187.5528,-104.7385 C185.7288,-105.4485 183.4578,-107.3155 182.3948,-108.9915 C178.3198,-115.4185 167.9688,-117.1495 163.0388,-111.0215 C157.8508,-113.2925 151.3008,-110.1605 148.4208,-105.7445 C146.9138,-103.4355 143.7698,-102.1445 139.8118,-101.0345 C136.8408,-100.2025 133.8028,-99.5725 130.7508,-99.0215 C129.3908,-100.8665 126.5268,-102.1035 124.4258,-100.5565 C123.0028,-99.5055 121.6208,-98.4265 120.2578,-97.3205 C109.7478,-95.8725 99.2928,-95.8205 89.2718,-99.9185 C80.7878,-103.3885 72.9978,-93.9115 74.3978,-85.9555 C71.9408,-84.6765 69.2748,-83.8255 66.8478,-82.4855 C61.5528,-79.5595 57.2048,-74.9345 54.5548,-69.5005 C54.0798,-68.5275 53.6508,-67.5395 53.2418,-66.5465 C51.2628,-64.9355 49.3058,-63.2815 47.3958,-61.5365 C44.2158,-63.1665 41.0458,-64.7965 37.8658,-66.4265 C35.4858,-67.6465 31.4758,-66.7965 31.0058,-63.6365 C30.2358,-58.4365 28.3658,-54.1265 25.6958,-50.5165 C17.0158,-45.9565 8.6658,-40.8365 0.6758,-35.1465 C-8.5142,-32.2665 -18.2842,-30.5865 -26.3142,-28.6965 C-29.0642,-28.0465 -30.5642,-24.4565 -29.0142,-22.0665 C-27.3742,-19.5365 -25.7342,-17.0065 -24.1042,-14.4765 C-28.6742,-10.0165 -32.9642,-5.3565 -37.0142,-0.5365 C-48.2842,12.8635 -57.7142,27.5535 -66.1542,43.1135 C-69.4942,44.4635 -72.8342,45.8035 -76.1742,47.1535 C-79.3942,48.4535 -80.8442,52.1935 -78.2342,54.9435 C-76.9942,56.2535 -75.8842,57.6335 -74.9342,59.0835 C-79.6642,66.9135 -85.2342,74.0535 -93.0242,78.7335 C-95.3942,80.1535 -97.1742,82.3835 -98.1242,84.9135 C-98.9342,85.4535 -99.7342,86.0335 -100.5242,86.6235 C-102.7242,88.2835 -104.0542,91.9035 -101.4742,94.0535 C-99.6642,95.5735 -97.9642,97.3735 -96.5242,99.3635 C-96.2142,100.4935 -95.8942,101.6335 -95.5742,102.7635 C-102.8142,109.4235 -108.8342,117.1635 -113.3542,125.8435 C-114.4242,125.6735 -115.5242,125.7835 -116.4142,126.4435 C-124.4942,132.4135 -124.7342,141.9235 -121.4842,150.4235 C-123.4442,163.2335 -122.1842,176.3635 -118.4042,188.7735 C-123.3742,193.7335 -126.3642,200.8935 -127.5842,207.7935 C-129.7342,219.9135 -129.8842,238.5535 -130.4442,250.9235 C-135.8642,256.1535 -139.7242,262.9235 -141.8742,270.2035 C-143.6842,271.1035 -145.4942,272.0035 -147.3042,272.9035 C-148.9142,273.7035 -150.0942,275.8135 -150.000111,277.5935 C-149.5342,286.2035 -145.9842,293.0035 -141.2742,299.1635 C-139.6042,303.9135 -137.1342,308.2935 -133.8942,312.4935 C-131.6542,315.3735 -129.4642,318.1335 -127.5342,321.2435 C-127.3342,321.5535 -127.2142,321.8435 -127.1242,322.0435 C-127.8842,322.8635 -128.5142,324.2235 -129.0642,325.1935 C-133.6842,333.3335 -133.7542,342.8735 -127.1942,349.9635 C-129.6642,351.9835 -129.7442,356.0635 -127.5642,358.5635 C-113.3742,374.7735 -101.5442,394.4835 -81.8542,403.0935 C-81.7642,403.2435 -81.6842,403.3935 -81.6142,403.5435 C-85.6042,413.1435 -86.1442,418.1335 -82.8842,428.0535 C-82.8642,428.1435 -82.8342,428.2235 -82.8042,428.3135 C-81.0642,433.5135 -77.8642,441.8435 -72.0942,443.4635 C-70.2742,443.9735 -68.4842,444.2035 -66.7142,444.1935 C-62.1342,448.6035 -57.5642,453.0235 -52.9942,457.4435 C-52.5942,459.6335 -52.3442,461.8435 -52.2642,464.0735 C-52.1342,467.8035 -48.6242,470.8235 -44.8442,469.7235 C-43.5142,469.3335 -36.1542,462.1835 -34.8042,462.2235 C-34.1242,462.9035 -33.4642,463.5835 -32.8042,464.2735 C-30.3742,466.8235 -27.0042,470.8435 -26.7242,473.5135 C-26.1842,478.5435 -22.8842,484.3035 -17.5542,485.3235 C-15.5542,487.3535 -12.3542,487.9635 -9.9042,485.3135 C-9.7442,485.1435 -9.5842,484.9735 -9.4142,484.8235 C-9.1542,484.7935 -8.9042,484.7635 -8.6442,484.7335 C-7.4642,488.2535 -6.2842,491.7735 -5.0942,495.2835 C-2.7642,502.2035 6.1358,506.6535 12.4558,502.6135 C13.4758,503.2235 14.4758,503.8735 15.4758,504.5235 C16.9958,505.4935 18.5358,506.4835 20.1158,507.4135 C20.2058,507.6735 20.2958,507.9335 20.3758,508.1835 C21.3958,511.2935 25.6358,512.9635 28.2458,511.1735 C29.0558,511.4335 29.8858,511.6435 30.7258,511.8135 C35.1358,512.6835 39.5758,512.4435 43.8358,510.9735 C46.8858,509.9335 49.7958,507.9435 53.0758,507.6735 C53.2808,507.6565 53.4918,507.6705 53.6998,507.6645 C56.3758,513.1465 62.4908,517.8705 67.3098,519.4755 C73.6218,521.5785 80.0818,520.8265 85.8298,518.2515 C87.3808,521.3525 89.3288,524.2885 91.6558,527.0035 C92.9458,528.5035 95.2758,528.1835 96.6058,527.0035 C99.1318,524.7645 101.6418,522.5145 104.1478,520.2615 C105.9618,519.5625 107.7928,518.7235 109.7028,517.9435 C115.6768,515.5035 122.2258,514.4925 127.7508,510.9665 C130.3738,509.2925 132.8408,507.1565 134.8728,504.6815 C138.7008,502.4715 142.2178,499.7185 145.3858,496.5635 C146.9658,496.5735 148.6158,496.2035 150.2158,495.3935 C156.9058,491.9935 160.4258,485.0735 160.7358,477.9935 C166.1558,465.2435 169.3558,451.6435 170.2358,437.7235 C170.5158,433.1535 170.5658,428.5435 170.2158,423.9735 C169.9758,420.7535 169.1658,418.6035 167.9458,415.6935 C167.5358,414.7435 167.1658,413.8735 166.8758,412.9135 C166.9458,409.8335 166.9858,406.7535 167.0258,403.6835 C167.8558,401.0935 169.3358,398.6835 171.3958,396.6535 C174.5858,393.5135 176.0458,386.9935 173.1458,383.1135 C171.2558,380.6035 169.3758,378.0935 167.4858,375.5835 C168.0158,364.8135 170.5958,347.6735 164.8758,345.8735 C165.1058,344.2735 165.5958,342.6935 165.8758,341.1035 C167.2158,333.4635 166.4158,326.6335 162.3558,319.9535 C161.5058,318.5635 160.7858,317.3335 160.1958,316.1335 C159.8258,313.9335 159.4558,311.7335 159.0858,309.5335 C158.5158,306.1435 157.9558,302.7235 157.4758,299.2835 C157.2258,294.9035 156.9958,290.5235 156.7458,286.1335 C156.5158,282.0935 156.2558,278.0535 155.9858,274.0035 C156.0958,272.1935 156.2558,270.3835 156.4858,268.5735 C157.8558,257.7835 162.2658,253.7935 169.9058,246.2935 C171.1058,246.1035 172.2958,245.8935 173.4658,245.6535 C178.9158,244.5235 184.6158,242.7735 190.2258,243.4035 C196.3158,244.0835 201.7658,246.7135 207.6858,243.3535 C209.4258,242.3535 213.2558,239.5935 213.5858,237.4035 C213.6058,237.2635 213.6358,237.1435 213.6758,237.0535 C214.0858,236.9935 214.6158,236.9435 214.9458,236.9335 C219.6458,236.7735 224.1358,238.6235 228.8758,238.1135 C234.4858,237.5135 239.5058,235.0235 242.8058,231.3335 C247.0358,232.3735 251.3558,232.8435 255.7458,232.2635 C259.4258,231.7835 262.7258,230.5835 265.9858,228.8035 C268.3558,227.5235 267.6058,227.1535 270.1858,228.1935 C276.0558,230.5735 281.3658,233.7135 287.9758,232.0835 C291.4058,231.2435 294.3658,229.3935 296.8558,226.9035 C297.4458,226.3235 298.4458,225.4535 299.1158,224.6335 C302.2558,226.2235 310.1558,229.8135 311.4558,230.1335 C315.1358,231.0335 319.0358,230.8935 322.6158,229.6935 C325.2458,228.8135 328.4658,226.4135 330.7758,225.9235 C333.7658,225.2835 340.4058,229.4435 343.9758,230.8735 C350.2358,233.3835 356.8658,234.0035 363.2058,231.4135 C365.3858,230.5235 369.6258,226.9735 371.2558,227.0035 C373.9058,230.2735 381.3058,248.1635 383.5258,254.6935 C392.5158,281.0935 394.8458,363.5235 390.6958,384.5535 C390.5358,385.1735 390.3658,385.7835 390.1958,386.4035 C385.0958,404.6935 379.7858,423.2935 371.2558,440.3335 C363.2058,456.3935 352.0758,470.8535 336.1058,479.6235 C319.5458,488.7235 300.1058,491.1135 281.4858,489.8835 C269.4958,489.1035 257.7058,486.6935 246.1058,483.6735 C240.0458,482.1035 234.0358,480.3535 228.0558,478.5335 C225.4458,477.7435 222.7958,477.0035 220.2358,476.0835 C215.7158,474.4535 213.3458,474.3235 209.0158,476.4135 C205.0758,478.3135 204.0658,483.9235 206.1158,487.4535 C209.4558,493.2135 215.5758,493.6135 221.4858,495.2935 C227.5058,497.0035 233.5458,498.6435 239.6258,500.1135 C251.2758,502.9135 263.1158,505.0635 275.0558,506.0535 C296.4358,507.8435 318.4658,505.0835 337.9258,495.7535 C340.1258,494.6935 342.2458,493.5635 344.2958,492.3435 C343.5358,493.4035 342.7658,494.4635 341.9858,495.5135 C339.8258,498.4235 341.4258,503.3735 344.4558,504.9635 C345.4158,505.4635 346.3758,505.9435 347.3458,506.4135 C347.4758,506.7235 347.6158,507.0335 347.7758,507.3435 C350.5458,512.9035 356.3458,516.1835 362.2558,517.6035 C369.2758,519.2835 377.1358,518.0935 384.2758,517.8835 C390.8958,517.6835 397.5158,517.4835 404.1258,517.2835 C405.6858,517.2435 407.2458,517.1935 408.8058,517.1435 C416.6658,516.9035 424.5158,516.6735 432.3658,516.4335 C439.3658,516.2235 439.0358,516.7635 445.6058,513.9635 C448.5358,512.7035 450.9358,510.9235 452.9558,508.5535 C454.2158,507.9935 455.4358,507.3535 456.6058,506.6235 C460.3658,504.2835 463.7058,501.1435 466.7858,497.6835 C472.0158,499.3335 479.3458,497.8035 480.3658,491.2335 C482.0058,480.7235 495.6658,476.2335 502.0458,468.6335 C507.1958,462.5035 510.8758,454.4735 510.6858,446.7635 C523.6658,440.4835 530.7258,423.9335 532.3758,409.8935 C533.1458,403.3835 533.0258,396.4135 534.1358,389.7935 C534.6258,389.2635 535.0658,388.7035 535.4358,388.1035 C538.6958,382.8335 541.5358,377.4035 544.0358,371.8435 C547.4358,369.3935 551.5258,367.8835 555.8058,367.6335 C566.3258,367.0235 568.3058,352.8335 558.2758,349.4135 C558.2258,349.3935 558.1858,349.3835 558.1358,349.3635 C560.8558,342.5635 560.6258,334.5135 557.3258,328.0735 C557.4658,327.3735 557.5958,326.6835 557.7258,325.9835 C563.3558,319.9335 566.5858,311.5235 566.2258,303.3335 C568.7958,301.5235 571.6758,300.1235 574.8258,299.2535 C579.6958,297.9135 579.7258,291.9735 576.1258,289.3135 C574.6758,288.2435 573.4758,286.9935 572.4758,285.6135 C574.9658,278.1335 573.9858,269.4835 568.8958,263.3435 C572.1258,259.2035 575.3558,255.0635 578.5858,250.9235 C580.7258,248.1835 581.8558,243.5335 578.5858,240.9335 C576.4958,239.2635 574.4058,237.6035 572.3058,235.9435 Z" id="Ink" fill="#000"/></g></g><g id="Face" transform="translate(531.000000, 366.000000) scale(1 1)" fill="#000"><g id="Face/Driven" stroke="none" stroke-width="1" fill="none" fill-rule="evenodd"><path d="M178.871914,230.917268 C172.084992,233.585341 164.066433,234.215552 157.061098,231.942304 C150.362703,229.768113 144.28029,224.929412 140.599925,218.84408 C137.321901,213.424001 135.952932,206.991935 137.890254,200.579759 C137.982934,200.27284 138.283597,200.076561 138.573641,200 C140.158597,201.44297 141.137823,202.876119 142.116194,204.302267 C143.765639,206.706626 145.418747,209.086307 147.687997,211.141935 C150.989651,214.132462 155.438004,216.561321 159.852826,217.362336 C164.175422,218.148364 168.599466,217.453721 172.469952,215.384705 C174.823771,214.127392 176.726931,212.446046 178.611487,210.757233 C180.663611,208.918256 182.683221,207.051286 185.509504,206.012861 C187.774373,205.180558 190.153432,205.882876 191.981074,207.275134 C193.945418,208.77153 195.357973,211.113879 195.279663,213.562705 C195.158382,217.356749 193.497588,220.521617 191.087827,223.132749 C187.829983,226.662832 183.223603,229.206343 178.871914,230.917268 Z M170.814304,136.367155 C178.365682,140.9572 189.871664,151.660291 181.748119,163.039573 C172.185929,173.073062 158.418535,161.568982 151.634201,156.366134 C145.343449,152.333898 138.275437,162.704507 144.112,167.412823 C193.135736,203.708059 213.030606,137.567387 174.633685,130.970386 C170.406047,130.243425 168.835891,134.947174 170.814304,136.367155 Z M91.388,72.7683 C101.68,72.2763 110.75,76.8983 120.558,78.9983 C129.622,80.9403 138.552,79.7743 147.367,77.3043 C161.673,73.2953 167.587,95.1953 153.476,99.4633 C143.2,102.5713 132.38,102.7873 121.835,101.1853 C112.468,99.7613 104.616,95.2013 95.685,92.5463 C88.0204884,90.2689512 79.0041303,91.2154163 70.9099803,92.2875982 L67.768,92.7103 C63.098,93.3393 58.403,93.9703 53.779,94.8833 C49.767,95.6763 45.762,97.1273 41.667,97.2953 C41.202,97.3153 40.808,96.7113 41.101,96.3083 C45.8578889,89.7777222 55.0259896,84.6248116 62.3187464,81.1879671 L62.813,80.9563 C71.815,76.7593 81.365,73.2463 91.388,72.7683 Z M87.6173265,120.923881 L87.6160369,120.698595 C87.6300369,114.321808 91.344047,99.7622157 100.524157,99.7622157 C106.259134,99.7622157 109.740999,109.67102 110.343765,119.885575 L110.3647,120.302049 C110.630879,126.652574 108.888163,140.533717 100.524157,140.533717 C92.071637,140.533717 87.7042339,127.386546 87.6173265,120.923881 L87.6173265,120.923881 Z M222.772617,120.923881 L222.773907,120.698595 C222.759907,114.321808 219.045897,99.7622157 209.865787,99.7622157 C204.274184,99.7622157 200.824446,109.181773 200.096775,119.120207 L200.046179,119.885575 C199.684084,126.021693 201.313826,140.533717 209.865787,140.533717 C218.318307,140.533717 222.68571,127.386546 222.772617,120.923881 L222.772617,120.923881 Z M222.631889,65.001572 L223.2885,65.016 C234.0165,65.388 245.0515,71.743 247.9155,82.418 C248.0635,82.972 247.3805,83.345 246.9755,82.965 C238.154379,74.7062828 226.291005,82.5977143 217.457956,86.7341044 L214.213553,88.2329098 C202.826322,93.5306845 189.875019,99.7591481 177.2315,95.811 C171.2265,93.936 167.4125,87.766 169.1255,81.534 C170.64941,75.9890149 177.342493,71.3290091 183.139632,73.330419 L183.4025,73.426 C188.1125,75.2276667 193.90375,73.40225 198.768148,71.6025278 L202.76406,70.1019862 C209.189584,67.6637959 215.644819,64.9359718 222.631889,65.001572 L222.631889,65.001572 Z" id="Ink" fill="#000"/></g></g><g id="Beard" transform="translate(494.999934, 517.999659) scale(1 1)" fill="#000"><g id="Beard/Mustache and Goatee" stroke="none" stroke-width="1" fill="none" fill-rule="evenodd"><path d="M207.9143,31.3282 C196.7933,26.3192 176.8233,30.6902 169.5733,32.4282 C152.7183,36.4702 135.7623,45.2052 130.5223,58.8902 C124.6173,74.3132 136.3993,79.1682 138.1323,78.3752 C149.8003,79.1972 163.6953,71.8622 175.9223,69.9692 C185.8483,68.4192 196.3193,67.0662 205.6193,61.7922 C212.4093,65.5272 227.7453,67.5462 240.1223,70.8122 C250.6633,73.5922 255.2303,79.6212 265.0023,78.3392 C276.7143,76.8032 271.9203,52.1702 258.8673,42.1912 C244.5813,31.2702 220.4193,26.8412 207.9143,31.3282 Z M229.9341,136.6535 C220.204493,139.025645 219.5511,117.7005 218.4611,110.1665 C217.609542,104.280593 212.806884,89.1015762 200.6311,89.7565 C188.455316,90.4114238 183.878432,103.128761 184.4961,111.0385 C184.896642,116.16777 189.62335,142.149551 174.5361,145.4365 C164.9171,145.4025 153.7891,144.7535 143.6751,142.8885 C131.7711,140.1925 116.291914,130.753365 112.2031,149.3425 C110.731534,156.03274 163.1691,175.9095 186.4381,177.7075 C210.036475,182.489578 237.64678,175.136312 254.448053,157.083732 C258.270339,152.976774 269.035635,135.930081 269.802759,131.753365 C271.414428,122.978404 267.682963,117.331642 256.8251,120.4245 C249.1551,124.5205 236.191168,135.127984 229.9341,136.6535 Z" id="Ink" fill="#000"/></g></g><g id="Mask" transform="translate(400.000000, 480.000000) scale(1 1)" fill="#000"><g id="Mask/None" stroke="none" stroke-width="1" fill="none" fill-rule="evenodd" fill-opacity="0"/></g><g id="Accessories" transform="translate(419.000000, 421.000000) scale(1 1)" fill="#000"><g id="Accessories/None" stroke="none" stroke-width="1" fill="none" fill-rule="evenodd" fill-opacity="0"/></g></g></svg>