<svg viewBox="145.83783783783792 57.487499999999955 825.1351351351352 1303.0500000000004" xmlns="http://www.w3.org/2000/svg" overflow="visible" xmlns:xlink="http://www.w3.org/1999/xlink" width="825.1351351351352px" height="1303.0500000000004px"><g id="Master/Character/Bust" stroke="none" stroke-width="1" fill="none" fill-rule="evenodd"><g id="Body" transform="translate(147.000000, 639.000000) scale(1 1)"><g id="Body/Polo and Sweater" stroke="none" stroke-width="1" fill="none" fill-rule="evenodd"><path d="M96.7745,708.934443 C158.0065,710.648443 215.848908,712.539443 276.962908,708.934443 C374.758908,702.885443 661.757617,713.789443 724.842191,708.934443 C729.602857,708.568062 745.9754,713.789443 746.3164,708.934443 C749.0894,675.127443 750.8874,333.090392 742.6484,309.55579 C734.4094,286.021188 693.7414,172.887443 641.9224,120.133443 C627.4734,105.881443 605.485574,100.360938 593.339574,83.8909382 C582.867091,65.9314344 583.680672,55.3905278 573.3384,45.9415636 C568.850389,41.8412016 558.265916,40.1789076 550.401,34.4874432 C542.493,26.6284432 549.9804,9.3284432 546.7344,-1.6155568 C540.0444,-28.9415568 515.3974,-46.4725568 488.4584,-50.6035568 C451.016362,-59.5627117 411.488642,-51.0919937 393.55396,-21.681191 C386.878176,-10.7336773 390.430956,2.57310924 382.2204,20.1154432 C382.8064,33.3724432 367.3294,36.5754432 358.0784,41.8284432 L339.706797,60.395798 C283.106797,92.241798 216.5234,109.438443 166.9304,152.224443 C124.7664,194.997443 82.8284,244.435443 64.1204,302.305443 C60.2474,318.074443 58.9834,334.372443 57.3784,350.485443 C52.7964,397.573443 40.0374,443.276443 29.0574,489.143443 C16.5374,546.932443 4.86673419,608.277602 21.7407342,666.613602 C26.6057342,678.960602 85.6995,708.357443 96.7745,708.934443 Z" id="Skin" fill="#d08b5b"/><path d="M381.966362,19.9921832 L386.748561,20.5037643 L386.748561,57.3214908 L449.279964,122.369659 L460.7075,135.432977 C453.89524,159.724234 460.754974,171.869862 481.2867,171.869862 C512.08429,171.869862 488.27491,162.920837 494.065535,150.808715 L494.309866,150.312616 C498.508139,142.019955 512.875517,124.431823 537.411999,97.5482201 L565.555346,50.5053476 L565.555369,41.9151119 L566.508127,42.3050182 C569.166269,43.4112442 571.458585,44.5407549 573.016391,45.9640068 C583.358663,55.412971 582.545082,65.9538776 593.017566,83.9133814 C605.163566,100.383381 627.151391,105.903886 641.600391,120.155886 C693.419391,172.909886 734.087391,286.043632 742.326391,309.578233 C750.565391,333.112835 748.767391,675.149886 745.994391,708.956886 C745.653391,713.811886 729.280849,708.590505 724.520183,708.956886 C661.435609,713.811886 374.436899,702.907886 276.640899,708.956886 C215.526899,712.561886 157.684491,710.670886 96.4524915,708.956886 C85.3774915,708.379886 26.2837257,678.983045 21.4187257,666.636045 C4.54472567,608.300045 16.2153915,546.954886 28.7353915,489.165886 L29.8207777,484.654853 C40.3615202,441.052249 52.2154736,397.551996 56.8244985,352.82258 L57.0563915,350.507886 C58.6613915,334.394886 59.9253915,318.096886 63.7983915,302.327886 C82.5063915,244.457886 124.444391,195.019886 166.608391,152.246886 C215.705461,109.888746 281.45482,92.610733 337.68382,61.3692666 L339.384789,60.4182412 L357.756391,41.8508864 L358.318744,41.5380696 C367.620046,36.4657448 382.472671,33.1297464 381.898391,20.1378864 L381.966362,19.9921832 L381.966362,19.9921832 Z" id="Path" fill="#FDEA6B"/><path d="M390.31,-16.9725568 C390.8,-18.5735568 392.911,-18.1235568 393.071,-16.6025568 C394.661,-1.5225568 392.661,14.2374432 390.741,29.2174432 C389.821,36.4474432 389.29,43.9674432 387.89,51.0964432 C387.71,51.8574432 387.54,52.6264432 387.38,53.3874432 C387.84,54.2064432 389.201,55.1264432 389.85,55.7564432 L392.672963,58.5011469 L398.33,63.9774432 C409.401,74.6974432 420.47,85.4264432 431.54,96.1474432 L447.79,111.897443 C453.361,117.296443 459.691,122.467443 464.58,128.487443 C467.231,131.756443 467.83,135.766443 465.22,139.266443 C463.93,140.996443 461.611,142.256443 459.26,142.516443 C460.18,143.796443 460.89,145.246443 461.34,146.857443 C462.26,150.137443 458.941,154.166443 455.411,152.796443 C451.401,151.256443 448.09,148.496443 444.01,147.176443 C439.89,145.836443 435.411,145.577443 431.14,146.296443 C429.18,146.626443 427.26,147.117443 425.39,147.737443 C445.401,156.947443 467.05,162.237443 489.13,162.996443 C493.63,163.147443 498.121,163.086443 502.59,162.787443 C510.111,162.296443 517.58,161.157443 524.92,159.317443 C530.691,157.867443 536.401,156.046443 541.941,153.846443 C544.661,152.766443 547.35,151.577443 549.951,150.227443 L550.178701,150.092685 C550.766671,149.725203 561.631519,143.563421 561.821,142.637443 C562.010481,141.711465 562.010481,141.38889 561.656963,140.582791 C561.421284,140.045393 560.976533,139.591466 560.322709,139.221011 C556.96566,137.786162 553.487923,136.450674 549.821,136.426443 C541.38,136.376443 532.17,142.617443 525.191,146.867443 C517.521,151.537443 510.47,156.996443 503.09,162.057443 C502.92,162.176443 502.731,162.227443 502.55,162.227443 C501.771,162.227443 501.05,161.266443 501.55,160.516443 C506.839375,152.728662 513.978487,146.244425 521.44633,140.582791 L524.45549,138.327134 C531.295082,133.226533 539.295,127.577545 547.611,126.346443 C557.8,124.846443 568.441,131.197443 577.531,134.916443 L593.63,141.506443 C596.5,142.676443 599.621,143.676443 602.51,145.006443 L595.763504,123.897515 C592.39256,113.341883 589.0304,102.783443 585.701,92.2174432 L585.054961,90.1474557 C581.73844,79.4221907 578.693636,68.265322 573.17,58.4674432 C571.85,56.1174432 570.34,53.9074432 568.85,51.6764432 C567.3,49.3674432 566.72,46.8174432 564.771,44.7564432 C560.911,40.6664432 555.38,38.2664432 550.1,36.6974432 C548.81,36.3174432 549.191,34.6174432 550.401,34.4874432 C555.819387,33.9164755 560.985849,35.1801591 565.88226,37.4655305 L567.917352,38.4361522 C572.54751,40.6268332 577.062,42.6643432 580.5,46.5964432 C588.33932,55.5765632 592.410467,66.8834368 596.15057,78.0416148 L597.151,81.0374432 C598.55,80.5774432 608.06,83.4774432 609.25,84.1664432 C644.901,99.2374432 672.361,127.296443 692.441,160.176443 C714.441,196.206443 726.42,237.376443 736.31,278.117443 C739.362,290.690443 742.281,303.302443 745.085,315.942443 C732.592,320.749443 719.314,323.264443 707.619,330.036443 C703.164,332.615443 707.188,339.531443 711.656,336.944443 C722.61,330.602443 735.087,328.259443 746.812,323.805443 C753.169,353.068443 758.824,382.491443 763.56,412.037443 C778.111,502.717443 787.3,594.876443 786.72,686.796443 C786.71,688.827443 786.111,691.096443 785,693.046443 C785.651,692.727443 786.161,692.346443 786.451,691.887443 C790.14,686.096443 799.39,691.467443 795.68,697.287443 L795.138188,698.130896 C792.354204,702.423183 789.755242,705.702807 784.861,708.126443 C779.93,710.567443 774.59,710.977443 769.151,711.117443 C750.661,711.604443 732.158,711.921443 713.649,712.149443 C711.111,692.351443 710.079,672.364443 706.582,652.682443 C705.683,647.621443 697.972,649.766443 698.868,654.809443 C702.245,673.815443 703.326,693.109443 705.683,712.245443 C666.113,712.671443 626.521,712.676443 586.981,712.787443 C533.396,712.944943 479.817891,712.833709 426.235283,712.803439 L403.271,712.796443 C341.371,712.796443 279.47,712.596443 217.571,712.186443 L202.85,712.082443 C196.994,677.561443 193.008,642.745443 192.934,607.665443 C192.923,602.518443 184.923,602.508443 184.934,607.665443 C185.008,642.706443 188.95,677.526443 194.752,712.037443 C180.096,711.973443 165.447,712.026443 150.79,712.546443 L143.329959,712.812219 C128.404041,713.323198 113.448,713.638015 98.55,712.447443 C82.01,711.117443 65.281,708.077443 50.451,700.287443 C43.772,696.772443 37.891,692.279443 32.865,686.996443 C37.974,684.024443 43.156,681.173443 48.105,677.935443 C52.396,675.127443 48.393,668.198443 44.067,671.028443 C38.734,674.518443 33.128,677.557443 27.637,680.785443 C23.661,675.479443 20.398,669.590443 17.92,663.237443 C14.01,653.206443 12.5,642.416443 11.19,631.796443 C9.641,619.287443 9,606.676443 9,594.077443 C9,567.577443 11.79,541.157443 15.681,514.977443 C19.4018696,489.896487 24.3203875,465.017731 29.5193924,440.217778 L30.23,436.836443 C35.36,412.456443 40.25,388.006443 46.13,363.796443 C51.567,341.409443 57.85,319.127443 65.338,297.276443 C72.003,301.397443 78.978,305.002443 85.539,309.295443 C89.86,312.123443 93.873,305.199443 89.577,302.388443 C82.577,297.807443 75.111,294.000443 68.047,289.524443 C76.42,266.126443 86.248,243.274443 98.031,221.387443 C121.63,177.557443 153.431,138.346443 194.161,109.407443 C214.55,94.9264432 236.92,83.0774432 260.411,74.4564432 C284.361,65.6574432 309.18,60.8364432 334.56,58.8574432 C335.284706,58.8000314 335.691405,59.4707581 335.661711,60.0909413 L335.651,60.2064432 L336.651,60.3674432 C337.021,57.8574432 337.781,55.4264432 339.231,53.1974432 C342.531,48.1174432 348.79,44.8574432 353.79,41.7374432 L354.975456,40.9999444 C360.924223,37.3127166 367.20225,33.6802557 374.121,32.3874432 C374.361,32.3464432 374.51,32.5964432 374.35,32.7874432 C369.787391,38.0186606 363.953025,42.0156322 358.60596,46.4402758 L357.376907,47.4651273 C352.945641,51.1119302 346.764667,55.2508876 346.6,61.3464432 C346.411,68.5274432 347.88,75.9964432 348.411,83.1574432 C348.941,90.2964432 349.31,97.4264432 349.5,104.586443 C350.191,130.237443 349.361,155.897443 347.09,181.447443 L357.129406,174.726037 C372.753183,164.267481 388.428824,153.838208 404.43,144.046443 C414.111,138.117443 424.991,133.046443 436.59,133.277443 C439.84,133.336443 443.51,133.807443 447.031,134.807443 C443.241,131.217443 439.611,127.397443 435.901,123.787443 C429.79,117.836443 423.68,111.887443 417.571,105.947443 L399.953875,88.7869432 L382.33,71.6264432 C376.871,66.2964432 370.47,61.3874432 371.05,52.9874432 C371.521,46.2874432 374.93,39.6174432 377.26,33.1574432 C377.59,32.2274432 377.89,31.3074432 378.17,30.3974432 C382.871,14.7774432 385.54,-1.4135568 390.31,-16.9725568 Z M618.001,653.221443 C614.357,649.575443 608.699,655.230443 612.345,658.877443 L614.272796,660.79744 C617.492702,664.00971 620.684782,667.32077 622.913098,671.291773 L623.24,671.892443 C625.641,676.448443 632.549,672.410443 630.147,667.854443 C627.178,662.223443 622.455,657.677443 618.001,653.221443 Z M461.869,652.192443 C450.268,649.977443 439.087,649.977443 427.486,652.192443 C422.435,653.157443 424.574,660.869443 429.613,659.907443 C439.759,657.969443 449.595,657.969443 459.742,659.907443 C464.773,660.867443 466.928,653.159443 461.869,652.192443 Z M305.197,571.552443 C300.205,570.287443 298.075,578.001443 303.071,579.266443 L305.530624,579.883514 C313.891963,581.949757 321.855378,583.489332 330.541,581.571443 C335.499882,580.475062 333.494709,572.9483 328.610879,573.817175 L328.414,573.856443 C320.377,575.631443 312.973,573.522443 305.197,571.552443 Z M583.442,519.589443 C579.748,515.998443 574.085,521.649443 577.785,525.245443 C582.402,529.735443 587.843,533.147443 594.437,533.329443 C599.510134,533.471294 599.581971,525.709465 594.663981,525.341044 L594.437,525.329443 C590.018,525.206443 586.497,522.560443 583.442,519.589443 Z M112.617,498.223443 C117.223,495.920443 113.176,489.018443 108.58,491.316443 L80.932,505.139443 L80.932,505.139443 C76.326,507.442443 80.373,514.346443 84.969,512.047443 L112.617,498.223443 L112.617,498.223443 Z M658.949,499.986443 C653.799,499.841443 653.803,507.841443 658.949,507.986443 C663.788,508.121443 668.747,509.954443 673.058,512.047443 C677.67,514.287443 681.731,507.391443 677.096,505.139443 C671.46,502.403443 665.273,500.162443 658.949,499.986443 Z M400.617,461.360443 C404.851,458.483443 400.853,451.547443 396.579,454.452443 C390.747167,458.414277 385.463194,463.097068 379.724212,467.179061 L378.147,468.276443 C373.913,471.153443 377.911,478.087443 382.185,475.184443 C388.546,470.861443 394.256,465.681443 400.617,461.360443 Z M698.117,403.217442 C692.969,403.215443 692.961,411.215443 698.117,411.217442 L699.093143,411.214459 C703.342247,411.190574 707.820907,411.073197 711.772437,412.771338 L712.226,412.975443 C716.858,415.157443 720.923,408.262443 716.264,406.068443 C710.471,403.340443 704.414,403.220443 698.117,403.217442 Z M253.837031,397.502548 L254.509,397.250443 C259.319,395.523443 257.245,387.789443 252.382,389.537443 C245.054,392.170443 239.353,397.143443 232.996,401.459443 C228.76,404.336443 232.758,411.270443 237.033,408.368443 C242.510379,404.648305 247.606479,399.938146 253.837031,397.502548 L253.837031,397.502548 Z M553.905488,376.690048 L554.984,376.112443 C559.564,373.755443 555.521,366.850443 550.947,369.204443 C547.316091,371.072625 544.067,373.558162 540.504761,375.53859 L539.426,376.116443 C534.847,378.472443 538.889,385.377443 543.464,383.024443 C547.094909,381.155352 550.344,378.669732 553.905488,376.690048 L553.905488,376.690048 Z M432.201729,299.201885 L431.378,298.406443 C427.696,294.801443 422.035,300.454443 425.721,304.063443 C434.927057,313.073386 445.810619,319.914219 456.790038,326.528006 L458.787,327.728443 C463.212,330.383443 467.239,323.469443 462.825,320.820443 L459.894306,319.058499 C450.132569,313.171782 440.484959,307.095146 432.201729,299.201885 L432.201729,299.201885 Z M210.82,291.733443 C213.922071,287.705396 207.176016,283.763291 204.023055,287.556664 L203.912,287.695443 C200.682824,291.887443 196.851294,295.682599 192.846771,299.145939 L192.094,299.791443 C189.71,301.819443 185.371,306.164443 182.022,306.450443 C176.93,306.883443 176.884,314.887443 182.022,314.450443 C187.204,314.009443 191.663,310.362443 195.578,307.237443 C201.276,302.690443 206.373,297.505443 210.82,291.733443 Z M636.433,262.590443 C640.150267,259.098525 634.65947,253.540506 630.908642,256.815181 L630.777,256.934443 C623.83,263.460443 613.837,265.211443 604.894,267.424443 C599.899,268.662443 602.015,276.378443 607.021,275.139443 L611.095084,274.13357 C620.233957,271.852828 629.403889,269.196554 636.433,262.590443 Z M477.997,212.129443 C473.005,210.860443 470.875,218.574443 475.871,219.843443 C484.356,221.999443 492.393,224.786443 500.258,228.656443 C504.862,230.920443 508.92,224.024443 504.296,221.748443 C495.834,217.584443 487.133,214.451443 477.997,212.129443 Z M559.7199,43.4872432 C559.5999,43.1272432 559.9809,42.7172432 560.3499,42.8462432 C569.32784,46.1935832 564.555197,57.9519116 561.765723,64.9905259 L561.2599,66.2772432 C556.8899,77.5572432 550.7809,88.5372432 544.1209,98.6372432 C537.1509,109.207243 529.4109,119.327243 521.0309,128.827243 C517.395344,132.951688 513.624678,136.957614 509.727328,140.844319 L508.2599,142.296243 C504.3209,146.167243 499.2409,152.967243 493.1299,152.217243 C486.5499,151.426243 482.8799,144.397243 487.6799,139.057243 C491.0709,135.277243 495.7709,132.266243 499.5599,128.827243 C503.3209,125.426243 506.9609,121.917243 510.5099,118.307243 C517.7709,110.897243 524.6509,103.067243 530.9409,94.8172432 C537.024338,86.8391182 542.845861,78.6403877 548.139327,70.116407 L549.1909,68.4072432 C553.2199,61.7772432 562.5209,52.0272432 559.7199,43.4872432 Z M241.641,127.285443 C237.379,124.371443 233.373,131.301443 237.603,134.192443 C245.381,139.508443 252.224,145.948443 260.643,150.320443 C265.15069,152.662229 269.159475,145.951462 264.840739,143.500166 L264.681,143.413443 C256.268,139.042443 249.415,132.597443 241.641,127.285443 Z" id="Ink" fill="#000"/></g></g><g id="Head" transform="translate(372.000000, 180.000000) scale(0.9978902953586498 1)"><g id="Head/Long Afro" stroke="none" stroke-width="1" fill="none" fill-rule="evenodd"><path d="M408.5136,274.9444 C401.6496,191.2694 380.7496,117.1594 282.5446,113.9994 C238.2266,114.3954 192.9876,123.8104 152.2336,141.2304 C53.1776,190.8964 21.7486,372.3774 109.0196,445.4314 C108.5006,445.7264 108.3756,446.5794 108.9886,446.9914 C127.0186,459.1214 147.0596,469.1014 167.1316,477.4874 C220.5976,500.0914 283.5386,509.9094 338.0656,485.3904 C421.2786,449.9824 422.5266,351.4574 408.5136,274.9444 L408.5136,274.9444 Z" id="Skin" fill="#d08b5b"/><path d="M572.3058,235.9435 C575.7258,232.8635 578.2758,228.8235 579.5658,224.2935 C580.7458,220.1635 580.8258,215.6535 579.5758,211.5335 C578.2358,207.1135 575.3458,203.5935 575.9958,198.9935 C576.0658,198.5435 576.1558,198.0735 576.2958,197.6035 C578.7958,188.9435 584.9458,182.6935 582.7458,173.0935 C582.1258,170.3835 580.9558,167.9435 579.3258,166.0235 C579.5058,163.9435 579.6658,161.8435 579.7958,159.7435 C583.4058,151.2935 583.2758,141.2535 579.4258,132.9335 C578.9558,128.6735 578.2458,124.4535 577.2458,120.3035 C577.7058,116.6335 577.0658,112.5935 575.8858,109.3835 C573.8128,103.7355 571.2508,98.1695 568.4708,92.6955 C568.7978,91.1985 568.6508,89.6165 567.8248,88.2095 C566.3228,85.6525 564.3378,83.4045 562.3088,81.2075 C560.8738,78.6445 559.4288,76.1025 557.9958,73.5935 C557.3318,72.4405 556.5988,71.1615 555.7908,69.8065 C557.9928,65.7205 559.1688,61.7385 556.8398,56.9335 C555.9648,55.1285 553.5588,53.7975 551.5778,53.9155 C549.4128,54.0445 547.2278,54.1415 545.0308,54.2245 C540.9248,49.2665 536.2718,44.8155 531.2858,42.2535 C526.2358,37.9735 521.1158,33.7735 516.1358,29.4835 C514.7258,28.2635 513.3058,27.0435 511.8958,25.8235 C511.8858,25.7935 511.8758,25.7535 511.8658,25.7235 C510.8258,21.9335 509.6558,18.1935 508.4858,14.4335 C507.7558,12.1035 507.5358,9.6635 505.2658,8.3935 C500.5258,5.7435 493.2358,5.3235 487.7958,4.8735 C487.2558,4.3935 486.7158,3.9235 486.1758,3.4435 C488.6458,-3.1365 488.2058,-10.1265 485.0958,-16.7165 C484.0358,-18.9565 480.3558,-19.9665 478.3358,-18.4865 C473.6758,-15.0665 468.1458,-13.8565 462.6758,-14.3565 C454.6358,-20.5365 422.2058,-48.4825 417.1948,-51.4325 C417.1328,-51.5385 417.0828,-51.6445 417.0168,-51.7495 C414.1998,-56.2475 410.7788,-59.8595 406.9328,-62.7555 C406.3838,-63.3285 405.8348,-63.9025 405.2858,-64.4765 C405.7688,-67.9055 407.0398,-71.2165 409.0858,-73.9865 C409.3058,-74.3065 409.5558,-74.6165 409.8058,-74.9165 C413.3858,-79.1765 409.0158,-84.6565 404.0158,-82.4265 C403.6558,-82.2665 403.2958,-82.1065 402.9358,-81.9365 C399.0918,-80.2225 394.8388,-78.3595 390.4098,-76.7875 C388.7888,-77.3945 387.1368,-77.9445 385.6298,-78.5505 L369.4938,-85.0375 C366.8378,-86.1055 364.0298,-87.0105 361.4608,-88.2655 C360.5648,-94.2245 354.5928,-98.1325 348.3908,-97.9285 C348.7488,-99.0725 349.2828,-100.1835 350.0358,-101.2365 C350.2558,-101.5465 350.4958,-101.8465 350.7458,-102.1365 C353.9358,-105.8465 349.6758,-112.7265 345.1158,-109.4265 C344.7958,-109.1965 344.4658,-108.9665 344.1458,-108.7365 C342.8788,-107.8475 341.5818,-107.0135 340.2708,-106.2055 C338.1718,-107.1215 335.8078,-107.3305 333.3338,-106.3615 C327.8558,-104.2165 322.8058,-102.0355 317.9828,-98.6735 C317.7868,-98.5365 317.5838,-98.4215 317.3858,-98.2925 C314.9918,-101.1845 311.1908,-103.1185 307.7678,-103.0975 C307.6978,-103.0975 307.6438,-103.0985 307.5818,-103.0995 C305.0228,-106.9985 300.3318,-109.2645 295.8018,-108.7135 C296.1078,-114.3085 290.5068,-119.3015 285.4078,-119.9085 C279.4498,-120.6165 274.0798,-117.1575 272.2918,-111.3455 C271.7938,-109.7275 271.2968,-108.1085 270.7988,-106.4895 C266.1728,-108.8245 261.2908,-110.6135 256.1908,-111.5065 C244.5778,-113.5405 233.2228,-111.3745 222.0318,-108.1505 C220.9138,-107.8285 219.7968,-107.4975 218.6798,-107.1675 C217.0838,-109.0165 215.5868,-110.9095 214.1558,-112.6765 C211.6858,-115.7265 205.7558,-113.2865 206.1558,-109.3665 C206.4338,-106.6615 205.3348,-104.7155 203.5658,-103.3325 C201.6228,-103.0485 199.7448,-102.9625 196.9128,-103.0195 C193.1698,-103.0955 191.4668,-103.2125 187.5528,-104.7385 C185.7288,-105.4485 183.4578,-107.3155 182.3948,-108.9915 C178.3198,-115.4185 167.9688,-117.1495 163.0388,-111.0215 C157.8508,-113.2925 151.3008,-110.1605 148.4208,-105.7445 C146.9138,-103.4355 143.7698,-102.1445 139.8118,-101.0345 C136.8408,-100.2025 133.8028,-99.5725 130.7508,-99.0215 C129.3908,-100.8665 126.5268,-102.1035 124.4258,-100.5565 C123.0028,-99.5055 121.6208,-98.4265 120.2578,-97.3205 C109.7478,-95.8725 99.2928,-95.8205 89.2718,-99.9185 C80.7878,-103.3885 72.9978,-93.9115 74.3978,-85.9555 C71.9408,-84.6765 69.2748,-83.8255 66.8478,-82.4855 C61.5528,-79.5595 57.2048,-74.9345 54.5548,-69.5005 C54.0798,-68.5275 53.6508,-67.5395 53.2418,-66.5465 C51.2628,-64.9355 49.3058,-63.2815 47.3958,-61.5365 C44.2158,-63.1665 41.0458,-64.7965 37.8658,-66.4265 C35.4858,-67.6465 31.4758,-66.7965 31.0058,-63.6365 C30.2358,-58.4365 28.3658,-54.1265 25.6958,-50.5165 C17.0158,-45.9565 8.6658,-40.8365 0.6758,-35.1465 C-8.5142,-32.2665 -18.2842,-30.5865 -26.3142,-28.6965 C-29.0642,-28.0465 -30.5642,-24.4565 -29.0142,-22.0665 C-27.3742,-19.5365 -25.7342,-17.0065 -24.1042,-14.4765 C-28.6742,-10.0165 -32.9642,-5.3565 -37.0142,-0.5365 C-48.2842,12.8635 -57.7142,27.5535 -66.1542,43.1135 C-69.4942,44.4635 -72.8342,45.8035 -76.1742,47.1535 C-79.3942,48.4535 -80.8442,52.1935 -78.2342,54.9435 C-76.9942,56.2535 -75.8842,57.6335 -74.9342,59.0835 C-79.6642,66.9135 -85.2342,74.0535 -93.0242,78.7335 C-95.3942,80.1535 -97.1742,82.3835 -98.1242,84.9135 C-98.9342,85.4535 -99.7342,86.0335 -100.5242,86.6235 C-102.7242,88.2835 -104.0542,91.9035 -101.4742,94.0535 C-99.6642,95.5735 -97.9642,97.3735 -96.5242,99.3635 C-96.2142,100.4935 -95.8942,101.6335 -95.5742,102.7635 C-102.8142,109.4235 -108.8342,117.1635 -113.3542,125.8435 C-114.4242,125.6735 -115.5242,125.7835 -116.4142,126.4435 C-124.4942,132.4135 -124.7342,141.9235 -121.4842,150.4235 C-123.4442,163.2335 -122.1842,176.3635 -118.4042,188.7735 C-123.3742,193.7335 -126.3642,200.8935 -127.5842,207.7935 C-129.7342,219.9135 -129.8842,238.5535 -130.4442,250.9235 C-135.8642,256.1535 -139.7242,262.9235 -141.8742,270.2035 C-143.6842,271.1035 -145.4942,272.0035 -147.3042,272.9035 C-148.9142,273.7035 -150.0942,275.8135 -150.000111,277.5935 C-149.5342,286.2035 -145.9842,293.0035 -141.2742,299.1635 C-139.6042,303.9135 -137.1342,308.2935 -133.8942,312.4935 C-131.6542,315.3735 -129.4642,318.1335 -127.5342,321.2435 C-127.3342,321.5535 -127.2142,321.8435 -127.1242,322.0435 C-127.8842,322.8635 -128.5142,324.2235 -129.0642,325.1935 C-133.6842,333.3335 -133.7542,342.8735 -127.1942,349.9635 C-129.6642,351.9835 -129.7442,356.0635 -127.5642,358.5635 C-113.3742,374.7735 -101.5442,394.4835 -81.8542,403.0935 C-81.7642,403.2435 -81.6842,403.3935 -81.6142,403.5435 C-85.6042,413.1435 -86.1442,418.1335 -82.8842,428.0535 C-82.8642,428.1435 -82.8342,428.2235 -82.8042,428.3135 C-81.0642,433.5135 -77.8642,441.8435 -72.0942,443.4635 C-70.2742,443.9735 -68.4842,444.2035 -66.7142,444.1935 C-62.1342,448.6035 -57.5642,453.0235 -52.9942,457.4435 C-52.5942,459.6335 -52.3442,461.8435 -52.2642,464.0735 C-52.1342,467.8035 -48.6242,470.8235 -44.8442,469.7235 C-43.5142,469.3335 -36.1542,462.1835 -34.8042,462.2235 C-34.1242,462.9035 -33.4642,463.5835 -32.8042,464.2735 C-30.3742,466.8235 -27.0042,470.8435 -26.7242,473.5135 C-26.1842,478.5435 -22.8842,484.3035 -17.5542,485.3235 C-15.5542,487.3535 -12.3542,487.9635 -9.9042,485.3135 C-9.7442,485.1435 -9.5842,484.9735 -9.4142,484.8235 C-9.1542,484.7935 -8.9042,484.7635 -8.6442,484.7335 C-7.4642,488.2535 -6.2842,491.7735 -5.0942,495.2835 C-2.7642,502.2035 6.1358,506.6535 12.4558,502.6135 C13.4758,503.2235 14.4758,503.8735 15.4758,504.5235 C16.9958,505.4935 18.5358,506.4835 20.1158,507.4135 C20.2058,507.6735 20.2958,507.9335 20.3758,508.1835 C21.3958,511.2935 25.6358,512.9635 28.2458,511.1735 C29.0558,511.4335 29.8858,511.6435 30.7258,511.8135 C35.1358,512.6835 39.5758,512.4435 43.8358,510.9735 C46.8858,509.9335 49.7958,507.9435 53.0758,507.6735 C53.2808,507.6565 53.4918,507.6705 53.6998,507.6645 C56.3758,513.1465 62.4908,517.8705 67.3098,519.4755 C73.6218,521.5785 80.0818,520.8265 85.8298,518.2515 C87.3808,521.3525 89.3288,524.2885 91.6558,527.0035 C92.9458,528.5035 95.2758,528.1835 96.6058,527.0035 C99.1318,524.7645 101.6418,522.5145 104.1478,520.2615 C105.9618,519.5625 107.7928,518.7235 109.7028,517.9435 C115.6768,515.5035 122.2258,514.4925 127.7508,510.9665 C130.3738,509.2925 132.8408,507.1565 134.8728,504.6815 C138.7008,502.4715 142.2178,499.7185 145.3858,496.5635 C146.9658,496.5735 148.6158,496.2035 150.2158,495.3935 C156.9058,491.9935 160.4258,485.0735 160.7358,477.9935 C166.1558,465.2435 169.3558,451.6435 170.2358,437.7235 C170.5158,433.1535 170.5658,428.5435 170.2158,423.9735 C169.9758,420.7535 169.1658,418.6035 167.9458,415.6935 C167.5358,414.7435 167.1658,413.8735 166.8758,412.9135 C166.9458,409.8335 166.9858,406.7535 167.0258,403.6835 C167.8558,401.0935 169.3358,398.6835 171.3958,396.6535 C174.5858,393.5135 176.0458,386.9935 173.1458,383.1135 C171.2558,380.6035 169.3758,378.0935 167.4858,375.5835 C168.0158,364.8135 170.5958,347.6735 164.8758,345.8735 C165.1058,344.2735 165.5958,342.6935 165.8758,341.1035 C167.2158,333.4635 166.4158,326.6335 162.3558,319.9535 C161.5058,318.5635 160.7858,317.3335 160.1958,316.1335 C159.8258,313.9335 159.4558,311.7335 159.0858,309.5335 C158.5158,306.1435 157.9558,302.7235 157.4758,299.2835 C157.2258,294.9035 156.9958,290.5235 156.7458,286.1335 C156.5158,282.0935 156.2558,278.0535 155.9858,274.0035 C156.0958,272.1935 156.2558,270.3835 156.4858,268.5735 C157.8558,257.7835 162.2658,253.7935 169.9058,246.2935 C171.1058,246.1035 172.2958,245.8935 173.4658,245.6535 C178.9158,244.5235 184.6158,242.7735 190.2258,243.4035 C196.3158,244.0835 201.7658,246.7135 207.6858,243.3535 C209.4258,242.3535 213.2558,239.5935 213.5858,237.4035 C213.6058,237.2635 213.6358,237.1435 213.6758,237.0535 C214.0858,236.9935 214.6158,236.9435 214.9458,236.9335 C219.6458,236.7735 224.1358,238.6235 228.8758,238.1135 C234.4858,237.5135 239.5058,235.0235 242.8058,231.3335 C247.0358,232.3735 251.3558,232.8435 255.7458,232.2635 C259.4258,231.7835 262.7258,230.5835 265.9858,228.8035 C268.3558,227.5235 267.6058,227.1535 270.1858,228.1935 C276.0558,230.5735 281.3658,233.7135 287.9758,232.0835 C291.4058,231.2435 294.3658,229.3935 296.8558,226.9035 C297.4458,226.3235 298.4458,225.4535 299.1158,224.6335 C302.2558,226.2235 310.1558,229.8135 311.4558,230.1335 C315.1358,231.0335 319.0358,230.8935 322.6158,229.6935 C325.2458,228.8135 328.4658,226.4135 330.7758,225.9235 C333.7658,225.2835 340.4058,229.4435 343.9758,230.8735 C350.2358,233.3835 356.8658,234.0035 363.2058,231.4135 C365.3858,230.5235 369.6258,226.9735 371.2558,227.0035 C373.9058,230.2735 381.3058,248.1635 383.5258,254.6935 C392.5158,281.0935 394.8458,363.5235 390.6958,384.5535 C390.5358,385.1735 390.3658,385.7835 390.1958,386.4035 C385.0958,404.6935 379.7858,423.2935 371.2558,440.3335 C363.2058,456.3935 352.0758,470.8535 336.1058,479.6235 C319.5458,488.7235 300.1058,491.1135 281.4858,489.8835 C269.4958,489.1035 257.7058,486.6935 246.1058,483.6735 C240.0458,482.1035 234.0358,480.3535 228.0558,478.5335 C225.4458,477.7435 222.7958,477.0035 220.2358,476.0835 C215.7158,474.4535 213.3458,474.3235 209.0158,476.4135 C205.0758,478.3135 204.0658,483.9235 206.1158,487.4535 C209.4558,493.2135 215.5758,493.6135 221.4858,495.2935 C227.5058,497.0035 233.5458,498.6435 239.6258,500.1135 C251.2758,502.9135 263.1158,505.0635 275.0558,506.0535 C296.4358,507.8435 318.4658,505.0835 337.9258,495.7535 C340.1258,494.6935 342.2458,493.5635 344.2958,492.3435 C343.5358,493.4035 342.7658,494.4635 341.9858,495.5135 C339.8258,498.4235 341.4258,503.3735 344.4558,504.9635 C345.4158,505.4635 346.3758,505.9435 347.3458,506.4135 C347.4758,506.7235 347.6158,507.0335 347.7758,507.3435 C350.5458,512.9035 356.3458,516.1835 362.2558,517.6035 C369.2758,519.2835 377.1358,518.0935 384.2758,517.8835 C390.8958,517.6835 397.5158,517.4835 404.1258,517.2835 C405.6858,517.2435 407.2458,517.1935 408.8058,517.1435 C416.6658,516.9035 424.5158,516.6735 432.3658,516.4335 C439.3658,516.2235 439.0358,516.7635 445.6058,513.9635 C448.5358,512.7035 450.9358,510.9235 452.9558,508.5535 C454.2158,507.9935 455.4358,507.3535 456.6058,506.6235 C460.3658,504.2835 463.7058,501.1435 466.7858,497.6835 C472.0158,499.3335 479.3458,497.8035 480.3658,491.2335 C482.0058,480.7235 495.6658,476.2335 502.0458,468.6335 C507.1958,462.5035 510.8758,454.4735 510.6858,446.7635 C523.6658,440.4835 530.7258,423.9335 532.3758,409.8935 C533.1458,403.3835 533.0258,396.4135 534.1358,389.7935 C534.6258,389.2635 535.0658,388.7035 535.4358,388.1035 C538.6958,382.8335 541.5358,377.4035 544.0358,371.8435 C547.4358,369.3935 551.5258,367.8835 555.8058,367.6335 C566.3258,367.0235 568.3058,352.8335 558.2758,349.4135 C558.2258,349.3935 558.1858,349.3835 558.1358,349.3635 C560.8558,342.5635 560.6258,334.5135 557.3258,328.0735 C557.4658,327.3735 557.5958,326.6835 557.7258,325.9835 C563.3558,319.9335 566.5858,311.5235 566.2258,303.3335 C568.7958,301.5235 571.6758,300.1235 574.8258,299.2535 C579.6958,297.9135 579.7258,291.9735 576.1258,289.3135 C574.6758,288.2435 573.4758,286.9935 572.4758,285.6135 C574.9658,278.1335 573.9858,269.4835 568.8958,263.3435 C572.1258,259.2035 575.3558,255.0635 578.5858,250.9235 C580.7258,248.1835 581.8558,243.5335 578.5858,240.9335 C576.4958,239.2635 574.4058,237.6035 572.3058,235.9435 Z" id="Ink" fill="#000"/></g></g><g id="Face" transform="translate(531.000000, 366.000000) scale(1 1)" fill="#000"><g id="Face/Smile" stroke="none" stroke-width="1" fill="none" fill-rule="evenodd"><path d="M146.586567,240.926554 C139.864291,238.184203 133.866322,233.609781 129.481228,227.766254 C127.956691,225.734803 127.561405,223.589624 127.881219,221.627583 C128.240828,219.421406 129.546036,217.4219 131.326046,216.080693 C133.111571,214.735331 135.345035,214.071832 137.504329,214.410065 C139.380629,214.703969 141.248396,215.731287 142.726594,217.861908 L143.035427,218.287981 C145.642441,221.814933 149.039621,224.708755 152.91047,226.573991 C156.641339,228.371775 160.813939,229.21087 165.131898,228.722919 C173.355732,227.793938 179.024012,223.346401 185.048774,217.30672 C185.795561,216.544195 186.542826,215.757766 187.293714,214.958678 C187.767915,214.234308 188.425986,213.768756 189.156624,213.524488 C189.967867,213.253272 190.885573,213.268617 191.726122,213.56195 C192.536835,213.844871 193.261572,214.380994 193.747527,215.094538 C194.209389,215.772704 194.47125,216.610486 194.386283,217.574143 C193.834826,223.833283 190.562474,229.419299 185.914235,233.805502 C180.751772,238.67694 173.908551,242.047034 167.465957,243.229031 C160.36811,244.531047 153.135593,243.598228 146.586567,240.926554 L146.586567,240.926554 Z M170.814304,144.367155 C178.365682,148.9572 189.871664,159.660291 181.748119,171.039573 C172.185929,181.073062 158.418535,169.568982 151.634201,164.366134 C145.343449,160.333898 138.275437,170.704507 144.112,175.412823 C193.135736,211.708059 213.030606,145.567387 174.633685,138.970386 C170.406047,138.243425 168.835891,142.947174 170.814304,144.367155 Z M82.9633,102.1464 C83.7976284,91.7901242 99.5703,89.4384 101.1393,99.6864 C102.5443,108.8664 100.8903,117.2994 96.7553,125.5644 C92.8043,133.4604 82.8737826,129.776544 82.1227826,122.586544 C81.1160984,112.948648 82.4443,108.588596 82.9633,102.1464 Z M203.027,97.5615 C205.226,94.6815 208.401,92.7155 212.205,93.8265 C224.09,97.2995 220.587,114.1725 216.413,122.3855 C214.145,126.8455 206.814,127.9765 203.501,124.0495 C198.101,117.6455 195.515,104.8565 202.38,98.5485 C202.566,98.2225 202.773,97.8935 203.027,97.5615 Z M96.5879,56.8305 L98.465271,56.501905 C104.27307,55.49746 111.4944,54.5323 115.6029,59.2015 C117.7819,61.6775 118.5319,66.2795 115.6029,68.6495 C110.4509,72.8195 104.7549,71.2035 98.5809,71.5565 C93.4929,71.8485 88.6029,72.6905 83.7019,74.0915 C72.9499,77.1645 64.1889,82.7745 55.0059,88.9345 C53.8009,89.7425 52.5709,88.2015 53.1459,87.0745 C58.4469,76.6915 68.7199,68.1625 79.0099,62.9635 C84.5019,60.1885 90.5119,57.8865 96.5879,56.8305 Z M192.192876,52.1793876 L193.629806,52.4734684 C209.267042,55.742077 229.583473,62.2713911 236.988459,77.6308459 C237.270623,79.8027272 236.97249,80.2682047 236.730054,80.5723213 L236.649336,80.6735209 C236.449568,80.9332186 236.290169,81.2912104 235.348782,81.5868073 C235.087547,81.5245653 234.823712,81.4586426 234.557082,81.3887687 C231.162766,80.499243 228.477205,79.2737961 225.877298,78.0022488 L223.058339,76.6134493 C219.787784,75.0098309 216.488352,73.4645766 212.991711,72.3238115 C205.52958,69.8898666 197.854137,68.1753043 190.059777,67.259767 C188.37041,67.0615005 186.743655,66.4913394 185.460262,65.5141761 C184.242065,64.5866523 183.311441,63.3024737 182.887128,61.5955207 C182.33722,59.3864508 182.495251,57.7140037 183.680513,55.7210991 C184.571756,54.2244705 185.846982,53.1871113 187.311265,52.5914244 C188.804038,51.9841473 190.503545,51.840982 192.192876,52.1793876 Z" id="Ink" fill="#000"/></g></g><g id="Beard" transform="translate(494.999934, 517.999659) scale(1 1)" fill="#000"><g id="Beard/Mustache and Goatee" stroke="none" stroke-width="1" fill="none" fill-rule="evenodd"><path d="M207.9143,31.3282 C196.7933,26.3192 176.8233,30.6902 169.5733,32.4282 C152.7183,36.4702 135.7623,45.2052 130.5223,58.8902 C124.6173,74.3132 136.3993,79.1682 138.1323,78.3752 C149.8003,79.1972 163.6953,71.8622 175.9223,69.9692 C185.8483,68.4192 196.3193,67.0662 205.6193,61.7922 C212.4093,65.5272 227.7453,67.5462 240.1223,70.8122 C250.6633,73.5922 255.2303,79.6212 265.0023,78.3392 C276.7143,76.8032 271.9203,52.1702 258.8673,42.1912 C244.5813,31.2702 220.4193,26.8412 207.9143,31.3282 Z M229.9341,136.6535 C220.204493,139.025645 219.5511,117.7005 218.4611,110.1665 C217.609542,104.280593 212.806884,89.1015762 200.6311,89.7565 C188.455316,90.4114238 183.878432,103.128761 184.4961,111.0385 C184.896642,116.16777 189.62335,142.149551 174.5361,145.4365 C164.9171,145.4025 153.7891,144.7535 143.6751,142.8885 C131.7711,140.1925 116.291914,130.753365 112.2031,149.3425 C110.731534,156.03274 163.1691,175.9095 186.4381,177.7075 C210.036475,182.489578 237.64678,175.136312 254.448053,157.083732 C258.270339,152.976774 269.035635,135.930081 269.802759,131.753365 C271.414428,122.978404 267.682963,117.331642 256.8251,120.4245 C249.1551,124.5205 236.191168,135.127984 229.9341,136.6535 Z" id="Ink" fill="#000"/></g></g><g id="Mask" transform="translate(400.000000, 480.000000) scale(1 1)" fill="#000"><g id="Mask/None" stroke="none" stroke-width="1" fill="none" fill-rule="evenodd" fill-opacity="0"/></g><g id="Accessories" transform="translate(419.000000, 421.000000) scale(1 1)" fill="#000"><g id="Accessories/None" stroke="none" stroke-width="1" fill="none" fill-rule="evenodd" fill-opacity="0"/></g></g></svg>