<svg xmlns="http://www.w3.org/2000/svg" overflow="visible" viewBox="146 58 1036 1303"><g fill="none" fill-rule="evenodd"><path fill="#d08b5b" d="m1143 848-43 5c-68 5-137 16-204 22-2-2-5-2-7 0-7-1-15-6-21 0-11-21-19-44-26-66-5-14-11-27-23-37-20-13-65-41-88-40-1-4-3-9-6-11 7-12-21-20-23-19 1-40-18-75-59-83-38-7-90-9-111 30h-26c-4-4-41 36-26 51-136 60-214 53-251 222-5 16-6 34-11 49-19 45-35 92-39 141-9 2-10 19 1 21l10 5c-2 40 8 131 14 131 12 39 67 50 107 36-7 13 0 21 0 28 140 5 294 2 435 9 18 0 37 5 55 2 11-3 11-20 0-22l48-10c-1-1 20-14 35-40 15-29 5-64 12-96 52-4 104-6 156-15 7 21 37-4 47-14 4-1 8-6 8-11 3-5 4-11 1-16 14-83 36-167 44-251l8-4c4-4 4-11-2-15-5-3-9-2-15-2Z"/><path fill="#FFCF77" d="m600 1159 11 7 90 29 55 7 45-7v77l9 72c-4 7-42 7-114 0-46-5-214-7-252-8H309v-27l125-62 112-63 54-25Zm-64-516 8 6-18 30 88 71v57l28 26 16-26 23-30 15-48-5-32 11-1v6c2-1 30 7 23 19 3 2 5 7 6 11 23-1 68 27 88 40 12 10 18 23 23 37l1 3 1 4 1 3c6 19 13 38 23 56 6-6 14-1 21 0 2-2 5-2 7 0l-85 17-55 195-49-39-26 4-69 25-80 20-182 51h-23l-135-33-13-4c4-48 20-96 39-140 5-15 6-33 11-49 37-169 115-162 251-222-15-15 22-55 26-51h26l4-6Z"/><path fill="#FFF" d="m1157 854-3 14-2 1c-1 8-1 17-3 25l-15 87-8 46-3 17-2 10a2493 2493 0 0 0-12 69v3c-3 12-9 23-21 26-9 3-20 3-29 4h-1l-169 19-61 7-18 2c-24 3-49 5-73 10l-3 1 14-55 15-63a2338 2338 0 0 1 42-152l2-6 2-5c2-7 5-15 12-19 7-5 18-5 27-7l6-1a1967 1967 0 0 1 298-32l5-1Zm-419 290-6 50-4-1c-20 0-40-6-59-14l-3-1-8-3-26-9-3-1h-2c-6-2-13-4-19-4h-1l2-1v-1h12c7-2 14-4 20-8l3-1 1-1h1l1-1c6-2 11-4 18-3 8 2 15 6 22 10l2 1h1l1 1c10 4 25 9 29-4 2-6 1-11-2-15 5 0 13 5 20 6Zm243-166v1c1 7-2 14-7 19s-12 7-14 13c-2 4 0 7 2 9l-1 1h-1l-1 1c-8 5-15 12-7 22 8 11 27 11 40 11 13-1 28-6 34-17 4-5 3-12-1-16-3-3-7-6-12-6 1-3 0-5-1-7-1-4-6-7-11-7 0-9-7-18-12-25l-1-1v-1c-3-3-8-1-7 3Zm7 10 5 18c-2 3 2 7 5 4 4-3 8 1 8 4 1 5-3 9-6 11l-1 1c-3 2-1 6 2 6 4-1 8-4 10-8 2 0 5 0 7 2 6 3 3 9-1 13h-1c-7 6-17 8-26 9-10 0-22 0-30-5-5-4-6-9-2-13l7-8c4 2 7 1 11-1-2 0-10-4-10-7-1-2 3-4 6-5v-1l6-4c5-4 8-10 10-16Z"/><path fill="#000" d="M535 640c4-10 19-6 17 5-1 7-5 14-8 20l-10 13a407 407 0 0 0 50 39c8 5 17 9 25 15 7 5 13 12 17 21 3 9 2 18-1 27v1c-3 9-8 20-1 28 3 5 8 8 12 11a94 94 0 0 1 26 37c3 9 6 20 1 28-1 3-4 2-5-1-2-5-1-11-3-16-1-6-3-11-6-16-5-10-13-18-21-26l-3-2c-7-5-13-11-14-20-2-10 2-19 5-29 2-6 2-12 0-18l-8 10-15 20a454 454 0 0 0-21 29l-6 7v3c-9 13-22-13-26-20l-19-40c-7-14-15-28-24-40l-17-23c-12 11-28 18-42 25l-49 19-5 2c-28 11-56 23-80 42-27 23-43 55-55 88a1473 1473 0 0 0-52 176l-13 53c10-1 22 3 31 4 39 5 78 14 115 28 4 2 6 6 5 10l8-2c-3-5-2-13-2-18l2-20 3-37 1-3 4-40 1-2-3-10-11-27c-1-1 1-1 2-1 6 6 11 13 15 20v-3c1-5 3-11 6-15h1c4 5 4 12 4 18l1 21-2 40-4 39v3l-3 19-1 1-2 11 100-27 72-19 5-6c6-7 15-9 23-5v2l-5 3 14-4 33-9c21-10 42-17 64-24l2-1c11-4 23-8 34-10 8-2 18 0 21 9 5 2 9 6 12 9l9 7v1c2 1 4 3 5 6 0 1-1 4-3 3-6 0-11-7-15-11l-9-10c-2 1-4 0-5-2-5-10-20-3-29 0l-12 3-17 6c-17 4-33 10-49 15 1 1 1 4-2 5-13 5-27 8-40 11l-26 7-3 8c-1 11 2 24 5 35v2c3 9 7 20 14 25 2 2 4 3 7 3l44-23c3-2 6 0 6 3l16-4c8-3 14-8 22-12 14-7 29 2 42 8l3 2c6 3 18 8 21 0 3-7-6-15-12-19s-14-6-21-8l-13-2-15-2c-2-1-3-5 0-5 7-2 16 0 24 2l4 1c7 1 15 4 22 8 5 2 10 6 14 12 3-3 7-3 11-2h2c3 1 6 2 10 1l1-7a1792 1792 0 0 1 52-198l1-5c3-9 6-19 11-28 4-8 12-13 21-15l31-7 7-1-5-10v-1l-8-19-2-5c-4-12-9-24-15-35-6-12-15-21-26-29-22-17-48-25-70-42-1-1 0-2 1-2 15 8 30 13 45 19l3 1c12 4 24 9 34 17 12 9 21 19 28 32 6 12 11 26 15 39l2 4 6 15c2 4 5 9 6 14l13-2c90-15 181-24 272-27 3 0 5 3 4 7l-25 155-11 67-6 35-5 27c-3 8-6 16-12 22-6 7-15 10-24 12-22 4-45 5-68 8l-120 13c1 16 2 32 1 48l-1 9-2 21c-1 9-5 17-11 23a136 136 0 0 1-40 30h-1c-7 3-20 7-29 6 1 6 3 12 1 19-1 2-4 4-7 1-4-4-5-11-6-17a497 497 0 0 1-2-129l-11 1a523 523 0 0 1-60 5c-23 0-45-8-66-17l-32-14c-10-4-21-7-30-12l-26 14-1 2c-1 3-5 5-8 6-3 2-6 2-10 2l-58 30-20 10-116 61-3 1c-13 7-28 14-43 19l1 11v1c0 5 1 11-3 14-2 2-5 2-7-1-2-4 0-12 1-17l1-6c-17 5-35 8-52 5s-30-14-41-27-19-29-23-47c-5-19-5-40-5-60 0-21 1-43 3-64l-9-1c-1 2-4 3-6 3-6 6 8 12 12 14 2 0 2 3 0 3h-1c-7-1-14-2-18-8-3-5-2-11 2-16a1630 1630 0 0 1 32-139l3-9c10-36 21-72 35-106a175 175 0 0 1 62-84c26-19 57-30 87-41l1-1 47-17 40-18-2-2h-4c-4-3-2-7 0-10l7-11 2-3 13-18 8-5c0-1 2-2 3-1 9-3 19-3 29-2m357 545-13 2-41 4-31 3v5a2321 2321 0 0 0 0 61l4 38 1 3v1l4 3c2 3 12 0 15-2 6-2 12-5 17-9l14-12 3-3 10-12c3-6 3-13 4-20l3-24m-357-122h-1l-143 38-71 17-3 1c-19 5-38 10-52 24l-1-1c15-16 37-23 58-29l12-4c-29-10-58-19-87-25l-23-4-16-5-4-1v14l1 55v4c1 20 3 41 10 61 6 16 15 31 28 42 6 6 13 11 21 13s16 2 24 2c38-3 72-24 105-41l163-84-4-4c-7-7-11-18-13-28-3-10-5-22-5-33m71 76h1c0 4-2 8-4 12v1a253 253 0 0 1-22 40c-10 18-21 34-35 50-3 3-8-1-6-5 9-18 20-35 32-52l17-25 7-11 2-2m572-349a1985 1985 0 0 0-303 33l-5 1c-9 2-20 2-28 7-9 5-11 16-14 25a1976 1976 0 0 0-44 157l-15 63a1626 1626 0 0 1-11 54c24-5 49-7 73-10h3l76-9 169-19c10-1 20-1 30-4 16-4 20-23 23-37v-1c9-44 15-89 23-133m-396 163c-6 0-15-6-20-6 3 4 4 9 2 15-4 15-23 7-32 2-7-3-15-8-23-10-9-2-16 2-24 6-6 4-13 6-20 8h-12v1l-2 1c8 0 17 3 26 5l25 9 8 3c20 8 41 15 62 15l4 1m-30-96c6-1 12 0 17 4 7 5 11 13 20 14 2 0 3 4 0 4-6 2-12-1-16-6l-3-3c-5-5-9-8-17-8l-24 3a888 888 0 0 1-28 2l11-2m34-35h1c9-1 18-1 26 4l2 1c7 5 15 10 20 18 1 1 0 2-2 2-9-2-15-9-23-14-9-6-18-5-27-4l-29 4c-8 1-17 4-26 4-1 0-2-1-1-2 9-4 20-6 30-8m314-98c-1-4 4-6 7-3v1c6 7 13 17 13 26 5 0 10 3 11 7 1 2 2 4 1 7 5 0 9 3 12 6 4 4 5 11 1 16-6 11-21 16-34 17s-32 0-40-11c-9-10 1-19 10-24-2-2-4-5-2-9 2-6 9-8 14-13s8-12 7-19m7 9c-1 6-5 11-10 16l-6 5c-2 1-7 3-6 5 0 3 8 7 10 7v1c-4 1-7 2-11 0l-7 8c-4 5-3 9 2 13 8 5 20 5 30 5 9-1 19-3 27-9 4-4 7-10 1-13-2-2-5-2-7-2-2 4-5 7-10 8-3 0-5-4-2-6 4-3 8-7 7-12 0-3-4-7-8-4-2 3-7-1-5-4M374 816l1-1a515 515 0 0 1 29 150c0 4-6 5-6 2l-12-76-7-39m55-18c0-1 2-2 3 0 12 30 16 64 8 96-1 5-8 3-7-2m155-120c0-1 1-2 2-1 5 8 8 19 18 24 5 2 11 1 15 5 3 2 6 6 3 10h-3l-5-5c-2-2-6-2-9-3l-11-7m87-160h1v2l2 8 2 8 4 16a213 213 0 0 0 6 18v1h1v2c1 4 2 7 0 10l-3 2-7 19-1 1c-4 9-8 18-14 25-6 8-15 13-21 22-3 4-5 9-6 13l-1 2c-1 3-2 7-5 8h-3c-6-7 0-19 4-26 5-8 13-14 20-21 9-7 14-17 19-27l9-17c-3-3-4-9-5-13v-1a145 145 0 0 1-6-39l1-1m15 19c-1-1 0-3 1-2 7 1 13 5 18 8h1c4 2 8 5 11 10 2 5 2 10 2 16l-2 20c-1 3-4 4-6 3-3 10-12 17-18 24-8 10-6 23-6 34 1 5-5 6-8 4l-7-6a918 918 0 0 1-6-5l-2-2-4-3c-2-1-7 4-8 6l-9 10-1-1 8-14 1-1c2-2 5-7 9-8s9 3 12 6l5 3c0-8 1-17 5-24l12-14 11-16 2-1 1-12v-2c1-4 2-10-1-14-2-4-6-7-10-9l-3-3m-206-55-5 4c-5 5-8 12-12 18l-5 10-3 5-2 2 2 3 24 27c9 11 18 24 25 37 7 12 12 26 19 39l11 18 1 1 8-13h1a423 423 0 0 1 31-38l2-2c3-4 8-10 13-12l-2-3c-5-7-12-12-19-16l-4-3a311 311 0 0 1-71-57l-2-3m16-22c-7 1-16 1-23 3l19 19 2-12"/><path fill="#d08b5b" d="M780 455c-7-84-28-158-126-161-44 0-89 10-130 27-99 50-130 231-43 304v2c18 12 38 22 58 30 53 23 116 33 170 8 83-35 85-134 71-210Z"/><path fill="#000" d="M943 416c4-3 6-7 7-12 2-4 2-8 0-12-1-5-4-8-3-13v-1c3-9 9-15 7-25l-4-7 1-6c3-9 3-19-1-27l-2-13-1-11-8-16v-5l-6-7-4-7-2-4c2-4 3-8 1-13-1-2-4-3-6-3h-6c-4-5-9-9-14-12l-15-13-4-3-4-12-3-6c-5-2-12-3-17-3l-2-2c3-6 2-13-1-20-1-2-5-3-7-1-4 3-10 4-15 4l-46-37v-1l-10-11-2-1a21 21 0 0 1 5-11c4-4-1-10-6-7h-1l-12 5-5-2-16-6-8-3c-1-6-7-10-13-10a12 12 0 0 1 2-4c3-4-1-11-6-7h-1l-3 3h-7l-16 7v1c-3-3-6-5-10-5-3-4-7-6-12-6 0-5-5-10-10-11-6-1-11 3-13 9l-2 5c-4-3-9-5-14-6-12-2-23 1-34 4l-4 1-4-6c-3-3-9 0-8 4l-3 6a38 38 0 0 1-16-2c-2 0-4-2-5-4-4-6-14-8-19-2-5-2-12 1-15 5-1 3-5 4-8 5l-10 2c-1-2-4-3-6-2l-4 4c-10 1-21 1-31-3-8-3-16 6-15 14l-7 4a30 30 0 0 0-14 15l-6 5-9-4c-3-2-7-1-7 2-1 6-3 10-5 13l-25 16-27 6c-3 1-4 5-3 7l5 8-13 13c-11 14-21 29-29 44l-10 4c-3 1-5 5-2 8l3 4c-4 8-10 15-18 20-2 1-4 3-5 6l-2 2c-3 1-4 5-1 7l5 5 1 4c-8 6-14 14-18 23h-3c-8 6-8 16-5 24-2 13-1 26 3 39-5 5-8 12-9 19-2 12-3 31-3 43-6 5-9 12-12 19l-5 3c-2 1-3 3-3 5 1 8 4 15 9 21l7 13 7 9v1l-2 3c-4 8-4 18 2 25-2 2-2 6 0 9 14 16 26 35 45 44l1 1c-4 9-5 14-2 24 2 6 5 14 11 15l5 1 14 13 1 7c0 4 3 7 7 6l10-8 2 2c3 3 6 7 6 10 1 5 4 10 9 11 2 2 6 3 8 0h1l4 10c2 7 11 12 17 8l3 2 5 2v1c1 3 6 5 8 3l3 1c4 1 8 0 13-1l9-3h1c2 5 8 10 13 11 6 3 13 2 19-1l5 9c2 2 4 1 5 0l8-7 5-2 18-7 8-6 10-8 5-2c7-3 10-10 10-17a123 123 0 0 0 10-54l-2-8-1-3v-9l4-7c3-3 5-10 2-14l-6-7c1-11 3-28-2-30l1-5c1-8 0-14-4-21l-2-4-1-6-2-11-1-13a1256 1256 0 0 0 0-17c2-11 6-15 14-23h3c6-1 11-3 17-3 6 1 11 4 17 0 2-1 6-3 6-6h1c5 0 10 2 14 1 6 0 11-3 14-7 5 1 9 2 13 1 4 0 7-1 10-3 3-1 2-2 5-1 5 3 11 6 17 4 4-1 7-3 9-5l2-2 13 5h11l8-4c3-1 10 3 13 5 6 2 13 3 19 0 3 0 7-4 8-4 3 3 11 21 13 28 9 26 11 109 7 130l-1 1c-5 19-10 37-19 54-8 16-19 31-35 40s-36 11-54 10a189 189 0 0 1-53-11l-8-3c-5-2-7-2-11 0s-5 8-3 11c3 6 9 7 15 8a473 473 0 0 0 53 11 122 122 0 0 0 70-14l-3 4c-2 2 0 7 3 9l3 1v1c3 6 9 9 14 11h22l20-1h5l23-1c7 0 7 1 14-2l7-5 4-2 10-9c5 1 12 0 13-7 2-10 16-15 22-22 5-6 9-15 9-22 13-7 20-23 21-37l2-20 1-2c4-5 6-11 9-16 3-3 7-4 12-4a9 9 0 0 0 2-19c3-6 2-14-1-21l1-2c5-6 8-14 8-23l9-4c4-1 5-7 1-10l-4-3c3-8 2-17-3-23l9-12c3-3 4-7 0-10l-6-5Z"/><path fill="#000" d="M722 586c-4 4-10 7-16 9-7 2-14 1-20-1-5-2-9-6-11-10v-4c0-2 1-3 3-4h1l2 1c3 2 7 5 11 5s6-1 9-3l2-1 6-2c4-1 8 0 11 3l3 3-1 4Zm-20-76c7 5 19 16 11 27-10 10-24-1-30-7-7-4-14 7-8 11 49 37 69-29 31-36-5-1-6 4-4 5Zm-85-70 2-1h2l2-1c10-2 21-5 31-4 4 1 7 3 8 7 0 3-2 7-6 8l-36 3-18 3-14 2h1v1h-5l-1-2 17-10c5-3 11-5 17-6Zm93-6c8-8 25-5 34-1 6 2 11 4 15 8v1h1c3 3 6 7 6 11l-1 2c-4 0-8-2-11-3l-3-1-10-3-14-1c-4 0-9 1-14-1s-7-8-3-12Zm-78 64c-2 2-5 4-8 3s-8-3-12-7c-3-3-5-7-5-11l-2-2h-4l-1 2c-1 6 1 12 5 17 5 7 12 12 16 13 7 2 15 0 20-4s7-10 9-15l1-1 1-4v-6c-1-1-3-3-6-3l-6 1-3 5c0 4-2 9-5 12Zm122-23h-4l-3 1-2 3c0 3-2 5-4 7l-6 2a12 12 0 0 1-9-6v-1l-3-4h-2c-3 3-4 5-3 7l2 6c3 5 9 8 13 9 6 1 11 0 16-3 4-3 7-8 8-14v-4l-3-3Z"/><path fill="#000" d="M703 549c-11-5-31 0-38 1-17 4-34 13-39 27-6 15 5 20 7 19 12 1 26-6 38-8 10-2 20-3 30-8 6 4 22 6 34 9 11 3 15 9 25 7 12-1 7-26-6-36a66 66 0 0 0-51-11Zm22 106c-10 2-10-19-12-27 0-6-5-21-17-20-13 0-17 13-17 21 1 5 6 31-9 34-10 0-21 0-31-2-12-3-28-12-32 6-1 7 51 27 74 29 24 4 52-3 68-21 4-4 15-21 16-25 1-9-2-15-13-12-8 5-21 15-27 17Z"/></g></svg>