<svg xmlns="http://www.w3.org/2000/svg" overflow="visible" viewBox="50 58 1190 1284"><g fill="none" fill-rule="evenodd"><path fill="#d08b5b" d="m1164 922 30-17c7-4 1-14-6-11l-11 6 8-8h-1c10-8-2-24-13-17-9 7-18 13-29 18-22 9-46 11-69 11-9-1-17 1-25 2 3-13 11-23 16-35 3-13-16-22-22-10l-5 10c-14 12-38 11-52 25-8 7-12 17-14 27-1 7 1 13-3 19-20 28-51 72-66 102-11-72-41-162-71-228-11-21-22-41-37-59 1-6-5-17-9-13-11-15-32-19-49-26a99 99 0 0 1-51-53c-12-44-42-50-83-48-39 0-68 17-76 57-18 30-58 25-88 33-21 5-42 13-62 22-22-21-102 67-109 90l13 3c3 1 2 7-2 6l-14-3v2h-2l4 2c2 2-1 6-4 5l-9-3c-1 7-24-1-28-3-16-2-33 0-48-7l-60-15c-5 2-10 10-6 15 2 2-1 6-4 5-10-6-17-15-24-25-3-3-8-3-13-4v3c-18 3-5 22 3 28-4 3-5 9-4 14l-1 6c4 8 11 14 16 20 6 7 12 14 19 19 27 22 61 33 95 38 12 2 30 5 37 15-1 12-5 24-8 36-4 16-4 32-4 48l-2 1c-1 7-2 13-6 19a475 475 0 0 0-2 189c5 19 13 37 23 54 3 5 8 6 12 5 15 8 34 10 50 9 54-16 35 21 112 10 131-17 264 16 396-3 3 25 45 18 60 7 44-33 66-137 88-189 15-42 41-116 74-143 10-8 22-12 35-16l135-34c8-2 7-15-1-14l-33 3Z"/><path fill="#000" d="m158 915-9-3a143 143 0 0 1-40-18c-13-8-25-19-34-32v-1c-5-8-15-25-4-31-7-5-13-15-13-23 1-11 14-11 21-6 5 3 8 7 12 11a192 192 0 0 0 15 17l1 1v-1c-3-8 0-17 8-20 4-2 9-1 13 1h1l17 6c25 7 51 8 76 12l30 5c3-15 12-31 22-43 47-59 125-79 196-91 7-2 12 7 16 5 7-4 13-9 19-15 11-13 20-28 30-42 4-7 16 0 11 7l-2 4c-9 15-19 30-32 41-7 7-15 11-24 14-6 3-16 5-23 2l-1-1 1 1c19 28 43 51 68 73 25 23 53 42 80 62l3 1c44-32 82-75 109-124-6 0-11-4-16-7-6-3-11-7-15-12-9-11-8-25-10-39h2c5 4 6 10 8 16 3 7 5 12 10 16 5 5 11 8 17 11 3 1 18 5 20 8 25-6 50 4 69 21 18 17 31 39 43 61a509 509 0 0 1 58 216l1 3 58-88c-5-12 0-24 8-33 10-10 23-15 35-21l2-1c6-2 12-5 17-9s8-10 13-13c8-5 22-4 22 7 0 6-2 13-5 19a72 72 0 0 1-12 18 160 160 0 0 0 58-1c12-2 25-7 37-13 10-6 19-13 30-14l3-1c2 0 4 3 3 4l-1 3c-4 9-10 17-18 23v1l8-3c15-7 28-17 44-21l3-1c5-1 7 5 4 8l-1 2a182 182 0 0 1-37 35h-1l5-3 29-10c4-2 7 2 7 5 1 11-10 18-18 23s-16 9-25 12c-16 6-33 9-51 11l-8 2c-33 4-68 10-92 36-14 14-23 32-31 50l-22 54-20 58-21 52-1 2c-15 37-34 71-59 102-4 5-11-2-7-7 27-35 45-75 60-116l20-55 4-11a2425 2425 0 0 1 40-98l1-2c8-17 19-33 33-46 26-23 60-29 93-33l10-1c14-2 28-4 41-8a112 112 0 0 0 31-14 229 229 0 0 1-35 7l-29 1-1-2 22-4 2-1 1-3c4-5 10-7 15-10a162 162 0 0 0 26-20l1-2-1 2-31 14c-8 3-17 5-26 6h-1c-10 0-19 0-28 2l-1-1c8-4 17-5 25-7l2-1 2-1c6-3 12-6 18-11l11-16c-12 3-22 12-33 17s-24 9-37 11l-1 1c-24 4-52 3-74-9 0-1 0-2 1-1l18 3c-1-1-2-3 0-5 5-6 9-13 12-21v-1c2-4 4-9 2-12-2-4-7-3-10-2-6 3-10 10-15 14l-19 11h-1c-11 5-23 9-32 18-5 5-9 11-10 18v9c1 2 2 4 1 6l-6 10-6 9-13 20a3798 3798 0 0 0-34 51l-4 6-2 4-4 6v1c0 2-2 3-3 4l-64 102a1538 1538 0 0 0-7 101l1 34 1 16 1 4c0 5 0 11-2 16a5584 5584 0 0 0-448 2l-52 1c-9 0-24-3-25-14h-5c-15 5-32-2-46-5h-1c-13-4-23-9-31-19-15-19-20-44-22-66-3-22-3-44 0-66-2-17 0-35 2-53a562 562 0 0 1 6-40l1-6h1l-5-2c-4-2-6-6-6-10l3-39 6-39v-3c2-9 4-19 8-28a309 309 0 0 1-61-17Zm736 134-17 4-29 10-7 72-1 5 13-23 41-68Zm-678 2-1 9-1 13a598 598 0 0 0-4 45l20-63-3-1h-2l-9-3Zm696-20v1a1529 1529 0 0 1 0-1ZM263 872c6 0 12 2 18 4 4 2 10 4 12 8l-2 2c-5 1-10-4-14-6a66 66 0 0 0-47 0l-1-1c11-6 22-8 34-7Zm-126 28-2-2c-6-5-10-11-14-17l-1-2c-3-5-6-13 1-17 4-3 8-2 13-1l1 1 5 2c8 3 14 8 21 13 8 5 15 8 24 9l1 1c8 1 17 2 22 9 2 2 0 5-2 4-16-5-32-6-47-15l-17-11-10-5h-2l-4-1v4c4 13 16 24 27 31l8 4c18 10 38 15 58 20a575 575 0 0 1 27 7l8 7s2 1 2 4l2 7-1 3c2 31-7 63-16 92l-1 3-1 2c-10 32-22 63-27 96-4 22-3 45-1 67v2c3 21 8 44 21 61 7 9 15 12 25 15h1c9 3 19 6 28 7s17-2 25-5c16-15 24-37 30-59 14-57 13-115 4-173-4-30-10-60-16-90l-9-45-1-8-3-15-1-20c-8-13-20-24-33-32-10-6-21-10-31-13-31-8-64-7-94-14-11-2-20-5-30-9h-1c-5-2-9-3-12 2-1 4 0 8 2 11 6 8 18 12 26 14l17 4 16 4c2 0 2 3 0 4-7 2-14 0-20-1a139 139 0 0 1-25-8h-1a341 341 0 0 0 2 3c-16-6-31-17-42-30l-1-1c-4-4-13-19-21-15-7 4 5 18 10 24l1 1c5 0 10 3 15 6 7 5 15 9 23 12 16 8 33 13 49 21-10-1-20-4-30-7h-1a275 275 0 0 1-37-16c-6-3-12-9-19-9h-1c-8 0-2 13 0 16l13 17a120 120 0 0 0 47 31Z"/><path fill="#d08b5b" d="M780 455c-7-84-28-158-126-161-44 0-89 10-130 27-99 50-130 231-43 304v2c18 12 38 22 58 30 53 23 116 33 170 8 83-35 85-134 71-210Z"/><path fill="#000" d="M943 416c4-3 6-7 7-12 2-4 2-8 0-12-1-5-4-8-3-13v-1c3-9 9-15 7-25l-4-7 1-6c3-9 3-19-1-27l-2-13-1-11-8-16v-5l-6-7-4-7-2-4c2-4 3-8 1-13-1-2-4-3-6-3h-6c-4-5-9-9-14-12l-15-13-4-3-4-12-3-6c-5-2-12-3-17-3l-2-2c3-6 2-13-1-20-1-2-5-3-7-1-4 3-10 4-15 4l-46-37v-1l-10-11-2-1a21 21 0 0 1 5-11c4-4-1-10-6-7h-1l-12 5-5-2-16-6-8-3c-1-6-7-10-13-10a12 12 0 0 1 2-4c3-4-1-11-6-7h-1l-3 3h-7l-16 7v1c-3-3-6-5-10-5-3-4-7-6-12-6 0-5-5-10-10-11-6-1-11 3-13 9l-2 5c-4-3-9-5-14-6-12-2-23 1-34 4l-4 1-4-6c-3-3-9 0-8 4l-3 6a38 38 0 0 1-16-2c-2 0-4-2-5-4-4-6-14-8-19-2-5-2-12 1-15 5-1 3-5 4-8 5l-10 2c-1-2-4-3-6-2l-4 4c-10 1-21 1-31-3-8-3-16 6-15 14l-7 4a30 30 0 0 0-14 15l-6 5-9-4c-3-2-7-1-7 2-1 6-3 10-5 13l-25 16-27 6c-3 1-4 5-3 7l5 8-13 13c-11 14-21 29-29 44l-10 4c-3 1-5 5-2 8l3 4c-4 8-10 15-18 20-2 1-4 3-5 6l-2 2c-3 1-4 5-1 7l5 5 1 4c-8 6-14 14-18 23h-3c-8 6-8 16-5 24-2 13-1 26 3 39-5 5-8 12-9 19-2 12-3 31-3 43-6 5-9 12-12 19l-5 3c-2 1-3 3-3 5 1 8 4 15 9 21l7 13 7 9v1l-2 3c-4 8-4 18 2 25-2 2-2 6 0 9 14 16 26 35 45 44l1 1c-4 9-5 14-2 24 2 6 5 14 11 15l5 1 14 13 1 7c0 4 3 7 7 6l10-8 2 2c3 3 6 7 6 10 1 5 4 10 9 11 2 2 6 3 8 0h1l4 10c2 7 11 12 17 8l3 2 5 2v1c1 3 6 5 8 3l3 1c4 1 8 0 13-1l9-3h1c2 5 8 10 13 11 6 3 13 2 19-1l5 9c2 2 4 1 5 0l8-7 5-2 18-7 8-6 10-8 5-2c7-3 10-10 10-17a123 123 0 0 0 10-54l-2-8-1-3v-9l4-7c3-3 5-10 2-14l-6-7c1-11 3-28-2-30l1-5c1-8 0-14-4-21l-2-4-1-6-2-11-1-13a1256 1256 0 0 0 0-17c2-11 6-15 14-23h3c6-1 11-3 17-3 6 1 11 4 17 0 2-1 6-3 6-6h1c5 0 10 2 14 1 6 0 11-3 14-7 5 1 9 2 13 1 4 0 7-1 10-3 3-1 2-2 5-1 5 3 11 6 17 4 4-1 7-3 9-5l2-2 13 5h11l8-4c3-1 10 3 13 5 6 2 13 3 19 0 3 0 7-4 8-4 3 3 11 21 13 28 9 26 11 109 7 130l-1 1c-5 19-10 37-19 54-8 16-19 31-35 40s-36 11-54 10a189 189 0 0 1-53-11l-8-3c-5-2-7-2-11 0s-5 8-3 11c3 6 9 7 15 8a473 473 0 0 0 53 11 122 122 0 0 0 70-14l-3 4c-2 2 0 7 3 9l3 1v1c3 6 9 9 14 11h22l20-1h5l23-1c7 0 7 1 14-2l7-5 4-2 10-9c5 1 12 0 13-7 2-10 16-15 22-22 5-6 9-15 9-22 13-7 20-23 21-37l2-20 1-2c4-5 6-11 9-16 3-3 7-4 12-4a9 9 0 0 0 2-19c3-6 2-14-1-21l1-2c5-6 8-14 8-23l9-4c4-1 5-7 1-10l-4-3c3-8 2-17-3-23l9-12c3-3 4-7 0-10l-6-5Z"/><path fill="#000" d="M687 617c7-1 16-5 23-2 3 2 5 7 2 10-3 5-7 6-12 6h-14c-8-1-15-3-21-8-2-1-1-3 1-4l21-2Zm-9-17c0-1 0-1 0 0Zm24-90c7 5 19 16 11 27-10 10-24-1-30-7-7-4-14 7-8 11 49 37 69-29 31-36-5-1-6 4-4 5Zm38-51 5 2 5 4c2 4 3 9 3 15s-1 11-3 15l-5 5-5 1-5-1-4-5c-2-4-3-9-3-15s1-11 3-15l4-4 5-2Zm-82 6h1c4-1 6-1 9 2 3 2 2 6 0 8-3 4-6 3-10 3h-14c0 10-6 17-13 22-4 3-10-1-11-5-2-3-2-8-1-12l1-4h1l-1-1-19-2h-2c-5-1-13-1-18-5 3-2 5-2 8-2h12l23-1h4l4-1h3l9-1h3l11-1Zm48-69c9-4 19-4 27-1l1 1c8 3 19 12 17 22-2 9-17 8-18-1-5-7-16-8-22-4-4 2-7 7-9 11s-2 8-5 12c-7-2-8-14-6-20 1-8 7-16 15-20Z"/><path fill="#000" d="M703 549c-11-5-31 0-38 1-17 4-34 13-39 27-6 15 5 20 7 19 12 1 26-6 38-8 10-2 20-3 30-8 6 4 22 6 34 9 11 3 15 9 25 7 12-1 7-26-6-36a66 66 0 0 0-51-11Zm22 106c-10 2-10-19-12-27 0-6-5-21-17-20-13 0-17 13-17 21 1 5 6 31-9 34-10 0-21 0-31-2-12-3-28-12-32 6-1 7 51 27 74 29 24 4 52-3 68-21 4-4 15-21 16-25 1-9-2-15-13-12-8 5-21 15-27 17Z"/></g></svg>